<svg width="182" height="96" viewBox="0 0 182 96" fill="none" xmlns="http://www.w3.org/2000/svg">
<path d="M32.6908 41.99C32.6215 41.4531 32.5119 40.9104 32.4946 40.3678C32.4311 39.5596 32.3041 39.0515 31.2423 39.0515C30.2844 39.0515 29.6553 37.9431 29.8573 36.9964C29.8996 36.7726 29.9855 36.5594 30.1102 36.3689C30.2349 36.1785 30.396 36.0144 30.5841 35.8863C30.7722 35.7581 30.9838 35.6684 31.2066 35.6221C31.4295 35.5758 31.6593 35.5739 31.8829 35.6166H31.9521C32.1752 35.653 32.3886 35.7344 32.5793 35.8559C32.77 35.9773 32.934 36.1363 33.0613 36.3231C33.1887 36.5099 33.2768 36.7207 33.3202 36.9426C33.3637 37.1645 33.3616 37.393 33.314 37.6141C33.0832 38.3068 33.4121 38.5435 33.8161 38.9476C34.8087 39.9348 35.6454 40.0098 37.0304 39.3748C41.1969 37.4524 45.2423 38.0124 48.722 41.0259C52.2018 44.0394 53.3387 48.0343 52.0345 52.4564C50.7476 56.7746 47.6833 59.384 43.2282 60.1171C40.3925 60.5806 37.4888 59.8992 35.1548 58.2225C32.8209 56.5459 31.2477 54.011 30.7806 51.1748C30.7047 50.7204 30.6604 50.2613 30.6479 49.8008C30.6662 49.5982 30.6203 49.395 30.5167 49.2199C30.4131 49.0448 30.2572 48.9067 30.0708 48.8252C29.6753 48.6274 29.2901 48.4097 28.9167 48.1728C28.3396 47.8207 27.8779 47.4628 27.3066 48.3172C26.8565 48.9926 25.7716 48.8945 25.131 48.3633C24.8119 48.0879 24.6097 47.701 24.5657 47.2816C24.5218 46.8622 24.6393 46.4418 24.8944 46.1061C25.408 45.4422 26.516 45.1016 27.0181 45.702C28.1723 47.1164 29.3264 46.008 30.6191 45.9214C29.0667 44.1895 27.6298 42.5731 26.216 40.9566C25.9101 40.6564 25.7658 40.7834 25.4657 40.9393C25.0948 41.2018 24.6453 41.3295 24.1918 41.3011C23.7383 41.2728 23.3081 41.0901 22.9728 40.7834C22.6699 40.5018 22.4608 40.134 22.3736 39.7296C22.2864 39.3253 22.3253 38.9039 22.4851 38.5225C22.645 38.141 22.918 37.8177 23.2673 37.5964C23.6167 37.3751 24.0255 37.2664 24.4385 37.285C25.4254 37.3196 26.0486 37.8969 26.2852 39.0515C26.3046 39.2103 26.3693 39.3601 26.4717 39.483C26.574 39.6059 26.7097 39.6966 26.8623 39.7443C28.7609 40.5294 30.6479 41.3376 32.5407 42.1401H32.7485L32.6908 41.99ZM43.9323 56.1857C44.2234 56.1936 44.5104 56.115 44.7568 55.9596C45.0032 55.8043 45.198 55.5793 45.3165 55.3132C45.435 55.047 45.4719 54.7517 45.4225 54.4645C45.3731 54.1774 45.2397 53.9114 45.039 53.7001C44.8384 53.4889 44.5797 53.342 44.2955 53.278C44.0114 53.214 43.7146 53.2358 43.4429 53.3406C43.1711 53.4454 42.9366 53.6285 42.7689 53.8668C42.6013 54.105 42.5081 54.3877 42.5011 54.679C42.498 55.0655 42.6469 55.4377 42.9158 55.7153C43.1846 55.9929 43.5518 56.1536 43.9381 56.1626L43.9323 56.1857ZM40.4121 54.7425C40.4278 54.3616 40.2921 53.9899 40.0348 53.7087C39.7775 53.4274 39.4193 53.2595 39.0387 53.2415H38.9867C38.7943 53.2314 38.6018 53.2597 38.4204 53.3247C38.239 53.3897 38.0723 53.4901 37.93 53.6201C37.7877 53.75 37.6727 53.907 37.5915 54.0819C37.5104 54.2567 37.4648 54.446 37.4575 54.6386V54.754C37.4529 54.9392 37.485 55.1235 37.5519 55.2962C37.6189 55.4689 37.7194 55.6266 37.8476 55.7603C37.9759 55.8939 38.1293 56.0008 38.299 56.0749C38.4688 56.1489 38.6515 56.1885 38.8367 56.1915H38.9348C39.1155 56.2041 39.297 56.1809 39.4688 56.1233C39.6406 56.0656 39.7993 55.9747 39.936 55.8557C40.0727 55.7367 40.1845 55.5919 40.2652 55.4296C40.3459 55.2673 40.3939 55.0907 40.4063 54.9099C40.4033 54.8599 40.4033 54.8098 40.4063 54.7598L40.4121 54.7425Z" fill="#808080"/>
<path d="M117.347 51.7512C117.347 53.2291 117.347 54.707 117.347 56.1849C117.347 56.9065 117.058 57.224 116.32 57.2529C114.011 57.351 114.011 57.3337 114.011 55.0534C114.011 52.773 114.011 50.3599 114.011 48.0161C114.011 46.5094 113.434 45.9321 111.899 45.909C108.777 45.8628 108.552 46.0822 108.558 49.1996C108.558 51.4164 108.558 53.6332 108.558 55.85C108.558 57.0508 108.367 57.2356 107.144 57.2471C106.855 57.2471 106.567 57.2471 106.278 57.2471C105.494 57.2471 105.193 56.9007 105.205 56.1329C105.205 53.4312 105.205 50.7352 105.205 48.0508C105.205 46.5498 104.628 45.9552 103.104 45.9321C100.64 45.8917 99.642 45.7531 99.7747 49.1361C99.867 51.4453 99.7747 53.7545 99.8036 56.0636C99.8036 56.9354 99.4573 57.2587 98.5975 57.2644C96.4219 57.2644 96.4219 57.2991 96.4219 55.1053C96.4219 52.698 96.4219 50.2849 96.4219 47.8776C96.4219 45.1931 98.0608 43.3631 100.75 43.1495C102.758 42.9936 104.818 42.7454 106.642 43.9866C106.948 44.1944 107.104 43.9519 107.323 43.8423C109.564 42.7977 112.125 42.6754 114.456 43.5016C116.418 44.0789 117.341 45.6723 117.341 47.7101C117.349 49.0687 117.351 50.4157 117.347 51.7512Z" fill="#808080"/>
<path d="M159.797 51.8462C159.797 53.2952 159.797 54.7327 159.797 56.1875C159.797 56.9553 159.456 57.2901 158.677 57.2843C156.525 57.2843 154.36 57.3305 152.208 57.2843C148.971 57.1631 146.847 54.2131 147.909 51.3382C148.205 50.5109 148.742 49.7912 149.451 49.2716C150.159 48.7521 151.007 48.4565 151.885 48.4228C153.134 48.3189 154.39 48.3016 155.642 48.3708C156.403 48.3997 156.519 48.0476 156.403 47.4414C156.361 47.0336 156.164 46.6577 155.852 46.3913C155.541 46.1249 155.139 45.9883 154.73 46.0097C153.674 46.0097 152.612 46.079 151.556 46.1713C150.979 46.2175 150.511 46.2695 150.338 45.594C150.084 44.578 150.338 43.6197 150.956 43.4984C152.952 43.1174 154.995 42.8172 156.952 43.562C157.804 43.8629 158.538 44.4273 159.049 45.1735C159.559 45.9197 159.819 46.809 159.791 47.7127C159.791 48.4228 159.791 49.1271 159.791 49.8372L159.797 51.8462ZM154.268 54.369C156.45 54.4036 156.45 54.4036 156.444 52.2041V51.6268C156.444 51.3728 156.369 51.1707 156.074 51.1765C154.799 51.2054 153.506 51.0149 152.243 51.2804C152.056 51.3072 151.877 51.3707 151.716 51.4673C151.554 51.5639 151.414 51.6917 151.302 51.8432C151.19 51.9946 151.11 52.1668 151.065 52.3497C151.021 52.5326 151.013 52.7225 151.042 52.9084C151.051 53.2847 151.201 53.644 151.463 53.9139C151.726 54.1838 152.08 54.3443 152.456 54.3632C153.059 54.4027 153.665 54.4046 154.268 54.369Z" fill="#808080"/>
<path d="M70.2021 51.7522C70.2021 53.2301 70.2021 54.7079 70.2021 56.1858C70.2021 56.8959 69.8962 57.2596 69.1576 57.2538C66.9358 57.2538 64.7141 57.3116 62.4981 57.2134C59.3645 57.0749 57.3044 54.1768 58.2854 51.3596C58.5705 50.5112 59.1068 49.7697 59.8232 49.2335C60.5396 48.6973 61.4021 48.3918 62.2961 48.3577C63.5459 48.2586 64.801 48.2432 66.0529 48.3115C66.7454 48.3115 66.8723 48.0286 66.8089 47.4455C66.7879 47.2241 66.7234 47.0089 66.6192 46.8124C66.515 46.6159 66.3731 46.4418 66.2016 46.3003C66.03 46.1587 65.8323 46.0524 65.6196 45.9874C65.4069 45.9224 65.1835 45.9 64.9622 45.9215H64.9103C63.9177 45.9215 62.9193 46.0138 61.9268 46.112C61.3497 46.1697 60.8996 46.1755 60.738 45.4885C60.5014 44.4782 60.738 43.5372 61.3843 43.4102C63.2829 43.0465 65.2161 42.781 67.1089 43.4102C68.0299 43.6797 68.8345 44.2493 69.3949 45.0285C69.9553 45.8077 70.2394 46.7519 70.2021 47.7111C70.2021 49.0735 70.2021 50.4244 70.2021 51.7522ZM64.6852 54.35C66.8262 54.3847 66.8262 54.3847 66.8204 52.2313C66.8204 52.0408 66.8204 51.8445 66.8204 51.654C66.8204 51.3538 66.7396 51.146 66.3934 51.1576C65.1733 51.0999 63.9507 51.1288 62.7347 51.2442C62.362 51.2914 62.0204 51.4764 61.777 51.7626C61.5336 52.0488 61.4059 52.4157 61.4189 52.7913C61.4244 53.182 61.5743 53.5568 61.8396 53.8435C62.1049 54.1303 62.4669 54.3086 62.8559 54.3442C63.4329 54.3442 64.0735 54.3789 64.6852 54.3442V54.35Z" fill="#808080"/>
<path d="M120.657 50.1949V47.7876C120.629 46.6681 121.018 45.5781 121.748 44.7297C122.479 43.8813 123.499 43.3354 124.61 43.1981C126.045 42.9816 127.504 42.9816 128.938 43.1981C130.024 43.3429 131.018 43.8839 131.73 44.7171C132.441 45.5503 132.82 46.617 132.793 47.7125C132.822 49.3809 132.822 51.0551 132.793 52.7235C132.808 53.8788 132.377 54.9952 131.589 55.8397C130.8 56.6842 129.716 57.1914 128.563 57.2553C127.376 57.3447 126.184 57.3447 124.997 57.2553C124.405 57.2337 123.822 57.0956 123.284 56.8489C122.745 56.6022 122.26 56.2518 121.856 55.8176C121.453 55.3833 121.138 54.8739 120.932 54.3182C120.725 53.7626 120.63 53.1716 120.651 52.5792V52.5272C120.651 51.7536 120.657 50.9685 120.657 50.1949ZM129.417 50.1949C129.417 49.329 129.417 48.463 129.417 47.5971C129.427 47.3992 129.397 47.2014 129.33 47.015C129.262 46.8286 129.159 46.6573 129.026 46.5109C128.892 46.3645 128.731 46.2459 128.552 46.1619C128.372 46.0778 128.178 46.03 127.98 46.0211H127.842C127.138 46.0211 126.428 46.0211 125.724 46.0211C125.522 45.9995 125.318 46.0179 125.124 46.0753C124.929 46.1327 124.748 46.228 124.591 46.3557C124.433 46.4833 124.302 46.6408 124.205 46.8192C124.109 46.9975 124.048 47.1932 124.027 47.395C124.019 47.4911 124.019 47.5877 124.027 47.6837C123.987 49.3521 123.987 51.0147 124.027 52.6831C124.015 52.8998 124.046 53.1169 124.118 53.3217C124.19 53.5265 124.302 53.7149 124.447 53.8761C124.593 54.0372 124.769 54.1678 124.965 54.2603C125.162 54.3528 125.374 54.4054 125.591 54.415C125.668 54.4207 125.745 54.4207 125.822 54.415C126.463 54.415 127.109 54.415 127.75 54.415C128.168 54.4402 128.58 54.2981 128.893 54.0199C129.207 53.7416 129.398 53.3501 129.423 52.9313C129.429 52.8602 129.429 52.7888 129.423 52.7177C129.435 51.8749 129.417 51.0378 129.417 50.2065V50.1949Z" fill="#808080"/>
<path d="M85.9019 51.753C85.9019 53.202 85.9019 54.6395 85.9019 56.0943C85.9019 56.8967 85.6249 57.2489 84.7824 57.2489C82.5375 57.295 82.5375 57.3181 82.5375 55.0667C82.5375 52.6882 82.5375 50.3097 82.5375 47.9313C82.5375 46.54 81.9604 45.9454 80.5408 45.9223C79.9637 45.9223 79.4444 45.9223 78.9019 45.9223C78.4643 45.8921 78.0326 46.0369 77.7015 46.3248C77.3705 46.6127 77.1671 47.0202 77.1361 47.4579C77.1274 47.5616 77.1274 47.6659 77.1361 47.7696C77.1361 50.4367 77.1361 53.1039 77.1361 55.7767C77.1361 57.0872 76.9976 57.2315 75.7222 57.2315C75.399 57.2315 75.0817 57.2315 74.7585 57.2315C74.0718 57.2315 73.7601 56.8909 73.7601 56.2213C73.7601 53.2309 73.7197 50.2405 73.7601 47.2501C73.8212 46.2091 74.2518 45.2242 74.9745 44.4727C75.6971 43.7213 76.6642 43.2526 77.7016 43.1512C79.1065 42.9521 80.5324 42.9521 81.9374 43.1512C83.0347 43.2828 84.044 43.8176 84.7691 44.6519C85.4943 45.4862 85.8837 46.5603 85.8615 47.6657C85.9077 49.057 85.9019 50.4079 85.9019 51.753Z" fill="#808080"/>
<path d="M135.384 50.1692C135.384 49.3668 135.384 48.5643 135.384 47.7561C135.358 46.6491 135.742 45.5714 136.462 44.7305C137.182 43.8896 138.188 43.3449 139.285 43.2012C141.01 42.9516 142.768 43.0696 144.444 43.5476C145.31 43.7959 145.645 44.6445 145.322 45.7529C145.085 46.5669 144.456 46.3591 143.89 46.2494C142.747 46.0521 141.587 45.9786 140.428 46.03C140.028 45.9914 139.629 46.1131 139.318 46.3685C139.008 46.624 138.811 46.9922 138.772 47.3924C138.766 47.4731 138.766 47.5542 138.772 47.6349C138.729 49.3398 138.729 51.0429 138.772 52.744C138.765 52.9525 138.799 53.1603 138.872 53.3556C138.946 53.5509 139.057 53.7297 139.2 53.882C139.342 54.0343 139.513 54.1569 139.703 54.243C139.893 54.329 140.098 54.3768 140.307 54.3835H140.532C141.693 54.411 142.853 54.3162 143.994 54.1006C144.571 53.9736 145.114 53.9332 145.327 54.6375C145.604 55.5496 145.327 56.5484 144.698 56.7331C142.667 57.3104 140.59 57.599 138.529 56.9582C137.59 56.6901 136.77 56.1126 136.2 55.3194C135.63 54.5262 135.345 53.5638 135.39 52.5881C135.378 51.7799 135.384 50.9774 135.384 50.1692Z" fill="#808080"/>
<path d="M89.4925 50.142C89.4925 48.185 89.4925 46.2222 89.4925 44.2651C89.4925 43.4396 89.8214 43.0701 90.6466 43.1105H91.1314C92.8222 43.1105 92.8626 43.1683 92.8626 44.8136V55.7938C92.8626 57.2312 92.7934 57.2947 91.316 57.2947C91.1256 57.2947 90.9294 57.2947 90.739 57.2947C89.8156 57.3756 89.4809 56.9368 89.4925 56.042C89.4925 54.0734 89.4925 52.1164 89.4925 50.1593V50.142Z" fill="#808080"/>
<path d="M91.1042 40.8109H90.6252C89.0613 40.8109 88.4842 39.9738 88.9921 38.4613C89.0443 38.2868 89.1546 38.1355 89.3048 38.0326C89.4549 37.9296 89.6358 37.8813 89.8173 37.8955C90.7118 37.8955 91.612 37.8955 92.5065 37.8955C93.1124 37.8955 93.4009 38.2419 93.424 38.8769C93.4817 40.7243 93.4009 40.8109 91.1042 40.8109Z" fill="#808080"/>
<path d="M32.6856 41.9921L32.755 42.125H32.5469C32.5584 42.0961 32.6105 42.0441 32.6856 41.9921Z" fill="#808080"/>
</svg>
