<svg width="182" height="96" viewBox="0 0 182 96" fill="none" xmlns="http://www.w3.org/2000/svg">
<path d="M61.0353 43.3436H62.4578L66.4382 52.5333H64.5589L63.6976 50.4305H59.691L58.8558 52.5333H57.0156L61.0353 43.3436ZM63.1234 49.0287L61.7008 45.2906L60.2522 49.0287H63.1234Z" fill="#808080"/>
<path d="M68.2031 43.3436H70.0955L72.6142 50.2877L75.2112 43.3436H76.9864L73.2537 52.5333H71.8313L68.2031 43.3436Z" fill="#808080"/>
<path d="M82.8554 43.3436H84.2782L88.2583 52.5333H86.3791L85.5179 50.4305H81.5112L80.6758 52.5333H78.8359L82.8554 43.3436ZM84.9436 49.0287L83.5211 45.2906L82.0725 49.0287H84.9436Z" fill="#808080"/>
<path d="M91.9062 43.3436H93.5507V51.0536H97.4788V52.5333H91.9062V43.3436Z" fill="#808080"/>
<path d="M104.269 43.3436H105.692L109.672 52.5333H107.793L106.932 50.4305H102.925L102.09 52.5333H100.25L104.269 43.3436ZM106.358 49.0287L104.935 45.2906L103.487 49.0287H106.358Z" fill="#808080"/>
<path d="M113.312 43.3436H115.492L119.968 50.1709H119.994V43.3436H121.639V52.5333H119.551L114.983 45.4853H114.957V52.5333H113.312V43.3436Z" fill="#808080"/>
<path d="M132.643 45.4994C132.304 45.136 131.973 44.8937 131.651 44.7725C131.338 44.6514 131.02 44.5908 130.699 44.5908C130.22 44.5908 129.785 44.6773 129.394 44.8504C129.011 45.0148 128.68 45.2485 128.402 45.5513C128.123 45.8455 127.906 46.1917 127.749 46.5897C127.601 46.9878 127.527 47.4161 127.527 47.8747C127.527 48.3679 127.601 48.8222 127.749 49.2375C127.906 49.6529 128.123 50.012 128.402 50.3149C128.68 50.6177 129.011 50.8557 129.394 51.0288C129.785 51.2018 130.22 51.2884 130.699 51.2884C131.073 51.2884 131.434 51.2018 131.782 51.0288C132.138 50.847 132.469 50.5615 132.774 50.1721L134.131 51.1326C133.713 51.7037 133.204 52.1191 132.604 52.3786C132.004 52.6382 131.364 52.7681 130.686 52.7681C129.972 52.7681 129.315 52.6556 128.715 52.4306C128.123 52.1969 127.61 51.8725 127.175 51.4571C126.749 51.0331 126.413 50.5269 126.17 49.9385C125.926 49.35 125.805 48.6967 125.805 47.9785C125.805 47.243 125.926 46.5767 126.17 45.9797C126.413 45.3739 126.749 44.8591 127.175 44.4351C127.61 44.0111 128.123 43.6866 128.715 43.4616C129.315 43.228 129.972 43.1111 130.686 43.1111C131.312 43.1111 131.891 43.2236 132.421 43.4486C132.961 43.6649 133.461 44.037 133.922 44.5649L132.643 45.4994Z" fill="#808080"/>
<path d="M137.852 43.3436H139.496V47.0039H143.815V43.3436H145.46V52.5333H143.815V48.4836H139.496V52.5333H137.852V43.3436Z" fill="#808080"/>
<path d="M150.133 43.3436H156.254V44.8233H151.777V47.0818H156.019V48.5615H151.777V51.0536H156.489V52.5333H150.133V43.3436Z" fill="#808080"/>
<path fill-rule="evenodd" clip-rule="evenodd" d="M52.1474 47.9399C52.1474 55.2197 46.2136 61.1212 38.894 61.1212C31.5744 61.1212 25.6406 55.2197 25.6406 47.9399C25.6406 40.6601 31.5744 34.7586 38.894 34.7586C46.2136 34.7586 52.1474 40.6601 52.1474 47.9399ZM35.1384 53.1851H32.5663C32.0258 53.1851 31.7588 53.1851 31.596 53.0815C31.4202 52.9682 31.3128 52.7804 31.2998 52.5731C31.29 52.3821 31.4235 52.1489 31.6905 51.6826L38.0413 40.5493C38.3115 40.0765 38.4483 39.8401 38.6209 39.7527C38.8064 39.6588 39.0278 39.6588 39.2134 39.7527C39.386 39.8401 39.5227 40.0765 39.793 40.5493L41.0986 42.8159L41.1052 42.8275C41.3971 43.3347 41.5451 43.5919 41.6097 43.8619C41.6813 44.1565 41.6813 44.4674 41.6097 44.7621C41.5446 45.0341 41.3981 45.2931 41.1018 45.808L37.7659 51.6729L37.7572 51.688C37.4634 52.1993 37.3145 52.4585 37.1082 52.6541C36.8835 52.8678 36.6133 53.0232 36.317 53.1107C36.0468 53.1851 35.744 53.1851 35.1384 53.1851ZM41.6338 53.1854H45.3194C45.8632 53.1854 46.1366 53.1854 46.2995 53.0786C46.4752 52.9652 46.5859 52.7742 46.5957 52.5669C46.6052 52.3822 46.4746 52.1581 46.2186 51.7189C46.2099 51.7039 46.201 51.6887 46.192 51.6732L44.3459 48.5322L44.3249 48.4969C44.0655 48.0606 43.9345 47.8402 43.7664 47.7551C43.5808 47.6612 43.3627 47.6612 43.1771 47.7551C43.0078 47.8425 42.871 48.0724 42.6008 48.5355L40.7613 51.6764L40.755 51.6873C40.4857 52.1496 40.3511 52.3806 40.3608 52.5702C40.3738 52.7774 40.4812 52.9685 40.6571 53.0818C40.8166 53.1854 41.0901 53.1854 41.6338 53.1854Z" fill="#808080"/>
</svg>
