<svg width="182" height="96" viewBox="0 0 182 96" fill="none" xmlns="http://www.w3.org/2000/svg">
<path d="M55.8649 41.8641L52.6832 45.0114L46.9084 39.0969L41.2138 44.8348L37.9251 41.474L46.7283 32.6427L55.8649 41.8641Z" fill="#808080"/>
<path d="M37.9007 53.5312L41.0411 50.3421L46.7162 56.291C49.01 54.3285 50.7761 52.2139 52.761 50.4034L55.8844 53.6367C52.9459 56.5804 49.8955 59.6616 46.9278 62.6471L37.9007 53.5312Z" fill="#808080"/>
<path d="M77.0035 41.2655L77.9084 41.8984C78.3488 42.1913 78.7027 42.5985 78.9329 43.0771C79.1631 43.5557 79.2611 44.0881 79.2165 44.6182C79.1719 45.1482 78.9865 45.6564 78.6796 46.0891C78.3728 46.5218 77.9559 46.8631 77.473 47.077C76.894 47.3643 76.2654 47.5359 75.6218 47.5823C73.5663 47.6461 71.5036 47.6069 69.3581 47.6069V35.692C71.7225 35.6773 74.1064 35.3829 76.427 36.0281C78.6163 36.634 79.239 39.092 77.7308 40.8068C77.5776 40.9809 77.3197 41.0619 77.0035 41.2655ZM71.7249 45.4358C73.1115 45.3426 74.4226 45.637 75.7337 45.242C76.0144 45.1831 76.2647 45.0242 76.4389 44.7945C76.6131 44.5648 76.6995 44.2796 76.6824 43.9909C76.6902 43.8362 76.6675 43.6814 76.6154 43.5356C76.5633 43.3898 76.4829 43.2559 76.379 43.1417C76.2751 43.0275 76.1497 42.9354 76.0101 42.8706C75.8705 42.8058 75.7195 42.7697 75.5659 42.7644C74.2961 42.6785 73.0142 42.7398 71.7249 42.7398V45.4358ZM71.6933 40.5001C72.8147 40.5639 73.9288 40.6669 75.0283 40.4462C75.3154 40.4076 75.5783 40.2637 75.7668 40.0419C75.9553 39.8202 76.0561 39.5361 76.0499 39.2441C76.0682 38.9743 75.9877 38.7071 75.8236 38.4932C75.6595 38.2793 75.4232 38.1336 75.1596 38.0838C74.0214 37.8094 72.8363 37.7985 71.6933 38.0519V40.5001Z" fill="#808080"/>
<path d="M115.342 35.7092H117.485L122.871 42.7865L123.175 42.6859V35.7337H125.561V47.5087H123.467L118.018 40.3652L117.695 40.4535C117.566 41.5893 117.653 42.7423 117.639 43.8879C117.624 45.0335 117.639 46.2454 117.639 47.5161H115.347L115.342 35.7092Z" fill="#808080"/>
<path d="M90.7448 40.3652V47.5038H88.3317V35.7288H90.5599C92.4232 38.0249 94.0847 40.5148 96.0088 42.7914L96.252 42.6736V35.7509H98.5678V47.5087H96.5415L91.0513 40.2843L90.7448 40.3652Z" fill="#808080"/>
<path d="M141.341 47.5014V35.7263H150.147V38.0053H143.99V40.5148H149.42V42.6662H143.99V45.3647H150.137V47.494L141.341 47.5014Z" fill="#808080"/>
<path d="M113.139 47.5676H110.597L109.456 44.9452H104.367L103.248 47.5431H100.779C102.482 43.5248 104.124 39.6096 105.778 35.6822H108.125L113.139 47.5676ZM105.318 42.6098C106.493 42.7644 107.446 42.8551 108.505 42.5411L107.06 39.0381H106.77L105.318 42.6098Z" fill="#808080"/>
<path d="M138.884 37.3405C138.813 37.4981 138.726 37.6484 138.627 37.7894C138.252 38.2163 137.863 38.6284 137.449 39.0773C136.342 38.3414 135.248 37.5833 133.864 37.8507C133.019 38.003 132.261 38.4642 131.733 39.146C131.171 39.8954 130.877 40.8139 130.898 41.7529C130.919 42.6918 131.253 43.5963 131.847 44.3197C133.185 45.8725 134.912 45.8455 137.568 44.2166C137.812 44.4423 138.091 44.6754 138.347 44.9256C138.602 45.1758 138.787 45.3917 138.996 45.6174C137.459 48.0558 133.078 48.5832 130.551 46.5005C127.843 44.2731 127.561 40.1223 129.865 37.446C132.042 34.9192 137.206 35.0468 138.884 37.3405Z" fill="#808080"/>
<path d="M69.3386 55.8641V54.8485H115.109C115.136 55.1552 115.162 55.4594 115.199 55.8641H69.3386Z" fill="#808080"/>
<path d="M136.282 51.3062C137.741 51.3062 139.101 51.2939 140.47 51.3062C141.385 51.3062 142.127 51.6545 142.511 52.5573C142.896 53.4601 142.628 54.2132 141.957 54.8682C141.867 54.9707 141.785 55.0806 141.713 55.1969C141.823 55.3101 141.942 55.4135 142.069 55.506C142.9 55.9794 143.285 56.7129 143.117 57.6402C142.949 58.5675 142.295 59.2617 141.319 59.3574C139.682 59.5316 138.033 59.6027 136.277 59.7205L136.282 51.3062ZM137.641 58.3761C138.743 58.3271 139.78 58.3271 140.804 58.2167C141.066 58.1833 141.308 58.0544 141.483 57.8541C141.659 57.6537 141.755 57.3958 141.755 57.1287C141.755 56.8616 141.659 56.6037 141.483 56.4034C141.308 56.2031 141.066 56.0741 140.804 56.0408C139.745 55.9475 138.675 56.0138 137.629 56.0138L137.641 58.3761ZM137.641 54.7381C138.487 54.7762 139.334 54.768 140.178 54.7136C140.753 54.6474 141.246 54.2917 141.276 53.6121C141.305 52.9326 140.889 52.5352 140.256 52.4935C139.4 52.4371 138.534 52.4788 137.641 52.4788V54.7381Z" fill="#808080"/>
<path d="M84.5248 35.7386V47.5382H82.2504V35.7386H84.5248Z" fill="#808080"/>
<path d="M134.53 59.5806H133.136L132.227 57.5102H128.237L127.264 59.5904H125.948C127.165 56.7522 128.364 53.9948 129.582 51.1688L130.857 51.1001C132.071 53.9016 133.273 56.6786 134.53 59.5806ZM131.694 56.2051L130.203 52.7707C129.658 54.0807 129.23 55.1012 128.77 56.2051H131.694Z" fill="#808080"/>
<path d="M144.681 58.3688L145.301 57.5298C146.031 57.8438 146.685 58.2437 147.406 58.4154C148.126 58.5871 148.865 58.5945 149.5 57.8168L149.544 56.8356C149.328 56.6409 149.087 56.476 148.829 56.3449C148.099 56.0996 147.369 55.923 146.639 55.6752C145.401 55.2484 144.871 54.4904 144.937 53.3276C144.97 52.7934 145.184 52.2869 145.544 51.8934C145.903 51.4998 146.386 51.2431 146.912 51.1664C148.22 50.9579 149.476 51.1467 150.631 52.1084L150.016 53.0209C148.819 52.572 147.661 51.657 146.384 52.859V54.0513C146.999 54.2966 147.62 54.5419 148.25 54.77C148.588 54.8927 148.955 54.9295 149.291 55.0546C150.507 55.506 151.081 56.3744 150.94 57.5641C150.863 58.0924 150.614 58.5798 150.231 58.949C149.849 59.3183 149.355 59.5483 148.829 59.6027C147.342 59.7744 145.931 59.5561 144.681 58.3688Z" fill="#808080"/>
<path d="M35.1252 44.5969L38.251 47.7246L35.006 50.8327L31.8438 47.6216L35.1252 44.5969Z" fill="#808080"/>
<path d="M47.0689 44.4546L50.0633 47.4695L46.7843 50.6733L43.8653 47.7001L47.0689 44.4546Z" fill="#808080"/>
<path d="M58.6355 50.7469L55.6241 47.7124L58.8082 44.5233L61.7613 47.5971L58.6355 50.7469Z" fill="#808080"/>
<path d="M118.75 51.3773H120.054V58.3467H124.374V59.5463H118.75V51.3773Z" fill="#808080"/>
</svg>
