<svg width="182" height="96" viewBox="0 0 182 96" fill="none" xmlns="http://www.w3.org/2000/svg">
<path d="M145.301 42.9203C147.354 42.9203 149.245 44.4515 149.245 46.6005C149.245 48.9108 147.597 50.5494 145.301 50.5494C143.006 50.5494 141.358 48.9108 141.358 46.6005C141.331 44.4246 143.222 42.9203 145.301 42.9203ZM74.4003 42.9203C76.4531 42.9203 78.3438 44.4515 78.3438 46.6005C78.3438 48.9108 76.6962 50.5494 74.4003 50.5494C72.1045 50.5494 70.4569 48.9108 70.4569 46.6005C70.4569 44.4246 72.3476 42.9203 74.4003 42.9203ZM85.4744 42.9472C86.0686 42.9472 86.6358 43.0815 87.176 43.2964V45.526C86.7979 45.0156 86.1767 44.747 85.5554 44.747C84.421 44.747 83.6377 45.6066 83.6377 46.7348C83.6377 47.8631 84.421 48.669 85.5824 48.669C86.1767 48.669 86.7979 48.3735 87.176 47.9168V50.1465C86.5548 50.3345 86.1226 50.4688 85.5284 50.4688C84.5291 50.4688 83.5837 50.0927 82.8544 49.4212C82.0712 48.7227 81.693 47.7825 81.693 46.708C81.693 45.7409 82.0712 44.8007 82.7464 44.1023C83.4757 43.4038 84.475 42.9472 85.4744 42.9472ZM154.809 43.1621L158.212 47.5407H158.239V43.1621H160.103V50.3076H158.239L154.836 45.929H154.809V50.3076H152.945V43.1621H154.809ZM132.148 43.1621L133.606 46.9766L135.146 43.1621H137.009L138.09 50.3076H136.226L135.713 46.1976H135.686L133.957 50.3076H133.228L131.58 46.1976H131.553L130.959 50.3076H129.095L130.311 43.1621H132.148ZM125.53 43.1621V44.747H123.315V45.929H125.422V47.5139H123.315V48.7496H125.53V50.3345H121.452V43.1889H125.53V43.1621ZM115.347 43.1621L118.048 50.3076H116.077L115.618 49.0719H113.052L112.565 50.3076H110.594L113.349 43.1621H115.347ZM103.841 43.1621C105.84 43.1621 107.488 44.7201 107.488 46.7348C107.488 48.7496 105.84 50.3076 103.841 50.3076H101.221V43.1621H103.841ZM93.0372 43.1621V46.117H93.0642L95.306 43.1621H97.6019L94.7658 46.5468L97.872 50.3076H95.4681L93.0642 47.2184H93.0372V50.3076H91.1735V43.1621H93.0372ZM65.1089 43.1621V48.7227H67.3507V50.3076H63.2722V43.1621H65.1089ZM56.6548 43.1621C57.9243 43.1621 58.7886 43.6456 58.7886 45.0156C58.7886 45.6603 58.5725 46.1707 58.0053 46.4662V46.4931C59.0317 46.6274 59.4638 47.3258 59.4638 48.3198C59.4638 49.8241 58.1944 50.3076 56.8709 50.3076H54.0078V43.1621H56.6548ZM57.5731 48.1317C57.5731 47.2721 56.6548 47.3527 56.0336 47.3527H55.8445V48.8839H56.2496C56.8168 48.8839 57.5731 48.8302 57.5731 48.1317ZM145.301 44.7201C144.194 44.7201 143.276 45.6335 143.276 46.6005C143.276 47.8362 144.194 48.7227 145.301 48.7227C146.409 48.7227 147.327 47.8094 147.327 46.6005C147.3 45.6066 146.409 44.7201 145.301 44.7201ZM74.4003 44.7201C73.2929 44.7201 72.3746 45.6335 72.3746 46.6005C72.3746 47.8362 73.2929 48.7227 74.4003 48.7227C75.5077 48.7227 76.4261 47.8094 76.4261 46.6005C76.4261 45.6066 75.5077 44.7201 74.4003 44.7201ZM103.517 44.7201H103.085V48.7227H103.49C104.597 48.7227 105.543 48.1049 105.543 46.708C105.543 45.4454 104.705 44.7201 103.517 44.7201ZM114.321 45.3648L113.538 47.6482H115.077L114.321 45.3648ZM55.9795 44.5858H55.8445V45.9827H56.0606C56.5467 45.9827 57.0599 45.9021 57.0599 45.2842C57.0599 44.6127 56.4927 44.5858 55.9795 44.5858Z" fill="#808080"/>
<path d="M29.7793 39.1209L33.1826 37.1599L36.6668 39.1746L44.0135 33.2379V43.419V55.9372L33.1826 62.1963L22.3516 55.9103V45.2457V33.1036L29.7793 39.1209ZM24.2423 46.2934V54.8358L33.1826 59.9935L42.1228 54.8358V46.4277L33.1826 51.6928L24.2423 46.2934ZM24.6204 44.3055L33.2096 49.4901L41.9068 44.3861L33.2096 39.3627L24.6204 44.3055ZM38.6386 40.0343L42.1228 42.0758V37.1868C40.9614 38.1538 39.8 39.094 38.6386 40.0343ZM24.2423 41.9684L27.7265 39.9268L24.2423 37.0793C24.2423 38.718 24.2423 40.3297 24.2423 41.9684Z" fill="#808080"/>
</svg>
