<svg width="182" height="96" viewBox="0 0 182 96" fill="none" xmlns="http://www.w3.org/2000/svg">
<path d="M21.5156 37.1674H28.2556C34.1213 37.1674 37.3164 40.7997 37.3164 46.0685C37.3164 51.01 34.0736 54.7142 28.3351 54.7142H21.5156V37.1674ZM24.8777 51.6327H28.2476C32.1183 51.6327 33.9384 49.126 33.9384 46.0685C33.9384 42.6119 32.0627 40.2249 28.1999 40.2249H24.8777V51.6327Z" fill="#808080"/>
<path d="M38.767 51.2814C38.767 48.647 40.7143 47.4735 43.3848 47.4735C44.0683 47.4735 44.7439 47.5533 45.4036 47.7209L46.4528 47.9684V47.218C46.4528 45.8369 45.4513 45.0865 44.0286 45.0865C42.5582 45.0865 41.7078 45.9168 41.4614 47.0663L38.6875 46.3159C39.3074 44.1126 41.1117 42.5798 44.0524 42.5798C47.6688 42.5798 49.4969 44.3361 49.4969 47.3936V54.7141H46.5799V52.886C45.8328 54.2112 44.6565 54.9696 42.6615 54.9696C40.6666 54.9696 38.767 53.6124 38.767 51.2814ZM46.4528 50.3314V50.2276L45.7295 50.0041C45.0062 49.7806 44.4339 49.6528 43.8855 49.6528C42.7649 49.6528 42.0098 50.1318 42.0098 51.0818C42.0098 51.912 42.6297 52.5108 43.9332 52.5108C45.3559 52.5108 46.4528 51.7364 46.4528 50.3314Z" fill="#808080"/>
<path d="M54.5133 42.8364V44.6166C55.4273 43.3553 56.8818 42.6048 58.4317 42.5889C61.6268 42.5889 63.9953 45.0716 63.9953 48.8316C63.9953 52.5917 61.5552 54.9786 58.2568 54.9786C56.6354 54.9786 55.2604 54.3 54.6404 53.1984V59.6886H51.4453V42.8443L54.5133 42.8364ZM57.6607 52.2404C59.3536 52.2404 60.8081 50.9871 60.8081 48.8316C60.8081 46.6283 59.3616 45.351 57.6607 45.351C56.0393 45.351 54.5133 46.5804 54.5133 48.8316C54.5133 51.035 56.0393 52.2404 57.6607 52.2404Z" fill="#808080"/>
<path d="M68.5758 42.8366V44.6168C69.4898 43.3555 70.9443 42.6051 72.4942 42.5891C75.6893 42.5891 78.0578 45.0719 78.0578 48.8319C78.0578 52.5919 75.6177 54.9788 72.3193 54.9788C70.6979 54.9788 69.3229 54.3003 68.7029 53.1986V59.6888H65.5078V42.8446L68.5758 42.8366ZM71.7232 52.2406C73.4161 52.2406 74.8706 50.9873 74.8706 48.8319C74.8706 46.6286 73.4241 45.3513 71.7232 45.3513C70.1018 45.3513 68.5758 46.5807 68.5758 48.8319C68.5758 51.0352 70.1018 52.2406 71.7232 52.2406Z" fill="#808080"/>
<path d="M88.5061 50.181L91.2243 51.2587C90.4295 53.5179 88.5538 54.9708 85.7084 54.9708C82.0682 54.9708 79.4453 52.5121 79.4453 48.7041C79.4453 45.3193 81.79 42.5891 85.3348 42.5891C88.6015 42.5891 90.8269 44.6488 90.8269 47.9298C90.8269 48.4168 90.7792 48.9037 90.6759 49.3827H82.6404C82.6881 51.2667 84.1665 52.2167 85.7561 52.2167C87.2821 52.2087 88.1564 51.4344 88.5061 50.181ZM82.6404 47.2512H87.7033C87.7192 47.2193 87.7272 47.1874 87.7272 47.1475C87.7272 45.942 86.7575 45.1677 85.3269 45.1677C84.0631 45.1677 82.9425 45.9181 82.6404 47.2512Z" fill="#808080"/>
<path d="M96.0309 42.8353V44.3601C96.5078 43.3063 97.4536 42.5798 98.8763 42.5798C101.07 42.5798 102.27 44.1126 102.27 46.0924C102.27 46.5873 102.215 47.0903 102.095 47.5693H99.075C99.1466 47.2739 99.1784 46.9705 99.1784 46.6592C99.1784 45.805 98.5823 45.1823 97.6841 45.1823C96.6827 45.1823 96.0389 45.8609 96.0389 47.0663V54.7141H92.8438V42.8353H96.0309Z" fill="#808080"/>
<path d="M112.074 37V51.5691H122.343V54.7384H108.672V37H112.074Z" fill="#808080"/>
<path d="M123.415 51.2645C123.415 48.6062 125.387 47.4167 128.081 47.4167C128.764 47.4167 129.44 47.4965 130.124 47.6721L131.181 47.9276V47.1692C131.181 45.7722 130.171 45.0138 128.733 45.0138C127.246 45.0138 126.388 45.852 126.134 47.0175L123.336 46.2591C123.964 44.0319 125.784 42.4832 128.757 42.4832C132.413 42.4832 134.257 44.2554 134.257 47.3448V54.7451H131.308V52.8931C130.553 54.2342 129.369 54.9926 127.35 54.9926C125.331 54.9926 123.415 53.6195 123.415 51.2645ZM131.181 50.2986V50.2028L130.449 49.9713C129.718 49.7398 129.138 49.62 128.582 49.62C127.445 49.62 126.69 50.099 126.69 51.0649C126.69 51.9032 127.318 52.5099 128.629 52.5099C130.076 52.5099 131.181 51.7196 131.181 50.2986Z" fill="#808080"/>
<path d="M139.625 37V44.528C140.404 43.3146 141.867 42.4764 143.456 42.4764C146.683 42.4764 149.084 44.9831 149.084 48.783C149.084 52.5829 146.636 54.9938 143.281 54.9938C141.716 54.9938 140.333 54.3632 139.498 53.1417V54.7384H136.398V37H139.625ZM142.685 52.2317C144.402 52.2317 145.865 50.9624 145.865 48.783C145.865 46.5557 144.402 45.2625 142.685 45.2625C141.048 45.2625 139.506 46.5078 139.506 48.783C139.506 51.0103 141.04 52.2317 142.685 52.2317Z" fill="#808080"/>
<path d="M149.664 51.7745L152.184 50.4334C152.764 51.7506 153.821 52.3333 155.188 52.3333C156.476 52.3333 157.127 51.8304 157.127 51.1678C157.127 50.3535 156.595 49.9224 154.353 49.5951C151.882 49.2119 150.268 48.1023 150.268 45.9948C150.268 43.8393 152.414 42.4742 154.838 42.4742C157.509 42.4742 158.725 43.5599 159.377 45.0049L156.929 46.346C156.627 45.412 155.848 44.9809 154.91 44.9809C153.948 44.9809 153.217 45.412 153.217 46.0187C153.217 46.7292 153.845 47.0326 155.864 47.3359C158.995 47.8149 160.124 49.0363 160.124 51.1119C160.124 53.3951 157.954 54.9917 155.077 54.9917C152.263 54.9917 150.499 53.7703 149.664 51.7745Z" fill="#808080"/>
</svg>
