<svg width="182" height="96" viewBox="0 0 182 96" fill="none" xmlns="http://www.w3.org/2000/svg">
<path d="M35.4981 55.3459C37.0915 56.2384 37.8882 57.6749 38.2182 59.416C38.3497 60.1016 38.2751 60.2274 39.061 59.7891C39.4439 59.5754 39.5549 59.332 39.4354 58.9091C38.7526 56.4801 37.3413 54.6808 34.895 53.8722C34.0027 53.5785 33.0478 53.4768 32.1214 53.2866C30.5707 52.9677 29.143 52.4003 28.035 51.2084C27.1769 50.285 26.7649 49.1959 26.8856 47.9274C27.0113 46.6052 27.6782 45.5881 28.7065 44.8001C29.1197 44.4841 29.5738 44.2224 30.0062 43.931C30.2959 43.7367 30.3175 43.6196 30.1371 43.3185C29.8099 42.7728 29.7706 42.7608 29.2124 43.0448C27.8262 43.7499 26.7148 44.7453 26.0986 46.1978C25.8709 46.7394 25.7941 47.3463 25.6484 47.9234V48.5519C25.6678 48.6536 25.6797 48.7576 25.7053 48.8576C25.8681 49.4593 25.9643 50.0913 26.2129 50.6553C26.8508 52.1009 28.0447 52.998 29.4167 53.6762C30.5878 54.2551 31.8636 54.4625 33.1377 54.6528C33.9611 54.7739 34.7663 54.9356 35.4981 55.3459Z" fill="#808080"/>
<path d="M55.3182 54.7996C55.5948 54.7368 55.881 54.7168 56.1564 54.6516C56.4574 54.5796 56.5024 54.4602 56.3721 54.1751C56.2804 53.9585 56.1141 53.7823 55.9037 53.6787C55.6932 53.5752 55.4527 53.5512 55.226 53.6111C55.061 53.6511 54.8965 53.698 54.7349 53.7505C52.6659 54.4282 51.1095 55.6933 50.2548 57.7361C49.8786 58.636 49.7495 59.6011 49.6009 60.5588C49.3699 62.0507 48.8435 63.4158 47.8511 64.5757C46.2777 66.4162 43.5929 66.5865 41.8249 64.9431C41.2543 64.4245 40.7962 63.7936 40.4791 63.0895C40.318 62.7238 40.1644 62.677 39.8121 62.8741C39.663 62.9569 39.5219 63.0558 39.3677 63.1255C39.1458 63.2261 39.1304 63.3672 39.2425 63.5592C39.4388 63.8952 39.6164 64.2449 39.8269 64.5694C40.9423 66.3008 42.4736 67.3304 44.3503 67.3693C45.9727 67.3693 47.199 66.931 48.2438 65.9979C49.38 64.9891 50.1842 63.6574 50.5496 62.1793C50.8039 61.1799 50.9103 60.1428 51.1385 59.1354C51.6547 56.8487 52.9851 55.3293 55.3182 54.7996Z" fill="#808080"/>
<path d="M47.7197 36.0274C45.8862 37.2845 43.9719 37.3862 42.0052 36.3657C41.6371 36.1748 41.3065 35.912 40.9553 35.6868C40.8376 35.6108 40.7163 35.5154 40.6031 35.7114C40.2514 36.3302 40.3755 36.7919 40.9861 37.1313C41.0771 37.1816 41.1687 37.2313 41.2615 37.2793C42.7979 38.0702 44.4106 38.4044 46.128 38.0444C47.2621 37.8067 48.2557 37.2696 49.1753 36.5788C50.0949 35.888 51.0344 35.2646 52.1253 34.8955C53.273 34.5075 54.4367 34.3623 55.6084 34.7692C57.3725 35.3817 58.4799 37.1011 58.3558 39.1027C58.3182 39.7095 58.1242 40.3078 57.9859 40.9066C57.9074 41.2494 57.9364 41.3277 58.2676 41.4254C58.4668 41.4826 58.6739 41.5248 58.8657 41.602C59.0574 41.6791 59.124 41.606 59.1781 41.4414C59.4575 40.5895 59.68 39.7272 59.7039 38.813C59.6504 38.4193 59.6219 38.0204 59.5394 37.633C58.9897 35.0469 57.1306 33.4218 54.4948 33.2504C52.6954 33.1361 51.0765 33.7075 49.5884 34.6789C48.9465 35.0983 48.3536 35.5926 47.7197 36.0274Z" fill="#808080"/>
<path d="M34.2701 41.7608C33.898 41.8671 33.5105 41.918 33.132 41.9997C32.9829 42.0317 32.8202 42.0568 32.8964 42.2854C33.1201 42.9711 33.5161 43.1836 34.2053 42.9836C34.2502 42.9705 34.2963 42.9579 34.3413 42.9442C36.354 42.3157 37.9553 41.1786 38.8937 39.2272C39.3734 38.229 39.5259 37.1439 39.7023 36.0668C39.9333 34.6583 40.3897 33.347 41.2956 32.2202C43.0062 30.0991 45.8731 29.9511 47.7259 31.9345C48.1772 32.4184 48.5044 33.0247 48.86 33.5915C49.0501 33.8944 49.1241 33.9452 49.4422 33.7727C49.6254 33.6738 49.8018 33.5612 49.989 33.4704C50.1598 33.3875 50.1728 33.2807 50.0869 33.1275C49.9048 32.8053 49.7415 32.4721 49.548 32.1562C48.3889 30.2705 46.7159 29.2792 44.2149 29.242C43.7397 29.2283 43.033 29.4134 42.3592 29.7466C40.7357 30.5528 39.7262 31.9059 39.0285 33.5281C38.5431 34.6572 38.3741 35.8628 38.2319 37.0708C37.9576 39.3684 36.4752 41.1323 34.2701 41.7608Z" fill="#808080"/>
<path d="M41.5768 60.5948C43.6339 59.1737 46.144 59.2617 48.0969 60.8119C48.1788 60.8761 48.2647 60.9349 48.3542 60.9879C48.5619 61.1142 48.7001 61.0685 48.79 60.8302C48.9756 60.3382 48.8219 59.8074 48.3405 59.516C47.9885 59.3119 47.6199 59.1379 47.2388 58.996C44.9017 58.0852 42.6784 58.2755 40.5946 59.7194C40.0881 60.0702 39.5999 60.4479 39.0866 60.7885C37.7505 61.6741 36.3068 62.1998 34.6747 62.0793C32.7286 61.9358 31.0396 60.2159 30.9378 58.2652C30.8934 57.4115 30.9861 56.5784 31.2923 55.7733C31.4146 55.4522 31.3435 55.3162 31.0248 55.2133C30.8268 55.1499 30.6208 55.111 30.4239 55.0419C30.2532 54.9848 30.1599 55.031 30.1035 55.203C29.8224 56.0544 29.6124 56.9172 29.5914 57.8258C29.6261 58.1652 29.6483 58.5074 29.6984 58.8446C30.1041 61.445 32.3553 63.3655 34.9718 63.3855C36.7091 63.3992 38.2723 62.8712 39.7034 61.9278C40.3425 61.5113 40.948 61.0313 41.5768 60.5948Z" fill="#808080"/>
<path d="M31.6024 44.0407C32.0104 44.6121 32.4224 45.1835 32.7764 45.7881C33.2453 46.577 33.4701 47.4881 33.4222 48.4057C33.3653 49.5902 32.9192 50.6341 32.2756 51.6095C31.8727 52.2197 31.7031 52.2803 32.6631 52.4895C33.0717 52.578 33.2919 52.4895 33.4803 52.1495C34.9029 49.589 34.9797 47.0383 33.3807 44.5201C33.0097 43.9356 32.5709 43.3945 32.1954 42.8128C31.2968 41.4208 30.7079 39.9432 30.8757 38.229C31.0658 36.2742 32.6865 34.6543 34.6412 34.4989C35.526 34.4286 36.3745 34.6006 37.2218 34.8097C37.7243 34.9337 37.8574 34.844 37.9331 34.3406C37.9445 34.2658 37.9462 34.1892 37.9564 34.1121C37.9843 33.9081 37.891 33.7858 37.7021 33.7275C36.9054 33.4818 36.0996 33.267 35.2552 33.2584C35.0275 33.2744 34.7999 33.287 34.5757 33.3081C32.6927 33.4864 31.2695 34.4109 30.3255 36.0371C29.518 37.4279 29.5112 38.9387 29.8418 40.4638C30.1291 41.8003 30.8188 42.9442 31.6024 44.0407Z" fill="#808080"/>
<path d="M57.0766 51.7529C56.454 50.9278 56.0198 50.0193 55.9123 48.9799C55.7609 47.5251 56.1678 46.2195 56.9935 45.0327C57.1278 44.8407 57.2609 44.6475 57.4317 44.4013C57.1631 44.3127 56.948 44.2247 56.7243 44.1727C56.2122 44.0504 55.9646 44.1533 55.7154 44.6184C55.1202 45.7298 54.7566 46.9132 54.7338 48.1805C54.7025 49.861 55.2824 51.3375 56.2793 52.67C56.6543 53.1706 57.0191 53.6808 57.3463 54.2128C58.1316 55.507 58.5863 56.8927 58.4201 58.4372C58.3122 59.3998 57.8754 60.2953 57.1842 60.9711C56.4929 61.6469 55.5898 62.0613 54.6285 62.1438C53.7493 62.2193 52.9168 62.0358 52.0826 61.813C51.5289 61.665 51.472 61.705 51.3639 62.2758C51.3513 62.341 51.3479 62.4078 51.3388 62.4741C51.3058 62.7215 51.402 62.8741 51.6541 62.9244C52.3939 63.0649 53.1336 63.2769 53.8791 63.3352C56.4398 63.5352 58.8264 61.8136 59.4615 59.3354C59.8757 57.7195 59.5753 56.1687 58.9408 54.6676C58.4878 53.5934 57.7742 52.6769 57.0766 51.7529Z" fill="#808080"/>
<path d="M60.5375 43.3025C59.2361 42.5094 57.7919 42.1854 56.3123 41.9934C55.2596 41.8568 54.2433 41.626 53.3601 40.9917C51.9824 40.0003 51.2717 38.6238 51.0202 36.9754C50.9968 36.8216 50.9593 36.6697 50.9194 36.4742C50.6827 36.6028 50.4909 36.7028 50.3049 36.8096C49.7734 37.1176 49.7045 37.2965 49.8883 37.8805C50.4966 39.8141 51.5824 41.3717 53.4051 42.3374C54.4259 42.8791 55.5453 43.0802 56.6725 43.2379C58.0713 43.4368 59.3795 43.8664 60.525 44.7235C63.067 46.6275 63.0897 49.9193 60.5609 51.8369C60.125 52.1712 59.6299 52.4255 59.1713 52.7272C59.0973 52.7763 59.0005 52.9174 59.025 52.9671C59.1305 53.1988 59.2576 53.42 59.4046 53.6277C59.5081 53.7751 59.6663 53.8048 59.8325 53.7014C60.331 53.3923 60.8568 53.1203 61.3245 52.7689C63.1979 51.3592 64.0435 48.9599 63.4141 46.8C62.9571 45.2315 61.9044 44.1356 60.5375 43.3025Z" fill="#808080"/>
<path d="M106.256 45.4749C106.085 45.4749 105.914 45.5121 105.744 45.4932C105.477 45.4624 105.416 45.5829 105.421 45.8212C105.434 46.4383 105.426 47.0566 105.437 47.6737C105.441 47.9022 105.358 47.9925 105.12 47.9885C104.391 47.9765 103.661 47.9845 102.932 47.984C102.59 47.984 102.549 47.9371 102.561 47.584C102.58 47.0156 102.596 46.4469 102.608 45.8778C102.614 45.5641 102.52 45.4704 102.203 45.4721C102.052 45.4721 101.898 45.5104 101.748 45.4904C101.463 45.4509 101.406 45.5858 101.406 45.8332C101.412 46.9261 101.412 48.0194 101.406 49.113C101.402 49.7484 101.381 50.3844 101.363 51.0198C101.353 51.3598 101.477 51.4901 101.818 51.4769C101.941 51.4729 102.063 51.4569 102.187 51.4512C102.569 51.4346 102.58 51.4186 102.573 51.0461C102.563 50.4861 102.573 49.925 102.552 49.365C102.544 49.1085 102.645 49.0342 102.887 49.0445C103.071 49.0525 103.256 49.0536 103.441 49.0525C103.626 49.0513 103.81 49.0485 103.995 49.0485C104.318 49.0485 104.64 49.0485 104.962 49.0485C105.425 49.0536 105.437 48.9628 105.43 49.5336C105.424 50.0364 105.407 50.5398 105.4 51.0432C105.396 51.3861 105.498 51.4821 105.844 51.4695C105.976 51.4644 106.111 51.4329 106.242 51.4501C106.527 51.4895 106.594 51.3655 106.595 51.0964C106.599 49.3485 106.62 47.6005 106.635 45.8526C106.64 45.5886 106.532 45.4789 106.256 45.4749Z" fill="#808080"/>
<path d="M130.959 47.9777C130.722 47.9828 130.667 48.0777 130.67 48.2845C130.675 48.7873 130.684 49.2908 130.663 49.793C130.653 49.9378 130.586 50.0727 130.477 50.1684C129.428 50.9438 127.768 50.3661 127.436 49.113C127.341 48.7776 127.324 48.4247 127.386 48.0817C127.449 47.7386 127.589 47.4146 127.797 47.1349C128.454 46.2103 129.812 46.2103 130.5 46.7114C130.856 46.9709 130.931 46.976 131.221 46.6435C131.265 46.5823 131.314 46.5249 131.368 46.472C131.58 46.2943 131.531 46.1555 131.337 45.9915C130.377 45.179 128.689 45.0635 127.606 45.7886C126.468 46.5515 126.126 47.68 126.263 48.9942C126.392 50.2398 127.04 51.0815 128.249 51.4215C129.392 51.7426 130.481 51.6295 131.436 50.8358C131.541 50.7544 131.624 50.6473 131.676 50.5247C131.729 50.4021 131.75 50.2681 131.736 50.1353C131.716 49.8496 131.732 49.5639 131.732 49.2782H131.728C131.728 49.0976 131.713 48.9153 131.728 48.7365C131.811 47.8994 131.749 47.9605 130.959 47.9777Z" fill="#808080"/>
<path d="M97.7142 45.075C96.8903 45.0692 96.064 45.0818 95.2417 45.0704C94.5378 45.0607 94.5378 45.051 94.5372 45.7372C94.5372 46.1469 94.581 46.18 94.9925 46.1772C95.8637 46.1709 96.7349 46.168 97.6056 46.1772C98.1461 46.184 98.4318 46.4812 98.4187 46.984C98.4068 47.428 98.0915 47.6937 97.5651 47.696C97.1298 47.696 96.6939 47.696 96.2563 47.696C95.9081 47.696 95.5598 47.7023 95.2115 47.696C95.0977 47.696 94.9799 47.6925 94.8639 47.6885C94.5975 47.6794 94.5224 47.784 94.5224 48.04C94.5224 49.0462 94.5031 50.0524 94.4889 51.0587C94.4854 51.3335 94.5827 51.4466 94.8553 51.4501C95.0061 51.4501 95.1598 51.4112 95.3106 51.4255C95.5951 51.4535 95.6452 51.3112 95.64 51.0701C95.6253 50.4238 95.6309 49.7776 95.6173 49.1319C95.6127 48.8931 95.6918 48.7891 95.9451 48.7891C96.5039 48.8016 97.0627 48.7965 97.622 48.7919C98.1154 48.7873 98.5837 48.6982 98.9605 48.3417C99.476 47.8537 99.6718 46.8594 99.3958 46.1383C99.1391 45.4704 98.5359 45.0801 97.7142 45.075Z" fill="#808080"/>
<path d="M76.5188 45.1264C75.7545 45.0201 74.971 45.0527 74.1959 45.0298C74.007 45.0247 73.8915 45.1287 73.8886 45.3269C73.8886 45.4984 73.9148 45.6698 73.8949 45.8412C73.8602 46.1269 73.9928 46.1806 74.2403 46.1669C74.5521 46.1492 74.8663 46.1623 75.1775 46.1623C75.4524 46.1623 75.7284 46.1789 76.0015 46.1589C77.5192 46.0498 78.5253 47.7891 77.93 49.0959C77.5886 49.8484 76.8403 50.3833 76.1535 50.3581C75.482 50.3336 74.8094 50.3376 74.1373 50.3256C73.9746 50.3227 73.8892 50.3787 73.8983 50.5575C73.9094 50.7669 73.9094 50.9767 73.8983 51.1861C73.8869 51.3769 73.9672 51.4329 74.147 51.4329C74.6961 51.4329 75.2458 51.4524 75.7972 51.4501C76.8278 51.4444 77.7445 51.1501 78.4194 50.3221C79.1689 49.4033 79.4312 48.3588 79.0243 47.2286C78.6026 46.0572 77.7616 45.2989 76.5188 45.1264Z" fill="#808080"/>
<path d="M118.41 45.1304C117.795 45.0458 117.163 45.0812 116.539 45.0732C115.722 45.0658 115.685 45.115 115.746 45.9263C115.761 46.1143 115.84 46.1686 116.015 46.164C116.365 46.1549 116.716 46.1612 117.067 46.1612V46.1572C117.341 46.1572 117.615 46.1646 117.889 46.1572C118.618 46.1338 119.171 46.4555 119.57 47.0417C120.057 47.756 120.102 48.5131 119.678 49.2702C119.269 50.0027 118.659 50.3913 117.79 50.3284C117.385 50.2993 116.977 50.321 116.569 50.321C115.721 50.321 115.68 50.3718 115.75 51.2124C115.763 51.3712 115.818 51.4272 115.973 51.4249C116.713 51.4146 117.453 51.4472 118.186 51.3969C119.743 51.2912 121.005 49.9199 121.065 48.3177C121.122 46.8114 119.924 45.3389 118.41 45.1304Z" fill="#808080"/>
<path d="M143.9 51.3964C144.128 51.4192 144.326 51.4375 144.521 51.4581C144.988 51.5061 145.305 51.2901 145.501 50.8821C145.624 50.6255 145.719 50.3564 145.842 50.0987C146.241 49.2416 146.646 48.3919 147.072 47.4886C147.142 47.6285 147.186 47.7108 147.225 47.7954C147.758 48.9279 148.289 50.0621 148.829 51.1924C148.872 51.2827 148.97 51.4066 149.049 51.4112C149.442 51.4335 149.836 51.4215 150.278 51.4215C149.205 49.2725 148.156 47.1709 147.082 45.0172C146.003 47.1749 144.956 49.2782 143.9 51.3964Z" fill="#808080"/>
<path d="M141.977 45.067C140.471 45.0582 138.966 45.0449 137.46 45.027C137.169 45.0235 137.038 45.1361 137.045 45.4327C137.049 45.5841 137.086 45.7366 137.075 45.8863C137.059 46.1046 137.154 46.172 137.355 46.172C137.819 46.164 138.283 46.1635 138.746 46.1623C139.158 46.1623 139.197 46.1995 139.193 46.6195C139.18 48.1017 139.165 49.5839 139.148 51.0661C139.148 51.3547 139.253 51.4661 139.54 51.4575C139.682 51.4529 139.825 51.4169 139.964 51.4352C140.249 51.4741 140.311 51.3107 140.312 51.0827C140.312 50.3227 140.312 49.5627 140.312 48.8028H140.293C140.293 48.0325 140.297 47.26 140.29 46.4926C140.29 46.2469 140.385 46.1498 140.628 46.1578C140.987 46.168 141.348 46.1578 141.709 46.1578C142.367 46.1578 142.367 46.1578 142.373 45.5127C142.373 45.4938 142.373 45.4749 142.373 45.4555C142.38 45.0761 142.361 45.0687 141.977 45.067Z" fill="#808080"/>
<path d="M156.55 50.7078C156.546 50.4644 156.473 50.3718 156.221 50.3764C155.398 50.3901 154.571 50.3833 153.75 50.3873C153.398 50.3873 153.342 50.3393 153.342 49.973C153.342 49.5159 153.35 49.0616 153.35 48.6056C153.35 47.5604 153.35 46.5155 153.35 45.4709C153.35 45.071 153.35 45.071 152.963 45.071C152.83 45.0799 152.697 45.0787 152.565 45.0675C152.291 45.0287 152.223 45.1498 152.223 45.4052C152.233 46.3549 152.227 47.3051 152.227 48.2548C152.226 49.2045 152.227 50.1547 152.227 51.1049C152.227 51.4478 152.253 51.4804 152.595 51.4809C153.665 51.4809 154.735 51.4809 155.805 51.4809C156.543 51.4855 156.564 51.4512 156.55 50.7078Z" fill="#808080"/>
<path d="M92.1489 50.381C91.3249 50.381 90.4987 50.3758 89.6764 50.3856C89.4488 50.3884 89.3526 50.3204 89.3537 50.0781C89.3611 48.6531 89.3253 47.2263 89.3708 45.8023C89.3975 44.9755 89.2758 45.0058 88.6475 45.0675C88.2708 45.1047 88.2572 45.0938 88.2577 45.4727C88.2577 46.404 88.2577 47.3352 88.2577 48.2662C88.2577 49.1972 88.2577 50.1282 88.2577 51.0592C88.2577 51.4506 88.2856 51.4804 88.6749 51.4838C89.8289 51.4941 90.9831 51.5045 92.1375 51.5152C92.4596 51.5186 92.5501 51.4364 92.5501 51.1209C92.5501 50.9975 92.5381 50.8741 92.5353 50.7507C92.5262 50.3816 92.5268 50.381 92.1489 50.381Z" fill="#808080"/>
<path d="M109.45 45.063C108.864 45.1047 108.881 45.1047 108.881 45.7281C108.887 47.4457 108.885 49.1635 108.873 50.8815C108.869 51.4215 108.925 51.4884 109.473 51.4358C109.53 51.4302 109.587 51.4276 109.644 51.4278C109.985 51.4312 110.005 51.4158 110.005 51.0575C110.005 50.1368 110.005 49.2159 110.005 48.2948H110.013C110.013 47.4114 109.997 46.5286 110.019 45.6458C110.034 45.0915 109.994 45.0241 109.45 45.063Z" fill="#808080"/>
<path d="M134.351 45.071C134.333 45.0721 134.314 45.0721 134.295 45.071C133.905 45.0767 133.905 45.0767 133.904 45.4709C133.896 47.3329 133.887 49.1953 133.879 51.0581C133.879 51.3649 133.951 51.4432 134.263 51.4472C134.338 51.4472 134.414 51.4472 134.49 51.4472C135.026 51.3901 135.028 51.3901 135.025 50.8427C135.019 50.073 135.005 49.3033 135.005 48.5331C135.005 47.6114 135.005 46.6892 135.025 45.7681C135.038 45.1852 135.094 44.9624 134.351 45.071Z" fill="#808080"/>
<path d="M123.75 45.0641C123.291 45.0567 123.295 45.1007 123.298 45.5538C123.298 47.2651 123.305 48.9759 123.294 50.6867C123.289 51.4324 123.273 51.4324 124.014 51.4295C124.383 51.4295 124.387 51.4249 124.387 51.0421C124.387 50.1199 124.387 49.1978 124.387 48.2759C124.387 47.4297 124.374 46.5835 124.39 45.7378C124.406 45.0504 124.42 45.0744 123.75 45.0641Z" fill="#808080"/>
<path d="M85.7101 45.4384C85.7642 45.1412 85.6339 45.0498 85.3493 45.0692C85.0477 45.0892 84.7433 45.0755 84.4388 45.0732C83.6154 45.0658 82.7886 45.0732 81.9674 45.0412C81.5037 45.0224 81.3722 45.1195 81.4291 45.5778C81.5014 46.16 81.5014 46.1543 82.0995 46.1612C83.1693 46.172 84.2391 46.1909 85.3089 46.2069C85.6202 46.212 85.7209 46.116 85.7238 45.8069C85.7238 45.7309 85.7238 45.6549 85.7238 45.5784H85.7158C85.7087 45.5321 85.7068 45.4851 85.7101 45.4384Z" fill="#808080"/>
<path d="M85.3197 50.3233C84.1482 50.3096 82.9768 50.2949 81.8053 50.2793C81.5384 50.2758 81.4103 50.4056 81.4143 50.6844C81.4143 50.8352 81.4559 50.9878 81.4445 51.1369C81.4257 51.3695 81.5259 51.4329 81.741 51.4295C82.3174 51.4204 82.8944 51.4295 83.4709 51.4295C84.0667 51.4295 84.6625 51.4375 85.2577 51.4266C85.6253 51.4198 85.7016 51.3301 85.7129 50.9644C85.7158 50.8884 85.7129 50.8124 85.7129 50.7358C85.7158 50.3427 85.6976 50.3278 85.3197 50.3233Z" fill="#808080"/>
<path d="M84.9407 47.6891C83.9005 47.6834 82.8597 47.6663 81.8195 47.6525C81.5299 47.6485 81.4257 47.7485 81.4286 48.0457C81.4286 48.2257 81.4496 48.4062 81.4473 48.5862C81.4473 48.7525 81.5344 48.7993 81.6784 48.8011L84.9151 48.8388C85.124 48.8388 85.2304 48.7296 85.2486 48.5296C85.2577 48.4262 85.2486 48.3211 85.2486 48.2171H85.2281C85.2281 48.1314 85.2224 48.0457 85.2281 47.9611C85.2492 47.7434 85.1416 47.6903 84.9407 47.6891Z" fill="#808080"/>
</svg>
