<svg width="182" height="96" viewBox="0 0 182 96" fill="none" xmlns="http://www.w3.org/2000/svg">
<g clip-path="url(#clip0_5056_41060)">
<path d="M42.3201 33.4005C43.0737 33.0043 44.2205 33.0043 44.9741 33.4005L52.6643 37.4433C53.1182 37.6819 53.3674 38.0374 53.4121 38.4045H53.4194V58.7255C53.4094 59.1259 53.1578 59.5236 52.6643 59.7831L44.9741 63.8258C44.2205 64.2221 43.0737 64.2221 42.3201 63.8258L34.6299 59.7831C34.1385 59.5248 33.9026 59.1242 33.8909 58.7255C33.8898 58.6863 33.8896 58.6536 33.8907 58.6264L33.8907 38.535C33.8899 38.513 33.8898 38.491 33.8905 38.4691L33.8909 38.4045L33.8944 38.4045C33.9285 38.0334 34.1665 37.6869 34.6299 37.4433L42.3201 33.4005ZM52.2088 49.7415L44.9741 53.5448C44.2205 53.941 43.0737 53.941 42.3201 53.5448L35.1012 49.75V58.6853L42.3201 62.4602C42.7277 62.6771 43.1508 62.8885 43.5645 62.9154L43.6471 62.918C44.0782 62.9195 44.4967 62.7016 44.9211 62.4954L52.2088 58.6528V49.7415ZM32.6401 58.2837C32.6401 59.0621 32.731 59.574 32.9116 59.9346C33.0612 60.2334 33.2856 60.4617 33.6955 60.7396L33.7189 60.7554C33.8089 60.8157 33.908 60.879 34.0286 60.9531L34.1709 61.0399L34.6077 61.3023L33.9812 62.3333L33.4923 62.0393L33.4101 61.9891C33.2687 61.9021 33.1516 61.8277 33.0423 61.7543C31.8741 60.9703 31.4384 60.1158 31.4298 58.3378L31.4297 58.2837H32.6401ZM43.0417 44.2948C42.9857 44.314 42.9333 44.3361 42.8854 44.3613L35.1953 48.404C35.1872 48.4083 35.1795 48.4125 35.1722 48.4166L35.1656 48.4204L35.1777 48.4272L35.1953 48.4367L42.8854 52.4795C42.9333 52.5047 42.9857 52.5268 43.0417 52.5459V44.2948ZM44.2525 44.2948V52.5459C44.3085 52.5268 44.361 52.5047 44.4088 52.4795L52.099 48.4367C52.107 48.4325 52.1147 48.4283 52.1221 48.4241L52.1286 48.4204L52.1165 48.4135L52.099 48.404L44.4088 44.3613C44.361 44.3361 44.3085 44.314 44.2525 44.2948ZM52.2088 39.846L45.3103 43.4726L52.2088 47.0992V39.846ZM35.1012 39.8545V47.0908L41.9837 43.4726L35.1012 39.8545ZM44.4088 34.4658C44.0089 34.2556 43.2853 34.2556 42.8854 34.4658L35.1953 38.5086C35.1872 38.5129 35.1795 38.517 35.1722 38.5212L35.1656 38.5249L35.1777 38.5318L35.1953 38.5413L42.8854 42.5841C43.2853 42.7943 44.0089 42.7943 44.4088 42.5841L52.099 38.5413C52.107 38.5371 52.1147 38.5329 52.1221 38.5287L52.1286 38.5249L52.1165 38.5181L52.099 38.5086L44.4088 34.4658ZM53.3453 34.9092L53.8342 35.2031L53.9164 35.2533C54.0578 35.3401 54.1749 35.4147 54.2842 35.4881C55.4524 36.272 55.8881 37.1266 55.8966 38.9045L55.8968 38.9587H54.6864C54.6864 38.1801 54.5954 37.6684 54.4149 37.3078C54.2653 37.009 54.0408 36.7807 53.631 36.5028L53.6076 36.487C53.5176 36.4267 53.4185 36.3634 53.2979 36.2891L53.1556 36.2024L52.7188 35.94L53.3453 34.9092Z" fill="#808080"/>
<path d="M68.1932 57.88V46.5473H71.3347V44.4723H68.1932V42.9826C68.1932 41.2978 68.9299 40.4554 70.403 40.4554C70.8289 40.4554 71.2816 40.5263 71.7608 40.6682V38.4602C71.175 38.2828 70.5273 38.1942 69.8172 38.1942C68.4507 38.1942 67.3902 38.5843 66.6358 39.3647C65.8814 40.145 65.5042 41.28 65.5042 42.7698V44.4723H62.9219V46.5473H65.5042V57.88H68.1932ZM79.1087 58.0661C80.1382 58.0661 81.0389 57.8533 81.811 57.4275C82.583 57.002 83.1644 56.3901 83.5549 55.5921V57.88H86.2172V44.4723H83.5549V46.6537C83.1465 45.8556 82.561 45.2394 81.7977 44.8048C81.0346 44.3703 80.1382 44.1531 79.1087 44.1531C77.9551 44.1531 76.9255 44.4457 76.0205 45.031C75.1152 45.6162 74.4098 46.4409 73.904 47.505C73.3982 48.5691 73.1453 49.7928 73.1453 51.1761C73.1453 52.5594 73.3936 53.7698 73.8907 54.8073C74.3875 55.8448 75.0842 56.6473 75.9805 57.2148C76.8769 57.7823 77.9195 58.0661 79.1087 58.0661ZM79.7477 55.9379C78.5229 55.9379 77.569 55.5211 76.8858 54.6876C76.2024 53.8541 75.8606 52.6836 75.8606 51.1761C75.8606 49.6509 76.2024 48.4582 76.8858 47.5981C77.569 46.7379 78.5142 46.3079 79.7211 46.3079C80.9457 46.3079 81.8909 46.7247 82.5564 47.5582C83.2221 48.3917 83.5549 49.58 83.5549 51.1229C83.5549 52.6481 83.2221 53.8319 82.5564 54.6743C81.8909 55.5167 80.9546 55.9379 79.7477 55.9379ZM92.8197 57.88V50.245C92.8197 49.0568 93.1613 48.108 93.8447 47.3986C94.5281 46.6892 95.4377 46.3345 96.5736 46.3345C97.5676 46.3345 98.2907 46.6005 98.7434 47.1325C99.196 47.6646 99.4222 48.5159 99.4222 49.6864V57.88H102.111V49.5268C102.111 45.9443 100.505 44.1531 97.2924 44.1531C96.2631 44.1531 95.3444 44.3792 94.5368 44.8314C93.7294 45.2837 93.1126 45.9355 92.6865 46.7867L92.4469 44.4723H89.9445C90.0864 45.5896 90.1574 46.8488 90.1574 48.2499V57.88H92.8197ZM111.11 58.0661C111.855 58.0661 112.521 57.9687 113.107 57.7736V55.5921C112.627 55.734 112.157 55.8049 111.696 55.8049C110.985 55.8049 110.431 55.6142 110.031 55.2329C109.632 54.8516 109.432 54.1999 109.432 53.2777V46.5473H113.133V44.4723H109.432V40.1893L106.744 41.1204V44.4723H104.134V46.5473H106.744V53.4905C106.744 54.9802 107.125 56.1153 107.888 56.8956C108.652 57.6759 109.725 58.0661 111.11 58.0661ZM121.386 58.0661C122.682 58.0661 123.827 57.7823 124.821 57.2148C125.815 56.6473 126.582 55.8404 127.124 54.794C127.665 53.7477 127.936 52.5239 127.936 51.1229C127.936 49.7218 127.665 48.4937 127.124 47.4385C126.582 46.3832 125.815 45.5719 124.821 45.0044C123.827 44.4368 122.682 44.1531 121.386 44.1531C120.073 44.1531 118.919 44.4368 117.925 45.0044C116.931 45.5719 116.164 46.3832 115.622 47.4385C115.081 48.4937 114.81 49.7218 114.81 51.1229C114.81 52.5239 115.081 53.7477 115.622 54.794C116.164 55.8404 116.931 56.6473 117.925 57.2148C118.919 57.7823 120.073 58.0661 121.386 58.0661ZM121.36 55.9379C120.135 55.9379 119.19 55.53 118.524 54.7142C117.859 53.8984 117.526 52.7013 117.526 51.1229C117.526 49.58 117.863 48.3917 118.538 47.5582C119.212 46.7247 120.162 46.3079 121.386 46.3079C122.593 46.3079 123.53 46.7247 124.195 47.5582C124.861 48.3917 125.193 49.58 125.193 51.1229C125.193 52.7013 124.865 53.8984 124.208 54.7142C123.552 55.53 122.602 55.9379 121.36 55.9379ZM133.739 57.88V50.2982C133.739 49.0745 134.041 48.108 134.645 47.3986C135.248 46.6892 136.065 46.3345 137.094 46.3345C137.981 46.3345 138.625 46.6005 139.024 47.1325C139.424 47.6646 139.623 48.507 139.623 49.6598V57.88H142.312V50.2982C142.312 49.0745 142.609 48.108 143.204 47.3986C143.799 46.6892 144.611 46.3345 145.64 46.3345C146.527 46.3345 147.171 46.6005 147.57 47.1325C147.97 47.6646 148.169 48.507 148.169 49.6598V57.88H150.858V49.5268C150.858 45.9443 149.367 44.1531 146.386 44.1531C145.392 44.1531 144.5 44.3836 143.71 44.8448C142.92 45.3059 142.321 45.9355 141.913 46.7335C141.274 45.0132 139.916 44.1531 137.839 44.1531C136.863 44.1531 136.011 44.3748 135.284 44.8181C134.556 45.2615 133.997 45.8911 133.606 46.7069L133.367 44.4723H130.864C131.006 45.5896 131.077 46.8488 131.077 48.2499V57.88H133.739Z" fill="#808080"/>
</g>
<defs>
<clipPath id="clip0_5056_41060">
<rect width="119.429" height="31.0196" fill="white" transform="translate(31.4297 33.1034)"/>
</clipPath>
</defs>
</svg>
