<svg width="182" height="96" viewBox="0 0 182 96" fill="none" xmlns="http://www.w3.org/2000/svg">
<path d="M127.536 42.5306C125.289 41.3537 122.722 41.1117 120.299 41.8707C117.876 42.6186 115.893 44.2685 114.714 46.5123C113.535 48.7561 113.293 51.3189 114.053 53.7387C115.298 57.7313 118.944 60.4041 123.13 60.4041C124.077 60.4041 125.025 60.2611 125.939 59.9752C130.94 58.4243 133.749 53.1007 132.196 48.1071C131.436 45.6873 129.783 43.7075 127.536 42.5306ZM118.228 52.4408C117.82 51.1319 117.953 49.757 118.58 48.5471C119.219 47.3372 120.288 46.4573 121.588 46.0503C122.877 45.6543 124.287 45.7753 125.487 46.4023C126.699 47.0402 127.58 48.1071 127.988 49.405C128.395 50.7029 128.263 52.0888 127.624 53.2987C126.985 54.5086 125.917 55.3995 124.617 55.7955C123.317 56.2025 121.929 56.0705 120.718 55.4325C119.528 54.8056 118.636 53.7387 118.228 52.4408Z" fill="#808080"/>
<path d="M76.0345 41.4436C70.8021 41.4436 66.5391 45.7002 66.5391 50.9248C66.5391 56.1494 70.8021 60.406 76.0345 60.406C81.2669 60.406 85.5299 56.1494 85.5299 50.9248C85.5299 45.7002 81.2669 41.4436 76.0345 41.4436ZM81.1457 50.9248C81.1457 53.7406 78.8545 56.0284 76.0345 56.0284C73.2145 56.0284 70.9233 53.7406 70.9233 50.9248C70.9233 48.109 73.2145 45.8212 76.0345 45.8212C78.8545 45.8102 81.1457 48.109 81.1457 50.9248Z" fill="#808080"/>
<path d="M99.5814 41.4436C94.349 41.4436 90.0859 45.7002 90.0859 50.9248V60.406H94.4701V50.9248C94.4701 48.109 96.7614 45.8212 99.5814 45.8212C102.401 45.8212 104.693 48.109 104.693 50.9248V60.406H109.077V50.9248C109.077 45.6892 104.814 41.4436 99.5814 41.4436Z" fill="#808080"/>
<path d="M64.4931 41.6183C63.8872 41.4973 63.2593 41.4313 62.6204 41.4313C57.388 41.4313 53.125 45.688 53.125 50.9125V60.3938H57.5092V50.9125C57.5092 48.1958 59.6572 45.963 62.345 45.82L64.4931 41.6183Z" fill="#808080"/>
<path d="M141.284 48.5118C141.284 46.829 142.65 45.4651 144.336 45.4651C145.448 45.4651 146.473 46.07 147.012 47.0489C147.1 47.2139 147.365 47.7309 147.508 48.1158H151.991C151.507 46.763 151 45.6411 150.67 45.0361C149.403 42.7263 146.968 41.2964 144.336 41.2964C140.348 41.2964 137.109 44.5301 137.109 48.5118C137.109 50.8546 138.255 53.0544 140.172 54.4073C140.249 54.4623 140.128 54.4073 142.375 55.7052L144.479 52.0975C143.542 51.5586 142.782 51.1186 142.562 50.9756C141.758 50.4147 141.284 49.4907 141.284 48.5118Z" fill="#808080"/>
<path d="M147.746 60.5548C147.746 62.2377 146.38 63.6015 144.695 63.6015C143.582 63.6015 142.558 62.9966 142.018 62.0177C141.93 61.8527 141.666 61.3357 141.522 60.9508H137.039C137.524 62.3036 138.03 63.4256 138.361 64.0305C139.628 66.3403 142.062 67.7702 144.695 67.7702C148.683 67.7702 151.921 64.5365 151.921 60.5548C151.921 58.212 150.775 56.0122 148.859 54.6593C148.782 54.6043 148.903 54.6593 146.656 53.3614L144.552 56.9691C145.488 57.508 146.248 57.948 146.468 58.091C147.273 58.6629 147.746 59.5759 147.746 60.5548Z" fill="#808080"/>
<path d="M35.0713 41.4436H30.7422V60.406H35.0713V41.4436Z" fill="#808080"/>
<path d="M35.0401 28.4184H30.7109V38.9335H35.0401V28.4184Z" fill="#808080"/>
<path d="M45.0739 61.0834L39.0043 55.0229C37.9027 53.923 37.2969 52.4711 37.2969 50.9203C37.2969 49.3694 37.9027 47.9065 39.0043 46.8176L45.0739 40.7571L48.026 43.7049L41.9565 49.7654C41.648 50.0733 41.4718 50.4803 41.4718 50.9203C41.4718 51.3602 41.648 51.7672 41.9565 52.0752L48.026 58.1357L45.0739 61.0834Z" fill="#808080"/>
</svg>
