<svg width="182" height="96" viewBox="0 0 182 96" fill="none" xmlns="http://www.w3.org/2000/svg">
<g clip-path="url(#clip0_5056_41166)">
<path fill-rule="evenodd" clip-rule="evenodd" d="M108.803 42.1773C109.763 42.1773 110.287 42.6135 110.287 43.4859C110.287 43.9222 110.199 44.2711 109.938 44.4456C109.676 44.7073 109.327 44.7946 108.803 44.7946C107.844 44.7946 107.32 44.3584 107.32 43.4859C107.32 42.6135 107.844 42.1773 108.803 42.1773Z" fill="#808080"/>
<path fill-rule="evenodd" clip-rule="evenodd" d="M129.301 45.9224C130.522 45.9224 131.395 46.3588 132.093 47.3188C132.791 48.2789 133.14 49.5007 133.14 51.159C133.14 52.2063 132.965 53.1664 132.704 53.9518C132.355 54.7373 131.918 55.3483 131.395 55.7846C130.784 56.221 130.086 56.3956 129.301 56.3956C128.08 56.3956 127.207 55.9592 126.509 55.0864H126.335C126.422 55.9592 126.509 56.3956 126.509 56.5701V60.6721H123.805V46.097H126.073L126.422 47.4061H126.509C127.12 46.3588 128.08 45.9224 129.301 45.9224ZM128.429 48.1043C127.731 48.1043 127.294 48.2789 126.945 48.7153C126.596 49.1516 126.509 49.8498 126.422 50.8099V51.0717C126.422 52.119 126.596 52.9045 126.945 53.4282C127.294 53.8646 127.818 54.1264 128.429 54.1264C129.65 54.1264 130.261 53.0791 130.261 51.0717C130.261 50.1117 130.086 49.3262 129.824 48.8025C129.563 48.3661 129.127 48.1043 128.429 48.1043Z" fill="#808080"/>
<path fill-rule="evenodd" clip-rule="evenodd" d="M139.684 45.9224C140.643 45.9224 141.516 46.097 142.214 46.5333C142.912 46.9697 143.523 47.5807 143.871 48.3661C144.308 49.1516 144.482 50.1117 144.482 51.159C144.482 52.8172 144.046 54.0391 143.174 54.9992C142.301 55.9592 141.08 56.3956 139.597 56.3956C138.637 56.3956 137.764 56.221 137.067 55.7846C136.369 55.3483 135.758 54.7373 135.322 53.9518C134.885 53.1664 134.711 52.2063 134.711 51.159C134.711 49.5007 135.147 48.2789 136.02 47.3188C136.979 46.3588 138.113 45.9224 139.684 45.9224ZM139.684 48.1043C138.986 48.1043 138.462 48.3661 138.113 48.8898C137.764 49.4135 137.59 50.1117 137.59 51.159C137.59 52.119 137.764 52.9045 138.113 53.4282C138.462 53.9518 138.986 54.2137 139.684 54.2137C140.382 54.2137 140.905 53.9518 141.254 53.4282C141.603 52.9045 141.778 52.2063 141.778 51.159C141.778 50.199 141.603 49.4135 141.254 48.8898C140.905 48.3661 140.382 48.1043 139.684 48.1043Z" fill="#808080"/>
<path fill-rule="evenodd" clip-rule="evenodd" d="M84.4546 45.8274C85.7633 45.8274 86.8102 46.0893 87.5954 46.7002C88.2933 47.3111 88.6423 48.1839 88.6423 49.4058V56.1261H86.723L86.1995 54.7296H86.1123C85.676 55.3406 85.1526 55.6897 84.7164 55.9515C84.1929 56.2133 83.5822 56.3006 82.797 56.3006C81.8373 56.3006 81.0521 56.0388 80.5287 55.5151C80.0052 54.9915 79.6562 54.206 79.6562 53.1587C79.6562 52.1113 80.0052 51.3259 80.7904 50.8022C81.5756 50.2785 82.6225 50.0167 84.1929 49.9294L85.9378 49.8422V49.4058C85.9378 48.3585 85.4143 47.8348 84.3674 47.8348C83.5822 47.8348 82.6225 48.0966 81.4884 48.533L80.6159 46.7002C81.7501 46.1765 83.0587 45.8274 84.4546 45.8274ZM85.9378 51.5004H84.8909C84.1057 51.5004 83.495 51.675 83.146 51.9368C82.797 52.1986 82.5353 52.635 82.5353 53.1587C82.5353 53.9441 82.9715 54.2933 83.8439 54.2933C84.4546 54.2933 84.9781 54.1187 85.3271 53.7696C85.676 53.4205 85.9378 52.8968 85.9378 52.2859V51.5004Z" fill="#808080"/>
<path fill-rule="evenodd" clip-rule="evenodd" d="M114.987 46.0997L116.906 49.3289L118.913 46.0997H122.054L118.739 50.9871L122.228 56.1364H119.088L116.906 52.7327L114.813 56.1364H111.672L115.162 50.9871L111.846 46.0997H114.987Z" fill="#808080"/>
<path d="M110.103 46.0997H107.398V56.1364H110.103V46.0997Z" fill="#808080"/>
<path fill-rule="evenodd" clip-rule="evenodd" d="M152.331 45.9224C152.68 45.9224 153.029 45.9224 153.291 46.0097L153.116 48.5407C152.854 48.4534 152.593 48.4534 152.331 48.4534C151.459 48.4534 150.761 48.7153 150.324 49.1516C149.801 49.588 149.626 50.199 149.626 51.0717V56.221H146.922V46.097H149.016L149.452 47.7552H149.626C149.975 47.2316 150.324 46.7079 150.848 46.3588C151.11 46.097 151.72 45.9224 152.331 45.9224Z" fill="#808080"/>
<path fill-rule="evenodd" clip-rule="evenodd" d="M104.779 45.9224C105.128 45.9224 105.477 45.9224 105.739 46.0097L105.564 48.5407C105.302 48.4534 105.041 48.4534 104.779 48.4534C103.906 48.4534 103.209 48.7153 102.772 49.1516C102.249 49.588 102.074 50.199 102.074 51.0717V56.221H99.1953V46.097H101.289L101.725 47.7552H101.813C102.162 47.2316 102.511 46.7079 103.034 46.3588C103.645 46.097 104.168 45.9224 104.779 45.9224Z" fill="#808080"/>
<path fill-rule="evenodd" clip-rule="evenodd" d="M74.2388 45.9224C75.373 45.9224 76.2454 46.1842 76.8561 46.7952C77.4668 47.4061 77.7285 48.2789 77.7285 49.588V56.1337H74.9367V50.2862C74.9367 49.588 74.8495 48.9771 74.5878 48.628C74.326 48.2789 73.9771 48.1043 73.4536 48.1043C72.7557 48.1043 72.3194 48.3661 71.9705 48.8025C71.6215 49.3262 71.447 50.0244 71.447 51.0717V56.1337H68.6552V50.2862C68.6552 49.588 68.568 48.9771 68.3062 48.628C68.0445 48.2789 67.6955 48.1043 67.1721 48.1043C66.4741 48.1043 65.9507 48.3661 65.6017 48.8898C65.2527 49.4135 65.1655 50.2862 65.1655 51.4208V56.1337H62.4609V46.097H64.5548L64.9038 47.4061H65.0782C65.34 46.9697 65.7762 46.6206 66.2124 46.3588C66.7359 46.097 67.3466 45.9224 67.9573 45.9224C69.4404 45.9224 70.4873 46.4461 71.0108 47.4061H71.2725C71.5342 46.9697 71.9705 46.5333 72.4939 46.3588C73.0174 46.0097 73.5408 45.9224 74.2388 45.9224Z" fill="#808080"/>
<path fill-rule="evenodd" clip-rule="evenodd" d="M158.443 43.9181V46.1H161.235V48.1947H158.443V53.0822C158.443 53.4313 158.53 53.7804 158.792 53.9549C159.054 54.1295 159.315 54.2168 159.664 54.2168C160.188 54.2168 160.711 54.1295 161.409 53.8676V55.875C160.711 56.2241 159.926 56.3114 158.879 56.3114C157.745 56.3114 156.96 56.0496 156.524 55.4386C156 54.915 155.738 54.0422 155.738 52.9076V48.0201H154.43V46.9728L155.913 46.1L156.698 44.0054H158.443V43.9181Z" fill="#808080"/>
<path fill-rule="evenodd" clip-rule="evenodd" d="M94.3101 43.9181V46.1H97.1019V48.1947H94.3101V53.0822C94.3101 53.4313 94.3973 53.7804 94.659 53.9549C94.9208 54.1295 95.1825 54.2168 95.5315 54.2168C96.0549 54.2168 96.5784 54.1295 97.2763 53.8676V55.875C96.5784 56.2241 95.7932 56.3114 94.7463 56.3114C93.6121 56.3114 92.8269 56.0496 92.3907 55.4386C91.8673 54.915 91.6055 54.0422 91.6055 52.9076V48.0201H90.2969V46.9728L91.78 46.0128L92.5652 43.9181H94.3101Z" fill="#808080"/>
<path fill-rule="evenodd" clip-rule="evenodd" d="M42.9238 49.5838C43.0111 49.5838 43.0983 49.5838 43.0983 49.6711V53.0749C43.0983 53.1621 43.0111 53.2494 43.0111 53.2494L36.9913 56.5659C36.1188 57.0896 35.0719 57.0896 34.1995 56.5659L28.2669 53.1621C28.1797 53.1621 28.1797 53.0749 28.1797 52.9876V49.5838C28.1797 49.4965 28.2669 49.4092 28.3542 49.4965L34.8102 53.1621C35.3336 53.424 35.9443 53.424 36.3806 53.1621L42.9238 49.5838Z" fill="#808080"/>
<path fill-rule="evenodd" clip-rule="evenodd" d="M50.6042 44.6125V59.1877C50.6042 59.275 50.5169 59.3623 50.4297 59.3623H47.4634C47.3762 59.3623 47.2889 59.275 47.2889 59.1877V44.6125C47.2889 44.0889 46.6782 43.7398 46.1548 44.0016L36.907 49.2382C36.0345 49.7618 34.9876 49.7618 34.1152 49.2382L24.8674 44.0016C24.3439 43.7398 23.8204 44.0889 23.8204 44.6125V59.1877C23.8204 59.275 23.7332 59.3623 23.646 59.3623H20.8542C20.7669 59.3623 20.6797 59.275 20.6797 59.1877V44.6125C20.6797 41.5579 23.9077 39.7251 26.525 41.2088L34.8131 45.9217C35.3366 46.1835 35.9473 46.1835 36.3835 45.9217L44.6716 41.2088C47.3762 39.6378 50.6042 41.5579 50.6042 44.6125Z" fill="#808080"/>
<path fill-rule="evenodd" clip-rule="evenodd" d="M42.9238 34.7516L36.3806 38.4172C35.8571 38.6791 35.2464 38.6791 34.8102 38.4172L28.3542 34.7516C28.2669 34.7516 28.1797 34.7516 28.1797 34.8389V38.2427C28.1797 38.33 28.2669 38.4172 28.2669 38.4172L34.1995 41.821C35.0719 42.3447 36.1188 42.3447 36.9913 41.821L43.0111 38.4172C43.0983 38.4172 43.0983 38.33 43.0983 38.2427V34.8389C43.0983 34.7516 43.0111 34.7516 42.9238 34.7516Z" fill="#808080"/>
</g>
<defs>
<clipPath id="clip0_5056_41166">
<rect width="140.811" height="26.0084" fill="white" transform="translate(20.6875 34.7585)"/>
</clipPath>
</defs>
</svg>
