<svg width="182" height="96" viewBox="0 0 182 96" fill="none" xmlns="http://www.w3.org/2000/svg">
<path d="M31.8042 60.7913L26.8877 72.6631H25.2772L20.3438 60.7913H22.2934L26.1248 70.3057L29.9563 60.7913H31.8042Z" fill="#808080"/>
<path d="M48.708 72.6631H40.9434V60.7913H48.5045V62.3177H42.7574V65.8622H47.979V67.3717H42.7574V71.1367H48.708V72.6631Z" fill="#808080"/>
<path d="M68.4599 72.6631H66.8833L60.4071 63.42V72.6631H58.6609V60.7913H60.4919L66.7137 69.8478V60.7913H68.4599V72.6631Z" fill="#808080"/>
<path d="M82.1595 62.3177H77.7517V60.7913H88.3644V62.3177H83.9735V72.6631H82.1595V62.3177Z" fill="#808080"/>
<path d="M102.301 72.8497C100.742 72.8497 99.5098 72.3917 98.6056 71.4759C97.7127 70.5488 97.2663 69.2712 97.2663 67.643V60.7913H99.0972V67.4904C99.0972 68.6889 99.3685 69.6047 99.911 70.2379C100.465 70.871 101.262 71.1876 102.301 71.1876C103.341 71.1876 104.138 70.871 104.692 70.2379C105.246 69.6047 105.523 68.6889 105.523 67.4904V60.7913H107.337V67.643C107.337 69.2712 106.884 70.5488 105.98 71.4759C105.087 72.3917 103.861 72.8497 102.301 72.8497Z" fill="#808080"/>
<path d="M121.104 62.3177H119.154V66.4898H121.969C122.5 66.3428 122.912 66.0827 123.206 65.7096C123.511 65.3252 123.664 64.856 123.664 64.302C123.664 63.6688 123.438 63.1826 122.986 62.8434C122.545 62.4929 121.918 62.3177 121.104 62.3177ZM123.189 67.5413C123.653 68.3101 124.269 69.1864 125.037 70.17C125.806 71.1424 126.535 71.9734 127.224 72.6631H124.969C124.427 72.1091 123.839 71.4137 123.206 70.5771C122.585 69.7291 121.997 68.8528 121.443 67.9483H119.154V72.6631H117.34V60.7913H121.155C122.556 60.7913 123.636 61.0966 124.393 61.7071C125.161 62.3064 125.546 63.1657 125.546 64.285C125.546 65.0199 125.331 65.6757 124.901 66.2523C124.483 66.829 123.913 67.2586 123.189 67.5413Z" fill="#808080"/>
<path d="M143.857 72.6631H136.092V60.7913H143.653V62.3177H137.906V65.8622H143.128V67.3717H137.906V71.1367H143.857V72.6631Z" fill="#808080"/>
<path d="M156.624 72.8497C155.923 72.8497 155.222 72.7592 154.522 72.5783C153.821 72.3974 153.244 72.16 152.792 71.866V70.0852C153.357 70.4696 153.968 70.7636 154.623 70.9671C155.29 71.1706 155.951 71.2724 156.607 71.2724C157.432 71.2724 158.082 71.1085 158.557 70.7806C159.031 70.4527 159.269 70.0061 159.269 69.4407C159.269 69.0563 159.11 68.7228 158.794 68.4401C158.489 68.1462 157.811 67.7957 156.759 67.3886C156.081 67.1286 155.578 66.9194 155.251 66.7611C154.934 66.5915 154.663 66.4163 154.437 66.2354C154.053 65.9414 153.77 65.6135 153.589 65.2517C153.408 64.8786 153.318 64.4602 153.318 63.9967C153.318 63.0243 153.708 62.2159 154.488 61.5714C155.279 60.927 156.257 60.6047 157.421 60.6047C158.008 60.6047 158.557 60.6669 159.065 60.7913C159.574 60.9044 160.065 61.0853 160.54 61.334V63.0639C160.031 62.7586 159.534 62.5325 159.048 62.3855C158.562 62.2385 158.042 62.165 157.488 62.165C156.776 62.165 156.206 62.3233 155.776 62.6399C155.347 62.9565 155.132 63.3805 155.132 63.9119C155.132 64.285 155.285 64.6129 155.59 64.8955C155.895 65.1782 156.573 65.5174 157.624 65.9131C158.314 66.1845 158.822 66.405 159.15 66.5746C159.478 66.7328 159.76 66.9024 159.998 67.0833C160.382 67.3773 160.664 67.7165 160.845 68.1009C161.037 68.474 161.133 68.8924 161.133 69.356C161.133 70.3735 160.704 71.2102 159.845 71.866C158.997 72.5218 157.924 72.8497 156.624 72.8497Z" fill="#808080"/>
<g opacity="0.4">
<rect width="20.2855" height="23.9669" transform="translate(81.2344 22.7532)" fill="black"/>
<path fill-rule="evenodd" clip-rule="evenodd" d="M89.8853 28.4086H96.6599C100.297 28.4086 101.667 30.2507 101.455 32.957C101.105 37.425 98.4052 39.8969 94.8237 39.8969H93.0155C92.5241 39.8969 92.1936 40.2223 92.0607 41.104L91.293 46.2298C91.2423 46.5622 91.0674 46.7546 90.8051 46.7809H86.5487C86.1482 46.7809 86.0066 46.4747 86.1115 45.8117L88.7066 29.3795C88.8081 28.7217 89.1683 28.4086 89.8853 28.4086Z" fill="#ADADAD"/>
<path fill-rule="evenodd" clip-rule="evenodd" d="M85.6479 22.7532H92.4296C94.3392 22.7532 96.6056 22.8144 98.12 24.1527C99.1325 25.0466 99.6641 26.4689 99.5417 28.0014C99.1255 33.1814 96.0285 36.0837 91.8735 36.0837H88.5298C87.9598 36.0837 87.5838 36.4615 87.4229 37.4832L86.4891 43.4312C86.4279 43.816 86.2617 44.0435 85.9644 44.0715H81.7797C81.3163 44.0715 81.1519 43.7216 81.2726 42.9483L84.2804 23.8833C84.4011 23.117 84.8225 22.7532 85.6479 22.7532Z" fill="white"/>
<path fill-rule="evenodd" clip-rule="evenodd" d="M87.5234 36.881L88.7073 29.3812C88.8105 28.7235 89.1708 28.4086 89.8877 28.4086H96.6624C97.7833 28.4086 98.6909 28.5835 99.4009 28.9072C98.7207 33.5186 95.739 36.0797 91.8358 36.0797H88.4975C88.0498 36.0815 87.721 36.3054 87.5234 36.881Z" fill="#E6E6E6"/>
</g>
</svg>
