<svg width="182" height="96" viewBox="0 0 182 96" fill="none" xmlns="http://www.w3.org/2000/svg">
<path fill-rule="evenodd" clip-rule="evenodd" d="M37.6266 36.3684V39.8099H31.4167C30.2807 39.8099 30.0157 39.9949 29.3341 40.698C28.7888 41.2605 28.6778 42.1412 28.6904 42.5113V45.5458H26.6457V34.5551C26.6457 34.3701 26.5472 34 26.1534 34C25.7596 34 25.7621 34.3701 25.8126 34.5551V53.3539C25.8126 53.946 26.2165 54.1927 26.4185 54.2421H28.6904V61.5692C28.6904 62.3981 29.7254 62.8274 30.2429 62.9384H50.8795C52.0306 62.9384 52.3437 62.0256 52.3563 61.5692V54.2421C52.798 54.2544 53.8633 54.2717 54.5903 54.2421C55.3173 54.2125 55.3729 53.6377 55.3098 53.3539V34.5551C55.2719 34.3701 55.1204 34 54.8175 34C54.5146 34 54.3884 34.3701 54.3631 34.5551V45.5458H52.3563V42.9184C52.3437 42.4743 52.1669 41.4085 51.5611 40.698C50.9553 39.9875 49.895 39.8099 49.4406 39.8099H43.4958V36.3684C43.1171 35.5789 41.9887 34 40.5044 34C39.0201 34 37.9674 35.5789 37.6266 36.3684ZM34.5217 52.8359C36.9894 52.8359 38.9898 50.8809 38.9898 48.4692C38.9898 46.0575 36.9894 44.1025 34.5217 44.1025C32.054 44.1025 30.0535 46.0575 30.0535 48.4692C30.0535 50.8809 32.054 52.8359 34.5217 52.8359ZM34.5217 51.4667C36.2156 51.4667 37.5888 50.1246 37.5888 48.4692C37.5888 46.8137 36.2156 45.4717 34.5217 45.4717C32.8278 45.4717 31.4546 46.8137 31.4546 48.4692C31.4546 50.1246 32.8278 51.4667 34.5217 51.4667ZM50.9931 48.4692C50.9931 50.8809 48.9927 52.8359 46.525 52.8359C44.0573 52.8359 42.0569 50.8809 42.0569 48.4692C42.0569 46.0575 44.0573 44.1025 46.525 44.1025C48.9927 44.1025 50.9931 46.0575 50.9931 48.4692ZM49.5921 48.4692C49.5921 50.1246 48.2189 51.4667 46.525 51.4667C44.8311 51.4667 43.4579 50.1246 43.4579 48.4692C43.4579 46.8137 44.8311 45.4717 46.525 45.4717C48.2189 45.4717 49.5921 46.8137 49.5921 48.4692ZM38.649 52.1328L40.5557 48.7282L42.5113 52.1328H38.649ZM48.4561 54.1681H32.4769C31.9923 54.1681 31.7196 54.7108 31.6439 54.9822V57.4986C31.6439 59.038 33.1585 60.0149 34.5217 60.0149H46.1085C49.6771 60.0149 49.5807 57.4264 49.5275 55.9954C49.5217 55.8398 49.5164 55.6977 49.5164 55.5743C49.5164 54.5677 48.8095 54.2174 48.4561 54.1681ZM36.3013 55.6853H38.7247V58.6087H36.3013V55.6853ZM41.7918 55.6853H39.3684V58.6087H41.7918V55.6853ZM42.4355 55.6853H44.8589V58.6087H42.4355V55.6853ZM45.389 55.6483V58.5347H46.6007C47.0551 58.6087 47.9639 58.4459 47.9639 57.2025C47.9639 55.9591 47.0551 55.6483 46.6007 55.6483H45.389ZM35.8091 58.5717V55.6853H34.5974C34.143 55.6853 33.2342 55.9961 33.2342 57.2395C33.2342 58.4829 34.143 58.6457 34.5974 58.5717H35.8091Z" fill="#808080"/>
<path d="M70.1499 50.6602H68.2639V54.327H66.5718V44.8102H69.9961C71.1197 44.8102 71.9869 45.0564 72.5978 45.5488C73.2087 46.0412 73.5141 46.7536 73.5141 47.6861C73.5141 48.3223 73.3558 48.8561 73.0392 49.2875C72.7271 49.7146 72.2901 50.0436 71.7283 50.2745L73.9154 54.2421V54.327H72.1029L70.1499 50.6602ZM68.2639 49.3333H70.0028C70.5735 49.3333 71.0194 49.1938 71.3404 48.915C71.6615 48.6317 71.822 48.2461 71.822 47.758C71.822 47.2482 71.6726 46.8539 71.3739 46.575C71.0796 46.2961 70.6382 46.1523 70.0496 46.1436H68.2639V49.3333Z" fill="#808080"/>
<path d="M74.3838 50.7255C74.3838 50.0327 74.5243 49.4095 74.8052 48.8561C75.0861 48.2984 75.4807 47.8713 75.989 47.575C76.4973 47.2744 77.0814 47.124 77.7413 47.124C78.7177 47.124 79.5092 47.4312 80.1156 48.0456C80.7264 48.6601 81.0564 49.4749 81.1054 50.4902L81.1121 50.8628C81.1121 51.56 80.9739 52.1831 80.6974 52.7322C80.4255 53.2812 80.0331 53.7061 79.5203 54.0067C79.012 54.3074 78.4235 54.4578 77.7546 54.4578C76.7336 54.4578 75.9154 54.1266 75.3001 53.4642C74.6892 52.7975 74.3838 51.9108 74.3838 50.804V50.7255ZM76.009 50.8628C76.009 51.5905 76.1629 52.1613 76.4705 52.5753C76.7782 52.9849 77.2062 53.1897 77.7546 53.1897C78.3031 53.1897 78.7289 52.9805 79.0321 52.5622C79.3397 52.1439 79.4936 51.5317 79.4936 50.7255C79.4936 50.0109 79.3353 49.4444 79.0187 49.0261C78.7066 48.6078 78.2808 48.3986 77.7413 48.3986C77.2107 48.3986 76.7893 48.6056 76.4772 49.0195C76.1651 49.4292 76.009 50.0436 76.009 50.8628Z" fill="#808080"/>
<path d="M88.563 50.8628C88.563 51.9609 88.3111 52.8346 87.8072 53.4838C87.3078 54.1331 86.619 54.4578 85.7406 54.4578C84.8934 54.4578 84.2335 54.1593 83.7609 53.5623L83.6806 54.327H82.2092V44.2873H83.8345V47.9345C84.3026 47.3942 84.9335 47.124 85.7272 47.124C86.6101 47.124 87.3034 47.4443 87.8072 48.0849C88.3111 48.7254 88.563 49.6209 88.563 50.7713V50.8628ZM86.9378 50.7255C86.9378 49.9586 86.7995 49.3834 86.5231 48.9999C86.2467 48.6165 85.8454 48.4247 85.3192 48.4247C84.6147 48.4247 84.1198 48.7254 83.8345 49.3268V52.2419C84.1243 52.8564 84.6237 53.1636 85.3326 53.1636C85.8409 53.1636 86.2333 52.9784 86.5097 52.608C86.7862 52.2376 86.9289 51.6776 86.9378 50.9281V50.7255Z" fill="#808080"/>
<path d="M89.3525 50.7255C89.3525 50.0327 89.4929 49.4095 89.7738 48.8561C90.0547 48.2984 90.4493 47.8713 90.9576 47.575C91.4659 47.2744 92.05 47.124 92.7099 47.124C93.6864 47.124 94.4778 47.4312 95.0842 48.0456C95.6951 48.6601 96.025 49.4749 96.0741 50.4902L96.0808 50.8628C96.0808 51.56 95.9425 52.1831 95.6661 52.7322C95.3941 53.2812 95.0017 53.7061 94.489 54.0067C93.9807 54.3074 93.3921 54.4578 92.7233 54.4578C91.7022 54.4578 90.8841 54.1266 90.2688 53.4642C89.6579 52.7975 89.3525 51.9108 89.3525 50.804V50.7255ZM90.9777 50.8628C90.9777 51.5905 91.1315 52.1613 91.4392 52.5753C91.7468 52.9849 92.1749 53.1897 92.7233 53.1897C93.2717 53.1897 93.6975 52.9805 94.0007 52.5622C94.3084 52.1439 94.4622 51.5317 94.4622 50.7255C94.4622 50.0109 94.3039 49.4444 93.9874 49.0261C93.6752 48.6078 93.2494 48.3986 92.7099 48.3986C92.1793 48.3986 91.758 48.6056 91.4459 49.0195C91.1338 49.4292 90.9777 50.0436 90.9777 50.8628Z" fill="#808080"/>
<path d="M99.2178 45.5357V47.2547H100.495V48.4313H99.2178V52.3792C99.2178 52.6494 99.2713 52.8455 99.3783 52.9675C99.4898 53.0851 99.686 53.144 99.9669 53.144C100.154 53.144 100.344 53.1222 100.535 53.0786V54.3074C100.165 54.4076 99.8086 54.4578 99.4652 54.4578C98.2168 54.4578 97.5926 53.7845 97.5926 52.438V48.4313H96.4021V47.2547H97.5926V45.5357H99.2178Z" fill="#808080"/>
<path d="M108.194 52.255L110.668 44.8102H112.528L109.023 54.327H107.385L103.893 44.8102H105.746L108.194 52.255Z" fill="#808080"/>
<path d="M116.093 54.4578C115.063 54.4578 114.227 54.1418 113.585 53.51C112.947 52.8738 112.628 52.0284 112.628 50.9739V50.7778C112.628 50.0719 112.767 49.4422 113.043 48.8888C113.324 48.3311 113.716 47.8975 114.22 47.5881C114.724 47.2787 115.286 47.124 115.906 47.124C116.891 47.124 117.651 47.4312 118.186 48.0456C118.726 48.6601 118.996 49.5294 118.996 50.6536V51.2942H114.267C114.316 51.8781 114.514 52.34 114.862 52.6799C115.214 53.0198 115.656 53.1897 116.186 53.1897C116.931 53.1897 117.537 52.8956 118.006 52.3073L118.882 53.1243C118.592 53.547 118.204 53.876 117.718 54.1113C117.237 54.3423 116.695 54.4578 116.093 54.4578ZM115.899 48.3986C115.453 48.3986 115.092 48.5511 114.815 48.8561C114.543 49.1612 114.37 49.586 114.294 50.1307H117.39V50.0131C117.355 49.4814 117.21 49.0806 116.956 48.8104C116.701 48.5359 116.349 48.3986 115.899 48.3986Z" fill="#808080"/>
<path d="M121.497 47.2547L121.544 48.0718C122.079 47.4399 122.781 47.124 123.651 47.124C125.158 47.124 125.925 47.9672 125.951 49.6536V54.327H124.326V49.7451C124.326 49.2962 124.226 48.9651 124.025 48.7516C123.829 48.5337 123.506 48.4247 123.055 48.4247C122.4 48.4247 121.912 48.7145 121.591 49.2941V54.327H119.966V47.2547H121.497Z" fill="#808080"/>
<path d="M129.376 45.5357V47.2547H130.654V48.4313H129.376V52.3792C129.376 52.6494 129.43 52.8455 129.537 52.9675C129.648 53.0851 129.844 53.144 130.125 53.144C130.312 53.144 130.502 53.1222 130.694 53.0786V54.3074C130.324 54.4076 129.967 54.4578 129.624 54.4578C128.375 54.4578 127.751 53.7845 127.751 52.438V48.4313H126.56V47.2547H127.751V45.5357H129.376Z" fill="#808080"/>
<path d="M136.011 53.6342C135.534 54.1832 134.856 54.4578 133.978 54.4578C133.193 54.4578 132.598 54.2333 132.192 53.7845C131.791 53.3357 131.59 52.6864 131.59 51.8367V47.2547H133.215V51.8171C133.215 52.7147 133.597 53.1636 134.359 53.1636C135.148 53.1636 135.681 52.8869 135.958 52.3335V47.2547H137.583V54.327H136.051L136.011 53.6342Z" fill="#808080"/>
<path d="M142.753 48.7058C142.539 48.6709 142.318 48.6535 142.091 48.6535C141.346 48.6535 140.845 48.9324 140.586 49.4902V54.327H138.961V47.2547H140.512L140.553 48.0456C140.945 47.4312 141.489 47.124 142.184 47.124C142.416 47.124 142.608 47.1545 142.76 47.2155L142.753 48.7058Z" fill="#808080"/>
<path d="M146.559 54.4578C145.529 54.4578 144.693 54.1418 144.051 53.51C143.413 52.8738 143.094 52.0284 143.094 50.9739V50.7778C143.094 50.0719 143.233 49.4422 143.509 48.8888C143.79 48.3311 144.182 47.8975 144.686 47.5881C145.19 47.2787 145.752 47.124 146.372 47.124C147.357 47.124 148.117 47.4312 148.652 48.0456C149.192 48.6601 149.461 49.5294 149.461 50.6536V51.2942H144.733C144.782 51.8781 144.98 52.34 145.328 52.6799C145.68 53.0198 146.122 53.1897 146.652 53.1897C147.397 53.1897 148.003 52.8956 148.472 52.3073L149.348 53.1243C149.058 53.547 148.67 53.876 148.184 54.1113C147.702 54.3423 147.161 54.4578 146.559 54.4578ZM146.365 48.3986C145.919 48.3986 145.558 48.5511 145.281 48.8561C145.009 49.1612 144.835 49.586 144.76 50.1307H147.856V50.0131C147.821 49.4814 147.676 49.0806 147.422 48.8104C147.167 48.5359 146.815 48.3986 146.365 48.3986Z" fill="#808080"/>
<path d="M154.511 52.4054C154.511 52.1221 154.391 51.9064 154.15 51.7583C153.914 51.6101 153.519 51.4794 152.966 51.3661C152.413 51.2528 151.952 51.109 151.582 50.9347C150.77 50.5512 150.365 49.9956 150.365 49.2679C150.365 48.6579 150.628 48.148 151.154 47.7384C151.68 47.3288 152.349 47.124 153.16 47.124C154.025 47.124 154.723 47.3332 155.254 47.7515C155.789 48.1698 156.056 48.7123 156.056 49.379H154.431C154.431 49.074 154.315 48.8213 154.083 48.6208C153.851 48.416 153.544 48.3136 153.16 48.3136C152.804 48.3136 152.512 48.3942 152.284 48.5555C152.061 48.7167 151.95 48.9324 151.95 49.2026C151.95 49.4466 152.054 49.6361 152.264 49.7712C152.474 49.9063 152.897 50.0436 153.535 50.183C154.172 50.3181 154.672 50.4815 155.033 50.6732C155.399 50.8606 155.668 51.0872 155.842 51.353C156.021 51.6188 156.11 51.9413 156.11 52.3204C156.11 52.9566 155.84 53.4729 155.3 53.8695C154.761 54.2617 154.054 54.4578 153.18 54.4578C152.587 54.4578 152.059 54.3532 151.595 54.144C151.132 53.9348 150.77 53.6472 150.512 53.2812C150.253 52.9152 150.124 52.5208 150.124 52.0981H151.702C151.725 52.4729 151.869 52.7627 152.137 52.9675C152.405 53.1679 152.759 53.2681 153.2 53.2681C153.628 53.2681 153.954 53.1897 154.177 53.0328C154.4 52.8716 154.511 52.6624 154.511 52.4054Z" fill="#808080"/>
</svg>
