<svg width="182" height="96" viewBox="0 0 182 96" fill="none" xmlns="http://www.w3.org/2000/svg">
<path d="M46.604 51.4241C46.9785 50.345 47.2956 49.2959 47.7117 48.2868C47.9871 47.6193 47.8563 47.1118 47.4838 46.5383C46.0968 44.3961 44.7414 42.23 43.3108 39.968L48.7222 33L54.1217 39.948C53.5412 40.8712 52.9824 41.7644 52.4157 42.6556C51.5795 43.9705 50.7512 45.2914 49.8933 46.5922C49.5425 47.1218 49.3919 47.5914 49.6733 48.2388C50.1211 49.2699 50.4659 50.351 50.8503 51.436C50.7188 51.5448 50.5805 51.6449 50.4362 51.7358C48.536 52.7869 48.5359 52.7869 46.604 51.4241Z" fill="#808080"/>
<path d="M45.4131 63.5955L38.7891 56.7834C40.9528 54.7152 43.1384 52.7869 45.4171 50.7127L45.4131 63.5955Z" fill="#808080"/>
<path d="M52.0432 50.7566L58.6455 56.7634L52.0432 63.5236V50.7566Z" fill="#808080"/>
<path d="M135.553 43.8166L142.517 51.1083C142.749 49.8874 142.613 48.8123 142.636 47.7492C142.66 46.6862 142.636 45.6271 142.636 44.496H143.98V54.6573L137.096 47.4775C136.874 48.7104 137.005 49.7875 136.981 50.8545C136.957 51.9216 136.981 52.9747 136.981 54.1037H135.553V43.8166Z" fill="#808080"/>
<path d="M102.757 44.4561C103.946 44.4121 105.018 44.3462 106.088 44.6C107.198 44.8637 107.933 45.6131 108.105 46.6662C108.323 47.989 107.877 49.0641 106.849 49.6776C106.625 49.8114 106.387 49.9214 106.076 50.0772C107.027 51.4121 107.958 52.7189 108.953 54.1117C108.591 54.1357 108.359 54.1297 108.147 54.1677C107.465 54.2856 107.053 53.9678 106.698 53.4063C106.151 52.5371 105.543 51.7058 104.951 50.8665C104.786 50.6347 104.588 50.4269 104.287 50.0672C104.027 51.51 104.287 52.7969 104.104 54.1057H102.791C102.721 50.9285 102.779 47.7293 102.757 44.4561ZM104.198 45.8449C104.127 46.8606 104.138 47.8804 104.231 48.8942C105.173 48.9362 106.015 48.9522 106.534 48.1409C106.707 47.8934 106.798 47.5968 106.794 47.2937C106.79 46.9907 106.69 46.6968 106.51 46.4544C105.947 45.709 105.119 45.727 104.198 45.8549V45.8449Z" fill="#808080"/>
<path d="M68.9987 51.508L70.3857 51.2242C70.5086 51.5419 70.5977 51.8237 70.7206 52.0855C70.8596 52.3903 71.0901 52.6433 71.3796 52.8086C71.6691 52.9739 72.0028 53.0432 72.3335 53.0067C72.6496 52.9825 72.9515 52.8648 73.2014 52.6682C73.4514 52.4716 73.6382 52.2049 73.7384 51.9016C73.8621 51.5875 73.8744 51.24 73.7733 50.9177C73.6723 50.5955 73.4639 50.3183 73.1835 50.1332C72.8427 49.8834 72.4207 49.7495 72.0501 49.5337C71.3982 49.156 70.673 48.8503 70.1281 48.3487C69.2166 47.5074 69.2563 46.1366 70.0825 45.2014C71.4696 43.6408 73.7503 43.9205 74.955 45.8469L73.9484 46.4903C73.7185 46.2785 73.5184 46.0647 73.2886 45.8908C73.01 45.6766 72.6669 45.5652 72.3167 45.5754C71.9665 45.5856 71.6304 45.7167 71.3646 45.9468C70.8256 46.3864 70.7919 47.1458 71.3447 47.5774C71.7021 47.8131 72.0809 48.0139 72.4762 48.1769C72.92 48.3927 73.3995 48.5505 73.8176 48.8083C75.0541 49.5697 75.4761 50.6207 75.1749 52.0495C74.9312 53.2085 73.8315 54.1857 72.5871 54.3515C71.2476 54.5274 70.0112 53.9219 69.4425 52.7629C69.2706 52.3536 69.1224 51.9346 68.9987 51.508Z" fill="#808080"/>
<path d="M98.0749 54.1337H96.5095C95.5188 51.8777 94.5439 49.6356 93.4699 47.1797C92.182 49.5377 91.3339 51.8936 90.1866 54.1357H88.6708C90.256 50.7287 91.7995 47.3895 93.4541 43.8226C95.0392 47.3576 96.5234 50.6707 98.0749 54.1337Z" fill="#808080"/>
<path d="M123.111 54.1237H121.571C123.156 50.7107 124.7 47.3776 126.351 43.8226L130.965 54.1317H129.404L126.446 47.3616H126.214L123.111 54.1237Z" fill="#808080"/>
<path d="M80.4793 44.4561C81.5434 44.4101 82.6174 44.3342 83.6874 44.57C84.2075 44.6732 84.6829 44.9369 85.0479 45.3246C85.4128 45.7123 85.6492 46.2049 85.7243 46.7341C85.9225 48.013 85.5262 49.12 84.5176 49.6536C83.9826 49.9373 83.3485 50.0532 82.7501 50.1931C82.4277 50.2462 82.1019 50.2756 81.7752 50.281V54.1137H80.5091C80.3149 53.3923 80.2832 45.5711 80.4793 44.4561ZM81.8208 48.8063C82.7759 48.9042 83.6041 48.9302 84.1609 48.1289C84.474 47.6833 84.47 46.838 84.1253 46.4284C83.5308 45.713 82.7125 45.711 81.8208 45.8289V48.8063Z" fill="#808080"/>
<path d="M49.9349 47.1478L54.3397 40.2597C55.5286 41.7764 56.6263 43.1992 57.7379 44.6299C55.3483 46.1686 52.808 46.9379 49.9349 47.1478Z" fill="#808080"/>
<path d="M43.0611 40.2597C44.5789 42.6357 45.9977 44.8557 47.4739 47.1677C44.6146 46.9339 42.0704 46.1686 39.6669 44.6459C40.7844 43.1992 41.8742 41.7904 43.0611 40.2597Z" fill="#808080"/>
<path d="M114.878 45.7809C114.438 45.7573 113.998 45.7573 113.558 45.7809C112.896 45.8589 112.411 45.6491 112.096 45.0436C111.979 44.8474 111.851 44.6579 111.713 44.4761H119.522C119.322 44.8029 119.093 45.1112 118.839 45.3973C118.635 45.5903 118.377 45.7152 118.1 45.755C117.555 45.8089 117 45.7709 116.358 45.7709V54.0937H114.902C114.852 52.7449 114.886 51.3641 114.88 49.9833C114.874 48.6025 114.878 47.2756 114.878 45.7809Z" fill="#808080"/>
<path d="M58.3859 56.074L52.5187 50.6887C54.2188 50.9645 55.6891 51.1943 57.1534 51.456C57.2441 51.4846 57.327 51.534 57.3958 51.6002C57.4645 51.6664 57.5172 51.7476 57.5497 51.8377C57.9103 53.2105 58.2392 54.5913 58.5781 55.9701L58.3859 56.074Z" fill="#808080"/>
<path d="M38.8802 55.8622C39.0401 55.1961 39.2019 54.53 39.3657 53.8639C39.5163 53.2505 39.6411 52.629 39.8313 52.0295C39.9007 51.8077 40.1008 51.498 40.2871 51.462C41.7187 51.1725 43.17 50.9922 44.6285 50.9225L39.112 55.9941L38.8802 55.8622Z" fill="#808080"/>
<path d="M49.6139 33.3677L55.6316 37.626L54.2961 39.6602L49.5207 33.4956L49.6139 33.3677Z" fill="#808080"/>
<path d="M47.6661 33.7533C46.1859 35.6737 44.7058 37.594 43.1245 39.6423L41.7989 37.618L47.5076 33.5795L47.6661 33.7533Z" fill="#808080"/>
<path d="M55.911 38.2015L57.7399 43.8066L57.6032 43.8746L54.5676 39.952L55.6713 38.1795L55.911 38.2015Z" fill="#808080"/>
<path d="M39.7144 43.6568C40.3306 41.8044 40.9489 39.95 41.6186 37.9397L42.8868 39.92C41.8742 41.2169 40.8855 42.4858 39.8947 43.7527L39.7144 43.6568Z" fill="#808080"/>
<path d="M57.9361 49.6396L55.8971 49.2939C56.4916 48.003 57.1732 46.862 57.8152 45.6431C58.1223 46.3085 58.1798 48.3467 57.9361 49.6396Z" fill="#808080"/>
<path d="M41.5631 49.2939L39.4112 49.6516C39.3974 48.8862 39.3776 48.2088 39.3716 47.5314C39.3443 46.8462 39.3968 46.1601 39.5281 45.4872L41.5631 49.2939Z" fill="#808080"/>
<path d="M55.4434 48.8283C55.2452 48.069 55.0471 47.3096 54.8311 46.4883L57.4149 45.2554L57.5378 45.3713L55.6653 48.8663L55.4434 48.8283Z" fill="#808080"/>
<path d="M39.9898 45.2554L42.5658 46.4803C42.3458 47.2936 42.1358 48.0789 41.8623 49.0901L39.8551 45.3793L39.9898 45.2554Z" fill="#808080"/>
<path d="M44.6483 50.363L40.8042 51.0244L40.6834 50.8525C41.0975 50.4409 41.4958 50.0073 41.9396 49.6296C42.0526 49.5317 42.32 49.5657 42.4984 49.6096C43.2236 49.7935 43.9429 50.0093 44.6641 50.2091L44.6483 50.363Z" fill="#808080"/>
<path d="M56.6045 51.0184L52.7862 50.355L52.7704 50.2091C53.5213 49.9973 54.2644 49.7675 55.0213 49.5896C55.1265 49.5714 55.2342 49.5747 55.3381 49.5994C55.4419 49.6241 55.5397 49.6697 55.6257 49.7335C56.022 50.0712 56.3608 50.4649 56.7234 50.8366L56.6045 51.0184Z" fill="#808080"/>
<path d="M57.9816 50.0133L57.52 51.0803L56.2261 49.7295L57.9816 50.0133Z" fill="#808080"/>
<path d="M39.437 50.0193L41.0836 49.7275C40.7805 50.349 40.3723 50.6607 39.8947 51.0524L39.437 50.0193Z" fill="#808080"/>
</svg>
