<svg width="182" height="96" viewBox="0 0 182 96" fill="none" xmlns="http://www.w3.org/2000/svg">
<path d="M88.8392 41.0278C90.1072 41.0731 91.3752 41.3902 92.5074 41.9338C92.7338 42.0471 92.9602 42.115 93.1867 42.1604C93.2772 42.1604 93.3678 42.1377 93.4131 42.0697L93.5263 41.9791C93.5942 41.9112 93.6622 41.8885 93.7527 41.8885C93.9339 41.8885 94.0245 42.0018 94.0245 42.2283V42.8852L93.9792 44.1764L94.0018 44.8559C94.0245 45.0145 94.0245 45.1957 94.0471 45.3995C94.0471 45.4675 94.0471 45.5355 94.0471 45.5581C94.0471 45.762 93.9565 45.8526 93.7527 45.8526C93.6169 45.8526 93.5263 45.7167 93.481 45.4675C93.3225 44.6294 92.8923 43.8592 92.2809 43.2703C91.4205 42.2963 90.1525 41.73 88.8618 41.7526C87.6618 41.73 86.507 42.2736 85.805 43.2703C84.9899 44.4482 84.5823 45.8526 84.6502 47.2796C84.6049 48.8653 85.0125 50.4509 85.8277 51.81C86.6202 53.0332 87.5938 53.6448 88.7486 53.6448C89.2015 53.6221 89.6317 53.5542 90.0619 53.4182C90.4921 53.305 90.8997 53.1464 91.2846 52.9199C91.5337 52.7613 91.7149 52.4895 91.8054 52.2177C91.9187 51.742 91.9639 51.2437 91.9413 50.768C92.0092 50.2244 91.8507 49.6581 91.5337 49.205C91.1035 48.8653 90.5601 48.684 90.0166 48.7067C89.8128 48.684 89.7223 48.5934 89.7223 48.4349C89.7223 48.2537 89.8355 48.163 90.0619 48.163C90.1299 48.163 90.2431 48.1631 90.4016 48.1857C91.0129 48.231 91.7149 48.2763 92.4847 48.2763C93.0735 48.2763 93.6622 48.2537 94.2509 48.2084C94.4773 48.1631 94.7264 48.163 94.9528 48.1404C95.1793 48.1404 95.2925 48.231 95.2925 48.3896C95.2925 48.5481 95.1793 48.6387 94.9528 48.684C94.6132 48.7293 94.3415 48.9559 94.2056 49.273C94.0471 49.794 93.9565 50.315 94.0018 50.8586C94.0018 51.0625 94.0018 51.2663 94.0245 51.4702C94.0471 51.7873 94.0698 51.9912 94.0698 52.1271C94.0924 52.2857 94.0471 52.4216 93.9565 52.5575C93.8207 52.6934 93.6622 52.784 93.481 52.8293C93.3452 52.8746 92.847 53.1011 91.9866 53.4635C90.7639 54.0525 89.4279 54.3696 88.0693 54.4376C86.507 54.4829 84.9899 53.8713 83.9256 52.716C82.8161 51.4928 82.25 49.9072 82.318 48.2763C82.2727 46.3962 82.9293 44.5614 84.1747 43.157C85.3522 41.7526 87.0504 40.9825 88.8392 41.0278ZM100.297 51.1757C100.297 52.3536 100.432 53.0105 100.727 53.1464C101.021 53.2597 101.338 53.2823 101.655 53.2597C103.784 53.2597 105.278 52.6254 106.161 51.3796C106.433 50.9945 106.614 50.8133 106.682 50.8133C106.795 50.8133 106.863 50.9492 106.863 51.1984C106.863 51.9912 106.591 52.7387 106.093 53.3276C105.64 53.8713 104.938 54.1884 104.214 54.1657C104.055 54.1657 103.761 54.1431 103.331 54.1204L102.199 54.0525L101.18 54.0072C100.84 53.9845 100.432 53.9845 100.002 53.9845C99.2097 53.9845 98.4399 54.0298 97.6474 54.1204C97.3983 54.1431 97.2171 54.1657 97.1266 54.1657C96.9454 54.1657 96.8549 54.0751 96.8549 53.9166C96.8549 53.8033 96.9454 53.7127 97.1039 53.6674C97.4662 53.5768 97.7606 53.3503 97.9417 53.0105C98.1229 52.5122 98.2134 51.9685 98.1682 51.4249V43.5874C98.1682 42.5907 97.7606 42.0244 96.9228 41.8885L96.3567 41.7979C96.1303 41.7526 95.9944 41.662 95.9944 41.5035C95.9718 41.3675 96.0623 41.2316 96.1982 41.209C96.2208 41.209 96.2435 41.209 96.2661 41.209C96.3567 41.209 96.4473 41.2316 96.5379 41.2316C96.6284 41.2316 96.7416 41.2543 96.9001 41.2769L97.3077 41.2996C97.6927 41.3449 97.987 41.3675 98.1682 41.3675C98.6437 41.3449 99.1192 41.3222 99.6173 41.2543C100.115 41.209 100.614 41.1863 101.112 41.1863C101.497 41.1863 101.678 41.2769 101.678 41.4581C101.678 41.6167 101.542 41.7073 101.27 41.7073C100.636 41.7526 100.319 42.183 100.319 43.0211L100.297 51.1757ZM114.539 41.0051C116.283 40.9372 117.981 41.5488 119.272 42.704C120.494 43.8819 121.151 45.5128 121.083 47.189C121.128 49.0691 120.472 50.9039 119.226 52.3083C118.026 53.6674 116.351 54.3696 114.222 54.3696C112.433 54.4602 110.667 53.8033 109.354 52.5801C108.108 51.3116 107.452 49.5901 107.52 47.8233C107.52 46.9625 107.678 46.1017 107.973 45.2863C108.561 43.5874 109.852 42.2283 111.55 41.5941C112.501 41.1863 113.52 41.0051 114.539 41.0051ZM113.86 41.7073C112.705 41.662 111.596 42.183 110.916 43.1117C110.214 44.0404 109.852 45.3542 109.852 47.0078C109.784 48.7067 110.237 50.3829 111.188 51.81C111.958 52.9652 113.271 53.6674 114.652 53.6674C115.875 53.6901 117.03 53.1238 117.732 52.1497C118.547 50.9492 118.955 49.5222 118.887 48.0724C118.887 47.0758 118.705 46.1017 118.343 45.1957C118.049 44.3576 117.551 43.5874 116.917 42.9532C116.102 42.1377 114.992 41.6847 113.86 41.7073ZM124.072 43.9725C124.072 42.704 123.551 42.0244 122.532 41.8885L122.102 41.8432C121.966 41.8206 121.898 41.73 121.898 41.5714C121.898 41.3902 121.989 41.2996 122.17 41.2996H122.396L123.098 41.3449C123.687 41.3675 124.049 41.3902 124.208 41.3902C124.661 41.3902 125.476 41.3449 126.676 41.2316C127.423 41.1637 128.034 41.1184 128.555 41.1184C129.687 41.0731 130.82 41.3675 131.771 41.9791C132.54 42.4775 132.993 43.3609 132.971 44.267C133.039 45.2863 132.427 46.215 131.476 46.5774C131.25 46.668 131.137 46.7586 131.114 46.8266C131.114 46.9399 131.227 47.0078 131.476 47.0531C132.201 47.1664 132.857 47.5288 133.333 48.0724C133.786 48.6387 134.035 49.3636 134.012 50.1111C134.057 51.221 133.605 52.3083 132.767 53.0558C131.816 53.826 130.616 54.211 129.393 54.1431L127.491 54.0978L126.019 54.0751C125.204 54.0751 124.389 54.0978 123.574 54.1884C123.37 54.2111 123.166 54.2337 122.985 54.2337C122.804 54.2337 122.691 54.1431 122.691 53.9845C122.691 53.8486 122.781 53.758 122.94 53.7127C123.687 53.5768 124.072 52.9426 124.072 51.7647V43.9725ZM126.223 43.157V45.8526C126.2 46.1471 126.291 46.4189 126.495 46.6227C126.766 46.804 127.083 46.8719 127.423 46.8493L128.714 46.8719L129.302 46.8493C130.367 46.7133 130.91 46.0791 130.91 44.9239C130.955 44.0857 130.616 43.2476 130.027 42.6587C129.393 42.0697 128.533 41.7526 127.672 41.7979C127.265 41.7526 126.857 41.8432 126.54 42.0697C126.291 42.3869 126.178 42.7719 126.223 43.157ZM126.223 49.4089V50.9719L126.246 51.3343L126.314 52.1271C126.381 53.0332 127.106 53.4862 128.465 53.4862C129.801 53.4862 130.706 53.1691 131.204 52.5122C131.612 51.9459 131.816 51.2663 131.816 50.5868C131.816 49.1144 131.159 48.2084 129.846 47.8686C129.008 47.6647 128.125 47.5741 127.265 47.5741C126.812 47.5741 126.517 47.6874 126.404 47.8912C126.246 48.3896 126.2 48.9106 126.223 49.4089ZM141.937 42.3189L146.217 52.1497C146.375 52.5801 146.647 52.9426 146.964 53.2597C147.281 53.5088 147.666 53.6901 148.074 53.758C148.187 53.7807 148.232 53.8713 148.232 54.0298C148.232 54.211 148.164 54.279 148.006 54.279C147.892 54.279 147.757 54.2564 147.643 54.2337C146.873 54.0978 146.081 54.0525 145.311 54.0751C144.564 54.0525 143.839 54.0978 143.115 54.2337C143.047 54.2564 142.956 54.279 142.866 54.279C142.73 54.3017 142.617 54.2111 142.594 54.0751C142.594 54.0525 142.594 54.0298 142.594 54.0072C142.594 53.9166 142.662 53.8486 142.798 53.8033C143.092 53.7127 143.341 53.5542 143.545 53.3276C143.726 53.1238 143.839 52.8746 143.839 52.6028C143.681 51.7873 143.409 51.0172 143.024 50.2923C142.843 49.9299 142.662 49.726 142.458 49.6581C141.734 49.5675 141.009 49.5448 140.307 49.5675H139.084L138.246 49.726C138.02 49.8393 137.748 50.247 137.454 50.9719L137.16 51.6967C137.069 51.9006 137.024 52.1044 137.024 52.331C137.024 53.1238 137.567 53.5768 138.677 53.7127C138.903 53.7354 139.039 53.826 139.016 53.9845C138.994 54.1431 138.88 54.2337 138.677 54.2337C138.518 54.2337 138.36 54.2111 138.201 54.1884C137.839 54.1204 137.454 54.0751 137.092 54.0525C136.797 54.0525 136.322 54.0751 135.665 54.1431C135.167 54.1884 134.873 54.2111 134.759 54.2111C134.578 54.2111 134.488 54.1431 134.488 53.9845C134.488 53.8486 134.578 53.758 134.759 53.6901C135.076 53.5995 135.371 53.3729 135.575 53.1011C135.937 52.5348 136.231 51.9232 136.48 51.3116L139.039 45.3995C139.243 44.9239 139.379 44.6067 139.469 44.4255L140.352 42.636L140.805 41.7526V41.7753C141.009 41.2996 141.145 41.0504 141.213 41.0504C141.303 41.0504 141.484 41.3222 141.734 41.8432L141.937 42.3189ZM142.3 48.1857L141.077 45.3089C140.782 44.6294 140.579 44.2896 140.443 44.2896C140.375 44.2896 140.239 44.5161 140.035 44.9465L139.854 45.3316L138.767 47.8459L138.654 48.0724C138.609 48.1404 138.586 48.231 138.586 48.3216C138.586 48.5255 138.813 48.6387 139.265 48.6387H142.028C142.254 48.6387 142.39 48.5708 142.39 48.4349C142.39 48.3896 142.368 48.3216 142.345 48.2763L142.3 48.1857ZM152.466 51.1757C152.466 52.3536 152.602 53.0105 152.897 53.1464C153.191 53.2597 153.508 53.2823 153.802 53.2597C155.931 53.2597 157.425 52.6254 158.308 51.3796C158.58 50.9945 158.761 50.8133 158.829 50.8133C158.942 50.8133 159.01 50.9492 159.01 51.1984C159.01 51.9912 158.738 52.7387 158.24 53.3276C157.787 53.8713 157.086 54.1884 156.361 54.1657C156.202 54.1657 155.908 54.1431 155.455 54.1204L154.323 54.0525L153.304 54.0072C152.964 53.9845 152.557 53.9845 152.127 53.9845C151.334 53.9845 150.564 54.0298 149.772 54.1204C149.523 54.1431 149.342 54.1657 149.251 54.1657C149.07 54.1657 148.979 54.0751 148.979 53.9166C148.979 53.8033 149.07 53.7127 149.228 53.6674C149.591 53.5768 149.885 53.3503 150.066 53.0105C150.247 52.5122 150.315 51.9685 150.293 51.4249V43.5874C150.293 42.5907 149.885 42.0244 149.047 41.8885L148.481 41.7979C148.232 41.7526 148.119 41.662 148.119 41.5035C148.096 41.3675 148.187 41.2316 148.323 41.209C148.345 41.209 148.368 41.209 148.391 41.209C148.481 41.209 148.572 41.2316 148.662 41.2316C148.753 41.2316 148.866 41.2543 149.025 41.2769L149.432 41.2996C149.817 41.3449 150.111 41.3675 150.293 41.3675C150.587 41.3675 151.085 41.3222 151.742 41.2543C152.24 41.209 152.738 41.1863 153.236 41.1863C153.621 41.1863 153.802 41.2769 153.802 41.4581C153.802 41.6167 153.666 41.7073 153.395 41.7073C152.761 41.7526 152.444 42.183 152.444 43.0211L152.466 51.1757Z" fill="#808080"/>
<path d="M30.4856 43.5193V50.6093C30.4177 51.3794 30.5762 52.1722 30.9385 52.8744C31.346 53.3501 31.9348 53.6446 32.5688 53.6219C32.7952 53.6446 32.9084 53.7579 32.9084 53.9617C32.9084 54.0976 32.8178 54.1882 32.6141 54.1882C32.5688 54.1882 32.5008 54.1882 32.3876 54.1882L31.6857 54.1656L30.5082 54.0976C30.4177 54.0976 30.2818 54.0976 30.1233 54.0976C29.761 54.0976 29.4214 54.0976 29.1497 54.1203L27.0665 54.2335C26.8401 54.2562 26.7042 54.2788 26.6136 54.2788C26.4098 54.2788 26.3193 54.1882 26.3193 54.0297C26.3193 53.9391 26.3419 53.8258 26.4098 53.7579C26.5231 53.7126 26.6589 53.6672 26.7721 53.6672C27.2023 53.6672 27.6099 53.4634 27.9043 53.1463C28.1986 52.7612 28.3345 52.3081 28.3119 51.8325V51.3794V42.9756C28.3119 42.4773 28.0401 42.2281 27.5194 42.2281C26.6589 42.1828 25.7758 42.2734 24.9607 42.5C24.689 42.5906 24.4625 42.7491 24.304 42.9756C24.1002 43.3834 23.9644 43.8138 23.8512 44.2668L23.7832 44.5386C23.7153 44.7878 23.6021 44.9237 23.4662 44.9237C23.2624 44.9237 23.1719 44.8331 23.1719 44.6292C23.1945 44.3801 23.2172 44.1309 23.2624 43.9044L23.353 43.0889L23.4662 42.2508L23.5342 41.6845C23.5342 41.4806 23.6927 41.3221 23.8738 41.3221C23.8965 41.3221 23.8965 41.3221 23.9191 41.3221C23.987 41.3221 24.1002 41.3221 24.2361 41.3447C24.4852 41.3674 24.8248 41.3674 25.2777 41.3674L27.2023 41.39L29.4893 41.4127C30.9611 41.4127 32.5235 41.3674 34.1764 41.2994C34.4934 41.2768 34.7199 41.2768 34.8104 41.2768C35.1501 41.2768 35.3312 41.4127 35.3539 41.7072L35.3992 42.3867C35.3992 42.5 35.4444 42.7491 35.4897 43.1569C35.535 43.4287 35.5577 43.7005 35.5577 43.9497C35.5577 44.1535 35.4671 44.2668 35.3086 44.2668C35.1727 44.2668 35.0595 44.1535 35.0142 43.9044C34.9237 43.406 34.6746 42.953 34.267 42.6359C33.7689 42.3414 33.2028 42.2055 32.6367 42.2508C32.0253 42.2055 31.4366 42.2734 30.8479 42.4773C30.5988 42.5679 30.4856 42.9303 30.4856 43.5193ZM39.9957 51.1982L40.0636 52.1496C40.1089 52.58 40.3127 52.965 40.6071 53.2595C40.9241 53.5313 41.3316 53.6672 41.7392 53.6446C42.0562 53.6446 42.1921 53.7352 42.1921 53.9391C42.1921 54.1203 41.9883 54.2109 41.5807 54.2109C41.3996 54.2109 41.1505 54.1882 40.8335 54.1656C40.1769 54.075 39.5202 54.0297 38.8409 54.0297C38.3428 54.0297 37.8446 54.0523 37.3465 54.1203C37.12 54.1656 36.8936 54.1882 36.6672 54.2109C36.5313 54.2109 36.4181 54.1429 36.3955 54.007L36.3728 53.9391L36.6445 53.7125C37.0068 53.6219 37.3238 53.4181 37.5503 53.1236C37.7314 52.7612 37.7993 52.3534 37.7767 51.9457V51.1076V43.6325C37.822 43.2022 37.7088 42.7718 37.4823 42.4094C37.188 42.1149 36.803 41.9337 36.3728 41.911C36.169 41.8884 35.9652 41.8431 35.7614 41.7751C35.6709 41.7298 35.6256 41.6392 35.6256 41.5259C35.6256 41.3447 35.6935 41.2541 35.852 41.2768C36.0332 41.2994 36.1917 41.3221 36.3502 41.3447C36.7351 41.4127 37.0974 41.4353 37.4823 41.4127C37.822 41.4127 38.2748 41.39 38.7956 41.3447L39.4749 41.2994C40.1089 41.2541 40.6071 41.2315 40.9694 41.2315C41.1731 41.2315 41.2864 41.2994 41.2864 41.458C41.2864 41.5486 41.2864 41.6165 41.2411 41.6845C41.1731 41.7298 41.0826 41.7751 41.0146 41.7751C40.6976 41.7978 40.3806 41.9337 40.1542 42.1602C39.9957 42.5 39.9278 42.8624 39.9731 43.2248L39.9957 51.1982ZM49.4605 41.0276C50.7285 41.0729 51.9739 41.39 53.1287 41.9337C53.3551 42.0469 53.5816 42.1149 53.808 42.1602C53.8986 42.1602 53.9891 42.1375 54.0344 42.0696L54.1476 41.979C54.2156 41.911 54.2835 41.8884 54.3741 41.8884C54.5552 41.8884 54.6458 42.0016 54.6458 42.2281V42.885L54.6005 44.1762L54.6232 44.8557C54.6458 45.0143 54.6458 45.1955 54.6911 45.3994C54.6911 45.4673 54.6911 45.5353 54.6911 45.5579C54.6911 45.7618 54.6005 45.8524 54.3967 45.8524C54.2609 45.8524 54.1703 45.7165 54.125 45.4673C53.9439 44.6292 53.5363 43.8591 52.9249 43.2701C52.0645 42.2961 50.7965 41.7298 49.5058 41.7525C48.3057 41.7072 47.1509 42.2734 46.449 43.2701C45.6338 44.448 45.2263 45.8524 45.2942 47.2795C45.2489 48.8651 45.6565 50.4507 46.4716 51.8098C47.2641 53.033 48.2378 53.6446 49.3926 53.6446C49.8455 53.6219 50.2757 53.554 50.7059 53.4181C51.1361 53.3048 51.5437 53.1463 51.906 52.9197C52.1551 52.7612 52.3362 52.4894 52.4268 52.2175C52.54 51.7418 52.5853 51.2435 52.5626 50.7678C52.6306 50.2242 52.4721 49.6579 52.1551 49.2049C51.7248 48.8651 51.1814 48.6839 50.638 48.7065C50.4342 48.6839 50.3436 48.5933 50.3436 48.4347C50.3436 48.2535 50.4568 48.1629 50.6833 48.1629C50.7512 48.1629 50.8644 48.1629 51.0229 48.1855C51.6343 48.2308 52.3362 48.2761 53.1061 48.2761C53.6948 48.2761 54.2835 48.2535 54.8722 48.2082C55.0987 48.1629 55.3477 48.1629 55.5742 48.1402C55.8006 48.1402 55.9138 48.2308 55.9138 48.3894C55.9138 48.548 55.8006 48.6386 55.5742 48.6839C55.2345 48.7292 54.9628 48.9557 54.8269 49.2728C54.6684 49.7938 54.6005 50.3148 54.6232 50.8584C54.6232 51.0623 54.6232 51.2662 54.6458 51.47C54.6684 51.7872 54.6911 51.991 54.6911 52.1269C54.7137 52.2855 54.6684 52.4214 54.5779 52.5573C54.442 52.6932 54.2835 52.7838 54.1024 52.8291C53.9665 52.8744 53.4684 53.101 52.6079 53.4634C51.3852 54.0523 50.0492 54.3694 48.6907 54.4374C47.1283 54.4827 45.6112 53.8711 44.547 52.7159C43.4375 51.4927 42.8714 49.9071 42.9393 48.2761C42.894 46.3961 43.5507 44.5613 44.796 43.1569C45.9961 41.7525 47.6944 40.9823 49.4605 41.0276ZM60.9179 43.4287V45.4673C60.8953 45.8524 60.9406 46.2148 61.0538 46.5773C61.1444 46.7358 61.3482 46.8038 61.6652 46.8038H61.9595H62.3671H63.1596C63.7936 46.7811 64.3823 46.3734 64.6088 45.7845L64.8352 45.3314C64.8805 45.2182 64.9937 45.1502 65.1069 45.1502C65.2428 45.1502 65.3107 45.2408 65.3107 45.3994C65.3107 45.4447 65.3107 45.5806 65.2881 45.8071C65.2654 45.9657 65.2654 46.1016 65.2654 46.2148C65.2654 46.4187 65.2881 46.8944 65.356 47.6192C65.4013 48.0949 65.4013 48.5253 65.4013 48.8877L65.4239 49.3634C65.4239 49.4314 65.4239 49.4767 65.4013 49.5446C65.356 49.5899 65.3107 49.6126 65.2428 49.6126C65.0843 49.6352 64.9937 49.4993 64.9484 49.2502C64.9031 48.7971 64.6993 48.3667 64.3823 48.027C64.2238 47.8684 63.9974 47.7778 63.7936 47.7325C63.3634 47.6872 62.9105 47.6646 62.4803 47.6646H61.8463C61.6425 47.6419 61.4161 47.6872 61.2349 47.8005C61.0991 47.959 61.0312 48.1402 61.0085 48.3441C60.9632 48.8424 60.9406 49.3408 60.9406 49.8391V50.6772C60.9179 51.3115 60.9859 51.9684 61.1444 52.58C61.2349 53.0556 61.7104 53.3728 62.186 53.3048C64.722 53.3048 66.3976 52.5347 67.1674 50.9717C67.2127 50.9037 67.258 50.8584 67.2807 50.8584C67.3486 50.8358 67.4165 50.8811 67.4618 50.9264C67.5071 50.9717 67.5524 51.0623 67.5524 51.1303C67.5524 51.7645 67.3712 52.3761 67.0542 52.9197C66.8278 53.3728 66.4655 53.7352 66.0126 53.9617C65.4919 54.1882 64.9258 54.3015 64.3597 54.2788C63.9068 54.2788 63.4766 54.2562 63.0238 54.2109L61.9369 54.1203C61.5293 54.075 60.9859 54.0523 60.3066 54.0523C59.8537 54.0523 59.1518 54.075 58.2234 54.1429C57.9743 54.1656 57.7932 54.1656 57.68 54.1656C57.5668 54.1882 57.4535 54.0976 57.4309 53.9844V53.9617C57.4309 53.8485 57.4988 53.7579 57.6347 53.6899C57.9064 53.5993 58.1555 53.4634 58.3593 53.2595C58.5178 53.0103 58.631 52.7385 58.6536 52.4441C58.7442 51.991 58.7668 51.538 58.7668 51.085V43.6552C58.8121 43.1569 58.6989 42.6585 58.4272 42.2281C58.0196 41.911 57.5215 41.7298 57.0007 41.7072C56.8648 41.7072 56.7516 41.5939 56.7516 41.4353C56.7516 41.2994 56.8648 41.2088 57.0686 41.2088C57.1139 41.2088 57.2045 41.2088 57.363 41.2315C57.4762 41.2315 57.6347 41.2315 57.8158 41.2315L58.7668 41.2768L62.3218 41.3221C64.3823 41.3221 65.6277 41.2994 66.1032 41.2315C66.1485 41.2315 66.1938 41.2315 66.2391 41.2315C66.4202 41.2315 66.5108 41.3447 66.5108 41.5486C66.5108 41.6845 66.5334 41.9563 66.5787 42.3188C66.624 42.8624 66.6466 43.2701 66.6466 43.4966C66.6466 43.9723 66.5334 44.2215 66.2844 44.2215C66.1711 44.2215 66.1032 44.0856 66.1032 43.8138C66.1485 43.2701 65.8768 42.7491 65.4239 42.4547C64.7446 42.1375 63.9748 41.979 63.2275 42.0469H62.0727L61.4387 42.1149C61.1217 42.2055 60.9632 42.5226 60.9632 43.0663L60.9179 43.4287ZM72.2621 50.4507C72.1942 51.2662 72.3074 52.1043 72.6018 52.8744C72.8735 53.3275 73.3717 53.5993 73.8924 53.5993C74.1642 53.6219 74.2774 53.7352 74.2774 53.9164C74.2774 54.0976 74.1642 54.1882 73.9604 54.1882C73.8924 54.1882 73.7566 54.1882 73.5754 54.1656C73.032 54.1203 72.5112 54.0976 72.0131 54.0976C71.6055 54.0976 71.2206 54.1203 70.9036 54.1429L70.111 54.2109L69.477 54.2562C69.2959 54.2788 69.1827 54.2788 69.1147 54.2788C68.8883 54.2788 68.7751 54.1882 68.7751 54.0297C68.7525 53.9164 68.843 53.8032 68.9562 53.7579C69.2959 53.6899 69.6129 53.486 69.8393 53.2369C70.0205 52.9424 70.111 52.58 70.0884 52.2175V51.3341L70.111 50.9717V44.1762C70.1563 43.6552 70.0658 43.1342 69.8167 42.6585C69.4544 42.2055 68.8883 41.9337 68.3222 41.911C68.0732 41.8657 67.9373 41.7525 67.9373 41.5939C67.9147 41.458 68.0052 41.3447 68.1411 41.3221C68.1637 41.3221 68.1864 41.3221 68.209 41.3221C68.3222 41.3221 68.4355 41.3221 68.5487 41.3447C69.0695 41.39 69.6129 41.4353 70.1337 41.4127C70.7677 41.4127 71.5376 41.3674 72.4433 41.2994C73.5075 41.2088 74.2321 41.1862 74.6397 41.1862C75.7039 41.1409 76.7681 41.5033 77.6059 42.1602C78.3531 42.7491 78.806 43.6552 78.7834 44.6066C78.7834 45.2182 78.6022 45.8071 78.2626 46.3054C77.9003 46.8264 77.4021 47.2342 76.836 47.4607C76.7228 47.506 76.6549 47.5739 76.6549 47.6419C76.6775 47.7325 76.7002 47.8005 76.7455 47.8684C76.7908 47.959 76.8813 48.0949 76.9945 48.2988L77.8323 49.7938L78.806 51.5153C79.0324 51.9684 79.3268 52.3761 79.6891 52.7159C79.9382 52.9424 80.2778 53.0557 80.6174 53.0557C80.7533 53.0557 80.8892 53.0556 81.025 53.0103C81.093 52.9877 81.1609 52.9877 81.2288 52.9877C81.342 52.9877 81.41 53.0557 81.41 53.2142C81.41 53.3954 81.1609 53.5993 80.6401 53.8258C80.2099 54.0297 79.757 54.1656 79.2815 54.1656C78.5796 54.1429 77.9229 53.7805 77.4927 53.2142C76.6549 52.1043 75.953 50.9037 75.3642 49.6126C75.1605 49.1369 74.8887 48.6839 74.5265 48.2988C74.2094 48.0949 73.8245 47.9817 73.4622 48.027H72.8735L72.4433 48.0949C72.3527 48.1402 72.3074 48.2988 72.3074 48.548L72.2621 50.4507ZM72.2621 43.1116V46.3734C72.2395 46.6452 72.2848 46.8944 72.4206 47.1436C72.6471 47.2795 72.8961 47.3474 73.1679 47.3021C73.8698 47.3248 74.5491 47.3021 75.251 47.2342C75.5228 47.1889 75.7945 47.053 75.9983 46.8491C76.4738 46.4187 76.7228 45.7845 76.6775 45.1276C76.7228 43.3834 75.3642 41.911 73.5981 41.8657C73.5302 41.8657 73.4622 41.8657 73.3717 41.8657C73.0546 41.8204 72.7376 41.9337 72.4886 42.1375C72.3074 42.4094 72.2169 42.7718 72.2621 43.1116Z" fill="#808080"/>
</svg>
