<svg width="182" height="96" viewBox="0 0 182 96" fill="none" xmlns="http://www.w3.org/2000/svg">
<path d="M124.547 54.943V41.981H126.116V53.5506H132.139V54.943H124.547Z" fill="#808080"/>
<path d="M136.691 55.1709C136.075 55.1709 135.516 55.0548 135.015 54.8228C134.513 54.5865 134.114 54.2468 133.819 53.8038C133.524 53.3565 133.376 52.8165 133.376 52.1835C133.376 51.6266 133.486 51.1751 133.705 50.8291C133.924 50.4789 134.217 50.2046 134.584 50.0063C134.951 49.808 135.356 49.6603 135.799 49.5633C136.246 49.462 136.695 49.3819 137.147 49.3228C137.737 49.2468 138.216 49.1899 138.583 49.1519C138.954 49.1097 139.224 49.0401 139.393 48.943C139.566 48.846 139.652 48.6772 139.652 48.4367V48.3861C139.652 47.7616 139.481 47.2764 139.14 46.9304C138.802 46.5844 138.29 46.4114 137.602 46.4114C136.889 46.4114 136.33 46.5675 135.926 46.8798C135.521 47.192 135.236 47.5253 135.071 47.8798L133.654 47.3734C133.907 46.7827 134.245 46.3228 134.667 45.9937C135.093 45.6603 135.557 45.4283 136.058 45.2975C136.565 45.1625 137.062 45.095 137.552 45.095C137.864 45.095 138.222 45.1329 138.627 45.2089C139.036 45.2806 139.431 45.4304 139.81 45.6582C140.194 45.8861 140.512 46.23 140.766 46.6899C141.019 47.1498 141.145 47.7658 141.145 48.538V54.943H139.652V53.6266H139.576C139.475 53.8375 139.306 54.0633 139.07 54.3038C138.834 54.5443 138.52 54.7489 138.127 54.9177C137.735 55.0865 137.256 55.1709 136.691 55.1709ZM136.919 53.8291C137.509 53.8291 138.007 53.7131 138.412 53.481C138.821 53.2489 139.129 52.9494 139.336 52.5823C139.547 52.2152 139.652 51.8291 139.652 51.424V50.057C139.589 50.1329 139.45 50.2025 139.234 50.2658C139.024 50.3249 138.779 50.3776 138.501 50.4241C138.226 50.4662 137.959 50.5042 137.697 50.538C137.44 50.5675 137.231 50.5928 137.071 50.6139C136.683 50.6646 136.32 50.7468 135.983 50.8608C135.649 50.9705 135.379 51.1371 135.173 51.3608C134.97 51.5802 134.869 51.8797 134.869 52.2595C134.869 52.7785 135.061 53.1709 135.445 53.4367C135.833 53.6983 136.324 53.8291 136.919 53.8291Z" fill="#808080"/>
<path d="M143.538 54.943V41.981H145.031V46.7658H145.158C145.268 46.5971 145.419 46.3819 145.613 46.1203C145.812 45.8544 146.094 45.6182 146.461 45.4114C146.832 45.2004 147.334 45.095 147.967 45.095C148.785 45.095 149.506 45.2996 150.131 45.7089C150.755 46.1182 151.242 46.6983 151.592 47.4494C151.942 48.2004 152.117 49.0865 152.117 50.1076C152.117 51.1371 151.942 52.0295 151.592 52.7848C151.242 53.5359 150.757 54.1181 150.137 54.5316C149.517 54.9409 148.802 55.1456 147.992 55.1456C147.368 55.1456 146.868 55.0422 146.493 54.8354C146.117 54.6245 145.829 54.3861 145.626 54.1202C145.424 53.8502 145.268 53.6266 145.158 53.4494H144.981V54.943H143.538ZM145.006 50.0823C145.006 50.8165 145.114 51.4641 145.329 52.0253C145.544 52.5823 145.858 53.019 146.271 53.3354C146.685 53.6477 147.191 53.8038 147.79 53.8038C148.414 53.8038 148.935 53.6392 149.353 53.3101C149.774 52.9768 150.091 52.5295 150.302 51.9684C150.517 51.403 150.624 50.7743 150.624 50.0823C150.624 49.3987 150.519 48.7827 150.308 48.2342C150.101 47.6814 149.787 47.2447 149.365 46.9241C148.948 46.5992 148.423 46.4367 147.79 46.4367C147.182 46.4367 146.672 46.5907 146.259 46.8987C145.845 47.2025 145.533 47.6287 145.322 48.1772C145.112 48.7215 145.006 49.3565 145.006 50.0823Z" fill="#808080"/>
<path d="M160.75 47.3987L159.409 47.7785C159.325 47.5549 159.2 47.3376 159.036 47.1266C158.875 46.9114 158.656 46.7342 158.378 46.5949C158.099 46.4557 157.743 46.3861 157.309 46.3861C156.714 46.3861 156.218 46.5232 155.822 46.7975C155.429 47.0675 155.233 47.4114 155.233 47.8291C155.233 48.2004 155.368 48.4937 155.638 48.7089C155.908 48.9241 156.33 49.1034 156.904 49.2468L158.346 49.6013C159.215 49.8122 159.862 50.135 160.288 50.5696C160.714 51 160.927 51.5549 160.927 52.2342C160.927 52.7911 160.767 53.289 160.447 53.7278C160.13 54.1667 159.687 54.5126 159.118 54.7658C158.549 55.019 157.886 55.1456 157.131 55.1456C156.14 55.1456 155.32 54.9304 154.67 54.5C154.021 54.0696 153.609 53.4409 153.437 52.6139L154.854 52.2595C154.989 52.7827 155.244 53.1751 155.619 53.4367C155.999 53.6983 156.494 53.8291 157.106 53.8291C157.802 53.8291 158.355 53.6814 158.764 53.3861C159.177 53.0865 159.384 52.7278 159.384 52.3101C159.384 51.9726 159.266 51.6899 159.029 51.462C158.793 51.23 158.43 51.057 157.941 50.943L156.322 50.5633C155.432 50.3523 154.778 50.0253 154.36 49.5823C153.947 49.135 153.74 48.576 153.74 47.9051C153.74 47.3565 153.894 46.8713 154.202 46.4494C154.514 46.0274 154.938 45.6962 155.474 45.4557C156.014 45.2152 156.625 45.095 157.309 45.095C158.27 45.095 159.025 45.3059 159.573 45.7279C160.126 46.1498 160.518 46.7068 160.75 47.3987Z" fill="#808080"/>
<path fill-rule="evenodd" clip-rule="evenodd" d="M62.8983 45.8965C62.2634 43.7838 63.3104 42.0315 65.5445 41.4684C66.1852 41.3068 69.0864 41.3797 69.5835 41.5699C69.7661 41.6396 69.8455 41.9072 69.8472 42.4571C69.8484 42.8901 69.8956 43.4161 69.952 43.6258C70.0375 43.9437 69.9875 44.0063 69.6521 44.0012C69.3488 43.9965 69.1654 43.8186 68.9092 43.2806C68.5002 42.4213 68.0049 42.148 66.8508 42.1448C65.3773 42.1405 64.2992 43.1329 64.4747 44.332C64.589 45.1123 65.3684 45.8801 67.1173 46.9356C68.7814 47.9397 69.7526 48.7654 70.1396 49.5051C71.1744 51.4829 70.2907 53.5994 67.9852 54.6658C66.8017 55.2132 64.8182 55.2698 63.4237 54.796L62.5307 54.4925V53.0651C62.5307 51.7723 62.5615 51.6374 62.856 51.6374C63.1024 51.6374 63.2089 51.8003 63.2953 52.3107C63.5105 53.5798 64.4746 54.3502 65.8476 54.3502C67.1927 54.3502 68.1329 53.6151 68.4931 52.282C68.6465 51.7141 68.6201 51.5048 68.3158 50.8783C67.9511 50.1272 67.3232 49.6288 65.1905 48.398C64.0071 47.715 63.1703 46.8018 62.8983 45.8965ZM21.092 42.3118C20.801 42.3118 20.6875 42.2166 20.6875 41.9726C20.6875 41.6496 20.801 41.6335 23.0813 41.6335C25.1978 41.6335 25.4687 41.6654 25.4201 41.9084C25.3897 42.0596 25.0973 42.2694 24.7698 42.3747L24.1744 42.5661L24.1236 46.8898C24.0896 49.7749 24.1375 51.4392 24.2673 51.8917C24.6534 53.2374 25.8312 54.0112 27.4931 54.0112C28.65 54.0112 29.3258 53.7406 30.1749 52.937C31.0881 52.0732 31.2338 51.2523 31.2309 46.9862C31.2281 42.7781 31.1548 42.4308 30.2514 42.3435C29.8403 42.3036 29.7026 42.2078 29.7026 41.962C29.7026 41.6554 29.8382 41.6335 31.7437 41.6335C33.6714 41.6335 33.7848 41.6523 33.7848 41.9726C33.7848 42.1815 33.6705 42.3128 33.4871 42.3143C32.6993 42.3212 32.6849 42.3962 32.5788 47.0105C32.4688 51.8023 32.3661 52.3697 31.3953 53.5435C31.1154 53.8821 30.4477 54.3738 29.9118 54.6362C29.0383 55.0638 28.7605 55.1129 27.2361 55.1101C25.831 55.1072 25.3874 55.0393 24.6847 54.7194C23.6591 54.2523 22.9921 53.6478 22.5004 52.7395C22.1571 52.1054 22.1278 51.7623 22.0483 47.4663C21.9573 42.5488 21.9132 42.3118 21.092 42.3118ZM37.0086 42.3118C36.6197 42.3118 36.5063 42.2351 36.5063 41.9726C36.5063 41.6547 36.615 41.6344 38.2497 41.6474L39.9932 41.6613L40.8274 42.6224C41.2859 43.1509 42.7809 44.8043 44.1493 46.2963C45.5177 47.7884 47.0888 49.5242 47.6404 50.1537C48.1921 50.7833 48.7114 51.2983 48.7944 51.2983C48.8797 51.2983 48.9222 49.52 48.8918 47.214L48.8381 43.1297L48.3608 42.7207C48.0983 42.4957 47.6967 42.3118 47.4679 42.3118C47.1636 42.3118 47.0522 42.2195 47.0522 41.9679C47.0522 41.6367 47.139 41.6257 49.3909 41.6712C51.3057 41.7098 51.7297 41.7632 51.7297 41.9657C51.7297 42.11 51.4929 42.2614 51.1611 42.3291C50.8485 42.3928 50.504 42.5332 50.3957 42.641C50.256 42.7802 50.1848 44.5801 50.1502 48.848L50.1014 54.8589H49.6085C49.1841 54.8589 48.6789 54.3812 45.978 51.4254C44.2524 49.5368 42.2381 47.2924 41.5019 46.4378C40.7656 45.583 40.1059 44.8772 40.0357 44.8694C39.8383 44.8473 39.886 52.4839 40.088 53.2088C40.2454 53.7737 40.3537 53.8709 41.0227 54.0494C41.5614 54.193 41.7793 54.3386 41.7793 54.555C41.7793 54.8328 41.5739 54.8589 39.3979 54.8589C37.1829 54.8589 37.0166 54.8368 37.0166 54.5411C37.0166 54.3246 37.1769 54.1912 37.5192 54.1229C38.5578 53.9159 38.6268 53.5873 38.685 48.5639C38.7177 45.7504 38.6698 43.7818 38.5583 43.3696C38.3626 42.6448 37.8748 42.3118 37.0086 42.3118ZM54.8441 42.3118C54.4797 42.3118 54.3663 42.2312 54.3663 41.9726C54.3663 41.6486 54.4797 41.6335 56.9177 41.6335C59.3556 41.6335 59.4691 41.6486 59.4691 41.9726C59.4691 42.2214 59.3555 42.3118 59.0438 42.3118C58.81 42.3118 58.4624 42.4674 58.2715 42.6577C57.9346 42.9936 57.9259 43.1606 57.9739 48.3517C58.0206 53.4192 58.0406 53.7125 58.3533 53.9403C58.535 54.0725 58.8602 54.1807 59.0762 54.1807C59.3555 54.1807 59.4691 54.2785 59.4691 54.5199C59.4691 54.8439 59.3556 54.8589 56.9177 54.8589C54.5377 54.8589 54.3663 54.8376 54.3663 54.5416C54.3663 54.3028 54.5332 54.1974 55.0401 54.1166C56.0466 53.9562 56.0981 53.6277 56.0353 47.7661C55.9852 43.0719 55.9636 42.7792 55.652 42.5522C55.4703 42.4199 55.1068 42.3118 54.8441 42.3118ZM72.6415 42.3118C72.4088 42.3118 72.2318 42.1827 72.1767 41.9726C72.0909 41.6447 72.1717 41.6335 74.6234 41.6335C77.0454 41.6335 77.1588 41.6486 77.1588 41.9726C77.1588 42.2332 77.0454 42.3118 76.6693 42.3118C75.5985 42.3118 75.6226 42.5057 77.2432 46.94C78.068 49.1972 78.869 51.3413 79.0229 51.7047L79.3028 52.3655L80.6019 48.907C82.1312 44.836 82.3299 44.0831 82.0702 43.3406C81.8892 42.8231 81.1854 42.3118 80.6543 42.3118C80.5041 42.3118 80.3906 42.1659 80.3906 41.9726C80.3906 41.6481 80.5041 41.6335 83.0271 41.6335C85.5501 41.6335 85.6636 41.6481 85.6636 41.9726C85.6636 42.2139 85.5501 42.3118 85.2708 42.3118C84.5557 42.3118 84.2404 42.6919 84.3431 43.4305C84.4489 44.1908 87.3743 52.3622 87.4971 52.2399C87.6966 52.0411 90.9365 43.2445 90.9365 42.9016C90.9365 42.4908 90.6481 42.3118 89.987 42.3118C89.6892 42.3118 89.5757 42.2183 89.5757 41.9726C89.5757 41.6523 89.6892 41.6335 91.6169 41.6335C93.3482 41.6335 93.658 41.6736 93.658 41.8967C93.658 42.0415 93.4459 42.2336 93.1866 42.3236C92.6036 42.5262 92.4572 42.7575 91.7257 44.6309C91.4046 45.4536 90.3993 48.0284 89.4917 50.3523C88.5843 52.6765 87.8027 54.6794 87.755 54.8032C87.7073 54.9272 87.426 55.0285 87.1298 55.0285H86.5914L85.3697 51.8493C84.6975 50.1009 83.9036 48.0294 83.6055 47.2461C83.0942 45.9038 83.0513 45.8455 82.859 46.2286C82.7468 46.4525 81.9396 48.5277 81.0648 50.8403L79.4748 55.0451L78.8814 54.9944L78.2879 54.9438L76.0245 49.0225C74.76 45.7143 73.5971 42.9269 73.3893 42.7065C73.1846 42.4893 72.8482 42.3118 72.6415 42.3118ZM106.652 42.3837C106.624 42.3193 106.624 42.0878 106.624 42.0878C106.624 42.0878 106.617 42.0043 106.652 41.9598C106.687 41.9154 106.7 41.9142 106.825 41.9023L106.826 41.9022C107.285 41.8585 108.207 41.7849 108.976 41.7514C109.046 41.7483 109.124 41.7447 109.209 41.7409L109.211 41.7408L109.212 41.7407L109.213 41.7407C110.059 41.7023 111.573 41.6509 112.614 41.703C114.611 41.8028 116.032 42.7685 116.516 44.3643C117 45.96 116.744 47.458 116.084 48.4115C115.424 49.365 114.315 50.1859 112.471 50.1325C110.948 50.0884 110.541 49.8032 110.215 49.5754C110.147 49.5272 110.081 49.4816 110.01 49.4414V51.4765C110.026 52.8644 110.038 53.531 110.145 53.7777C110.29 54.1099 110.617 54.3146 111.255 54.4714C111.255 54.4714 111.543 54.5391 111.618 54.6112C111.692 54.6833 111.692 54.8435 111.692 54.8435C111.692 54.8435 111.707 54.9933 111.648 55.0696C111.588 55.1459 111.472 55.1307 111.472 55.1307L108.649 55.1079L106.947 55.1034C106.947 55.1034 106.768 55.1376 106.701 55.0658C106.634 54.9938 106.64 54.8439 106.64 54.8439C106.64 54.8439 106.655 54.6824 106.733 54.6102C106.811 54.5378 107.102 54.457 107.102 54.457C107.759 54.2726 108.043 54.0775 108.192 53.7101C108.312 53.4138 108.313 52.8645 108.311 48.3816C108.31 44.1303 108.304 43.3373 108.207 43.1092C108.062 42.7716 107.701 42.6821 107.187 42.5548C107.085 42.5295 106.977 42.5027 106.864 42.4723C106.864 42.4723 106.681 42.4481 106.652 42.3837ZM114.873 45.8526C114.873 46.5498 114.86 47.6412 114.119 48.3388C113.377 49.0365 111.916 49.2274 110.924 49.0332C110.612 48.972 110.433 48.8776 110.296 48.8048L110.282 48.7976L110.028 48.6639L110.013 46.2146C110.004 44.6799 110.02 43.68 110.056 43.5371C110.089 42.7279 111.282 42.6272 111.865 42.6572C114.36 42.6572 114.8 44.7595 114.873 45.8526ZM98.8199 41.7285C98.8199 41.7285 98.6981 41.7753 98.5134 41.8453L97.8474 42.1894L97.3678 43.3872C97.1041 44.0459 96.6216 45.2551 96.2957 46.0744C95.7021 47.5665 95.3101 48.5469 94.8976 49.5701C94.7763 49.8711 94.4099 50.7876 94.0833 51.6069C93.757 52.426 93.4307 53.2056 93.3583 53.3394C93.3462 53.3616 93.3335 53.3855 93.32 53.4108C93.1376 53.754 92.8204 54.3502 92.2604 54.4404C92.2604 54.4404 91.9525 54.4706 91.8384 54.5833C91.7244 54.6961 91.7354 54.7882 91.7354 54.7882V54.9302C91.7354 54.9302 91.7458 54.999 91.8104 55.0333C91.875 55.0676 91.9625 55.0696 91.9625 55.0696L94.011 55.0463H96.1283C96.1283 55.0463 96.278 55.0638 96.3357 55.0159C96.3935 54.968 96.4094 54.8969 96.4094 54.8969V54.7474C96.4094 54.7474 96.3799 54.5853 96.2961 54.522C96.2123 54.4588 95.898 54.4155 95.898 54.4155C95.0504 54.304 94.9045 53.6627 95.0091 53.086C95.0605 52.8027 95.4011 51.7545 95.7848 50.6993L95.9175 50.3346L98.136 50.3177C99.3561 50.3083 100.41 50.3146 100.477 50.3317C100.573 50.3561 100.708 50.63 101.104 51.6054C101.704 53.0834 101.752 53.2634 101.619 53.5399C101.611 53.5568 101.602 53.5753 101.593 53.5953C101.468 53.8628 101.226 54.3823 100.617 54.4352C100.617 54.4352 100.293 54.4464 100.213 54.5432C100.132 54.64 100.15 54.7514 100.15 54.7514V54.8993C100.15 54.8993 100.171 54.986 100.213 55.0204C100.254 55.0547 100.325 55.046 100.325 55.046L102.338 55.0316L105.169 55.0314C105.169 55.0314 105.28 55.0433 105.31 55.0006C105.341 54.9579 105.347 54.9076 105.347 54.9076V54.7111C105.347 54.7111 105.334 54.6066 105.28 54.549C105.226 54.4914 104.859 54.4306 104.859 54.4306C104.39 54.355 104.156 53.9678 103.982 53.6794C103.938 53.6059 103.897 53.5387 103.858 53.4849C103.777 53.375 103.489 52.7728 103.264 52.1936C103.039 51.6144 102.53 50.3059 102.134 49.2861C101.738 48.2663 101.185 46.8436 100.905 46.1248C100.626 45.4058 100.094 44.0379 99.7245 43.0849C99.6639 42.9285 99.6094 42.788 99.5607 42.6623L99.5606 42.6617C99.3126 42.0217 99.2126 41.7634 99.1851 41.7285C99.0961 41.615 98.8199 41.7285 98.8199 41.7285ZM98.6881 45.6228C98.5988 45.4056 98.4414 45.0157 98.3387 44.7566C98.1519 44.2856 98.081 44.1771 98.0231 44.2744C98.0062 44.3028 97.8886 44.6247 97.7618 44.9898C96.9409 47.3535 96.5691 48.4178 96.4945 48.6184C96.4477 48.7444 96.4094 48.8743 96.4094 48.9071C96.4094 48.9447 97.0772 48.9667 98.2212 48.9667C99.2176 48.9667 100.033 48.9543 100.033 48.9392C100.033 48.9241 99.9441 48.6985 99.8354 48.4377C99.7267 48.1768 99.4607 47.5258 99.2443 46.9908C99.0279 46.4558 98.7776 45.8403 98.6881 45.6228Z" fill="#808080"/>
</svg>
