<svg width="182" height="96" viewBox="0 0 182 96" fill="none" xmlns="http://www.w3.org/2000/svg">
<path d="M45.9922 61.003V56.719L52.209 37.8548H46.888V33.9128H56.4909V37.8548L50.1845 57.061H56.4909V61.003H45.9922Z" fill="#808080"/>
<path d="M62.0625 55.7652V55.4412V39.475C62.0625 39.391 62.0625 39.283 62.0625 39.151C62.0744 39.007 62.1102 38.731 62.1699 38.323C62.2416 37.915 62.3372 37.525 62.4566 37.153C62.5761 36.781 62.7672 36.3729 63.0299 35.9289C63.2927 35.4729 63.5972 35.0829 63.9437 34.7589C64.3019 34.4349 64.7737 34.1649 65.3589 33.9489C65.9443 33.7209 66.6011 33.6069 67.3297 33.6069C68.0583 33.6069 68.7152 33.7149 69.3004 33.9309C69.8857 34.1469 70.3515 34.4289 70.6979 34.7769C71.0562 35.1129 71.3668 35.4909 71.6295 35.9109C71.9042 36.3309 72.1013 36.7509 72.2208 37.171C72.3401 37.591 72.4297 37.975 72.4894 38.323C72.5611 38.659 72.597 38.935 72.597 39.151L72.6149 39.475V55.4412C72.6149 55.5251 72.6089 55.6391 72.597 55.7831C72.597 55.9152 72.5611 56.1851 72.4894 56.5932C72.4297 57.0012 72.3401 57.3912 72.2208 57.7631C72.1013 58.1232 71.9102 58.5311 71.6475 58.9872C71.3846 59.4312 71.0742 59.8152 70.7158 60.1392C70.3574 60.4632 69.8857 60.7392 69.3004 60.9672C68.7152 61.1832 68.0583 61.2912 67.3297 61.2912C66.6011 61.2912 65.9443 61.1832 65.3589 60.9672C64.7737 60.7512 64.3019 60.4752 63.9437 60.1392C63.5972 59.7912 63.2927 59.4072 63.0299 58.9872C62.7672 58.5672 62.5761 58.1532 62.4566 57.7452C62.3372 57.3251 62.2416 56.9472 62.1699 56.6111C62.1102 56.2631 62.0744 55.9811 62.0625 55.7652ZM66.0218 55.4412C66.0218 55.4891 66.0218 55.5612 66.0218 55.6571C66.0218 55.7411 66.0398 55.8972 66.0756 56.1251C66.1233 56.3532 66.1831 56.5571 66.2547 56.7372C66.3384 56.9052 66.4698 57.0612 66.6489 57.2051C66.84 57.3491 67.0669 57.4212 67.3297 57.4212C67.5924 57.4212 67.8134 57.3552 67.9926 57.2232C68.1837 57.0792 68.3211 56.9111 68.4046 56.7191C68.4883 56.5271 68.5479 56.3351 68.5838 56.1431C68.6316 55.9511 68.6555 55.7831 68.6555 55.6391V55.4412V39.475C68.6555 39.415 68.6555 39.343 68.6555 39.259C68.6555 39.175 68.6316 39.019 68.5838 38.791C68.5479 38.551 68.4883 38.347 68.4046 38.179C68.3211 37.999 68.1837 37.837 67.9926 37.693C67.8134 37.549 67.5924 37.477 67.3297 37.477C66.9117 37.477 66.5951 37.645 66.3802 37.981C66.1652 38.305 66.0517 38.635 66.0398 38.971L66.0218 39.475V55.4412Z" fill="#808080"/>
<path d="M78.9453 61.003V33.9128H82.9047V42.9308V44.1188H83.048L83.2452 42.9308L86.5416 33.9128H90.3935L86.7566 42.8228L90.8773 61.003H87.0075L84.2663 49.2129L84.1589 48.6549H84.0514L83.8185 49.2129L82.9047 51.4269V61.003H78.9453Z" fill="#808080"/>
<path d="M95.7031 33.9128H99.5909L101.58 42.5708L101.687 43.5608H101.759L101.866 42.5708L103.855 33.9128H107.743L103.712 49.4649V61.003H99.7521V49.4649L95.7031 33.9128Z" fill="#808080"/>
<path d="M112.766 55.7652V55.4412V39.475C112.766 39.391 112.766 39.283 112.766 39.151C112.778 39.007 112.813 38.731 112.873 38.323C112.945 37.915 113.04 37.525 113.16 37.153C113.279 36.781 113.47 36.3729 113.733 35.9289C113.996 35.4729 114.3 35.0829 114.647 34.7589C115.005 34.4349 115.477 34.1649 116.062 33.9489C116.647 33.7209 117.304 33.6069 118.033 33.6069C118.761 33.6069 119.418 33.7149 120.004 33.9309C120.589 34.1469 121.055 34.4289 121.401 34.7769C121.759 35.1129 122.07 35.4909 122.333 35.9109C122.607 36.3309 122.804 36.7509 122.924 37.171C123.043 37.591 123.133 37.975 123.193 38.323C123.264 38.659 123.3 38.935 123.3 39.151L123.318 39.475V55.4412C123.318 55.5251 123.312 55.6391 123.3 55.7831C123.3 55.9152 123.264 56.1851 123.193 56.5932C123.133 57.0012 123.043 57.3912 122.924 57.7631C122.804 58.1232 122.613 58.5311 122.351 58.9872C122.088 59.4312 121.777 59.8152 121.419 60.1392C121.061 60.4632 120.589 60.7392 120.004 60.9672C119.418 61.1832 118.761 61.2912 118.033 61.2912C117.304 61.2912 116.647 61.1832 116.062 60.9672C115.477 60.7512 115.005 60.4752 114.647 60.1392C114.3 59.7912 113.996 59.4072 113.733 58.9872C113.47 58.5672 113.279 58.1532 113.16 57.7452C113.04 57.3251 112.945 56.9472 112.873 56.6111C112.813 56.2631 112.778 55.9811 112.766 55.7652ZM116.725 55.4412C116.725 55.4891 116.725 55.5612 116.725 55.6571C116.725 55.7411 116.743 55.8972 116.779 56.1251C116.827 56.3532 116.886 56.5571 116.958 56.7372C117.042 56.9052 117.173 57.0612 117.352 57.2051C117.543 57.3491 117.77 57.4212 118.033 57.4212C118.296 57.4212 118.517 57.3552 118.696 57.2232C118.887 57.0792 119.024 56.9111 119.108 56.7191C119.191 56.5271 119.251 56.3351 119.287 56.1431C119.335 55.9511 119.359 55.7831 119.359 55.6391V55.4412V39.475C119.359 39.415 119.359 39.343 119.359 39.259C119.359 39.175 119.335 39.019 119.287 38.791C119.251 38.551 119.191 38.347 119.108 38.179C119.024 37.999 118.887 37.837 118.696 37.693C118.517 37.549 118.296 37.477 118.033 37.477C117.615 37.477 117.298 37.645 117.083 37.981C116.868 38.305 116.755 38.635 116.743 38.971L116.725 39.475V55.4412Z" fill="#808080"/>
<path d="M129.148 61.0031V56.9171H133V61.0031H129.148Z" fill="#808080"/>
</svg>
