<svg
	width="24"
	height="24"
	viewBox="0 0 24 24"
	fill="none"
	xmlns="http://www.w3.org/2000/svg"
>
	<path
		d="M3 0V10.5H0V13.5H3V24H9V21H6V15C6 14.2044 5.68393 13.4413 5.12132 12.8787C4.55871 12.3161 3.79565 12 3 12C3.79565 12 4.55871 11.6839 5.12132 11.1213C5.68393 10.5587 6 9.79565 6 9V3H9V0H3Z"
		fill="white"
	/>
	<path
		d="M21 10.5V0H15V3H18V9C18 9.79565 18.3161 10.5587 18.8787 11.1213C19.4413 11.6839 20.2044 12 21 12C20.2044 12 19.4413 12.3161 18.8787 12.8787C18.3161 13.4413 18 14.2044 18 15V21H15V24H21V13.5H24V10.5H21Z"
		fill="white"
	/>
</svg>
