<svg width="182" height="96" viewBox="0 0 182 96" fill="none" xmlns="http://www.w3.org/2000/svg">
<path d="M56.2201 36.2061C56.2201 36.2945 56.2168 36.382 56.2101 36.4686C56.1757 36.9198 56.3407 37.3888 56.7287 37.6151L60.0774 39.5672C60.4656 39.7935 60.9504 39.703 61.3197 39.4464C61.8574 39.0727 62.5088 38.854 63.2108 38.854C65.0555 38.854 66.5508 40.3639 66.5508 42.2264C66.5508 44.0888 65.0555 45.5987 63.2108 45.5987C61.3663 45.5987 59.8709 44.0888 59.8709 42.2264C59.8709 42.1385 59.8743 42.0512 59.8808 41.965C59.9151 41.514 59.7501 41.0453 59.3622 40.8191L56.0121 38.8662C55.6241 38.6399 55.1396 38.7303 54.7703 38.9866C54.233 39.3596 53.5821 39.5779 52.8808 39.5779C52.1794 39.5779 51.5286 39.3596 50.9912 38.9866C50.622 38.7303 50.1375 38.6399 49.7493 38.8662L46.3993 40.8191C46.0114 41.0452 45.8464 41.5139 45.8807 41.9649C45.8872 42.0512 45.8905 42.1384 45.8905 42.2263C45.8905 43.5677 45.1148 44.7262 43.9915 45.2694C43.5869 45.465 43.2663 45.8439 43.2663 46.2968V50.1978C43.2663 50.6507 43.5869 51.0296 43.9915 51.2252C45.1147 51.7684 45.8904 52.9269 45.8904 54.2683C45.8904 54.3575 45.887 54.446 45.8803 54.5336C45.8455 54.9851 46.0103 55.4546 46.3987 55.6812L49.7492 57.6343C50.1373 57.8605 50.6219 57.7701 50.9911 57.5138C51.5285 57.1407 52.1794 56.9224 52.8808 56.9224C53.5823 56.9224 54.2331 57.1407 54.7704 57.5137C55.1397 57.7701 55.6243 57.8605 56.0124 57.6342L59.3627 55.6812C59.7511 55.4547 59.9159 54.9852 59.8811 54.5336C59.8744 54.4461 59.8709 54.3577 59.8709 54.2684C59.8709 52.406 61.3663 50.8961 63.2108 50.8961C65.0555 50.8961 66.5508 52.406 66.5508 54.2684C66.5508 56.131 65.0555 57.6408 63.2108 57.6408C62.5102 57.6408 61.8599 57.423 61.3228 57.0507C60.9537 56.7948 60.4695 56.7048 60.0818 56.9308L56.7288 58.8854C56.3408 59.1117 56.1758 59.5806 56.2102 60.0317C56.2169 60.1184 56.2202 60.2059 56.2202 60.2942C56.2202 62.1564 54.7251 63.6659 52.8808 63.6659C51.0365 63.6659 49.5414 62.1564 49.5414 60.2942C49.5414 60.2059 49.5448 60.1184 49.5514 60.0319C49.5857 59.5808 49.4209 59.1118 49.0327 58.8855L45.6795 56.9307C45.2917 56.7046 44.8076 56.7946 44.4384 57.0505C43.9014 57.4227 43.2512 57.6404 42.5507 57.6404C40.7062 57.6404 39.2109 56.1306 39.2109 54.2683C39.2109 52.9269 39.9866 51.7685 41.1097 51.2253C41.5143 51.0296 41.8349 50.6509 41.8349 50.1979V46.2967C41.8349 45.8437 41.5143 45.465 41.1098 45.2693C39.9866 44.7261 39.2109 43.5676 39.2109 42.2263C39.2109 40.3638 40.7062 38.854 42.5507 38.854C43.2528 38.854 43.9042 39.0727 44.4418 39.4463C44.8111 39.7029 45.2959 39.7935 45.6841 39.5671L49.0327 37.615C49.4209 37.3888 49.5857 36.9198 49.5514 36.4686C49.5448 36.382 49.5414 36.2945 49.5414 36.2061C49.5414 34.344 51.0365 32.8344 52.8808 32.8344C54.725 32.8344 56.2201 34.344 56.2201 36.2061Z" fill="#808080"/>
<g opacity="0.4">
<path d="M40.4716 48.2491C40.4716 49.6179 39.3726 50.7275 38.017 50.7275C36.6614 50.7275 35.5625 49.6179 35.5625 48.2491C35.5625 46.8804 36.6614 45.7708 38.017 45.7708C39.3726 45.7708 40.4716 46.8804 40.4716 48.2491Z" fill="#808080"/>
<path d="M53.9992 30.9282C53.9992 31.5551 53.4957 32.0633 52.8746 32.0633C52.2535 32.0633 51.75 31.5551 51.75 30.9282C51.75 30.3013 52.2535 29.7931 52.8746 29.7931C53.4957 29.7931 53.9992 30.3013 53.9992 30.9282Z" fill="#808080"/>
<path d="M53.9992 65.5811C53.9992 66.2081 53.4957 66.7162 52.8746 66.7162C52.2535 66.7162 51.75 66.2081 51.75 65.5811C51.75 64.9543 52.2535 64.446 52.8746 64.446C53.4957 64.446 53.9992 64.9543 53.9992 65.5811Z" fill="#808080"/>
<path d="M47.565 34.0033C48.2428 35.1887 47.8406 36.7044 46.6666 37.3888C45.4926 38.0732 43.9914 37.6671 43.3136 36.4817C42.6358 35.2963 43.0381 33.7806 44.212 33.0962C45.386 32.4118 46.8872 32.818 47.565 34.0033Z" fill="#808080"/>
<path d="M58.173 34.0033C57.4952 35.1887 57.8974 36.7044 59.0714 37.3888C60.2454 38.0732 61.7465 37.6671 62.4244 36.4817C63.1022 35.2963 62.7 33.7806 61.526 33.0962C60.352 32.4118 58.8507 32.818 58.173 34.0033Z" fill="#808080"/>
<path d="M58.1887 62.4957C58.8665 63.6811 60.3676 64.0872 61.5416 63.4029C62.7156 62.7184 63.1178 61.2028 62.44 60.0174C61.7622 58.832 60.261 58.4258 59.087 59.1102C57.9131 59.7945 57.5108 61.3103 58.1887 62.4957Z" fill="#808080"/>
<path d="M47.565 62.4957C46.8872 63.6811 45.386 64.0872 44.212 63.4029C43.0381 62.7184 42.6358 61.2028 43.3136 60.0174C43.9914 58.832 45.4926 58.4258 46.6666 59.1102C47.8406 59.7945 48.2429 61.3103 47.565 62.4957Z" fill="#808080"/>
<path d="M39.1477 39.5891C39.1477 40.216 38.6442 40.7242 38.023 40.7242C37.4019 40.7242 36.8984 40.216 36.8984 39.5891C36.8984 38.9622 37.4019 38.454 38.023 38.454C38.6442 38.454 39.1477 38.9622 39.1477 39.5891Z" fill="#808080"/>
<path d="M39.1477 56.9113C39.1477 57.5382 38.6442 58.0464 38.023 58.0464C37.4019 58.0464 36.8984 57.5382 36.8984 56.9113C36.8984 56.2844 37.4019 55.7762 38.023 55.7762C38.6442 55.7762 39.1477 56.2844 39.1477 56.9113Z" fill="#808080"/>
</g>
<path d="M73.3594 49.9938C73.3594 48.5927 73.6368 47.3646 74.1919 46.3098C74.7633 45.2384 75.5469 44.4142 76.5426 43.8373C77.5385 43.2604 78.6812 42.9719 79.9708 42.9719C81.6033 42.9719 82.9501 43.3675 84.0112 44.1587C85.0886 44.9334 85.8151 46.0461 86.1906 47.4966H83.1786C82.9337 46.8208 82.542 46.2933 82.0033 45.9142C81.4646 45.5351 80.7871 45.3455 79.9708 45.3455C78.8281 45.3455 77.9139 45.7576 77.2283 46.5818C76.559 47.3895 76.2244 48.5267 76.2244 49.9938C76.2244 51.4608 76.559 52.6064 77.2283 53.4305C77.9139 54.2546 78.8281 54.6667 79.9708 54.6667C81.5869 54.6667 82.6563 53.9497 83.1786 52.5157H86.1906C85.7987 53.9002 85.0641 55.0046 83.9867 55.8288C82.9093 56.6365 81.5707 57.0403 79.9708 57.0403C78.6812 57.0403 77.5385 56.7519 76.5426 56.175C75.5469 55.5816 74.7633 54.7574 74.1919 53.7024C73.6368 52.6311 73.3594 51.3949 73.3594 49.9938Z" fill="#808080"/>
<path d="M98.9917 39.6354V41.9348H91.7681V47.0034H97.4001V49.3028H91.7681V56.8191H88.9766V39.6354H98.9917Z" fill="#808080"/>
<path d="M113.795 43.1967V56.82H111.003V55.213C110.562 55.7734 109.983 56.2185 109.264 56.548C108.563 56.8612 107.812 57.0178 107.012 57.0178C105.951 57.0178 104.996 56.7953 104.147 56.3502C103.314 55.9053 102.653 55.2459 102.163 54.3723C101.69 53.4987 101.453 52.4438 101.453 51.2076V43.1967H104.22V50.7873C104.22 52.0069 104.522 52.9465 105.126 53.6058C105.73 54.2487 106.555 54.5701 107.599 54.5701C108.644 54.5701 109.469 54.2487 110.073 53.6058C110.693 52.9465 111.003 52.0069 111.003 50.7873V43.1967H113.795Z" fill="#808080"/>
<path d="M124.284 42.9719C125.345 42.9719 126.292 43.1944 127.124 43.6395C127.973 44.0845 128.634 44.7439 129.108 45.6175C129.581 46.4911 129.818 47.5461 129.818 48.7822V56.8178H127.051V49.2026C127.051 47.9828 126.749 47.0516 126.145 46.4087C125.541 45.7494 124.717 45.4197 123.672 45.4197C122.627 45.4197 121.794 45.7494 121.174 46.4087C120.57 47.0516 120.268 47.9828 120.268 49.2026V56.8178H117.477V43.1944H120.268V44.7521C120.725 44.1917 121.305 43.7549 122.007 43.4417C122.725 43.1285 123.484 42.9719 124.284 42.9719Z" fill="#808080"/>
<path d="M132.445 49.943C132.445 48.5749 132.723 47.3634 133.278 46.3085C133.849 45.2536 134.617 44.4376 135.58 43.8607C136.559 43.2673 137.645 42.9706 138.837 42.9706C139.718 42.9706 140.583 43.1684 141.432 43.564C142.297 43.9431 142.983 44.4541 143.489 45.097V38.5202H146.305V56.8165H143.489V54.7643C143.032 55.4237 142.395 55.9676 141.579 56.3962C140.779 56.8248 139.857 57.039 138.812 57.039C137.637 57.039 136.559 56.7423 135.58 56.1489C134.617 55.539 133.849 54.6984 133.278 53.627C132.723 52.5392 132.445 51.3111 132.445 49.943ZM143.489 49.9925C143.489 49.0529 143.293 48.237 142.901 47.5448C142.526 46.8525 142.028 46.325 141.408 45.9624C140.787 45.5997 140.118 45.4184 139.4 45.4184C138.681 45.4184 138.012 45.5997 137.392 45.9624C136.771 46.3085 136.265 46.8277 135.874 47.52C135.498 48.1959 135.31 49.0035 135.31 49.943C135.31 50.8826 135.498 51.7067 135.874 52.4155C136.265 53.1242 136.771 53.6682 137.392 54.0473C138.028 54.4099 138.698 54.5912 139.4 54.5912C140.118 54.5912 140.787 54.4099 141.408 54.0473C142.028 53.6847 142.526 53.1573 142.901 52.465C143.293 51.7562 143.489 50.932 143.489 49.9925Z" fill="#808080"/>
</svg>
