<svg width="182" height="96" viewBox="0 0 182 96" fill="none" xmlns="http://www.w3.org/2000/svg">
<path d="M27.4994 51.253C27.76 51.8454 28.1153 52.3905 28.5417 52.8645C27.6178 53.3622 26.6702 53.5992 25.6042 53.5992C22.4771 53.5992 20.2266 51.5137 20.2266 48.1721C20.2266 44.8069 22.5956 42.7214 25.6042 42.7214C26.6702 42.7214 27.5231 42.9583 28.3759 43.4086C27.9732 43.9063 27.6415 44.4751 27.4046 45.0913C26.8834 44.878 26.3623 44.7832 25.8174 44.7832C23.9696 44.7832 22.5245 45.9918 22.5245 48.1721C22.5245 50.2339 23.9222 51.5611 25.8885 51.5611C26.4807 51.5611 27.0019 51.4663 27.4994 51.253ZM33.7772 42.7451C36.8569 42.7451 39.0601 44.9491 39.0601 48.1958C39.0601 51.4189 36.8332 53.6229 33.7772 53.6229C30.7212 53.6229 28.5181 51.4189 28.5181 48.1958C28.5181 44.9491 30.7449 42.7451 33.7772 42.7451ZM33.7772 44.7358C32.0715 44.7358 30.816 46.0629 30.816 48.1958C30.816 50.2813 32.0715 51.6322 33.7772 51.6322C35.5303 51.6322 36.7622 50.305 36.7622 48.1958C36.7622 46.0629 35.554 44.7358 33.7772 44.7358ZM40.5289 53.3622V42.9583H42.8268V53.3622H40.5289ZM40.2446 39.7827C40.2446 38.9769 40.9079 38.3608 41.666 38.3608C42.4241 38.3608 43.0874 39.0006 43.0874 39.7827C43.0874 40.6122 42.4241 41.252 41.666 41.252C40.9079 41.252 40.2446 40.5885 40.2446 39.7827ZM44.8167 43.6219C46.2381 43.0531 48.0149 42.7214 49.5074 42.7214C52.1133 42.7214 53.7952 43.7404 53.7952 46.6554V53.3385H51.521V46.8924C51.521 45.3993 50.5971 44.8543 49.3178 44.8543C48.5124 44.8543 47.7069 44.9728 47.091 45.1624V53.3859H44.7931V43.6219H44.8167ZM55.7141 37.4128H58.0121V43.2664C58.4859 43.0057 59.4335 42.7451 60.3574 42.7451C63.3186 42.7451 65.5455 44.6647 65.5455 48.0062C65.5455 51.3715 63.3423 53.6229 59.5519 53.6229C58.0831 53.6229 56.7802 53.3148 55.7378 52.9356V37.4128H55.7141ZM57.9884 51.3952C58.4385 51.5374 59.007 51.6085 59.5756 51.6085C61.684 51.6085 63.1765 50.4235 63.1765 48.0299C63.1765 46.0155 61.7551 44.8069 60.0257 44.8069C59.1255 44.8069 58.4385 45.0439 57.9647 45.3045V51.3952H57.9884ZM72.1076 46.3947C72.1076 45.2571 71.2784 44.7595 70.1413 44.7595C68.9568 44.7595 68.0329 45.115 67.1801 45.6126V43.5745C68.0803 43.0531 69.2411 42.7214 70.4967 42.7214C72.7472 42.7214 74.3344 43.6693 74.3344 46.2762V53.1489C73.3632 53.4096 71.9891 53.5755 70.8283 53.5755C68.1751 53.5755 66.2325 52.746 66.2325 50.3998C66.2325 48.2906 68.0092 47.2479 70.9705 47.2479H72.1076V46.3947ZM72.1076 48.812H71.1363C69.5491 48.812 68.5067 49.286 68.5067 50.3287C68.5067 51.4189 69.478 51.8217 70.8757 51.8217C71.2311 51.8217 71.7049 51.7744 72.1313 51.7033L72.1076 48.812ZM76.0164 50.542C76.964 51.2767 78.1012 51.727 79.1435 51.727C80.1622 51.727 80.8255 51.3715 80.8255 50.542C80.8255 49.6888 80.2333 49.3808 78.9066 49.049C76.7745 48.5513 75.8743 47.6981 75.8743 45.8733C75.8743 43.7641 77.4378 42.7214 79.5226 42.7214C80.6834 42.7214 81.6073 42.982 82.4601 43.5271V45.66C81.5599 44.9965 80.6834 44.5936 79.5936 44.5936C78.5986 44.5936 78.0775 45.0912 78.0775 45.7785C78.0775 46.4658 78.5276 46.8213 79.6884 47.1294C82.0337 47.6507 83.0287 48.5276 83.0287 50.4235C83.0287 52.6038 81.3941 53.5992 79.1672 53.5992C77.959 53.5992 76.7745 53.2674 75.9927 52.746V50.542H76.0164ZM86.1794 48.6935V48.7409C86.3216 50.5894 87.8851 51.6085 89.496 51.6085C90.9174 51.6085 91.9124 51.2767 92.9311 50.5894V52.6275C92.0072 53.2911 90.6331 53.5992 89.3302 53.5992C86.1321 53.5992 83.9763 51.5374 83.9763 48.2432C83.9763 44.9254 86.1084 42.7214 88.9275 42.7214C91.9124 42.7214 93.3101 44.6647 93.3101 47.5085V48.6935H86.1794ZM91.1543 47.2005C91.1069 45.5889 90.3252 44.6884 88.8327 44.6884C87.5061 44.6884 86.5348 45.6363 86.2505 47.2005H91.1543Z" fill="#808080"/>
<path d="M101.465 36.9126H101.678C101.891 36.9126 102.057 37.0785 102.057 37.2918V58.6208C102.057 58.8341 101.891 59 101.678 59H101.465C101.252 59 101.086 58.8341 101.086 58.6208V37.2918C101.086 37.0785 101.275 36.9126 101.465 36.9126Z" fill="#808080"/>
<path d="M114.649 53.3817H113.37L109.438 42.883H110.598L114.057 52.2915L117.516 42.883H118.629L114.649 53.3817ZM124.86 49.5898H119.174V49.6135C119.174 51.5095 120.501 52.6233 121.969 52.6233C123.036 52.6233 123.77 52.3389 124.528 51.7464V52.8129C123.865 53.3343 122.893 53.5476 121.969 53.5476C119.79 53.5476 118.132 52.0308 118.132 49.5187C118.132 47.1962 119.672 45.4899 121.709 45.4899C123.604 45.4899 124.86 46.6512 124.86 48.8552V49.5898ZM119.245 48.6893H123.841C123.77 47.0778 122.917 46.4379 121.662 46.4379C120.501 46.4379 119.553 47.2436 119.245 48.6893ZM126.02 53.3817V46.0824C127.015 45.7032 128.153 45.4899 129.171 45.4899C131.066 45.4899 132.227 46.2483 132.227 48.1679V53.358H131.185V48.3812C131.185 46.8171 130.095 46.4616 129.076 46.4616C128.295 46.4616 127.584 46.6038 127.039 46.746V53.358H126.02V53.3817ZM132.867 46.5801V45.6795H134.028V43.8073H135.07V45.6795H137.178V46.5801H135.07V51.2725C135.07 52.2678 135.449 52.647 136.16 52.647C136.634 52.647 137.036 52.4811 137.557 52.2204V53.1684C137.107 53.4054 136.586 53.5476 135.947 53.5476C134.857 53.5476 134.051 52.9551 134.051 51.3673V46.5564H132.867V46.5801ZM144.38 45.6795V53.2869C143.456 53.4528 142.532 53.5476 141.751 53.5476C139.571 53.5476 138.339 52.7892 138.339 50.8696V45.6795H139.382V50.8222C139.382 52.2678 140.495 52.647 141.703 52.647C142.224 52.647 142.817 52.6233 143.362 52.5522V45.7032H144.38V45.6795ZM147.176 46.9593V53.3817H146.133V46.3905C146.915 45.8691 147.886 45.561 148.929 45.561C149.331 45.561 149.758 45.6084 150.184 45.7269V46.7697C149.734 46.6038 149.213 46.5801 148.858 46.5801C148.123 46.5564 147.555 46.7223 147.176 46.9593ZM156.888 49.5898H151.203V49.6135C151.203 51.5095 152.53 52.6233 153.998 52.6233C155.064 52.6233 155.799 52.3389 156.557 51.7464V52.8129C155.894 53.3343 154.922 53.5476 153.998 53.5476C151.819 53.5476 150.161 52.0308 150.161 49.5187C150.161 47.1962 151.7 45.4899 153.738 45.4899C155.633 45.4899 156.888 46.6512 156.888 48.8552V49.5898ZM151.274 48.6893H155.87C155.799 47.0778 154.946 46.4379 153.69 46.4379C152.506 46.4379 151.558 47.2436 151.274 48.6893ZM157.67 52.9314V51.7227C158.31 52.3152 158.973 52.647 159.779 52.647C160.726 52.647 161.319 52.2678 161.319 51.4147C161.319 50.4904 160.655 50.2534 159.471 49.8505C158.144 49.4002 157.576 48.8315 157.576 47.5991C157.576 46.2483 158.57 45.5136 159.945 45.5136C160.679 45.5136 161.413 45.6795 162.006 46.1061V47.2436C161.413 46.746 160.821 46.4142 159.945 46.4142C159.115 46.4142 158.594 46.8645 158.594 47.5991C158.594 48.3101 158.997 48.6656 160.158 49.0448C161.461 49.4476 162.337 49.969 162.337 51.3673C162.337 52.884 161.176 53.5713 159.779 53.5713C158.95 53.5476 158.144 53.3106 157.67 52.9314Z" fill="#808080"/>
</svg>
