<svg width="182" height="96" viewBox="0 0 182 96" fill="none" xmlns="http://www.w3.org/2000/svg">
<path d="M86.4342 35.4609C87.5894 35.3999 88.7477 35.4792 89.8839 35.6971C91.4218 36.0422 92.6612 36.8144 93.2673 38.3283C94.3046 40.9384 93.1165 43.7786 90.2096 44.6506C89.2428 44.9051 88.2442 45.0163 87.2454 44.9807C86.1598 44.9807 85.0773 44.9504 83.9917 44.9383C83.8198 44.9383 83.6449 44.9716 83.6359 44.7142C83.6268 44.4568 83.7897 44.4629 83.9646 44.4296C84.6038 44.3448 84.6672 44.2842 84.7637 43.6332C84.7848 43.4981 84.7939 43.3613 84.7908 43.2245V36.8991C84.7576 36.2572 84.6521 36.1361 84.0279 36.0422C83.8831 36.0241 83.7444 36.021 83.7444 35.8242C83.7444 35.6274 83.853 35.5759 84.0279 35.5669C84.833 35.5396 85.6351 35.5154 86.4342 35.4609ZM86.5006 39.7969V42.8884C86.5006 43.9209 86.9619 44.3357 87.9601 44.3448H88.4094C89.5462 44.2661 90.481 43.8058 91.0539 42.7945C91.7957 41.4834 91.838 40.0694 91.449 38.6614C91.3075 38.1623 91.0606 37.6997 90.7252 37.3049C89.7241 36.1634 88.3883 35.9756 86.965 36.1634C86.5699 36.2148 86.5096 36.3057 86.5096 36.7054L86.5006 39.7969Z" fill="#808080"/>
<path d="M104.336 54.4567C104.523 54.3689 104.638 54.3204 104.762 54.2568C105.325 53.929 105.981 53.8011 106.625 53.8935C107.067 53.9485 107.482 54.1377 107.814 54.4359C108.146 54.734 108.379 55.1269 108.483 55.5619C108.648 56.0707 108.687 56.6122 108.597 57.1397C108.507 57.6672 108.291 58.1649 107.967 58.5898C107.198 59.6102 106.11 59.9433 104.876 59.8706C104.37 59.8373 104.343 59.8312 104.343 60.355V62.0083C104.343 62.6139 104.451 62.738 105.06 62.8077C105.238 62.8319 105.497 62.7895 105.44 63.1105C105.44 63.1801 105.32 63.2952 105.253 63.2952H102.048C102.003 63.2844 101.961 63.2627 101.927 63.2321C101.892 63.2015 101.865 63.1629 101.849 63.1195C101.849 63.0287 101.936 62.9348 101.99 62.847C101.99 62.8289 102.048 62.847 102.078 62.8289C102.708 62.8289 102.79 62.6199 102.796 61.972C102.82 59.8312 102.796 57.6905 102.796 55.5528C102.8 55.4202 102.769 55.289 102.706 55.1724C102.643 55.0559 102.55 54.9583 102.437 54.8897C102.386 54.8515 102.343 54.8029 102.312 54.7471C102.281 54.6912 102.262 54.6294 102.256 54.5657C102.256 54.493 102.41 54.4022 102.512 54.3537C102.995 54.1196 103.483 53.8945 103.978 53.6785C104.074 53.6361 104.225 53.5967 104.279 53.6422C104.333 53.6876 104.355 53.842 104.358 53.9449C104.363 54.1158 104.356 54.2869 104.336 54.4567ZM104.336 56.8063V58.0175C104.336 58.2674 104.415 58.5109 104.56 58.7138C104.705 58.9167 104.91 59.0687 105.146 59.1483C105.382 59.228 105.637 59.2312 105.875 59.1576C106.112 59.084 106.321 58.9373 106.471 58.7381C107.111 57.9206 107.165 56.34 106.583 55.4468C106.431 55.1976 106.211 54.9972 105.949 54.8691C105.687 54.7409 105.395 54.6903 105.105 54.7231C105 54.7157 104.893 54.7318 104.794 54.7704C104.695 54.8089 104.606 54.869 104.533 54.9462C104.46 55.0235 104.404 55.116 104.371 55.2172C104.338 55.3184 104.327 55.4257 104.34 55.5316C104.34 55.9525 104.34 56.3764 104.34 56.7972L104.336 56.8063Z" fill="#808080"/>
<path d="M89.5252 59.8885C87.8757 59.8885 86.564 59.5857 85.4362 58.7227C84.9446 58.347 84.5393 57.8694 84.2479 57.3223C83.9565 56.7753 83.7859 56.1717 83.7475 55.5525C83.6109 54.4245 83.8734 53.2841 84.4893 52.3308C85.2764 51.1469 86.4373 50.5443 87.7762 50.2324C89.2327 49.8873 90.671 50.075 92.1004 50.4202C92.1464 50.4436 92.1864 50.4774 92.2172 50.5188C92.2481 50.5603 92.269 50.6084 92.2783 50.6594C92.3476 51.265 92.3959 51.8705 92.4502 52.4761C92.4502 52.6184 92.4713 52.7607 92.2843 52.7789C92.0974 52.7971 91.9828 52.7789 91.9195 52.5791C91.7841 52.062 91.491 51.6003 91.0812 51.2589C90.1283 50.511 89.0698 50.5171 87.9933 50.8925C87.4844 51.0679 87.0278 51.3694 86.6657 51.769C86.3036 52.1685 86.0477 52.6534 85.9217 53.1786C85.4814 54.7834 85.5719 56.3458 86.5248 57.775C86.976 58.4623 87.6628 58.9595 88.4549 59.1722C89.2469 59.3848 90.0892 59.2981 90.8218 58.9286C91.408 58.6025 91.8734 58.0948 92.1486 57.4813C92.1848 57.4086 92.1999 57.3087 92.2572 57.2723C92.3581 57.1998 92.4771 57.1568 92.6009 57.1482C92.6552 57.1482 92.7608 57.3359 92.7397 57.4056C92.5678 58.0384 92.3718 58.6591 92.1727 59.2799C92.1273 59.3645 92.0504 59.4277 91.9587 59.4555C91.1739 59.7222 90.3534 59.8681 89.5252 59.8885Z" fill="#808080"/>
<path d="M107.106 35.4983V37.4452C107.089 37.4886 107.063 37.5275 107.029 37.559C106.995 37.5905 106.954 37.6137 106.91 37.6269C106.797 37.6235 106.689 37.577 106.608 37.4967C106.545 37.4271 106.554 37.2908 106.53 37.1939C106.346 36.5126 106.045 36.2341 105.339 36.1765C104.793 36.1341 104.241 36.1493 103.696 36.1372C103.412 36.1372 103.276 36.2552 103.282 36.5671V39.5103C103.282 39.7404 103.361 39.8282 103.584 39.8131C104.172 39.7888 104.757 39.7828 105.345 39.7676C105.499 39.7679 105.648 39.7087 105.76 39.6022C105.872 39.4957 105.94 39.3501 105.948 39.1954C105.956 39.0587 105.991 38.925 106.051 38.8017C106.135 38.7132 106.249 38.6575 106.37 38.6443C106.409 38.6443 106.512 38.7866 106.515 38.8683C106.515 39.7404 106.515 40.6155 106.515 41.4875C106.515 41.5662 106.394 41.7116 106.334 41.7085C106.277 41.7031 106.222 41.685 106.173 41.6557C106.124 41.6264 106.082 41.5865 106.051 41.539C105.996 41.3829 105.957 41.2216 105.936 41.0575C105.83 40.67 105.677 40.5276 105.279 40.5155C104.691 40.4943 104.103 40.5155 103.515 40.4943C103.325 40.4943 103.261 40.5731 103.264 40.7608V43.5979C103.264 44.1672 103.442 44.3368 104.018 44.3973C104.163 44.3973 104.302 44.4397 104.455 44.4488C104.609 44.4579 104.691 44.5517 104.679 44.7334C104.681 44.7599 104.679 44.7867 104.672 44.8123C104.664 44.8379 104.651 44.8616 104.635 44.8822C104.618 44.9028 104.597 44.9198 104.573 44.9322C104.55 44.9446 104.524 44.9522 104.498 44.9545C104.477 44.9574 104.455 44.9574 104.434 44.9545C104.03 44.9393 103.629 44.909 103.228 44.9121C102.375 44.9121 101.546 44.9393 100.701 44.9545C100.544 44.9545 100.4 44.9545 100.4 44.7516C100.4 44.5487 100.493 44.4851 100.701 44.4488C101.416 44.3549 101.461 44.3035 101.555 43.5919C101.57 43.4562 101.576 43.3196 101.573 43.1831V37.318C101.57 37.1034 101.555 36.8891 101.527 36.6761C101.464 36.1735 101.38 36.1039 100.888 35.9888C100.783 35.9676 100.653 35.9525 100.605 35.8828C100.585 35.8379 100.575 35.7895 100.575 35.7405C100.575 35.6915 100.585 35.6431 100.605 35.5982C100.605 35.5467 100.737 35.5013 100.81 35.5013C102.703 35.5013 104.604 35.5094 106.512 35.5255L107.106 35.4983Z" fill="#808080"/>
<path d="M119.638 39.7678C119.767 39.6981 119.894 39.6345 120.018 39.5619C120.502 39.2399 121.071 39.0721 121.652 39.0804C122.557 39.1107 123.121 39.5891 123.256 40.4823C123.291 40.7291 123.308 40.978 123.308 41.2272V43.6707C123.308 44.24 123.407 44.3732 123.977 44.4519C124.149 44.4762 124.218 44.5428 124.206 44.7184C124.194 44.894 124.122 44.9485 123.947 44.9455H121.233C121.076 44.9455 120.949 44.9213 120.949 44.7396C120.949 44.5579 121.01 44.4792 121.194 44.455C121.604 44.3914 121.703 44.3278 121.715 43.916C121.739 42.8986 121.758 41.8782 121.715 40.8639C121.679 40.2583 121.197 39.9373 120.603 39.9918C120.333 39.9894 120.074 40.0941 119.881 40.283C119.689 40.4719 119.578 40.7297 119.574 41.0001C119.573 41.0193 119.573 41.0385 119.574 41.0576V43.6283C119.574 44.2339 119.629 44.2794 120.214 44.4852C120.257 44.5132 120.292 44.5517 120.317 44.5973C120.341 44.6429 120.353 44.694 120.352 44.7457C120.336 44.793 120.308 44.8354 120.271 44.8693C120.234 44.9031 120.19 44.9272 120.141 44.9394C119.858 44.9394 119.595 44.9061 119.321 44.9092C118.694 44.9092 118.07 44.9364 117.439 44.9515C117.286 44.9515 117.138 44.9515 117.138 44.7457C117.138 44.5398 117.222 44.4822 117.421 44.461C117.898 44.3974 118.024 44.2854 118.024 43.8009C118.043 42.7624 118.024 41.7208 118.024 40.6822C118.019 40.5631 117.982 40.4477 117.918 40.3474C117.854 40.247 117.765 40.1651 117.66 40.1099C117.614 40.0766 117.576 40.034 117.548 39.985C117.52 39.936 117.502 39.8815 117.497 39.8253C117.497 39.7496 117.632 39.6557 117.726 39.6133C118.226 39.3923 118.733 39.1894 119.234 38.9744C119.487 38.8654 119.577 38.923 119.574 39.1924V39.6951C119.574 39.6951 119.611 39.7102 119.638 39.7678Z" fill="#808080"/>
<path d="M127.707 59.2885C127.484 59.5107 127.209 59.6748 126.908 59.7666C126.607 59.8584 126.288 59.8751 125.979 59.8153C125.733 59.7629 125.504 59.6494 125.313 59.4853C125.242 59.4069 125.144 59.3586 125.038 59.3502C124.933 59.3417 124.829 59.3738 124.746 59.4399C124.415 59.6193 124.059 59.7498 123.691 59.8274C122.641 60.0031 121.914 59.2824 122.035 58.2226C122.062 58.0131 122.147 57.8152 122.279 57.6511C122.412 57.487 122.587 57.3631 122.786 57.2931C123.356 57.0569 123.923 56.8571 124.493 56.6451L124.776 56.5422C124.867 56.5173 124.946 56.4599 124.999 56.3808C125.051 56.3017 125.072 56.2062 125.06 56.1122C125.057 55.7808 125.032 55.45 124.984 55.1221C124.953 54.9447 124.855 54.7858 124.712 54.677C124.569 54.5682 124.391 54.5174 124.212 54.5346C124.033 54.5337 123.861 54.6021 123.731 54.7257C123.601 54.8492 123.524 55.0184 123.516 55.1978C123.504 55.3126 123.461 55.4217 123.39 55.5124C123.318 55.603 123.223 55.6714 123.115 55.7095C122.865 55.7899 122.609 55.8467 122.349 55.879C122.101 55.9093 122.005 55.7488 122.065 55.5278C122.101 55.3853 122.162 55.2501 122.243 55.1281C122.813 54.2712 124.354 53.6535 125.37 53.8806C125.722 53.9261 126.043 54.1053 126.268 54.3812C126.492 54.6572 126.602 55.009 126.576 55.3643C126.576 56.1182 126.519 56.8783 126.498 57.6292C126.482 57.9218 126.499 58.2152 126.546 58.5042C126.631 58.9736 126.977 59.1401 127.424 58.9736C127.71 58.8646 127.758 58.8979 127.777 59.237L127.707 59.2885ZM125.014 57.2234L124.903 57.1235C124.56 57.2425 124.228 57.3883 123.908 57.5595C123.819 57.6226 123.743 57.7026 123.685 57.7951C123.627 57.8876 123.588 57.9907 123.57 58.0985C123.551 58.2062 123.555 58.3166 123.579 58.4231C123.603 58.5296 123.648 58.6303 123.712 58.7192C123.76 58.7859 123.817 58.846 123.881 58.8979C124.258 59.1825 124.855 59.0462 124.921 58.5951C124.987 58.1439 125.005 57.6776 125.014 57.2234Z" fill="#808080"/>
<path d="M99.344 56.742C99.3229 57.0721 99.2928 57.4051 99.2898 57.7382C99.2787 57.9925 99.2949 58.2473 99.338 58.4982C99.4285 58.9827 99.7692 59.1492 100.243 58.9857C100.343 58.974 100.446 58.9801 100.544 59.0039C100.517 59.1189 100.544 59.2643 100.46 59.34C100.153 59.6457 99.7454 59.8277 99.3139 59.8511C98.8824 59.8746 98.4574 59.7379 98.1198 59.4671C98.0605 59.3959 97.9755 59.351 97.8833 59.3425C97.7912 59.334 97.6995 59.3625 97.6282 59.4217H97.6101C97.3499 59.6149 97.049 59.7454 96.7306 59.8031C96.4122 59.8609 96.0848 59.8443 95.7737 59.7548C95.5329 59.6936 95.3168 59.5593 95.1549 59.3701C94.993 59.181 94.8932 58.9463 94.8691 58.6981C94.7877 58.1288 94.9264 57.6171 95.4722 57.3597C96.018 57.1023 96.7025 56.8631 97.3237 56.63C97.8665 56.4241 97.8906 56.4301 97.8725 55.8548C97.8746 55.5815 97.8432 55.309 97.779 55.0434C97.7337 54.8798 97.6323 54.7376 97.4927 54.6417C97.3531 54.5459 97.1843 54.5026 97.0161 54.5195C96.8427 54.5213 96.6763 54.5881 96.5496 54.7069C96.4229 54.8258 96.3451 54.9879 96.3316 55.1614C96.2472 55.5823 95.9366 55.8276 95.3757 55.8639C95.2159 55.8639 94.9475 55.8639 94.9083 55.761C94.8739 55.5857 94.8972 55.404 94.9746 55.2432C95.024 55.1275 95.0981 55.0241 95.1917 54.9404C95.554 54.5505 96.0019 54.2509 96.4997 54.0654C96.9975 53.8798 97.5316 53.8135 98.0595 53.8716C98.4311 53.8942 98.7792 54.0623 99.0289 54.3396C99.2787 54.617 99.4102 54.9816 99.3953 55.3552V56.739L99.344 56.742ZM97.8574 57.1538C97.4494 57.1715 97.055 57.306 96.7206 57.5414C96.6317 57.6114 96.5575 57.6983 96.5024 57.7973C96.4472 57.8963 96.4122 58.0052 96.3993 58.1179C96.3864 58.2305 96.3959 58.3447 96.4272 58.4536C96.4586 58.5625 96.5111 58.6642 96.5819 58.7526C96.6235 58.8034 96.6699 58.8501 96.7206 58.8918C97.0824 59.1613 97.6644 59.0463 97.7368 58.6466C97.806 58.1518 97.8463 57.6533 97.8574 57.1538Z" fill="#808080"/>
<path d="M115.848 41.0112C115.818 41.6743 115.776 42.3404 115.755 43.0096C115.746 43.269 115.77 43.5286 115.827 43.7817C115.837 43.8562 115.861 43.928 115.898 43.993C115.936 44.058 115.986 44.115 116.045 44.1606C116.105 44.2062 116.172 44.2395 116.245 44.2587C116.317 44.2778 116.392 44.2824 116.466 44.2722C116.536 44.2624 116.604 44.2399 116.665 44.2056C116.786 44.1602 116.949 44.0239 117.003 44.2298C117.011 44.2968 117.003 44.3646 116.981 44.4281C116.958 44.4916 116.922 44.5491 116.874 44.5962C116.346 45.0655 115.188 45.3593 114.527 44.6265C114.395 44.4842 114.292 44.5387 114.145 44.6023C113.772 44.7897 113.379 44.935 112.975 45.0353C111.991 45.2139 111.268 44.5266 111.322 43.5213C111.334 43.2931 111.413 43.0737 111.55 42.8913C111.687 42.7089 111.876 42.5719 112.091 42.4979C112.564 42.292 113.053 42.1224 113.541 41.9256C114.518 41.5562 114.368 41.753 114.356 40.6115C114.369 40.4074 114.308 40.2054 114.183 40.044C114.057 39.8826 113.878 39.7731 113.677 39.7364C113.588 39.7143 113.495 39.7102 113.404 39.7243C113.313 39.7384 113.226 39.7705 113.148 39.8186C113.069 39.8668 113.001 39.93 112.947 40.0048C112.893 40.0796 112.854 40.1643 112.833 40.2542C112.831 40.2733 112.831 40.2926 112.833 40.3117C112.752 40.5822 112.571 40.8112 112.327 40.9515C112.083 41.0918 111.794 41.1327 111.521 41.0657C111.47 41.0334 111.428 40.9887 111.399 40.9357C111.37 40.8828 111.355 40.8233 111.355 40.7629C111.377 40.5978 111.445 40.4423 111.551 40.3147C111.907 39.8596 112.377 39.5067 112.912 39.2914C113.447 39.0762 114.029 39.0061 114.6 39.0884C115.414 39.2005 115.845 39.7576 115.848 40.5782V41.0112ZM114.341 42.3737C113.931 42.3948 113.537 42.5335 113.204 42.7734C113.117 42.8453 113.045 42.9339 112.992 43.0339C112.94 43.1339 112.907 43.2435 112.897 43.3562C112.887 43.4689 112.899 43.5825 112.933 43.6903C112.967 43.7982 113.022 43.8982 113.095 43.9846C113.143 44.0445 113.2 44.0965 113.264 44.139C113.638 44.3782 114.187 44.2329 114.25 43.8362C114.298 43.3427 114.341 42.8582 114.341 42.3737Z" fill="#808080"/>
<path d="M129.353 59.2903L129.392 59.2509C130.21 59.0995 130.219 59.0995 130.219 58.2487C130.219 55.9444 129.98 53.6402 129.986 51.3329C129.998 51.191 129.968 51.0488 129.901 50.9233C129.834 50.7977 129.733 50.694 129.61 50.6244C129.563 50.5917 129.524 50.5494 129.495 50.5003C129.465 50.4513 129.447 50.3965 129.441 50.3398C129.441 50.2671 129.579 50.1732 129.673 50.1369C130.164 49.9431 130.662 49.7645 131.156 49.5828C131.503 49.4526 131.573 49.501 131.573 49.8674C131.555 52.4563 131.775 55.0482 131.763 57.634C131.763 57.9368 131.763 58.2214 131.796 58.5151C131.841 59.0874 131.883 59.1207 132.444 59.2267C132.661 59.263 132.746 59.4144 132.64 59.5961C132.607 59.6321 132.567 59.6605 132.522 59.6793C132.478 59.6981 132.429 59.7069 132.381 59.7051C131.901 59.7051 131.422 59.6627 130.945 59.6627C130.544 59.6627 130.143 59.696 129.739 59.7081C129.335 59.7203 129.317 59.6839 129.353 59.2903Z" fill="#808080"/>
<path d="M97.642 41.5407H96.1735C95.9564 41.5407 95.8901 41.6134 95.9051 41.8284C96.0318 42.9366 96.5535 43.6452 97.5455 43.8783C97.8486 43.9838 98.1768 43.9921 98.4847 43.902C98.7927 43.812 99.0651 43.628 99.2644 43.3757C99.3578 43.2576 99.4604 43.1698 99.5659 43.2879C99.6042 43.3356 99.6309 43.3917 99.644 43.4516C99.6571 43.5114 99.6562 43.5736 99.6413 43.633C99.4183 44.097 99.0624 44.4836 98.6191 44.7431C98.1759 45.0026 97.6655 45.1232 97.1535 45.0895C96.4357 45.0619 95.7581 44.7496 95.2692 44.2212C94.7803 43.6928 94.5199 42.9913 94.5452 42.2705C94.5452 42.1998 94.5512 42.1302 94.5632 42.0615C94.6597 40.7474 95.2206 39.7331 96.4901 39.2638C97.3948 38.9307 98.2783 38.961 99.0684 39.612C99.2625 39.7709 99.4196 39.9707 99.5284 40.1972C99.6373 40.4238 99.6954 40.6715 99.6986 40.9231C99.7167 41.35 99.587 41.4923 99.1588 41.5105H97.6511L97.642 41.5407ZM97.0118 40.914H97.7144C98.2451 40.8928 98.4321 40.6112 98.1607 40.1388C98.0423 39.9418 97.8587 39.7928 97.642 39.7179C97.3048 39.6493 96.9542 39.7101 96.6594 39.8884C96.3646 40.0666 96.1471 40.3494 96.0499 40.6808C96.0077 40.8443 96.0499 40.9261 96.2218 40.9231C96.4871 40.9109 96.7495 40.914 97.0118 40.914Z" fill="#808080"/>
<path d="M133.505 41.5419H132.037C131.817 41.5419 131.75 41.6207 131.771 41.8447C131.874 42.9287 132.42 43.6615 133.406 43.8916C133.701 43.9924 134.019 44.0006 134.319 43.9152C134.618 43.8297 134.885 43.6546 135.082 43.4132C135.176 43.2981 135.254 43.1922 135.417 43.2981C135.58 43.4041 135.553 43.5313 135.478 43.6797C135.264 44.1216 134.926 44.4907 134.505 44.7411C134.084 44.9914 133.599 45.112 133.11 45.0876C132.59 45.1081 132.076 44.9678 131.638 44.6857C131.199 44.4036 130.858 43.9933 130.659 43.5101C130.367 42.8335 130.31 42.0785 130.495 41.3652C130.68 40.6519 131.098 40.0213 131.681 39.5738C132.156 39.2299 132.728 39.0481 133.313 39.0551C133.898 39.0622 134.466 39.2578 134.932 39.6132C135.123 39.7744 135.276 39.9762 135.38 40.2039C135.484 40.4316 135.537 40.6797 135.535 40.9303C135.553 41.3239 135.42 41.4753 135.028 41.5026C134.519 41.5207 134.009 41.5026 133.496 41.5026L133.505 41.5419ZM131.904 40.9091H133.587C134.13 40.9091 134.286 40.6063 134.027 40.1309C133.928 39.9646 133.782 39.8317 133.608 39.7494C132.908 39.4345 131.94 40.0825 131.904 40.9091Z" fill="#808080"/>
<path d="M128.276 39.0549C128.62 39.1155 128.979 39.1609 129.332 39.2427C129.684 39.3244 129.715 39.6 129.754 39.8785C129.791 40.0167 129.788 40.1629 129.745 40.2994C129.702 40.4358 129.62 40.5568 129.51 40.6476C129.447 40.6668 129.38 40.6711 129.315 40.66C129.25 40.649 129.189 40.623 129.136 40.584C128.967 40.4508 128.849 40.257 128.695 40.1117C128.092 39.5424 127.441 39.5757 126.85 40.1541C125.837 41.1472 126.045 43.4485 127.673 43.9117C128.415 44.1237 129.109 44.0359 129.639 43.3788C129.679 43.3484 129.725 43.3272 129.774 43.3168C129.823 43.3063 129.874 43.3068 129.923 43.3183C129.98 43.4182 130.046 43.5756 130.001 43.6604C129.834 44.0114 129.587 44.318 129.28 44.5557C128.973 44.7934 128.615 44.9555 128.234 45.029C127.527 45.2175 126.774 45.1164 126.142 44.7479C125.509 44.3794 125.048 43.7737 124.86 43.0639C124.838 42.9841 124.821 42.9033 124.808 42.8217C124.651 42.0313 124.809 41.2104 125.249 40.5363C125.689 39.8621 126.376 39.3888 127.161 39.2185C127.531 39.1306 127.911 39.0761 128.276 39.0549Z" fill="#808080"/>
<path d="M116.806 55.0623C116.806 54.817 116.737 54.705 116.472 54.711C116.285 54.711 116.013 54.82 115.947 54.5384C115.881 54.2568 116.182 54.2357 116.357 54.1357C116.957 53.8806 117.473 53.4608 117.847 52.9246C117.889 52.8779 117.94 52.8414 117.998 52.8178C118.056 52.7942 118.119 52.7841 118.181 52.7883C118.245 52.7883 118.323 52.97 118.335 53.0911C118.356 53.2924 118.356 53.4953 118.335 53.6967C118.335 53.9177 118.423 53.9995 118.622 53.9995H119.795C120.006 53.9995 120.114 54.057 120.096 54.3023C120.078 54.5475 120.069 54.7322 119.795 54.7413H118.655C118.435 54.7413 118.335 54.8049 118.335 55.0441V57.7087C118.343 57.925 118.382 58.1392 118.45 58.3445C118.51 58.5725 118.655 58.7682 118.856 58.8903C119.057 59.0123 119.297 59.0511 119.526 58.9986C119.616 58.9772 119.701 58.9415 119.78 58.8926C119.903 58.829 120.033 58.6776 120.166 58.8563C120.298 59.0349 120.166 59.159 120.039 59.2832C119.715 59.5703 119.32 59.7647 118.896 59.8462C118.472 59.9277 118.033 59.8932 117.627 59.7465C116.981 59.5315 116.834 58.9501 116.806 58.3476C116.785 57.8056 116.806 57.2666 116.806 56.7276V55.0623Z" fill="#808080"/>
<path d="M112.437 59.6457C111.988 59.6669 111.532 59.6851 111.089 59.7093C110.923 59.7093 110.824 59.6699 110.805 59.4943C110.787 59.3187 110.863 59.2521 111.035 59.1915C111.538 59.0916 111.638 59.0098 111.638 58.4921C111.659 57.4747 111.638 56.4512 111.638 55.4339C111.638 55.309 111.605 55.1863 111.54 55.0795C111.476 54.9726 111.383 54.8857 111.273 54.8283C111.225 54.7925 111.186 54.747 111.158 54.6948C111.129 54.6426 111.112 54.5849 111.107 54.5255C111.107 54.4498 111.246 54.3559 111.336 54.3135C111.849 54.0925 112.364 53.8836 112.877 53.6656C113.106 53.5656 113.224 53.6444 113.221 53.9048C113.221 55.4036 113.2 56.9054 113.197 58.4042C113.197 58.9584 113.281 59.0613 113.821 59.1764C114.008 59.2157 114.026 59.3187 114.023 59.4792C114.02 59.6396 113.914 59.682 113.767 59.676L112.437 59.6457Z" fill="#808080"/>
<path d="M107.906 44.9363H107.728C107.575 44.9544 107.484 44.8999 107.475 44.7364C107.466 44.5729 107.505 44.4821 107.686 44.4488C108.199 44.3428 108.289 44.2489 108.307 43.7614C108.307 42.7319 108.307 41.6994 108.307 40.6699C108.304 40.5493 108.27 40.4316 108.208 40.3286C108.145 40.2255 108.057 40.1407 107.952 40.0825C107.905 40.0496 107.867 40.0073 107.838 39.9582C107.809 39.9091 107.792 39.8544 107.786 39.7979C107.786 39.7252 107.915 39.6283 108.009 39.5829C108.518 39.3619 109.034 39.156 109.55 38.9349C109.776 38.8411 109.897 38.9349 109.894 39.1802C109.894 40.6396 109.86 42.1021 109.851 43.5646C109.851 44.2096 109.909 44.2671 110.518 44.473C110.564 44.5043 110.602 44.5467 110.628 44.5964C110.653 44.6462 110.666 44.7016 110.666 44.7576C110.666 44.8273 110.53 44.9423 110.454 44.9423C110.059 44.9423 109.67 44.909 109.278 44.8999H107.9L107.906 44.9363Z" fill="#808080"/>
<path d="M109.104 37.7994C108.938 37.798 108.776 37.7477 108.638 37.6549C108.5 37.5622 108.391 37.4308 108.326 37.2771C108.261 37.1234 108.243 36.954 108.272 36.7897C108.302 36.6254 108.379 36.4734 108.493 36.3524C108.608 36.2313 108.755 36.1465 108.917 36.1084C109.079 36.0702 109.248 36.0804 109.405 36.1376C109.561 36.1948 109.697 36.2966 109.796 36.4304C109.896 36.5643 109.954 36.7244 109.964 36.8911V36.9365C109.968 37.0455 109.95 37.1541 109.911 37.2561C109.873 37.3582 109.815 37.4517 109.741 37.5312C109.667 37.6108 109.578 37.6749 109.479 37.7199C109.38 37.7649 109.273 37.7899 109.165 37.7934L109.104 37.7994Z" fill="#808080"/>
<path d="M111.326 51.678C111.325 51.5698 111.344 51.4624 111.384 51.3619C111.424 51.2614 111.483 51.1697 111.558 51.0921C111.633 51.0145 111.722 50.9525 111.821 50.9096C111.92 50.8667 112.027 50.8439 112.134 50.8423H112.18C112.292 50.8353 112.406 50.851 112.512 50.8883C112.619 50.9256 112.717 50.9838 112.802 51.0596C112.886 51.1354 112.954 51.2272 113.003 51.3297C113.051 51.4322 113.079 51.5434 113.084 51.6568C113.087 51.688 113.087 51.7195 113.084 51.7507C113.084 52.2442 113.319 52.6076 112.146 52.5803C111.931 52.5811 111.724 52.4967 111.571 52.3453C111.417 52.194 111.329 51.9879 111.326 51.7719C111.324 51.7406 111.324 51.7092 111.326 51.678Z" fill="#808080"/>
<path d="M68.661 37.3796L67.4548 36.7922L67.301 36.9345C68.0036 37.8943 68.667 38.8845 69.4118 39.805C70.618 41.2765 71.8845 42.6966 73.0304 44.2772L70.8412 42.6451C70.8481 43.8679 71.3058 45.0447 72.1258 45.9486L71.4111 46.103L75.2528 49.576L75.1231 49.7426C74.8216 49.5458 74.52 49.349 74.2185 49.137C72.2253 47.8017 70.1175 46.7147 67.7503 46.2998C63.7428 45.5974 60.5132 47.511 60.0217 51.7259C59.9885 52.0105 59.9252 52.2709 59.8649 52.607L53.8942 50.3875C54.3013 52.277 55.0642 53.6062 56.5569 54.4359C56.6759 54.5035 56.8161 54.523 56.9489 54.4904C57.8355 54.0846 58.5803 54.5449 59.3372 54.884C59.6628 55.0263 60.085 56.9036 59.8257 57.0035C59.3466 57.1917 58.8282 57.2563 58.3179 57.1913C57.7842 57.0823 57.3228 56.6765 56.8102 56.4615C56.0793 56.1564 55.3336 55.8885 54.5757 55.6591C54.1988 55.5471 53.9515 55.423 53.9033 54.993C53.716 53.6319 53.1387 52.3548 52.2418 51.3171C52.1155 51.1489 52.0083 50.9671 51.9221 50.7751C51.2406 49.3732 51.9462 48.6374 53.3726 48.4436L53.656 48.4103L51.7382 44.7768C50.4687 45.6337 49.7992 47.1991 48.2644 47.5473L49.1509 49.5821L47.5467 50.1877C47.2753 49.349 47.0099 48.5799 46.7958 47.7866C46.7811 47.6778 46.7905 47.5671 46.8233 47.4624C46.8562 47.3577 46.9117 47.2616 46.9858 47.181C48.3247 45.7679 49.6766 44.3549 51.0416 42.9419C51.6899 42.2727 52.5493 42.3363 53.0077 43.1569C53.8822 44.7011 55.1879 45.779 56.6715 46.754C56.7016 46.6814 56.765 46.6087 56.765 46.533C56.7891 44.3832 57.742 42.736 59.4789 41.549C60.086 41.1493 60.5606 40.5769 60.8419 39.9049C61.0338 39.4746 61.0914 38.9959 61.0068 38.5321C60.9223 38.0683 60.6997 37.6411 60.3685 37.3069C60.2752 37.2423 60.1738 37.1904 60.0669 37.1525C60.3865 38.4727 60.0217 39.1873 58.7703 39.7202C58.0164 40.0593 57.1087 40.1683 56.8645 41.2039C56.8373 41.3098 56.4152 41.3704 56.18 41.3613C55.8946 41.3542 55.6233 41.2358 55.4234 41.0312C55.2236 40.8266 55.111 40.5518 55.1095 40.2652C55.1134 40.128 55.142 39.9925 55.1939 39.8655C55.6945 38.4939 56.2161 37.1404 56.6172 35.7233C56.8102 35.033 56.7288 34.2639 56.777 33.522C56.9018 33.5254 57.0247 33.5531 57.1389 33.6038C58.2908 34.3426 59.4909 34.0852 60.6519 33.7158C61.9244 33.301 63.1427 33.6038 64.3971 33.9247L63.1065 34.0489L63.0794 34.2094C63.4864 34.282 63.8965 34.3487 64.2855 34.4334C64.5164 34.4569 64.7406 34.5248 64.9459 34.6333C66.1521 35.4508 67.3372 36.2895 68.5313 37.1222C68.6122 37.1624 68.6971 37.1939 68.7846 37.2161L68.661 37.3796Z" fill="#808080"/>
<path d="M71.0313 34.1103C71.8395 34.6584 72.6928 35.1883 73.4769 35.7999C78.8414 39.9966 81.4558 47.6391 79.5922 53.9674C78.3107 58.2973 75.5244 61.1557 70.9469 61.84C67.4339 62.3638 64.337 61.1739 61.5386 59.0937C61.0476 58.7379 60.6134 58.309 60.251 57.822L60.8179 58.1308C64.6988 60.3412 68.7576 61.1012 73.0456 59.4873C76.423 58.2217 78.5217 55.7085 79.4776 52.2476C80.4004 48.9169 79.7792 45.7103 78.4132 42.6248C76.9102 39.2162 74.3911 36.3598 71.2032 34.4495C71.1097 34.3919 71.0253 34.3223 70.9348 34.2587L71.0313 34.1103Z" fill="#808080"/>
<path d="M47.5078 33L56.3823 35.1195C56.3913 35.2021 56.3913 35.2853 56.3823 35.3678C56.0808 36.5124 56.0536 36.5457 54.962 36.1188C52.4592 35.1407 49.9654 34.1294 47.4686 33.1241L47.5078 33Z" fill="#808080"/>
</svg>
