<svg width="182" height="96" viewBox="0 0 182 96" fill="none" xmlns="http://www.w3.org/2000/svg">
<path fill-rule="evenodd" clip-rule="evenodd" d="M61.3305 42.9454C61.3305 42.9746 61.2633 42.9989 61.1811 42.9989C60.8854 42.9995 60.2429 43.4214 60.2429 43.6148C60.2429 43.6513 60.206 43.6952 60.1613 43.7119C60.1163 43.7288 60.0798 43.7775 60.0798 43.8201C60.0798 43.8624 60.0546 43.9053 60.024 43.9156C59.9933 43.9255 59.9528 44.0296 59.9339 44.1468C59.915 44.264 59.8729 44.3771 59.8402 44.3979C59.7551 44.4524 59.7557 52.4887 59.8409 52.5425C59.8742 52.5633 59.9186 52.6946 59.9394 52.8343C59.9603 52.9736 59.9978 53.0876 60.0226 53.0876C60.0474 53.0876 60.0833 53.1478 60.1019 53.2212C60.1209 53.2945 60.16 53.3547 60.1894 53.3547C60.2188 53.3547 60.2429 53.3807 60.2429 53.4127C60.2429 53.5209 60.6404 53.8835 60.7957 53.9171C60.8805 53.9354 60.9497 53.9713 60.9497 53.9969C60.9497 54.0228 61.0355 54.0593 61.1403 54.0789C61.2447 54.0981 61.3305 54.1353 61.3305 54.1612C61.3305 54.1875 61.6852 54.2086 62.1192 54.2086C62.5529 54.2086 62.9076 54.1878 62.9076 54.1625C62.9076 54.1369 63.0091 54.1026 63.1331 54.0863C63.2571 54.0699 63.3736 54.0328 63.3919 54.0036C63.4105 53.9742 63.4946 53.9332 63.5788 53.9123C63.6633 53.8918 63.7453 53.8419 63.7609 53.8015C63.7766 53.7612 63.818 53.7282 63.8533 53.7282C63.9273 53.7282 64.1042 53.5386 64.1042 53.4591C64.1042 53.429 64.1388 53.3916 64.1809 53.3759C64.223 53.3598 64.2739 53.2827 64.2941 53.2045C64.314 53.126 64.3591 53.0447 64.394 53.0235C64.4403 52.9954 64.4625 52.432 64.4749 50.9545L64.4919 48.9239H61.8745V49.7781H63.5602V51.0592C63.5602 51.7639 63.539 52.3404 63.5132 52.3404C63.4871 52.3404 63.4519 52.4419 63.4349 52.5662C63.418 52.6901 63.3782 52.8003 63.3462 52.8109C63.3145 52.8211 63.2884 52.8551 63.2884 52.8858C63.2884 52.9669 63.0414 53.1795 62.8959 53.2244C62.8277 53.2452 62.7542 53.2891 62.733 53.3217C62.6759 53.4092 61.5916 53.4024 61.5616 53.3147C61.5492 53.2778 61.5093 53.2477 61.4728 53.2477C61.3919 53.2477 60.9497 52.8006 60.9497 52.719C60.9497 52.6869 60.9265 52.6607 60.8982 52.6607C60.8698 52.6607 60.83 52.5165 60.8094 52.3404C60.7892 52.1642 60.7513 52.0201 60.7252 52.0201C60.6988 52.0201 60.6779 50.427 60.6779 48.4169C60.6779 46.0503 60.6965 44.8136 60.7324 44.8136C60.7621 44.8136 60.7866 44.7592 60.7866 44.6929C60.7866 44.6263 60.8368 44.4799 60.8985 44.3672C60.997 44.1865 61.0868 44.0888 61.3782 43.8451C61.4193 43.8108 61.5541 43.7634 61.6774 43.74C62.7337 43.5389 63.387 43.961 63.4411 44.8796C63.4545 45.1077 63.4868 45.2941 63.5129 45.2941C63.539 45.2941 63.5602 45.6064 63.5602 45.9881V46.6819H64.4305V45.5609C64.4305 44.9443 64.4093 44.4399 64.3832 44.4399C64.3571 44.4399 64.3232 44.329 64.3075 44.1932C64.2918 44.0574 64.2553 43.9313 64.2262 43.913C64.1972 43.8944 64.1558 43.8243 64.1342 43.7567C64.0458 43.4784 63.3847 42.9986 63.09 42.9986C63.0195 42.9986 62.9621 42.9746 62.9621 42.9454C62.9621 42.9121 62.6541 42.8919 62.1463 42.8919C61.6386 42.8919 61.3305 42.9121 61.3305 42.9454ZM93.7989 42.9384C93.7989 42.964 93.7026 43.0002 93.5852 43.0184C93.4677 43.037 93.3349 43.0883 93.2898 43.1321C93.2451 43.1763 93.1851 43.2122 93.1567 43.2122C93.006 43.2122 92.4705 43.8438 92.4072 44.0962C92.3856 44.1827 92.3412 44.2704 92.3086 44.2913C92.2179 44.3489 92.2248 52.8307 92.3151 52.8602C92.3517 52.872 92.397 52.9633 92.416 53.0629C92.4349 53.1625 92.4848 53.2718 92.5266 53.3057C92.5684 53.34 92.6023 53.3922 92.6023 53.4226C92.6023 53.5094 92.9391 53.807 93.1326 53.8912C93.2298 53.9332 93.3094 53.985 93.3094 54.0065C93.3094 54.0276 93.4318 54.0609 93.5812 54.0802C93.731 54.0997 93.8534 54.1365 93.8534 54.1622C93.8534 54.1878 94.1347 54.2086 94.4786 54.2086C94.8225 54.2086 95.1042 54.1881 95.1042 54.1625C95.1042 54.1372 95.2083 54.1019 95.3352 54.0847C95.8778 54.0097 96.5435 53.4665 96.659 53.0043C96.6806 52.9182 96.725 52.8304 96.7576 52.8093C96.8496 52.7507 96.8415 44.2698 96.7494 44.2397C96.7119 44.2275 96.6812 44.1727 96.6812 44.1177C96.6812 43.9895 96.5687 43.7461 96.5096 43.7461C96.4845 43.7461 96.4639 43.7192 96.4639 43.6862C96.4639 43.6087 96.0599 43.2122 95.9806 43.2122C95.9474 43.2122 95.9199 43.1904 95.9199 43.1638C95.9199 43.1373 95.7976 43.0844 95.6481 43.0469C95.4984 43.0091 95.376 42.9589 95.376 42.9352C95.376 42.9115 95.0213 42.8919 94.5876 42.8919C94.1539 42.8919 93.7989 42.9127 93.7989 42.9384ZM100.815 42.9406C100.815 42.9675 100.711 43.0063 100.584 43.0271C100.456 43.0479 100.287 43.1104 100.208 43.1654C100.129 43.2205 100.048 43.2657 100.029 43.2657C99.9796 43.2657 99.7271 43.5386 99.7271 43.5918C99.7271 43.6158 99.6536 43.7093 99.5639 43.7993C99.4742 43.8896 99.4007 44.0203 99.4007 44.0904C99.4007 44.1603 99.3701 44.2275 99.3326 44.2397C99.2369 44.2711 99.2327 52.8051 99.3283 52.8634C99.3632 52.8845 99.4089 52.9678 99.4295 53.0482C99.45 53.1286 99.4885 53.1946 99.5153 53.1946C99.542 53.1946 99.5639 53.2314 99.5639 53.2762C99.5639 53.3211 99.5982 53.3711 99.6406 53.3867C99.6827 53.4028 99.7313 53.4681 99.7486 53.5318C99.7799 53.6471 100.152 53.9418 100.266 53.9418C100.298 53.9418 100.325 53.9649 100.325 53.9927C100.325 54.0209 100.417 54.0603 100.529 54.0805C100.641 54.1007 100.749 54.1417 100.769 54.1711C100.816 54.2432 102.207 54.2394 102.296 54.1666C102.334 54.1362 102.456 54.0946 102.569 54.0741C102.681 54.0536 102.773 54.018 102.773 53.995C102.773 53.9722 102.828 53.9396 102.895 53.9223C103.043 53.8848 103.425 53.5575 103.425 53.4684C103.425 53.4332 103.46 53.3912 103.504 53.3752C103.547 53.3589 103.598 53.2695 103.618 53.1766C103.639 53.0838 103.683 52.9739 103.717 52.9329C103.758 52.8826 103.784 52.4099 103.797 51.5047L103.814 50.1519H102.881V51.2729C102.881 51.8894 102.86 52.3939 102.834 52.3939C102.808 52.3939 102.771 52.4871 102.753 52.6014C102.734 52.7157 102.682 52.823 102.637 52.84C102.592 52.857 102.555 52.9076 102.555 52.9524C102.555 52.9976 102.517 53.0344 102.472 53.0344C102.426 53.0344 102.375 53.069 102.358 53.111C102.342 53.1533 102.257 53.2032 102.17 53.2221C102.082 53.241 102.011 53.2785 102.011 53.3054C102.011 53.3326 101.828 53.3547 101.603 53.3547C101.379 53.3547 101.195 53.3333 101.195 53.3073C101.195 53.281 101.113 53.2445 101.013 53.2263C100.823 53.1914 100.434 52.8589 100.434 52.7318C100.434 52.6927 100.411 52.6607 100.384 52.6607C100.357 52.6607 100.317 52.5825 100.296 52.4871C100.274 52.3916 100.23 52.2965 100.196 52.2757C100.103 52.2174 100.11 44.6974 100.203 44.667C100.24 44.6545 100.271 44.6096 100.271 44.5667C100.271 44.4037 100.63 43.9902 100.823 43.9309C100.893 43.9095 100.968 43.865 100.99 43.8323C101.046 43.7455 102.022 43.7519 102.052 43.8393C102.064 43.8762 102.109 43.9063 102.151 43.9063C102.249 43.9063 102.472 44.1506 102.617 44.4187C102.717 44.6023 102.734 44.7477 102.759 45.6544L102.787 46.6819H103.752V45.8011C103.752 45.3168 103.731 44.9203 103.705 44.9203C103.679 44.9203 103.645 44.7342 103.629 44.5068C103.597 44.0549 103.505 43.8377 103.221 43.5408C103.124 43.439 103.044 43.3371 103.044 43.3144C103.044 43.2916 102.99 43.2558 102.922 43.2353C102.855 43.2148 102.786 43.177 102.769 43.1514C102.752 43.1257 102.612 43.0754 102.456 43.0393C102.301 43.0031 102.174 42.955 102.174 42.9326C102.174 42.9102 101.868 42.8919 101.494 42.8919C101.121 42.8919 100.815 42.9137 100.815 42.9406ZM117.62 42.9393C117.62 42.9656 117.528 43.0034 117.416 43.0239C117.194 43.0642 116.859 43.2446 116.859 43.3233C116.859 43.3503 116.822 43.3724 116.778 43.3724C116.734 43.3724 116.655 43.4383 116.603 43.519C116.551 43.5998 116.479 43.6837 116.445 43.7055C116.41 43.7269 116.364 43.8108 116.344 43.8915C116.323 43.9726 116.282 44.0533 116.252 44.0715C116.222 44.0895 116.184 44.2038 116.167 44.3255C116.151 44.4472 116.116 44.5468 116.09 44.5468C116.064 44.5468 116.043 46.31 116.043 48.5235C116.043 50.7473 116.064 52.5005 116.09 52.5005C116.116 52.5005 116.154 52.6206 116.174 52.7673C116.193 52.9143 116.231 53.0344 116.258 53.0344C116.284 53.0344 116.322 53.1062 116.342 53.1943C116.361 53.282 116.407 53.372 116.443 53.3944C116.478 53.4165 116.551 53.5008 116.603 53.5815C116.655 53.6622 116.734 53.7282 116.778 53.7282C116.822 53.7282 116.859 53.7528 116.859 53.7829C116.859 53.8127 116.926 53.8665 117.008 53.9024C117.09 53.938 117.19 53.9975 117.23 54.0347C117.269 54.0715 117.359 54.1019 117.429 54.1019C117.499 54.1019 117.566 54.1298 117.577 54.1641C117.606 54.2483 119.103 54.2454 119.132 54.1609C119.143 54.1285 119.221 54.1019 119.307 54.1019C119.391 54.1019 119.494 54.0715 119.533 54.0347C119.573 53.9975 119.667 53.9405 119.743 53.9079C119.937 53.8233 120.23 53.5716 120.23 53.4889C120.23 53.4508 120.264 53.4069 120.305 53.3912C120.346 53.3759 120.397 53.2955 120.418 53.2125C120.439 53.1299 120.485 53.0447 120.52 53.0235C120.566 52.996 120.589 52.5758 120.602 51.5685L120.62 50.1519H119.692L119.676 51.3814C119.664 52.2478 119.64 52.6229 119.596 52.6498C119.561 52.6712 119.516 52.7491 119.498 52.8227C119.462 52.9636 119.066 53.2477 118.906 53.2477C118.857 53.2477 118.817 53.2718 118.817 53.3012C118.817 53.332 118.644 53.3547 118.409 53.3547C118.184 53.3547 118.001 53.3336 118.001 53.308C118.001 53.2823 117.929 53.2471 117.842 53.2301C117.68 53.1984 117.239 52.8301 117.239 52.7266C117.239 52.6952 117.215 52.6616 117.186 52.6517C117.113 52.6273 117.022 52.1255 117.022 51.7459C117.022 51.573 116.997 51.433 116.967 51.433C116.932 51.433 116.913 50.3751 116.913 48.3666C116.913 46.3802 116.932 45.2886 116.967 45.2675C116.997 45.2492 117.022 45.1503 117.022 45.0478C117.022 44.8066 117.129 44.3867 117.191 44.3867C117.218 44.3867 117.239 44.354 117.239 44.3143C117.239 44.2099 117.472 43.9787 117.625 43.9319C117.697 43.9098 117.773 43.8653 117.794 43.8326C117.876 43.7071 118.685 43.7237 118.903 43.8557C119.491 44.2125 119.568 44.4251 119.617 45.8145L119.647 46.6819H120.557V45.6678C120.557 45.1099 120.536 44.6535 120.51 44.6535C120.484 44.6535 120.448 44.5062 120.429 44.3265C120.382 43.8919 119.913 43.2122 119.659 43.2122C119.621 43.2122 119.576 43.1773 119.559 43.1344C119.541 43.0879 119.418 43.0418 119.254 43.0207C119.103 43.0011 118.98 42.964 118.98 42.9384C118.98 42.9127 118.674 42.8919 118.3 42.8919C117.926 42.8919 117.62 42.9134 117.62 42.9393ZM124.364 43.0521C124.364 43.1401 124.341 43.2122 124.313 43.2122C124.285 43.2122 124.245 43.4044 124.225 43.6392C124.204 43.8742 124.167 44.0664 124.143 44.0664C124.119 44.0664 124.082 44.2586 124.061 44.4934C124.04 44.7281 124.004 44.9203 123.98 44.9203C123.956 44.9203 123.919 45.1125 123.898 45.3476C123.877 45.5823 123.842 45.7745 123.819 45.7745C123.797 45.7745 123.748 46.0506 123.711 46.3885C123.674 46.7261 123.625 47.0022 123.603 47.0022C123.58 47.0022 123.545 47.1943 123.524 47.4294C123.503 47.6642 123.466 47.8564 123.442 47.8564C123.419 47.8564 123.382 48.0485 123.361 48.2833C123.34 48.5184 123.303 48.7106 123.279 48.7106C123.255 48.7106 123.218 48.9027 123.198 49.1375C123.177 49.3723 123.14 49.5644 123.115 49.5644C123.09 49.5644 123.052 49.7569 123.031 49.992C123.01 50.2268 122.974 50.4308 122.951 50.4449C122.927 50.4587 122.877 50.7469 122.839 51.0852C122.8 51.4231 122.751 51.6998 122.729 51.6998C122.707 51.6998 122.672 51.892 122.651 52.1267C122.63 52.3618 122.593 52.554 122.57 52.554C122.547 52.554 122.51 52.7401 122.488 52.9675C122.466 53.1952 122.43 53.3932 122.408 53.4079C122.386 53.4226 122.352 53.5728 122.332 53.7416L122.296 54.0485H123.316L123.35 53.8009C123.369 53.6648 123.385 53.4844 123.385 53.4005C123.385 53.3166 123.407 53.2477 123.434 53.2477C123.46 53.2477 123.5 53.0498 123.522 52.8074C123.543 52.5652 123.58 52.3548 123.605 52.34C123.628 52.325 123.679 52.0188 123.716 51.6594L123.785 51.0057H126.096L126.125 51.1527C126.141 51.2335 126.17 51.4615 126.19 51.6598C126.21 51.858 126.244 52.0201 126.267 52.0201C126.29 52.0201 126.326 52.2241 126.347 52.4736C126.368 52.7231 126.406 52.9393 126.43 52.9544C126.455 52.9691 126.492 53.1853 126.514 53.4348C126.535 53.6843 126.574 53.8883 126.6 53.8883C126.627 53.8883 126.648 53.9245 126.648 53.9684C126.648 54.0334 126.737 54.0485 127.117 54.0485H127.587L127.547 53.6084C127.526 53.3662 127.489 53.1561 127.465 53.1414C127.441 53.1264 127.403 52.9281 127.382 52.7007C127.36 52.4733 127.323 52.2869 127.3 52.2869C127.277 52.2869 127.24 52.0947 127.219 51.8599C127.198 51.6252 127.163 51.433 127.14 51.433C127.119 51.433 127.069 51.1563 127.031 50.8181C126.993 50.4801 126.942 50.1919 126.919 50.1778C126.896 50.1637 126.86 49.96 126.838 49.7246C126.817 49.4895 126.78 49.2848 126.755 49.2698C126.73 49.2547 126.693 49.0507 126.672 48.8163C126.651 48.5818 126.614 48.3903 126.59 48.3903C126.566 48.3903 126.53 48.1981 126.509 47.963C126.488 47.7282 126.451 47.5361 126.427 47.5361C126.403 47.5361 126.366 47.3439 126.346 47.1091C126.325 46.874 126.289 46.6819 126.267 46.6819C126.244 46.6819 126.195 46.4058 126.159 46.0682C126.121 45.7303 126.072 45.4542 126.05 45.4542C126.027 45.4542 125.991 45.2499 125.97 45.0004C125.948 44.7509 125.912 44.5468 125.887 44.5468C125.863 44.5468 125.826 44.3547 125.805 44.1196C125.784 43.8848 125.747 43.6926 125.724 43.6926C125.701 43.6926 125.665 43.5126 125.644 43.2923L125.605 42.8919H124.364V43.0521ZM146.39 42.972C146.39 43.0159 146.369 43.0521 146.343 43.0521C146.317 43.0521 146.278 43.2442 146.257 43.479C146.236 43.7141 146.2 43.9063 146.175 43.9063C146.151 43.9063 146.114 44.1103 146.093 44.3598C146.071 44.6093 146.035 44.8249 146.011 44.8393C145.987 44.8537 145.937 45.1419 145.898 45.4802C145.86 45.8181 145.811 46.0948 145.789 46.0948C145.767 46.0948 145.731 46.287 145.71 46.5217C145.689 46.7568 145.653 46.949 145.63 46.949C145.606 46.949 145.57 47.129 145.549 47.349C145.528 47.5687 145.491 47.7606 145.467 47.775C145.444 47.7897 145.407 47.9819 145.386 48.2023C145.365 48.4226 145.328 48.6148 145.304 48.6292C145.28 48.6436 145.244 48.8358 145.223 49.0562C145.202 49.2768 145.165 49.4684 145.143 49.4825C145.12 49.4962 145.068 49.7967 145.028 50.1499C144.988 50.5032 144.937 50.7924 144.915 50.7924C144.893 50.7924 144.858 50.9846 144.837 51.2194C144.816 51.4541 144.779 51.6463 144.755 51.6463C144.731 51.6463 144.695 51.8385 144.674 52.0736C144.653 52.3083 144.616 52.5005 144.593 52.5005C144.569 52.5005 144.533 52.6866 144.511 52.9143C144.49 53.1417 144.454 53.34 144.432 53.3547C144.409 53.3691 144.373 53.5315 144.352 53.715L144.313 54.0485H145.349L145.387 53.6215C145.408 53.3867 145.444 53.1946 145.466 53.1946C145.489 53.1946 145.524 52.9902 145.546 52.741C145.567 52.4915 145.604 52.2754 145.628 52.2609C145.652 52.2462 145.689 52.0419 145.71 51.8065C145.731 51.5714 145.771 51.3657 145.798 51.3494C145.824 51.3331 145.846 51.2492 145.846 51.1627V51.0057H148.116L148.15 51.2059C148.169 51.3161 148.184 51.4724 148.184 51.5531C148.185 51.6338 148.205 51.6998 148.229 51.6998C148.254 51.6998 148.305 51.9938 148.343 52.3532C148.38 52.7125 148.431 53.0191 148.454 53.0338C148.478 53.0488 148.515 53.2513 148.537 53.4838C148.588 54.0244 148.614 54.0485 149.164 54.0485H149.608L149.569 53.635C149.548 53.4072 149.51 53.2087 149.486 53.1933C149.462 53.1782 149.425 52.98 149.404 52.7529C149.383 52.5261 149.348 52.3404 149.326 52.3404C149.304 52.3404 149.255 52.064 149.218 51.7264C149.181 51.3888 149.133 51.1127 149.11 51.1127C149.087 51.1127 149.052 50.9205 149.031 50.6855C149.01 50.4507 148.974 50.2585 148.949 50.2585C148.926 50.2585 148.889 50.0663 148.868 49.8316C148.847 49.5965 148.81 49.4043 148.786 49.4043C148.761 49.4043 148.724 49.2003 148.703 48.9508C148.682 48.701 148.645 48.4969 148.621 48.4969C148.596 48.4969 148.56 48.3048 148.538 48.07C148.517 47.8349 148.482 47.6427 148.46 47.6427C148.439 47.6427 148.39 47.3727 148.352 47.0422C148.314 46.712 148.263 46.4176 148.24 46.3885C148.216 46.359 148.179 46.1608 148.158 45.9478C148.137 45.7348 148.1 45.549 148.077 45.5349C148.054 45.5208 148.017 45.3287 147.996 45.1083C147.975 44.8879 147.938 44.6955 147.913 44.6804C147.888 44.6653 147.851 44.4492 147.83 44.1997C147.809 43.9502 147.771 43.7461 147.747 43.7461C147.723 43.7461 147.686 43.554 147.665 43.3189L147.627 42.8919H147.009C146.495 42.8919 146.39 42.9054 146.39 42.972ZM66.7692 54.0485H70.7937V53.2477H67.6392V48.7106H70.9023V47.8564H67.6392V43.7993H70.9023V42.9986H66.7692V54.0485ZM72.6971 54.0485H73.616L73.5944 49.4178C73.5827 46.8708 73.5866 44.847 73.6026 44.9203C73.6189 44.994 73.6519 45.0779 73.676 45.1073C73.7002 45.1365 73.7374 45.2989 73.7586 45.4677C73.7801 45.6365 73.8163 45.7745 73.8392 45.7745C73.8623 45.7745 73.8979 45.9065 73.9185 46.0682C73.939 46.2296 73.9762 46.3616 74.001 46.3616C74.0258 46.3616 74.063 46.5057 74.0839 46.6819C74.1048 46.858 74.1407 47.0022 74.1639 47.0022C74.187 47.0022 74.2229 47.1271 74.2435 47.2795C74.264 47.432 74.2976 47.5819 74.3185 47.6129C74.3534 47.6658 74.4716 48.1523 74.6073 48.8038C74.6396 48.9581 74.6856 49.084 74.7094 49.084C74.7336 49.084 74.7701 49.2281 74.791 49.4043C74.8119 49.5805 74.8491 49.7246 74.8739 49.7246C74.8987 49.7246 74.9359 49.8569 74.9565 50.0183C74.977 50.1797 75.0132 50.312 75.0367 50.312C75.0602 50.312 75.0965 50.4561 75.1173 50.6323C75.1382 50.8084 75.1735 50.9526 75.1957 50.9526C75.2175 50.9526 75.2681 51.1566 75.3076 51.4061C75.3474 51.6559 75.3976 51.8599 75.4198 51.8599C75.442 51.8599 75.4773 52.0041 75.4982 52.1802C75.519 52.3564 75.5553 52.5005 75.5788 52.5005C75.6022 52.5005 75.6381 52.6328 75.6587 52.7942C75.6793 52.9556 75.7165 53.0876 75.7413 53.0876C75.7661 53.0876 75.8036 53.2317 75.8245 53.4079C75.8454 53.584 75.8842 53.7282 75.9113 53.7282C75.9384 53.7282 75.9602 53.8002 75.9602 53.8883V54.0485H77.3745V42.9986H76.3955V44.4934C76.3955 45.4542 76.4148 45.9881 76.4497 45.9881C76.4856 45.9881 76.5042 47.0736 76.5042 49.1375C76.5042 52.0736 76.4686 52.815 76.3681 51.9666C76.3472 51.7904 76.3107 51.6463 76.2865 51.6463C76.2627 51.6463 76.2258 51.5022 76.205 51.326C76.1841 51.1499 76.1472 51.0057 76.123 51.0057C76.0989 51.0057 76.0493 50.8318 76.0134 50.6188C75.9775 50.4058 75.9279 50.2073 75.9031 50.1772C75.8786 50.147 75.8414 49.9968 75.8209 49.8434C75.8 49.69 75.7641 49.5644 75.7413 49.5644C75.7181 49.5644 75.6822 49.4203 75.6613 49.2442C75.6404 49.068 75.6042 48.9239 75.5807 48.9239C75.5569 48.9239 75.521 48.7919 75.5004 48.6305C75.4799 48.4691 75.4433 48.3368 75.4192 48.3368C75.395 48.3368 75.3448 48.1446 75.3076 47.9099C75.2704 47.6748 75.2208 47.4826 75.1976 47.4826C75.1744 47.4826 75.1382 47.3385 75.1173 47.1623C75.0965 46.9861 75.0602 46.842 75.0367 46.842C75.0132 46.842 74.977 46.7104 74.9568 46.5493C74.9362 46.3885 74.8984 46.2437 74.8726 46.2283C74.8468 46.2127 74.809 46.0682 74.7884 45.9071C74.7682 45.746 74.7329 45.6144 74.7101 45.6144C74.6876 45.6144 74.653 45.4943 74.6331 45.3476C74.6132 45.2005 74.5773 45.0804 74.5531 45.0804C74.529 45.0804 74.4784 44.8761 74.4406 44.6266C74.4027 44.3768 74.3515 44.1603 74.327 44.1452C74.3022 44.1302 74.2653 43.9863 74.2448 43.8252C74.2242 43.6641 74.189 43.5325 74.1665 43.5325C74.1436 43.5325 74.109 43.4124 74.0891 43.2657L74.0532 42.9986H72.6971V54.0485ZM80.0392 54.0485H81.5892C82.5864 54.0485 83.1391 54.0296 83.1391 53.9953C83.1391 53.9658 83.1992 53.9418 83.2726 53.9418C83.3996 53.9418 83.6472 53.855 83.7647 53.7695C84.0457 53.5648 84.1693 53.4374 84.2304 53.2891C84.2702 53.193 84.3247 53.0994 84.3521 53.0809C84.3795 53.0626 84.4147 52.9364 84.4304 52.8006C84.446 52.6648 84.48 52.554 84.5061 52.554C84.5319 52.554 84.5534 51.9535 84.5534 51.2194C84.5534 50.4853 84.5322 49.8847 84.5064 49.8847C84.4806 49.8847 84.4454 49.7483 84.4278 49.5817C84.4075 49.3886 84.3651 49.2615 84.3116 49.232C84.2649 49.2064 84.2271 49.1516 84.2271 49.1103C84.2271 49.0104 83.9592 48.7685 83.8055 48.7298C83.7383 48.7128 83.6831 48.6776 83.6831 48.6513C83.6831 48.625 83.6472 48.6036 83.6032 48.6036C83.4678 48.6036 83.5728 48.4524 83.7324 48.4181C83.9001 48.3816 84.2813 48.0434 84.2813 47.9303C84.2813 47.8897 84.3051 47.8564 84.3338 47.8564C84.3628 47.8564 84.4026 47.7363 84.4226 47.5896C84.4425 47.4426 84.48 47.3224 84.5058 47.3224C84.5319 47.3224 84.5534 46.6739 84.5534 45.8812C84.5534 45.0884 84.5319 44.4399 84.5058 44.4399C84.48 44.4399 84.4425 44.3198 84.4226 44.1731C84.4026 44.0264 84.3628 43.9063 84.3338 43.9063C84.3051 43.9063 84.2813 43.8746 84.2813 43.8355C84.2813 43.725 83.8123 43.2727 83.6583 43.2346C83.5823 43.2161 83.52 43.1818 83.52 43.1584C83.52 43.0588 82.7375 42.9986 81.4351 42.9986H80.0392V54.0485ZM86.5113 54.0485H91.1884V53.2477H87.4902V42.9986H86.5113V54.0485ZM106.036 54.0485H106.902L106.918 51.9381C106.929 50.3975 106.95 49.8172 106.997 49.789C107.032 49.7678 107.077 49.6846 107.098 49.6042C107.118 49.5235 107.152 49.4578 107.173 49.4578C107.193 49.4578 107.243 49.3688 107.283 49.2595C107.324 49.1506 107.39 49.0286 107.43 48.9889C107.471 48.9489 107.504 48.8819 107.504 48.84C107.504 48.798 107.527 48.7637 107.554 48.7637C107.582 48.7637 107.616 48.7218 107.63 48.6705C107.654 48.5815 107.655 48.5815 107.661 48.6705C107.664 48.7218 107.692 48.7637 107.722 48.7637C107.751 48.7637 107.776 48.8185 107.776 48.8854C107.776 48.9524 107.811 49.0555 107.853 49.1151C107.895 49.1743 107.947 49.3117 107.968 49.4206C107.989 49.5292 108.024 49.6179 108.047 49.6179C108.07 49.6179 108.105 49.7169 108.124 49.838C108.144 49.959 108.208 50.1621 108.267 50.2889C108.326 50.4158 108.374 50.5554 108.374 50.5993C108.374 50.6432 108.397 50.6928 108.424 50.7095C108.451 50.7258 108.49 50.8353 108.51 50.9529C108.53 51.0701 108.567 51.1659 108.592 51.1659C108.617 51.1659 108.654 51.2681 108.675 51.393C108.696 51.5176 108.731 51.6319 108.752 51.6463C108.796 51.6771 109.082 52.546 109.082 52.6472C109.082 52.684 109.103 52.7141 109.13 52.7141C109.156 52.7141 109.194 52.7981 109.214 52.9009C109.233 53.0037 109.27 53.0876 109.295 53.0876C109.32 53.0876 109.357 53.1959 109.378 53.3278C109.398 53.4601 109.435 53.568 109.459 53.568C109.484 53.568 109.52 53.6763 109.541 53.8082L109.578 54.0485H110.604L110.602 53.9018C110.601 53.8211 110.553 53.659 110.495 53.5414C110.438 53.4239 110.389 53.2875 110.388 53.2378C110.387 53.1878 110.364 53.1337 110.337 53.1174C110.309 53.1007 110.271 52.9912 110.251 52.874C110.23 52.7567 110.194 52.6607 110.17 52.6607C110.146 52.6607 110.111 52.5764 110.091 52.4739C110.071 52.3711 110.035 52.2869 110.01 52.2869C109.984 52.2869 109.947 52.1789 109.927 52.0467C109.907 51.9147 109.871 51.8065 109.846 51.8065C109.822 51.8065 109.774 51.6623 109.738 51.4862C109.703 51.31 109.653 51.1659 109.627 51.1659C109.601 51.1659 109.564 51.0698 109.544 50.9526C109.523 50.835 109.487 50.7389 109.463 50.7389C109.44 50.7389 109.404 50.631 109.383 50.4987C109.363 50.3664 109.325 50.2585 109.298 50.2585C109.271 50.2585 109.233 50.1743 109.214 50.0718C109.194 49.969 109.159 49.8847 109.136 49.8847C109.113 49.8847 109.077 49.7768 109.057 49.6445C109.037 49.5126 109 49.4043 108.976 49.4043C108.952 49.4043 108.899 49.2602 108.859 49.084C108.82 48.9079 108.77 48.7637 108.749 48.7637C108.727 48.7637 108.694 48.6676 108.673 48.5504C108.653 48.4329 108.618 48.3368 108.594 48.3368C108.571 48.3368 108.536 48.2407 108.517 48.1232C108.497 48.0059 108.46 47.9099 108.434 47.9099C108.408 47.9099 108.369 47.8198 108.348 47.7097C108.327 47.5998 108.282 47.4916 108.247 47.4695C108.199 47.439 108.2 47.4195 108.247 47.3887C108.283 47.3663 108.328 47.284 108.348 47.2059C108.368 47.1274 108.418 47.0505 108.461 47.0345C108.503 47.0185 108.538 46.9688 108.538 46.924C108.538 46.8788 108.56 46.842 108.588 46.842C108.615 46.842 108.654 46.77 108.673 46.6819C108.693 46.5938 108.728 46.5217 108.751 46.5217C108.774 46.5217 108.821 46.4256 108.857 46.3084C108.893 46.1909 108.946 46.0948 108.975 46.0948C109.004 46.0948 109.027 46.0605 109.027 46.0186C109.027 45.9766 109.06 45.9093 109.101 45.8693C109.142 45.829 109.194 45.7373 109.217 45.6653C109.24 45.5932 109.274 45.5221 109.293 45.5077C109.311 45.493 109.387 45.3607 109.462 45.214C109.537 45.0673 109.61 44.935 109.625 44.9203C109.64 44.9056 109.726 44.7496 109.815 44.5734C109.905 44.3973 109.995 44.241 110.015 44.2259C110.035 44.2109 110.068 44.1327 110.089 44.0523C110.11 43.9719 110.146 43.9063 110.17 43.9063C110.195 43.9063 110.231 43.8342 110.251 43.7461C110.27 43.658 110.307 43.586 110.332 43.586C110.383 43.586 110.604 43.1597 110.604 43.062C110.604 42.9361 109.566 42.9784 109.532 43.1056C109.517 43.1642 109.485 43.2122 109.462 43.2122C109.439 43.2122 109.403 43.2779 109.382 43.3586C109.362 43.439 109.328 43.5171 109.307 43.5319C109.248 43.5745 108.808 44.4584 108.809 44.5334C108.809 44.5702 108.787 44.6 108.759 44.6C108.732 44.6 108.693 44.6721 108.673 44.7602C108.654 44.8482 108.616 44.9203 108.59 44.9203C108.538 44.9203 108.102 45.7671 108.102 45.8699C108.102 45.9055 108.084 45.9353 108.061 45.9356C108.039 45.9362 107.96 46.0679 107.885 46.2283C107.81 46.3885 107.733 46.5201 107.712 46.5208C107.692 46.5214 107.66 46.5938 107.64 46.6819C107.62 46.77 107.584 46.842 107.559 46.842C107.534 46.842 107.497 46.9141 107.477 47.0022C107.457 47.0902 107.422 47.1623 107.398 47.1623C107.375 47.1623 107.324 47.2706 107.286 47.4025C107.249 47.5348 107.197 47.6427 107.172 47.6427C107.146 47.6427 107.11 47.7029 107.091 47.7763C106.988 48.1818 106.96 47.6962 106.96 45.4542V42.9986H106.036V54.0485ZM129.53 54.0485H130.509V49.0968L131.546 49.0751C132.208 49.061 132.596 49.0321 132.62 48.9953C132.641 48.9636 132.737 48.9204 132.834 48.8999C132.932 48.879 133.011 48.8425 133.011 48.8188C133.011 48.7948 133.076 48.7592 133.157 48.7397C133.28 48.7093 133.472 48.5392 133.752 48.2132C133.786 48.1738 133.832 48.0834 133.855 48.0123C133.877 47.9412 133.923 47.866 133.957 47.8448C134.041 47.7917 134.042 44.1852 133.958 44.1311C133.925 44.1103 133.882 44.0286 133.862 43.9495C133.819 43.7734 133.352 43.2942 133.171 43.2385C133.098 43.2161 133.026 43.1786 133.01 43.1549C132.944 43.0549 132.192 42.9995 130.904 42.9992L129.53 42.9986V54.0485ZM136.274 54.0485H137.199V42.9986H136.274V54.0485ZM138.885 43.7993H140.843V54.0485H141.767V43.7993H143.78V42.9986H138.885V43.7993ZM151.611 54.0485H156.125V53.2477H152.536V42.9986H151.611V54.0485ZM95.0634 43.7791C95.1456 43.7948 95.2128 43.83 95.2128 43.8569C95.2128 43.8842 95.2402 43.9063 95.2732 43.9063C95.3567 43.9063 95.5917 44.1318 95.5927 44.2131C95.5933 44.2499 95.6148 44.2797 95.6409 44.2797C95.6671 44.2797 95.7202 44.3941 95.7594 44.5334C95.7982 44.6727 95.8566 44.804 95.8886 44.8252C96.0022 44.8988 95.9669 52.2267 95.8524 52.4204C95.8002 52.5085 95.7574 52.6097 95.7571 52.6453C95.7565 52.742 95.3166 53.1446 95.145 53.2051C95.0627 53.2343 94.9955 53.2801 94.9955 53.3064C94.9955 53.3723 94.2557 53.3678 94.1379 53.3012C94.0861 53.2718 93.9826 53.2228 93.9076 53.1923C93.5372 53.0405 93.4034 52.915 93.3104 52.6325C93.2722 52.5159 93.2135 52.3868 93.1799 52.3455C93.0924 52.2376 93.0937 44.9354 93.1815 44.755C93.2161 44.6846 93.2761 44.5427 93.3156 44.4399C93.391 44.2429 93.688 43.9063 93.7862 43.9063C93.8182 43.9063 93.8527 43.881 93.8632 43.8502C93.9062 43.7234 94.5723 43.684 95.0634 43.7791ZM132.401 43.8451C132.413 43.8787 132.457 43.9063 132.501 43.9063C132.544 43.9063 132.594 43.9421 132.611 43.9863C132.628 44.0302 132.674 44.0664 132.713 44.0664C132.796 44.0664 133.011 44.3861 133.011 44.5084C133.011 44.5539 133.036 44.5994 133.067 44.6096C133.148 44.6359 133.167 47.2811 133.087 47.3807C133.053 47.4221 133.011 47.5162 132.993 47.5896C132.953 47.7478 132.657 48.07 132.55 48.07C132.51 48.07 132.467 48.0963 132.456 48.1286C132.445 48.1606 132.321 48.2 132.18 48.2154C132.039 48.2311 131.923 48.2647 131.923 48.2903C131.923 48.316 131.605 48.3368 131.216 48.3368H130.509V43.7314L131.445 43.7577C132.076 43.7756 132.387 43.8041 132.401 43.8451ZM82.727 44.0059C82.743 44.0315 82.8546 44.0677 82.975 44.0866C83.0951 44.1055 83.1936 44.142 83.1936 44.1679C83.1936 44.1939 83.2521 44.2291 83.3232 44.2467C83.5138 44.2938 83.532 44.4062 83.5594 45.7015C83.5842 46.8571 83.5307 47.4826 83.4074 47.4826C83.3796 47.4826 83.3568 47.5098 83.3568 47.5434C83.3568 47.628 83.1134 47.8403 82.9642 47.8861C82.896 47.907 82.8256 47.9464 82.8079 47.9733C82.79 48.0005 82.6373 48.0364 82.4679 48.0537C82.2989 48.071 82.1602 48.1055 82.1602 48.1308C82.1602 48.1558 81.9034 48.1766 81.5892 48.1766H81.0181V43.9594H81.858C82.3198 43.9594 82.711 43.9803 82.727 44.0059ZM147.041 44.8136C147.065 44.8136 147.103 45.0298 147.124 45.2941C147.146 45.5583 147.183 45.7745 147.207 45.7745C147.231 45.7745 147.268 45.9785 147.289 46.2283C147.31 46.4778 147.345 46.6819 147.365 46.6819C147.386 46.6819 147.435 46.9762 147.474 47.3359C147.513 47.6956 147.563 48.0139 147.586 48.0431C147.609 48.0726 147.645 48.2827 147.666 48.5104C147.687 48.7378 147.724 48.9239 147.748 48.9239C147.772 48.9239 147.809 49.1282 147.83 49.3774C147.851 49.6269 147.891 49.8447 147.918 49.861C147.945 49.8777 147.967 49.9498 147.967 50.0215V50.1519H146.961C146.103 50.1519 145.955 50.14 145.955 50.0718C145.955 50.0276 145.977 49.9917 146.005 49.9917C146.032 49.9917 146.072 49.8111 146.093 49.5904C146.114 49.3697 146.15 49.1775 146.174 49.1631C146.198 49.1487 146.235 48.9332 146.256 48.6837C146.277 48.4342 146.314 48.2301 146.338 48.2301C146.363 48.2301 146.4 48.038 146.421 47.8029C146.441 47.5681 146.476 47.3759 146.497 47.3759C146.518 47.3759 146.568 47.0637 146.607 46.6819C146.647 46.3004 146.699 45.9881 146.721 45.9881C146.745 45.9881 146.78 45.796 146.801 45.5609C146.822 45.3261 146.86 45.1339 146.886 45.1339C146.913 45.1339 146.937 45.0199 146.94 44.8803C146.944 44.7409 146.958 44.6689 146.971 44.7201C146.985 44.7717 147.016 44.8136 147.041 44.8136ZM125.096 45.214C125.118 45.4635 125.153 45.6678 125.174 45.6678C125.196 45.6678 125.244 45.9468 125.28 46.2879C125.316 46.6287 125.366 46.9471 125.392 46.9951C125.417 47.0432 125.455 47.2686 125.477 47.496C125.498 47.7234 125.535 47.9099 125.559 47.9099C125.583 47.9099 125.621 48.126 125.642 48.3903C125.663 48.6545 125.7 48.8707 125.724 48.8707C125.748 48.8707 125.785 49.0747 125.807 49.3242C125.828 49.5737 125.867 49.7781 125.893 49.7781C125.919 49.7781 125.941 49.862 125.941 49.9648V50.1519H124.026L124.066 49.7115C124.087 49.469 124.123 49.2589 124.146 49.2442C124.169 49.2297 124.205 49.0193 124.227 48.7769C124.249 48.5344 124.286 48.3243 124.309 48.3099C124.333 48.2955 124.37 48.1097 124.392 47.8967C124.413 47.6837 124.449 47.4855 124.472 47.456C124.495 47.4265 124.544 47.1203 124.581 46.7754C124.618 46.4304 124.667 46.1483 124.69 46.1483C124.713 46.1483 124.749 45.9439 124.77 45.6947C124.791 45.4452 124.831 45.2275 124.858 45.2111C124.885 45.1945 124.908 45.0862 124.908 44.9706C124.908 44.5353 125.055 44.7252 125.096 45.214ZM81.9429 48.9697C81.9429 48.9947 82.1312 49.0309 82.3612 49.0497C82.5913 49.069 82.7933 49.1026 82.8099 49.1244C82.8265 49.1465 82.9137 49.2003 83.0034 49.2445C83.1985 49.3399 83.3023 49.4306 83.3023 49.5046C83.3023 49.5347 83.3366 49.5785 83.3783 49.6019C83.5255 49.6849 83.5738 50.0702 83.5738 51.1659C83.5738 52.4416 83.4824 52.8743 83.2132 52.8743C83.1777 52.8743 83.1382 52.9041 83.1258 52.9409C83.1088 52.9902 82.8327 53.0123 82.0607 53.0261L81.0181 53.0444V48.9239H81.4805C81.7347 48.9239 81.9429 48.9444 81.9429 48.9697Z" fill="#808080"/>
<path fill-rule="evenodd" clip-rule="evenodd" d="M38.2377 33.7863C38.209 33.8603 38.1917 33.8651 38.1552 33.8087C38.13 33.7696 38.1088 33.7629 38.1085 33.7943C38.1078 33.8254 38.022 33.884 37.9173 33.9243C37.8125 33.9647 37.727 34.0172 37.727 34.0409C37.727 34.0649 37.6895 34.0845 37.6435 34.0845C37.5978 34.0845 37.5469 34.1191 37.5303 34.1614C37.5139 34.2036 37.4288 34.2536 37.3417 34.2722C37.2545 34.2911 37.1831 34.3285 37.1831 34.3558C37.1831 34.3827 37.1481 34.4048 37.1054 34.4048C37.0627 34.4048 36.9954 34.4355 36.9559 34.473C36.9161 34.5108 36.737 34.6126 36.5575 34.6998C36.378 34.7869 36.1989 34.8884 36.1594 34.9252C36.1199 34.9617 36.0527 34.9919 36.01 34.9919C35.9672 34.9919 35.9323 35.0156 35.9323 35.0444C35.9323 35.0732 35.8709 35.1116 35.7962 35.1302C35.7215 35.1485 35.6601 35.185 35.6601 35.2112C35.6601 35.2375 35.6265 35.259 35.5854 35.259C35.544 35.259 35.48 35.2945 35.4431 35.3384C35.4063 35.382 35.3544 35.4047 35.3276 35.3887C35.3012 35.3724 35.2797 35.382 35.2797 35.4095C35.2797 35.4374 35.2366 35.4732 35.1844 35.4896C35.0744 35.5238 34.7758 35.6958 34.735 35.7484C34.72 35.7682 34.642 35.8003 34.5624 35.8198C34.4825 35.8397 34.4042 35.8896 34.3878 35.9309C34.3715 35.9722 34.3209 36.0062 34.2753 36.0062C34.2293 36.0062 34.1917 36.0264 34.1917 36.051C34.1917 36.0757 34.0938 36.1247 33.9744 36.1599C33.8546 36.1952 33.7568 36.2471 33.7568 36.2752C33.7568 36.3034 33.7238 36.3265 33.6837 36.3265C33.6432 36.3265 33.5538 36.3745 33.4849 36.4331C33.4158 36.4921 33.3263 36.5401 33.2862 36.5401C33.2457 36.5401 33.2128 36.5622 33.2128 36.5891C33.2128 36.616 33.1394 36.6541 33.0496 36.6734C32.9599 36.6929 32.8865 36.7291 32.8865 36.7537C32.8865 36.7787 32.752 36.8617 32.5876 36.9379C32.4231 37.0145 32.2883 37.0977 32.2883 37.123C32.2883 37.1483 32.224 37.1849 32.1457 37.2041C32.0674 37.2233 31.9705 37.2681 31.93 37.3034C31.7581 37.4542 31.7019 37.4901 31.5773 37.5282C31.5045 37.5503 31.4331 37.5846 31.418 37.6038C31.403 37.623 31.2503 37.7079 31.0784 37.7921C30.9064 37.8764 30.7654 37.9635 30.7654 37.9859C30.7654 38.008 30.692 38.0419 30.6023 38.0615C30.5125 38.0807 30.4391 38.1188 30.4391 38.1457C30.4391 38.1726 30.4016 38.1947 30.3559 38.1947C30.3102 38.1947 30.259 38.2293 30.2427 38.2716C30.226 38.3139 30.1395 38.3641 30.0501 38.3834C29.9611 38.4026 29.8752 38.4506 29.8599 38.4903C29.8446 38.5297 29.7604 38.5775 29.6732 38.596C29.5861 38.6149 29.5147 38.6524 29.5147 38.6796C29.5147 38.7065 29.4771 38.7286 29.4314 38.7286C29.3854 38.7286 29.3339 38.7645 29.3169 38.8087C29.2996 38.8526 29.2549 38.8888 29.2177 38.8888C29.1329 38.8888 28.9198 39.0825 28.7941 39.2738C28.5289 39.678 28.8163 40.7038 29.1949 40.7038C29.2255 40.7038 29.2898 40.7423 29.3375 40.789C29.4448 40.8944 30.226 40.8774 30.2629 40.7689C30.2753 40.733 30.3135 40.7038 30.3477 40.7038C30.4401 40.7038 30.9831 40.4261 30.9831 40.3791C30.9831 40.3566 31.0565 40.3227 31.1462 40.3035C31.236 40.2839 31.3094 40.2465 31.3094 40.2202C31.3094 40.1936 31.3704 40.1568 31.4455 40.1385C31.5202 40.12 31.5812 40.086 31.5812 40.0633C31.5812 40.0402 31.6409 40.0066 31.7134 39.9886C31.7861 39.971 31.8778 39.9259 31.9173 39.889C31.9568 39.8519 32.0504 39.792 32.1252 39.7561C32.3004 39.6712 32.4711 39.5655 32.5063 39.5204C32.5216 39.5005 32.6013 39.4679 32.6832 39.4477C32.7651 39.4275 32.8323 39.3913 32.8323 39.3673C32.8323 39.3433 32.9667 39.2609 33.1312 39.1847C33.296 39.1082 33.4304 39.0243 33.4304 38.9983C33.4304 38.972 33.5039 38.9349 33.5936 38.9154C33.6833 38.8961 33.7568 38.8609 33.7568 38.8369C33.7568 38.8132 33.8181 38.7786 33.8928 38.76C33.9676 38.7418 34.0286 38.703 34.0286 38.6742C34.0286 38.6454 34.0635 38.622 34.1062 38.622C34.149 38.622 34.2165 38.5912 34.256 38.5534C34.2955 38.516 34.4684 38.416 34.6404 38.3312C34.8124 38.2466 34.9533 38.1592 34.9533 38.1371C34.9533 38.1146 35.0268 38.0807 35.1165 38.0615C35.2062 38.0419 35.2797 38.0041 35.2797 37.9769C35.2797 37.95 35.3172 37.9279 35.3629 37.9279C35.4086 37.9279 35.4598 37.8933 35.4761 37.851C35.4927 37.8088 35.5792 37.7585 35.6686 37.7393C35.7577 37.7201 35.8432 37.6726 35.8582 37.6342C35.8732 37.5955 35.9509 37.5477 36.0308 37.5282C36.1105 37.5083 36.1885 37.4763 36.2035 37.4565C36.2475 37.3998 36.4355 37.2909 36.5983 37.2281C36.6805 37.1961 36.7481 37.1483 36.7481 37.1221C36.7481 37.0955 36.783 37.0737 36.8257 37.0737C36.8685 37.0737 36.9367 37.041 36.9778 37.0007C37.0186 36.9607 37.1067 36.9107 37.1736 36.8899C37.2891 36.854 37.7916 36.5523 37.9261 36.4379C37.961 36.4085 38.0527 36.3688 38.13 36.3495C38.2074 36.3306 38.2707 36.2842 38.2707 36.2464C38.2707 36.2089 38.3111 36.1814 38.3601 36.1856C38.4094 36.1897 38.4612 36.1596 38.4759 36.1189C38.4913 36.076 38.4782 36.0594 38.4446 36.0799C38.4129 36.0991 38.3692 36.0866 38.3477 36.0523C38.3232 36.0132 38.332 36.004 38.3712 36.0277C38.4058 36.0488 38.4338 36.0405 38.4338 36.0094C38.4338 35.9783 38.4583 35.9527 38.4883 35.9527C38.5183 35.9527 38.5428 35.9902 38.5428 36.036C38.5428 36.0818 38.5611 36.1081 38.5836 36.0946C38.6867 36.0321 38.598 33.7065 38.4945 33.761C38.4283 33.7956 38.3764 33.793 38.3353 33.7527C38.2902 33.7085 38.2648 33.7174 38.2377 33.7863ZM26.1428 41.3271C26.0978 41.3451 26.0417 41.3925 26.0175 41.4322C25.9937 41.4719 25.9386 41.5046 25.8952 41.5046C25.8518 41.5046 25.8165 41.5318 25.8165 41.5654C25.8165 41.5987 25.7734 41.657 25.7212 41.6945C25.6041 41.7784 25.5388 55.8111 25.654 56.2006C25.7088 56.3873 25.8899 56.6298 25.9506 56.598C25.9647 56.5907 26.0198 56.6211 26.073 56.6659C26.1262 56.7108 26.2554 56.7819 26.3602 56.8238C26.4649 56.8661 26.583 56.9315 26.6225 56.9693C26.662 57.0074 26.7292 57.0384 26.772 57.0384C26.8147 57.0384 26.8496 57.0599 26.8496 57.0865C26.8496 57.1131 26.9172 57.1608 26.9994 57.1925C27.1622 57.2553 27.3502 57.3642 27.3943 57.4212C27.4093 57.4407 27.4873 57.4731 27.5669 57.4926C27.6468 57.5125 27.7245 57.5599 27.7395 57.5986C27.7545 57.6374 27.84 57.6845 27.9291 57.7037C28.0185 57.7232 28.105 57.7735 28.1216 57.8158C28.1379 57.8577 28.1892 57.8923 28.2348 57.8923C28.2805 57.8923 28.3181 57.9163 28.3181 57.9458C28.3181 57.9753 28.3464 57.9993 28.381 57.9993C28.4189 57.9993 28.4091 57.9615 28.3556 57.9035C28.2724 57.8135 28.2831 57.8017 28.5373 57.705C28.6861 57.6483 28.8075 57.5852 28.8075 57.5647C28.8075 57.5442 28.879 57.5118 28.9661 57.4929C29.0536 57.4743 29.1384 57.4244 29.1551 57.3821C29.1714 57.3398 29.2223 57.3052 29.2683 57.3052C29.314 57.3052 29.3515 57.2831 29.3515 57.2562C29.3515 57.229 29.423 57.1915 29.5101 57.1726C29.5972 57.1541 29.6824 57.1041 29.6987 57.0618C29.7153 57.0195 29.7662 56.985 29.8119 56.985C29.8579 56.985 29.8955 56.9654 29.8955 56.9414C29.8955 56.9177 29.981 56.8652 30.0857 56.8248C30.3862 56.7092 30.2867 56.3812 29.9307 56.3143C29.8664 56.3021 29.7855 56.2544 29.7509 56.2079C29.716 56.1618 29.667 56.1215 29.6419 56.1189C29.5241 56.1061 29.406 56.0616 29.406 56.0302C29.406 56.011 29.2895 55.9357 29.1475 55.863C29.0056 55.79 28.8809 55.7125 28.8712 55.6904C28.861 55.6686 28.8212 55.6503 28.7827 55.6503C28.7439 55.6503 28.6829 55.6157 28.6467 55.5731C28.6108 55.5305 28.4917 55.4671 28.3817 55.4322C28.272 55.397 28.1627 55.3358 28.1386 55.2958C28.1148 55.256 28.0596 55.2234 28.0162 55.2234C27.9728 55.2234 27.9376 55.1994 27.9376 55.1699C27.9376 55.1407 27.9007 55.1167 27.856 55.1167C27.7839 55.1167 27.7744 54.479 27.7744 49.6984C27.7744 44.9178 27.7839 44.2802 27.856 44.2802C27.9007 44.2802 27.9376 44.3016 27.9376 44.3276C27.9376 44.3535 27.9803 44.3884 28.0325 44.4051C28.0851 44.422 28.2257 44.4973 28.3455 44.5729C28.4649 44.6482 28.6303 44.7385 28.7126 44.7737C28.7948 44.8086 28.862 44.8563 28.862 44.8791C28.862 44.9022 28.8969 44.9207 28.9397 44.9207C28.9824 44.9207 29.05 44.9508 29.0898 44.9877C29.1296 45.0242 29.3087 45.1264 29.4879 45.2144C29.667 45.3025 29.826 45.3871 29.841 45.4024C29.856 45.4175 29.9294 45.4594 30.0041 45.4953C30.1784 45.5789 30.35 45.6849 30.3853 45.7307C30.4006 45.7503 30.4802 45.7829 30.5621 45.8031C30.644 45.8233 30.7112 45.8595 30.7112 45.8835C30.7112 45.9229 30.8287 45.9937 31.1867 46.1689C31.2536 46.2019 31.3087 46.2448 31.3091 46.2643C31.3091 46.2842 31.3828 46.3162 31.4725 46.3354C31.5623 46.3546 31.6357 46.3873 31.6357 46.4075C31.6357 46.4277 31.7519 46.5039 31.8941 46.5766C32.0361 46.6496 32.1601 46.7259 32.1696 46.746C32.179 46.7665 32.2763 46.812 32.3856 46.8476C32.4949 46.8831 32.615 46.9385 32.6522 46.9706C32.8215 47.1179 32.8764 47.1525 32.9994 47.1903C33.0721 47.2124 33.1436 47.2454 33.1586 47.2633C33.1948 47.3075 33.3724 47.4158 33.5391 47.4958C33.6142 47.5317 33.6931 47.5887 33.7153 47.623C33.7372 47.6569 33.8227 47.7015 33.9052 47.7216C33.9875 47.7418 34.0674 47.7745 34.0824 47.7943C34.118 47.8401 34.2896 47.9462 34.4639 48.0294C34.5386 48.0656 34.612 48.1073 34.627 48.1226C34.6417 48.138 34.8 48.2226 34.9785 48.3106C35.157 48.3987 35.3361 48.5006 35.3766 48.5374C35.4174 48.5742 35.4856 48.604 35.5283 48.604C35.5711 48.604 35.606 48.6261 35.606 48.6533C35.606 48.6802 35.6771 48.7177 35.7646 48.7366C35.8517 48.7555 35.9365 48.8055 35.9532 48.8478C35.9695 48.8897 36.0207 48.9243 36.0664 48.9243C36.1121 48.9243 36.1496 48.9483 36.1496 48.9778C36.1496 49.0073 36.1767 49.0313 36.2093 49.0313C36.242 49.0313 36.3353 49.0777 36.4165 49.1344C36.4978 49.1911 36.6283 49.2532 36.7066 49.2728C36.785 49.292 36.862 49.3416 36.8783 49.383C36.8946 49.4243 36.9452 49.4582 36.9909 49.4582C37.0369 49.4582 37.0744 49.4803 37.0744 49.5072C37.0744 49.5345 37.1478 49.5722 37.2376 49.5918C37.3273 49.611 37.4007 49.6472 37.4007 49.6725C37.4007 49.6975 37.4546 49.7346 37.5205 49.7551C37.5864 49.7759 37.6738 49.8256 37.7146 49.8656C37.7554 49.9057 37.8853 49.9537 38.0028 49.9723C38.1202 49.9905 38.2165 50.0267 38.2165 50.0524C38.2165 50.1135 38.6906 50.1129 38.7291 50.0514C38.7458 50.0255 38.842 49.9889 38.9432 49.9704C39.0515 49.9502 39.1697 49.8791 39.2294 49.798C39.2855 49.7221 39.3681 49.6222 39.4128 49.5761C39.4738 49.5136 39.4944 49.3628 39.4944 48.9816V48.4708L39.2989 48.2837C39.092 48.0864 38.8505 47.9231 38.6923 47.8741C38.6401 47.8578 38.597 47.8251 38.597 47.8014C38.597 47.7777 38.5115 47.7306 38.4067 47.6966C38.302 47.6627 38.2165 47.6127 38.2165 47.5858C38.2165 47.5586 38.1816 47.5365 38.1388 47.5365C38.0961 47.5365 38.0276 47.5035 37.9865 47.4635C37.9457 47.4234 37.8533 47.3722 37.7812 47.3498C37.7094 47.3274 37.6197 47.2822 37.5818 47.2492C37.4118 47.1012 37.3567 47.0666 37.2333 47.0289C37.1609 47.0068 37.0365 46.9437 36.9573 46.8889C36.8776 46.8341 36.7859 46.7893 36.7533 46.7893C36.7203 46.7893 36.6936 46.7672 36.6936 46.74C36.6936 46.713 36.6221 46.6756 36.535 46.6567C36.4479 46.6378 36.3627 46.5878 36.3464 46.5455C36.3297 46.5036 36.2788 46.469 36.2332 46.469C36.1871 46.469 36.1496 46.445 36.1496 46.4155C36.1496 46.386 36.1163 46.362 36.0755 46.362C36.0348 46.362 35.9427 46.3175 35.8716 46.2627C35.8001 46.208 35.6817 46.1449 35.6083 46.1221C35.5352 46.0997 35.4415 46.0481 35.4007 46.0081C35.3596 45.9681 35.2911 45.9351 35.2483 45.9351C35.2056 45.9351 35.1707 45.9127 35.1707 45.8854C35.1707 45.8579 35.1168 45.8188 35.0509 45.7983C34.985 45.7775 34.8975 45.7278 34.8568 45.6878C34.8156 45.6478 34.7474 45.6148 34.7047 45.6148C34.662 45.6148 34.627 45.5927 34.627 45.5658C34.627 45.5386 34.5556 45.5011 34.4684 45.4822C34.381 45.4636 34.2971 45.4159 34.2818 45.3765C34.2661 45.3368 34.1784 45.2884 34.0867 45.2686C33.995 45.2487 33.9199 45.2106 33.9199 45.1834C33.9199 45.1565 33.8824 45.1344 33.8367 45.1344C33.7907 45.1344 33.7398 45.0998 33.7235 45.0575C33.7068 45.0152 33.622 44.9652 33.5345 44.9467C33.4474 44.9278 33.3759 44.8941 33.3759 44.872C33.3759 44.8496 33.2353 44.7625 33.0633 44.6783C32.8914 44.594 32.7383 44.5092 32.7233 44.4899C32.7083 44.4707 32.6411 44.4381 32.5739 44.4172C32.5066 44.3967 32.4515 44.3599 32.4515 44.3359C32.4515 44.3115 32.3905 44.2766 32.3154 44.2584C32.2407 44.2398 32.1797 44.2033 32.1797 44.1767C32.1797 44.1501 32.1062 44.1126 32.0165 44.0934C31.9268 44.0742 31.8534 44.0412 31.8534 44.0204C31.8534 43.9765 31.2999 43.6931 31.2148 43.6931C31.1834 43.6931 31.1436 43.6569 31.1266 43.613C31.1094 43.5688 31.0578 43.5329 31.0121 43.5329C30.9661 43.5329 30.9286 43.5147 30.9286 43.4923C30.9286 43.4519 30.8764 43.4189 30.5709 43.2671C30.4835 43.2235 30.3999 43.1755 30.3849 43.1604C30.3699 43.1451 30.211 43.0605 30.0319 42.9724C29.8527 42.8843 29.6732 42.7822 29.6338 42.7457C29.5939 42.7088 29.5264 42.6787 29.4837 42.6787C29.4409 42.6787 29.406 42.6563 29.406 42.6291C29.406 42.6015 29.3508 42.5625 29.2836 42.5416C29.2161 42.5211 29.1489 42.4875 29.1338 42.467C29.1188 42.4465 28.9661 42.3648 28.7941 42.2857C28.6222 42.2066 28.4812 42.1205 28.4812 42.0942C28.4812 42.0683 28.4101 42.0314 28.3226 42.0125C28.2355 41.9936 28.1507 41.9437 28.134 41.9014C28.1177 41.8594 28.0665 41.8248 28.0208 41.8248C27.9751 41.8248 27.9376 41.8027 27.9376 41.7755C27.9376 41.7486 27.8641 41.7105 27.7744 41.6913C27.6847 41.6721 27.6113 41.6368 27.6113 41.6135C27.6113 41.5901 27.5316 41.5391 27.4344 41.5007C27.3371 41.462 27.2402 41.4049 27.219 41.3739C27.1769 41.3127 26.276 41.2736 26.1428 41.3271ZM34.8173 52.9279C34.8359 52.9574 34.8065 52.982 34.7527 52.983C34.3683 52.9887 34.0096 54.0056 34.2717 54.3458C34.3157 54.4028 34.3523 54.4217 34.3533 54.3877C34.3542 54.3525 34.4016 54.3378 34.4639 54.3538C34.5246 54.3695 34.5725 54.3554 34.5725 54.3221C34.5725 54.2894 34.6101 54.2625 34.6557 54.2625C34.7018 54.2625 34.7527 54.2279 34.769 54.1856C34.7856 54.1434 34.8705 54.0934 34.9579 54.0748C35.045 54.0559 35.1165 54.0229 35.1165 54.0015C35.1165 53.9797 35.202 53.9291 35.3067 53.8887C35.4115 53.8484 35.497 53.7959 35.497 53.7722C35.497 53.7481 35.5299 53.7286 35.5704 53.7286C35.6105 53.7286 35.7 53.6806 35.7691 53.6219C35.838 53.5633 35.9274 53.5153 35.9679 53.5153C36.008 53.5153 36.041 53.4913 36.041 53.4618C36.041 53.4323 36.0791 53.4083 36.1258 53.4083C36.1725 53.4083 36.1953 53.3843 36.177 53.3551C36.1584 53.3257 36.18 53.3017 36.225 53.3017C36.2697 53.3017 36.32 53.3234 36.3369 53.3497C36.3758 53.4118 36.6939 53.5214 36.6926 53.4724C36.6923 53.4519 36.5392 53.3632 36.3529 53.2751C36.1663 53.187 36.0015 53.1021 35.9865 53.0867C35.8024 52.8978 34.7044 52.7485 34.8173 52.9279Z" fill="#808080"/>
<path fill-rule="evenodd" clip-rule="evenodd" d="M41.9853 48.3211C41.9331 48.4018 41.8675 48.4835 41.8401 48.5027C41.8127 48.5216 41.8052 48.5757 41.8234 48.6228C41.842 48.6699 41.8329 48.7083 41.8035 48.7083C41.7282 48.7083 41.7588 62.791 41.8342 62.8429C41.8649 62.8637 41.9197 62.9476 41.9562 63.0293C41.9928 63.1107 42.0656 63.1933 42.1184 63.2128C42.171 63.232 42.2395 63.2814 42.2705 63.322C42.3938 63.4831 43.5464 63.4415 43.5464 63.2759C43.5464 63.2497 43.5813 63.2279 43.624 63.2279C43.6668 63.2279 43.734 63.1968 43.7735 63.159C43.8133 63.1209 43.9249 63.0581 44.0222 63.0191C44.1194 62.98 44.199 62.9294 44.199 62.907C44.199 62.8842 44.2633 62.8499 44.3416 62.8307C44.4199 62.8115 44.5168 62.7667 44.5573 62.7314C44.741 62.5703 44.7972 62.5361 44.9287 62.5037C45.006 62.4845 45.0693 62.4502 45.0693 62.4275C45.0693 62.4047 45.112 62.3721 45.1643 62.3548C45.2168 62.3375 45.3819 62.251 45.5314 62.1626C45.6811 62.0742 45.8463 61.9868 45.8985 61.9682C45.951 61.9496 45.9937 61.9157 45.9937 61.8929C45.9937 61.8702 46.0551 61.8366 46.1298 61.818C46.2045 61.7997 46.2656 61.761 46.2656 61.7321C46.2656 61.7033 46.3005 61.6799 46.3432 61.6799C46.386 61.6799 46.4535 61.6498 46.493 61.613C46.5325 61.5765 46.7116 61.4756 46.8911 61.3891C47.0706 61.303 47.2497 61.2008 47.2892 61.1624C47.3287 61.1239 47.3963 61.0925 47.439 61.0925C47.4817 61.0925 47.5167 61.074 47.5167 61.0509C47.5167 61.0282 47.5839 60.9801 47.6661 60.9446C47.7483 60.909 47.9135 60.8203 48.0332 60.7473C48.153 60.6746 48.2936 60.5993 48.3458 60.5807C48.3984 60.5618 48.4411 60.5279 48.4411 60.5051C48.4411 60.4824 48.5054 60.4478 48.5837 60.4286C48.662 60.4094 48.7589 60.3645 48.7994 60.3293C48.9831 60.1682 49.0392 60.1339 49.1708 60.1016C49.2481 60.0823 49.3114 60.049 49.3114 60.0273C49.3114 60.0055 49.4031 59.9491 49.5153 59.9014C49.7105 59.8188 49.9063 59.7092 49.964 59.6503C49.9787 59.6349 50.0525 59.5933 50.1272 59.5571C50.3011 59.4738 50.4728 59.3678 50.5083 59.322C50.5237 59.3021 50.6052 59.2691 50.6894 59.2483C50.7739 59.2275 50.8552 59.1791 50.8702 59.1407C50.8852 59.1023 50.9691 59.0552 51.0562 59.0366C51.1433 59.0177 51.2148 58.9802 51.2148 58.953C51.2148 58.9261 51.2523 58.904 51.298 58.904C51.344 58.904 51.3949 58.8694 51.4112 58.8271C51.4279 58.7849 51.5127 58.7349 51.6002 58.7163C51.6873 58.6974 51.7588 58.6603 51.7588 58.634C51.7588 58.6074 51.8198 58.5706 51.8945 58.5523C51.9696 58.5338 52.0306 58.4998 52.0306 58.4771C52.0306 58.454 52.09 58.4204 52.1627 58.4024C52.2355 58.3848 52.3275 58.34 52.3677 58.3035C52.4078 58.2666 52.5563 58.1773 52.6979 58.1043C52.8392 58.0316 52.955 57.9553 52.955 57.9352C52.955 57.915 53.0285 57.8823 53.1182 57.8631C53.2079 57.8439 53.2813 57.8086 53.2813 57.7849C53.2813 57.7616 53.3244 57.7282 53.3766 57.7116C53.4288 57.6946 53.5698 57.6193 53.6892 57.5438C53.809 57.4685 53.9741 57.3782 54.0563 57.3429C54.1386 57.308 54.2061 57.2629 54.2061 57.2433C54.2061 57.2235 54.2671 57.1924 54.3419 57.1738C54.4169 57.1556 54.4779 57.1168 54.4779 57.088C54.4779 57.0592 54.5129 57.0358 54.5556 57.0358C54.5984 57.0358 54.6662 57.0057 54.7067 56.9688C54.7468 56.9323 54.9015 56.8436 55.0503 56.7719C55.3391 56.6329 55.6201 56.3818 55.6201 56.2629C55.6201 56.2229 55.6468 56.1816 55.6798 56.171C55.7617 56.1441 55.8178 55.4344 55.7379 55.4344C55.7049 55.4344 55.6909 55.4007 55.7072 55.3597C55.7493 55.2515 55.6419 55.2066 55.5519 55.2953C55.4194 55.4251 53.0637 55.5695 53.0637 55.4475C53.0637 55.411 53.0396 55.3809 53.0095 55.3809C52.9795 55.3809 52.955 55.4049 52.955 55.4344C52.955 55.4635 52.9061 55.4875 52.8464 55.4875C52.7867 55.4875 52.7377 55.5115 52.7377 55.541C52.7377 55.5705 52.7008 55.5945 52.6561 55.5945C52.6111 55.5945 52.5746 55.6204 52.5746 55.6521C52.5746 55.6842 52.5442 55.7002 52.507 55.688C52.4698 55.6758 52.4094 55.6919 52.3729 55.7236C52.2039 55.8699 52.1494 55.9042 52.0263 55.942C51.9539 55.9641 51.8824 55.9977 51.8674 56.0166C51.8182 56.0785 50.7896 56.662 50.7296 56.662C50.6973 56.662 50.6708 56.6841 50.6708 56.711C50.6708 56.7382 50.5997 56.7757 50.5122 56.7946C50.4251 56.8132 50.3409 56.8609 50.3256 56.9003C50.3102 56.94 50.2225 56.9884 50.1308 57.0082C50.0391 57.0281 49.964 57.0662 49.964 57.0934C49.964 57.1203 49.9265 57.1424 49.8805 57.1424C49.8348 57.1424 49.7839 57.177 49.7673 57.2193C49.7509 57.2616 49.6658 57.3116 49.5786 57.3301C49.4915 57.349 49.4201 57.3827 49.4201 57.4048C49.4201 57.4272 49.2794 57.5143 49.1075 57.5985C48.9355 57.6828 48.7824 57.7648 48.7674 57.7808C48.7524 57.7968 48.6441 57.8576 48.5266 57.9166C48.4091 57.9752 48.2858 58.0472 48.2522 58.0767C48.1905 58.1305 48.0254 58.2231 47.5575 58.4652C47.4152 58.5389 47.299 58.617 47.299 58.6388C47.299 58.6609 47.2321 58.6955 47.1499 58.7157C47.068 58.7359 46.9884 58.7685 46.9733 58.7881C46.9378 58.8339 46.7661 58.9399 46.5919 59.0235C46.5172 59.0594 46.4437 59.1013 46.4287 59.1164C46.414 59.1317 46.2819 59.2035 46.1354 59.2759C45.9892 59.3483 45.8417 59.4322 45.8081 59.4626C45.7745 59.493 45.6312 59.5776 45.4896 59.6503C45.3483 59.723 45.2325 59.7992 45.2325 59.8194C45.2325 59.8399 45.159 59.8722 45.0693 59.8915C44.9796 59.911 44.9061 59.9443 44.9061 59.9658C44.9061 59.9875 44.8203 60.0381 44.7156 60.0785C44.6108 60.1189 44.5253 60.1685 44.5253 60.1893C44.5253 60.2101 44.461 60.2428 44.3827 60.262C44.3044 60.2812 44.2049 60.3322 44.1615 60.3748C44.1181 60.4174 44.0597 60.452 44.0319 60.452C44.0013 60.452 43.9771 58.4018 43.9703 55.2342C43.9641 52.3641 43.9448 50.3402 43.9272 50.7367C43.9096 51.1329 43.89 51.4154 43.8838 51.3638C43.8776 51.3126 43.8365 51.2706 43.7921 51.2706C43.7477 51.2706 43.6971 51.2136 43.6792 51.1438C43.6616 51.0743 43.5888 50.9869 43.5177 50.9494C43.4465 50.9122 43.364 50.8129 43.3343 50.729C43.3046 50.6451 43.255 50.5766 43.224 50.5766C43.193 50.5766 43.1528 50.5183 43.1346 50.4469C43.1163 50.3758 43.067 50.3043 43.0249 50.2886C42.9825 50.2726 42.9482 50.2255 42.9482 50.1836C42.9482 50.1416 42.9114 50.0936 42.8667 50.0769C42.8216 50.0599 42.7851 50.0093 42.7851 49.9645C42.7851 49.9193 42.7606 49.8825 42.7306 49.8825C42.7006 49.8825 42.6761 49.8482 42.6761 49.8063C42.6761 49.7643 42.6444 49.6983 42.6059 49.6596C42.5674 49.6208 42.5032 49.511 42.4633 49.4155C42.4235 49.3201 42.3716 49.2419 42.3475 49.2419C42.3237 49.2419 42.2881 49.1699 42.2682 49.0818C42.2486 48.9937 42.2118 48.9217 42.1866 48.9217C42.1615 48.9217 42.125 48.8496 42.105 48.7615C42.0855 48.6734 42.0408 48.601 42.0055 48.6007C41.969 48.6001 41.9765 48.578 42.0235 48.5482C42.0878 48.5075 42.0891 48.4963 42.0306 48.4957C41.9791 48.495 41.9722 48.4739 42.0085 48.4281C42.0727 48.3464 42.138 48.1744 42.1047 48.1744C42.0913 48.1744 42.0375 48.2404 41.9853 48.3211ZM36.1772 53.3525C36.1955 53.3816 36.1726 53.4057 36.126 53.4057C36.0793 53.4057 36.0411 53.4297 36.0411 53.4591C36.0411 53.4886 36.0082 53.5126 35.968 53.5126C35.9276 53.5126 35.8382 53.5607 35.7693 53.6193C35.7001 53.6779 35.6107 53.7259 35.5706 53.7259C35.5301 53.7259 35.4972 53.7455 35.4972 53.7695C35.4972 53.7932 35.4117 53.8457 35.3069 53.8861C35.2022 53.9264 35.1167 53.9771 35.1167 53.9988C35.1167 54.0203 35.0452 54.0533 34.9581 54.0722C34.8706 54.0908 34.7858 54.1407 34.7692 54.183C34.7528 54.2253 34.7019 54.2599 34.6559 54.2599C34.6102 54.2599 34.5727 54.2868 34.5727 54.3194C34.5727 54.3527 34.5247 54.3668 34.464 54.3511C34.404 54.3358 34.3551 54.3463 34.3551 54.3748C34.3551 54.403 34.3247 54.411 34.2872 54.3925C34.2497 54.3739 34.2621 54.3931 34.3143 54.4354C34.3668 54.4773 34.4096 54.5315 34.4096 54.5555C34.4096 54.6112 34.7887 54.9539 34.8504 54.9539C34.8759 54.9539 35.038 55.0423 35.2107 55.1509C35.3833 55.2592 35.534 55.3412 35.5455 55.3331C35.5572 55.3251 35.5817 55.3386 35.6 55.3629C35.6352 55.4103 35.8062 55.5087 36.2043 55.7104C36.3387 55.7787 36.4787 55.8619 36.5153 55.8956C36.5515 55.9292 36.6983 56.0118 36.8416 56.0788C36.9845 56.146 37.1137 56.2162 37.1287 56.2351C37.1438 56.254 37.1989 56.285 37.2511 56.3039C37.3395 56.336 37.3464 56.4862 37.3464 58.4223V60.5064L37.224 60.4391C37.1568 60.4023 37.0893 60.36 37.0746 60.3453C37.0243 60.296 36.8311 60.1845 36.6122 60.0785C36.371 59.9616 36.1912 59.8553 36.1498 59.8053C36.1348 59.7874 36.0617 59.7541 35.9866 59.7313C35.9119 59.7089 35.8385 59.6737 35.8235 59.6532C35.8085 59.6327 35.613 59.5135 35.3885 59.3886C35.1643 59.2634 34.9437 59.1388 34.899 59.1112C34.8543 59.0837 34.7747 59.0469 34.7222 59.0296C34.67 59.0126 34.6272 58.979 34.6272 58.9553C34.6272 58.9319 34.5538 58.8967 34.464 58.8774C34.3743 58.8579 34.3009 58.8204 34.3009 58.7942C34.3009 58.7679 34.1531 58.6782 33.9729 58.5953C33.7925 58.5123 33.6639 58.4258 33.6874 58.4031C33.7106 58.38 33.7054 58.3672 33.6753 58.3743C33.615 58.3887 33.4185 58.3166 33.3761 58.2644C33.3611 58.2461 33.2387 58.1757 33.1043 58.1081C32.9695 58.0405 32.7577 57.9179 32.6334 57.8359C32.5091 57.7539 32.3564 57.6706 32.2937 57.6511C32.2311 57.6315 32.1798 57.5953 32.1798 57.57C32.1798 57.545 32.1064 57.5088 32.0167 57.4893C31.9269 57.4701 31.8532 57.4381 31.8529 57.4185C31.8529 57.3987 31.7977 57.3558 31.7305 57.3228C31.366 57.1444 31.2551 57.0765 31.2551 57.0316C31.2551 57.0047 31.2322 56.9823 31.2045 56.9823C31.1764 56.9823 31.0847 56.9544 31.0005 56.9202C30.916 56.8862 30.8282 56.8625 30.8051 56.8673C30.7816 56.8724 30.7489 56.8417 30.7326 56.7994C30.716 56.7568 30.6706 56.7341 30.6321 56.7485C30.5936 56.7629 30.5476 56.7376 30.5297 56.6918C30.5117 56.646 30.4618 56.6085 30.4184 56.6085C30.375 56.6085 30.3273 56.5787 30.3123 56.5419C30.297 56.5051 30.283 56.5368 30.2804 56.612C30.2771 56.7171 30.2321 56.7658 30.0859 56.8222C29.9811 56.8625 29.8956 56.915 29.8956 56.9387C29.8956 56.9628 29.8581 56.9823 29.8121 56.9823C29.7664 56.9823 29.7155 57.0169 29.6989 57.0592C29.6826 57.1014 29.5974 57.1514 29.5103 57.17C29.4231 57.1889 29.3517 57.2264 29.3517 57.2536C29.3517 57.2805 29.3141 57.3026 29.2685 57.3026C29.2224 57.3026 29.1715 57.3372 29.1552 57.3795C29.1386 57.4217 29.0537 57.4717 28.9663 57.4903C28.8792 57.5092 28.8077 57.5415 28.8077 57.562C28.8077 57.5825 28.6863 57.6456 28.5375 57.7023C28.283 57.7993 28.2725 57.8106 28.3561 57.9012C28.4047 57.954 28.4566 57.9854 28.4713 57.971C28.4856 57.9569 28.5411 57.9944 28.5943 58.0543C28.6475 58.1145 28.6987 58.1603 28.7085 58.1565C28.7617 58.1347 29.0254 58.2695 29.0254 58.3185C29.0254 58.3506 29.0462 58.364 29.0714 58.3486C29.0968 58.3333 29.1653 58.364 29.2234 58.4172C29.3295 58.5142 29.3908 58.5501 29.8777 58.7974C30.0222 58.8707 30.1485 58.9489 30.1586 58.9713C30.1688 58.9937 30.3094 59.0734 30.4713 59.1487C30.6331 59.224 30.7656 59.3076 30.7656 59.3348C30.7656 59.362 30.7966 59.3844 30.8344 59.3844C30.9059 59.3844 31.3161 59.5862 31.3641 59.6448C31.3791 59.6631 31.477 59.7233 31.5814 59.7784C32.0069 60.0026 32.2627 60.1499 32.2885 60.1861C32.3035 60.2069 32.3769 60.2425 32.4517 60.2652C32.5264 60.288 32.5998 60.321 32.6148 60.3392C32.6514 60.3831 32.8286 60.4914 32.9956 60.5714C33.0704 60.6073 33.1438 60.6493 33.1588 60.6646C33.1735 60.68 33.2593 60.7284 33.349 60.7722C33.4388 60.8164 33.5243 60.8642 33.5393 60.8789C33.5543 60.8936 33.6767 60.9635 33.8114 61.0342C33.9459 61.1047 34.1609 61.2306 34.2891 61.3139C34.4174 61.3971 34.5825 61.4801 34.6562 61.4983C34.73 61.5163 34.7904 61.5512 34.7904 61.5752C34.7904 61.5995 34.8442 61.6361 34.9101 61.6566C34.976 61.6771 35.0609 61.7206 35.0984 61.7536C35.2802 61.9115 35.335 61.9448 35.4655 61.9772C35.5428 61.9961 35.6062 62.0332 35.6062 62.0592C35.6062 62.0854 35.6329 62.1069 35.6655 62.1069C35.6985 62.1069 35.7918 62.1533 35.8728 62.21C35.954 62.2667 36.0845 62.3292 36.1628 62.3484C36.2412 62.3676 36.3185 62.4172 36.3345 62.4586C36.3508 62.5002 36.4014 62.5338 36.4474 62.5338C36.4931 62.5338 36.5306 62.5559 36.5306 62.5831C36.5306 62.61 36.604 62.6482 36.6938 62.6674C36.7835 62.6866 36.8569 62.7196 36.8569 62.7401C36.8569 62.7609 36.9969 62.849 37.1679 62.9361C37.3386 63.0232 37.5118 63.1244 37.5523 63.1613C37.5928 63.1978 37.661 63.2279 37.7037 63.2279C37.7465 63.2279 37.7814 63.2506 37.7814 63.2788C37.7814 63.4181 38.51 63.487 38.8895 63.3835C39.0765 63.3323 39.1591 63.2676 39.4257 62.9624C39.5259 62.8477 39.5268 55.2668 39.4267 55.2342C39.3891 55.2217 39.3588 55.1826 39.3588 55.1467C39.3588 54.994 38.9153 54.6881 38.0943 54.274C38.0121 54.2326 37.9445 54.1763 37.9445 54.149C37.9445 54.1221 37.9263 54.1036 37.9037 54.1084C37.8333 54.1234 37.5761 54.0024 37.5559 53.9447C37.5454 53.9143 37.487 53.8819 37.426 53.873C37.3653 53.864 37.2315 53.7977 37.1287 53.7259C37.026 53.6542 36.915 53.5914 36.882 53.5869C36.8491 53.5821 36.6869 53.5155 36.5215 53.4387C36.1961 53.2875 36.125 53.2695 36.1772 53.3525Z" fill="#808080"/>
<path fill-rule="evenodd" clip-rule="evenodd" d="M40.1301 32.6793C40.0612 32.6921 39.9917 32.7356 39.9761 32.7754C39.9604 32.8154 39.8762 32.8634 39.7891 32.8823C39.702 32.9012 39.6305 32.9358 39.6305 32.9592C39.6305 32.9826 39.5509 33.0332 39.4536 33.0713C39.3564 33.1094 39.1877 33.2084 39.0787 33.2913C38.9697 33.374 38.8535 33.4419 38.8206 33.4419C38.7873 33.4419 38.7602 33.4633 38.7602 33.4896C38.7602 33.5155 38.6969 33.5527 38.6196 33.5716C38.5422 33.5908 38.4284 33.6526 38.3664 33.7096L38.2534 33.8128L38.3712 33.7903C38.4359 33.7782 38.5132 33.7535 38.5429 33.7352C38.5785 33.7138 38.5971 34.1026 38.5971 34.8534C38.5971 36.1316 38.5974 36.1316 38.941 35.8744C39.0898 35.763 39.4076 35.6112 39.4556 35.6288C39.4641 35.6317 39.5088 35.5974 39.5548 35.5522C39.6008 35.5074 39.6732 35.4702 39.716 35.4702C39.7587 35.4702 39.7937 35.4501 39.7937 35.4251C39.7937 35.4001 39.9539 35.2998 40.1497 35.2022C40.3458 35.1045 40.5191 35.0039 40.535 34.9783C40.5762 34.9129 40.7622 34.9786 41.0258 35.1516C41.1501 35.2332 41.3081 35.3175 41.3769 35.3386C41.4455 35.3601 41.5326 35.4046 41.5704 35.4373C41.7519 35.5955 41.8067 35.6288 41.9372 35.6608C42.0146 35.6797 42.0779 35.7114 42.0779 35.731C42.0779 35.7502 42.1937 35.8258 42.3353 35.8985C42.4766 35.9712 42.6254 36.0608 42.6652 36.0974C42.7054 36.1342 42.7977 36.1787 42.8702 36.1966C42.9429 36.2146 43.0023 36.2482 43.0023 36.271C43.0023 36.294 43.0637 36.328 43.1384 36.3462C43.2131 36.3648 43.2745 36.4036 43.2745 36.4324C43.2745 36.4609 43.3094 36.4846 43.3521 36.4846C43.3949 36.4846 43.4621 36.516 43.5016 36.5544C43.5411 36.5928 43.7143 36.6937 43.8863 36.7789C44.0583 36.8641 44.1989 36.9503 44.1989 36.9705C44.1989 36.9903 44.2658 37.0233 44.348 37.0435C44.4299 37.0637 44.5096 37.0963 44.5246 37.1162C44.5601 37.162 44.7318 37.2677 44.906 37.3513C44.9808 37.3872 45.0542 37.4294 45.0692 37.4454C45.0839 37.4615 45.1576 37.505 45.2324 37.5425C45.5548 37.7046 45.6983 37.7885 45.7659 37.8548C45.8057 37.8938 45.8732 37.9259 45.916 37.9259C45.9587 37.9259 45.9936 37.9473 45.9936 37.9736C45.9936 37.9995 46.055 38.0361 46.1297 38.0546C46.2044 38.0729 46.2655 38.1097 46.2655 38.1363C46.2655 38.1626 46.3389 38.2 46.4286 38.2196C46.5184 38.2388 46.5918 38.2753 46.5918 38.3003C46.5918 38.3256 46.6776 38.3765 46.7824 38.4137C46.8868 38.4508 46.9726 38.4985 46.9726 38.5197C46.9726 38.5408 47.0441 38.5735 47.1312 38.5921C47.2183 38.611 47.3035 38.6609 47.3198 38.7032C47.3364 38.7455 47.3873 38.7801 47.433 38.7801C47.479 38.7801 47.5166 38.7983 47.5166 38.8208C47.5166 38.8432 47.5629 38.8851 47.6197 38.914C47.6761 38.9431 47.8843 39.0494 48.0817 39.1506C48.2795 39.2515 48.441 39.3518 48.441 39.3732C48.441 39.3947 48.5144 39.428 48.6042 39.4472C48.6939 39.4665 48.7673 39.503 48.7673 39.5279C48.7673 39.5529 48.8212 39.5904 48.8871 39.6109C48.953 39.6314 49.0405 39.681 49.0812 39.7211C49.1224 39.7614 49.1876 39.7941 49.2268 39.7941C49.2659 39.7941 49.327 39.8287 49.3625 39.871C49.3984 39.9129 49.4973 39.9626 49.5825 39.9808C49.6676 39.9991 49.7508 40.0487 49.7672 40.091C49.7838 40.1333 49.8347 40.1679 49.8804 40.1679C49.9264 40.1679 49.9639 40.19 49.9639 40.2169C49.9639 40.2441 50.0373 40.2819 50.1271 40.3014C50.2168 40.3207 50.2902 40.3578 50.2902 40.3841C50.2902 40.4103 50.4309 40.4965 50.6029 40.5756C50.7748 40.6547 50.9331 40.7457 50.9543 40.7774C51.0094 40.8591 51.9296 40.8527 52.0318 40.7697C52.3274 40.5298 52.408 40.4395 52.4407 40.312C52.4609 40.2326 52.4991 40.1679 52.5258 40.1679C52.5526 40.1679 52.5744 39.9997 52.5744 39.7941C52.5744 39.5888 52.5526 39.4207 52.5258 39.4207C52.4991 39.4207 52.4622 39.3614 52.4439 39.2893C52.4054 39.1398 52.1845 38.8867 52.0922 38.8867C52.0582 38.8867 52.0305 38.8653 52.0305 38.839C52.0305 38.8131 51.9695 38.7766 51.8944 38.758C51.8197 38.7397 51.7587 38.7029 51.7587 38.6763C51.7587 38.65 51.6872 38.6129 51.6001 38.594C51.5126 38.5754 51.4288 38.5277 51.4134 38.4883C51.3978 38.4486 51.31 38.4002 51.2183 38.3804C51.1266 38.3605 51.0515 38.3224 51.0515 38.2952C51.0515 38.2683 51.014 38.2462 50.9683 38.2462C50.9223 38.2462 50.8714 38.2116 50.8551 38.1693C50.8385 38.127 50.7536 38.077 50.6662 38.0585C50.579 38.0396 50.5076 38.0021 50.5076 37.9749C50.5076 37.948 50.474 37.9259 50.4328 37.9259C50.3914 37.9259 50.3284 37.891 50.2925 37.8487C50.2566 37.8061 50.1379 37.7424 50.0289 37.7071C49.9199 37.6719 49.8004 37.6165 49.7632 37.5841C49.5958 37.4387 49.54 37.4028 49.4294 37.3683C49.3645 37.3481 49.3113 37.3109 49.3113 37.2859C49.3113 37.261 49.2379 37.2244 49.1481 37.2052C49.0584 37.186 48.985 37.1517 48.985 37.1296C48.985 37.0829 48.4423 36.8049 48.3509 36.8049C48.317 36.8049 48.2752 36.769 48.2583 36.7248C48.241 36.6806 48.1894 36.6447 48.1437 36.6447C48.0977 36.6447 48.0602 36.6226 48.0602 36.5957C48.0602 36.5685 47.9891 36.531 47.9016 36.5121C47.8145 36.4936 47.7296 36.4436 47.713 36.4013C47.6967 36.359 47.6455 36.3244 47.5998 36.3244C47.5541 36.3244 47.5166 36.3052 47.5166 36.2818C47.5166 36.2585 47.4307 36.2088 47.326 36.1717C47.2212 36.1345 47.1357 36.0836 47.1357 36.0583C47.1357 36.0333 47.0623 35.9968 46.9726 35.9776C46.8829 35.958 46.8094 35.9218 46.8094 35.8969C46.8094 35.8716 46.7556 35.8344 46.6897 35.8139C46.6238 35.7934 46.5363 35.7438 46.4955 35.7034C46.4544 35.6634 46.3859 35.6304 46.3431 35.6304C46.3004 35.6304 46.2655 35.6124 46.2655 35.5903C46.2655 35.5686 46.1186 35.4802 45.9392 35.3943C45.7597 35.3085 45.6128 35.2204 45.6128 35.1983C45.6128 35.1765 45.5417 35.1432 45.4542 35.1243C45.3671 35.1054 45.2823 35.0555 45.2656 35.0132C45.2493 34.9712 45.1981 34.9366 45.1524 34.9366C45.1067 34.9366 45.0692 34.9145 45.0692 34.8873C45.0692 34.8604 44.9958 34.8223 44.906 34.8031C44.8163 34.7839 44.7429 34.7474 44.7429 34.7224C44.7429 34.6971 44.6571 34.6461 44.5523 34.609C44.4476 34.5718 44.3621 34.5222 44.3621 34.4988C44.3621 34.4754 44.3291 34.4562 44.289 34.4562C44.2485 34.4562 44.1591 34.4082 44.0902 34.3492C44.0211 34.2906 43.9317 34.2426 43.8915 34.2426C43.8511 34.2426 43.8181 34.2202 43.8181 34.1929C43.8181 34.1654 43.7633 34.1263 43.6957 34.1061C43.6285 34.0856 43.4719 34.0024 43.3476 33.9207C43.2232 33.8393 43.064 33.7548 42.9938 33.7333C42.9237 33.7119 42.8542 33.6795 42.8392 33.6616C42.8029 33.6177 42.6254 33.5094 42.4587 33.4294C42.3839 33.3932 42.3102 33.3515 42.2955 33.3362C42.2417 33.2814 41.9389 33.1152 41.7923 33.0604C41.7101 33.0297 41.6429 32.9826 41.6429 32.9563C41.6429 32.9297 41.608 32.9079 41.5652 32.9079C41.5225 32.9079 41.4549 32.8766 41.4154 32.8378C41.2445 32.6703 40.601 32.5909 40.1301 32.6793ZM38.4339 36.0074C38.4339 36.0384 38.4036 36.0464 38.366 36.0253C38.3285 36.0045 38.3171 36.0077 38.3402 36.0327C38.412 36.1099 38.5429 36.1057 38.5429 36.0263C38.5429 35.9846 38.5184 35.9507 38.4884 35.9507C38.4584 35.9507 38.4339 35.9763 38.4339 36.0074ZM54.2331 41.3248C54.1734 41.3404 54.0876 41.3818 54.0429 41.4167C53.9978 41.4516 53.8448 41.5349 53.7028 41.6018C53.5609 41.6687 53.4444 41.7437 53.4444 41.7687C53.4444 41.7937 53.371 41.8302 53.2812 41.8494C53.1915 41.8686 53.1181 41.9067 53.1181 41.9336C53.1181 41.9608 53.0806 41.9829 53.0349 41.9829C52.9892 41.9829 52.938 42.0175 52.9216 42.0595C52.905 42.1018 52.8202 42.1517 52.733 42.1706C52.6456 42.1895 52.5744 42.2254 52.5744 42.2504C52.5744 42.2757 52.4886 42.3266 52.3839 42.3638C52.2791 42.4009 52.1936 42.4506 52.1936 42.4739C52.1936 42.4973 52.1587 42.5165 52.116 42.5165C52.0732 42.5165 52.0054 42.5466 51.9655 42.5835C51.9254 42.62 51.7766 42.7097 51.6353 42.7824C51.4937 42.8551 51.3779 42.9307 51.3779 42.9502C51.3779 42.9697 51.3119 43.0018 51.2317 43.0216C51.1511 43.0415 51.0189 43.1039 50.9377 43.1606C50.8564 43.2176 50.7631 43.2641 50.7304 43.2641C50.6978 43.2641 50.6707 43.2827 50.6707 43.3057C50.6707 43.3285 50.6035 43.3759 50.5213 43.4105C50.3731 43.4729 50.1793 43.585 50.1271 43.6388C50.1121 43.6539 50.0387 43.6962 49.9639 43.7323C49.8892 43.7685 49.681 43.8826 49.5015 43.9857C49.3221 44.0888 49.1142 44.2025 49.0391 44.2381C48.9644 44.2736 48.8838 44.3332 48.8597 44.3704C48.8359 44.4078 48.7712 44.4383 48.7161 44.4383C48.6609 44.4383 48.6012 44.4761 48.5833 44.5219C48.5653 44.5677 48.5317 44.5939 48.5089 44.5798C48.4857 44.5661 48.4198 44.5885 48.362 44.6298C48.3043 44.6714 48.2876 44.7054 48.3255 44.7054C48.3679 44.7054 48.3816 44.7438 48.3614 44.8059C48.3434 44.8614 48.3575 44.9754 48.3921 45.0596C48.5552 45.4539 48.7941 45.9221 48.9106 46.0762C48.9814 46.1697 49.0391 46.2677 49.0391 46.2943C49.0391 46.3459 49.3423 46.6271 49.3981 46.6271C49.4164 46.6271 49.4164 46.5883 49.3981 46.5409C49.3733 46.4775 49.3877 46.4637 49.4526 46.4881C49.5312 46.5179 49.8921 46.3478 49.9643 46.2469C49.9796 46.2258 50.0612 46.1915 50.1454 46.1707C50.2299 46.1499 50.3111 46.1015 50.3261 46.0627C50.3411 46.0243 50.425 45.9776 50.5121 45.9587C50.5996 45.9401 50.6707 45.9023 50.6707 45.8754C50.6707 45.8485 50.7082 45.8264 50.7543 45.8264C50.7999 45.8264 50.8508 45.7918 50.8675 45.7495C50.8838 45.7072 50.969 45.6573 51.0561 45.6384C51.1432 45.6198 51.2147 45.582 51.2147 45.5551C51.2147 45.5282 51.2522 45.5061 51.2979 45.5061C51.3439 45.5061 51.3945 45.4721 51.4108 45.4308C51.4268 45.3892 51.5058 45.3392 51.5857 45.3197C51.666 45.2998 51.8693 45.2018 52.0377 45.1012C52.206 45.001 52.3712 44.9187 52.4048 44.9187C52.438 44.9187 52.4655 44.8953 52.4655 44.8665C52.4655 44.8377 52.5268 44.7989 52.6015 44.7806C52.6763 44.7621 52.7376 44.7316 52.7376 44.7124C52.7376 44.6935 52.8169 44.6439 52.9141 44.6026C53.0114 44.5609 53.1031 44.5126 53.1181 44.4949C53.1331 44.4773 53.2065 44.4335 53.2812 44.3976C53.4555 44.314 53.6271 44.2083 53.6627 44.1625C53.6777 44.1426 53.7557 44.1106 53.8353 44.0907C53.9153 44.0712 53.9936 44.0212 54.0099 43.9799C54.0262 43.9383 54.0768 43.9047 54.1225 43.9047C54.1685 43.9047 54.206 43.8832 54.206 43.8569C54.206 43.8307 54.2713 43.7932 54.3512 43.7737C54.4312 43.7538 54.5568 43.6913 54.6306 43.6343C54.7043 43.5773 54.798 43.5309 54.8388 43.5309C54.8795 43.5309 54.9128 43.5094 54.9128 43.4832C54.9128 43.4572 54.9742 43.4207 55.0489 43.4021C55.1236 43.3839 55.185 43.3451 55.185 43.3163C55.185 43.2875 55.2114 43.2641 55.244 43.2641C55.3256 43.2641 55.6199 42.9854 55.6199 42.9082C55.6199 42.874 55.6506 42.8359 55.6878 42.8234C55.7717 42.7961 55.7841 41.8917 55.7015 41.834C55.6715 41.8132 55.6124 41.7302 55.5704 41.6502C55.5283 41.5698 55.4428 41.4884 55.3801 41.4695C55.3175 41.4503 55.2493 41.408 55.228 41.3757C55.1876 41.3139 54.4234 41.2748 54.2331 41.3248ZM47.9923 44.7954C47.9401 44.8088 47.897 44.8431 47.897 44.8713C47.897 44.9008 47.9489 44.8959 48.0194 44.8601C48.2234 44.756 48.2159 44.738 47.9923 44.7954Z" fill="#808080"/>
<path fill-rule="evenodd" clip-rule="evenodd" d="M47.9784 44.8687C47.6273 45.0653 47.4449 45.1495 47.394 45.139C47.3715 45.1342 47.3532 45.1537 47.3532 45.1822C47.3532 45.2107 47.2246 45.2966 47.0677 45.3731C46.6986 45.5531 46.4627 45.6825 46.4284 45.7238C46.4137 45.7418 46.3462 45.7735 46.2789 45.794C46.2117 45.8145 46.1566 45.8539 46.1566 45.8814C46.1566 45.9086 46.1308 45.931 46.0991 45.931C46.0675 45.931 45.813 46.063 45.5336 46.2247C45.254 46.3862 44.9985 46.5181 44.9655 46.5181C44.9326 46.5181 44.9058 46.5421 44.9058 46.5716C44.9058 46.6011 44.8683 46.6251 44.8223 46.6251C44.7766 46.6251 44.726 46.6587 44.7097 46.7004C44.6934 46.7417 44.6164 46.7913 44.5381 46.8105C44.4597 46.8298 44.3292 46.8922 44.248 46.9489C44.1667 47.0056 44.0734 47.052 44.0408 47.052C44.0081 47.052 43.981 47.0735 43.981 47.0998C43.981 47.1257 43.9141 47.1638 43.8322 47.184C43.7503 47.2042 43.6707 47.2381 43.6554 47.2596C43.61 47.3236 42.9659 47.6926 42.9 47.6926C42.8663 47.6926 42.8389 47.7147 42.8389 47.7419C42.8389 47.7688 42.7534 47.8188 42.6487 47.8528C42.5439 47.8867 42.4584 47.9338 42.4584 47.9572C42.4584 47.9806 42.3896 48.028 42.3054 48.0622C42.1475 48.1263 41.9252 48.4927 42.0434 48.4943C42.0773 48.4946 42.0682 48.5183 42.0231 48.5468C41.9762 48.5766 41.9686 48.5987 42.0052 48.5993C42.0404 48.5997 42.0851 48.6721 42.1047 48.7601C42.1246 48.8482 42.1612 48.9203 42.1863 48.9203C42.2114 48.9203 42.2483 48.9923 42.2679 49.0804C42.2878 49.1685 42.3234 49.2406 42.3472 49.2406C42.3713 49.2406 42.4232 49.3187 42.463 49.4142C42.5028 49.5096 42.5671 49.6195 42.6056 49.6582C42.6441 49.697 42.6758 49.7629 42.6758 49.8049C42.6758 49.8469 42.7002 49.8811 42.7303 49.8811C42.7603 49.8811 42.7848 49.918 42.7848 49.9631C42.7848 50.008 42.8213 50.0586 42.8663 50.0755C42.911 50.0922 42.9479 50.1402 42.9479 50.1822C42.9479 50.2242 42.9822 50.2712 43.0246 50.2873C43.0667 50.303 43.116 50.3744 43.1342 50.4455C43.1525 50.5169 43.1927 50.5752 43.2237 50.5752C43.2547 50.5752 43.3043 50.6437 43.334 50.7276C43.3636 50.8116 43.4462 50.9109 43.5173 50.948C43.5885 50.9855 43.6612 51.0729 43.6789 51.1424C43.6968 51.2122 43.7458 51.2693 43.7879 51.2693C43.83 51.2693 43.8737 51.3112 43.8851 51.3625C43.8965 51.414 43.9197 51.0486 43.9363 50.5509C43.9569 49.9394 43.9869 49.639 44.0293 49.6252C44.0636 49.614 44.1223 49.5769 44.1599 49.5429C44.2196 49.4885 44.416 49.3805 44.9737 49.0958C45.0559 49.0538 45.1231 48.9997 45.1231 48.9757C45.1231 48.9517 45.1904 48.9155 45.2723 48.8953C45.3542 48.8751 45.4338 48.8424 45.4491 48.8226C45.4915 48.7681 45.6772 48.6567 45.844 48.5865C45.9262 48.5516 45.9934 48.5045 45.9934 48.4815C45.9934 48.4587 46.0267 48.4398 46.0678 48.4398C46.1086 48.4398 46.2023 48.3934 46.276 48.3364C46.3498 48.2797 46.4754 48.2169 46.555 48.1974C46.635 48.1775 46.7005 48.1442 46.7005 48.1234C46.7005 48.1023 46.8115 48.027 46.9469 47.9556C47.2918 47.7743 47.456 47.6824 47.7066 47.5286C47.8263 47.4553 47.9853 47.3662 48.06 47.3307C48.2199 47.2551 48.4023 47.1449 48.4408 47.101C48.4558 47.0841 48.5844 47.0136 48.7263 46.9447C48.8683 46.8759 48.9848 46.7984 48.9848 46.7724C48.9848 46.7465 49.0063 46.7385 49.0327 46.7548C49.0595 46.7708 49.111 46.7484 49.1479 46.7052C49.1845 46.6616 49.2363 46.6392 49.2628 46.6555C49.3747 46.7234 49.2993 46.5514 49.175 46.4554C49.1003 46.3977 49.0389 46.3266 49.0389 46.2971C49.0389 46.268 48.9812 46.1677 48.9104 46.0742C48.7939 45.9202 48.555 45.4519 48.3918 45.0576C48.3573 44.9734 48.3432 44.8594 48.3612 44.804C48.4055 44.6672 48.3096 44.6832 47.9784 44.8687ZM54.26 54.6896C53.9751 54.8417 53.3584 55.1937 53.3355 55.2177C53.3205 55.2331 53.2595 55.2725 53.1994 55.3052C52.9488 55.4413 53.0435 55.5134 53.4563 55.5006C54.4489 55.4695 55.4765 55.3676 55.5528 55.2927C55.8968 54.9551 54.7583 54.4238 54.26 54.6896Z" fill="#808080"/>
</svg>
