<svg width="182" height="96" viewBox="0 0 182 96" fill="none" xmlns="http://www.w3.org/2000/svg">
<g clip-path="url(#clip0_5056_41127)">
<path d="M54.882 38.5685C55.8219 51.3046 47.6382 57.3244 40.3017 57.9663C33.481 58.5631 27.0606 54.3704 26.4974 47.9286C26.0328 42.6067 29.3208 40.3409 31.9041 40.1151C34.5611 39.8821 36.7939 41.7151 36.9876 43.9345C37.1741 46.0683 35.8433 47.0395 34.9176 47.1203C34.1856 47.1845 33.2647 46.7399 33.1815 45.7853C33.1102 44.9651 33.4215 44.8534 33.3455 43.982C33.21 42.4307 31.8578 42.25 31.1175 42.3142C30.2215 42.3927 28.5959 43.4388 28.8241 46.0445C29.0534 48.6728 31.5726 50.7495 34.8748 50.4606C38.4385 50.1492 40.9196 47.3735 41.1062 43.4804C41.1045 43.2742 41.1479 43.0701 41.2333 42.8824L41.2345 42.8777C41.2729 42.7961 41.3178 42.7178 41.3688 42.6435C41.4449 42.5294 41.5423 42.4034 41.6683 42.2655C41.6694 42.2619 41.6694 42.2619 41.6718 42.2619C41.7633 42.1585 41.8738 42.0468 41.9986 41.9267C43.5553 40.4574 49.1616 36.9923 54.4637 38.0895C54.5758 38.1135 54.677 38.1731 54.7524 38.2595C54.8278 38.3458 54.8733 38.4542 54.882 38.5685Z" fill="#808080"/>
<path d="M68.5397 44.0345H66.1156C66.069 44.0345 66.0312 44.0723 66.0312 44.1189V56.2285C66.0312 56.2752 66.069 56.3129 66.1156 56.3129H68.5397C68.5863 56.3129 68.6241 56.2752 68.6241 56.2285V44.1189C68.6241 44.0723 68.5863 44.0345 68.5397 44.0345Z" fill="#808080"/>
<path d="M103.067 39.6986V41.6077C103.067 41.6294 103.058 41.65 103.042 41.6651C103.027 41.6801 103.006 41.6886 102.984 41.6886H98.0695C98.0476 41.6883 98.0265 41.6966 98.0107 41.7117C97.995 41.7268 97.9858 41.7476 97.9851 41.7694V56.2363C97.9848 56.2473 97.9824 56.258 97.9779 56.268C97.9734 56.278 97.967 56.287 97.9591 56.2945C97.9511 56.302 97.9418 56.3079 97.9316 56.3118C97.9214 56.3157 97.9105 56.3175 97.8996 56.3172H95.3661C95.3445 56.3175 95.3235 56.3094 95.3078 56.2945C95.292 56.2796 95.2827 56.2592 95.2818 56.2375V41.7694C95.2812 41.7476 95.272 41.7268 95.2562 41.7117C95.2404 41.6966 95.2193 41.6883 95.1974 41.6886H89.8394C89.8178 41.6886 89.797 41.6801 89.7814 41.6651C89.7659 41.65 89.7569 41.6294 89.7562 41.6077V39.6986C89.7569 39.677 89.7659 39.6564 89.7814 39.6413C89.797 39.6262 89.8178 39.6178 89.8394 39.6178H102.976C103 39.6166 103.023 39.6237 103.04 39.6392C103.049 39.6466 103.055 39.6557 103.06 39.666C103.065 39.6762 103.067 39.6874 103.067 39.6986ZM90.5156 48.4834L90.5417 48.4882V56.2363C90.5411 56.258 90.532 56.2786 90.5165 56.2937C90.501 56.3087 90.4802 56.3172 90.4585 56.3172H88.0926C88.0817 56.3175 88.0708 56.3157 88.0606 56.3118C88.0504 56.3079 88.0411 56.302 88.0331 56.2945C88.0252 56.287 88.0188 56.278 88.0143 56.268C88.0098 56.258 88.0074 56.2473 88.0071 56.2363V50.2938C88.0071 50.0418 88.0118 49.7886 88.0118 49.5402C88.0118 49.4118 88.0118 49.2882 88.0071 49.1634C88.0071 48.8032 87.9833 48.443 87.9358 48.084C87.7575 46.793 87.2311 45.8563 85.3596 45.8813C84.818 45.8987 84.2879 46.042 83.8112 46.2997C83.2563 46.623 82.6408 47.0724 82.295 47.6988C82.35 48.1118 82.3782 48.528 82.3794 48.9446V48.9577C82.3794 49.0267 82.3841 49.0956 82.3841 49.1598V56.4063C82.3835 56.4282 82.3743 56.4489 82.3585 56.4641C82.3427 56.4792 82.3216 56.4875 82.2997 56.4872H79.9909C79.969 56.4875 79.9479 56.4792 79.9321 56.4641C79.9164 56.4489 79.9072 56.4282 79.9065 56.4063V50.2867C79.9065 48.9375 79.9778 47.5324 79.31 46.6623C78.906 46.1404 78.332 45.8955 77.2115 45.8955C76.754 45.8955 76.1575 46.0572 75.7 46.2759C75.3863 46.4221 75.094 46.6064 74.8302 46.8251C74.4535 47.158 74.179 47.5871 74.179 48.0757V56.2399C74.1784 56.2616 74.1693 56.2821 74.1538 56.2972C74.1383 56.3123 74.1175 56.3208 74.0958 56.3207H71.7394C71.7178 56.3208 71.697 56.3123 71.6814 56.2972C71.6659 56.2821 71.6569 56.2616 71.6562 56.2399V44.1956C71.6569 44.174 71.6659 44.1534 71.6814 44.1383C71.697 44.1232 71.7178 44.1148 71.7394 44.1148H72.7316C73.1333 44.1148 73.4862 44.3668 73.5991 44.7353L73.7488 45.2227C73.7488 45.256 73.7702 45.2845 73.8011 45.2964C73.8332 45.3083 73.8688 45.3012 73.8926 45.2798C74.9419 44.2895 76.4439 43.8176 77.9007 43.8176C79.4122 43.8176 80.3902 44.2729 81.0259 44.9838L80.9593 44.8982C81.1542 45.1193 81.3242 45.3582 81.4656 45.6126C81.4723 45.625 81.482 45.6356 81.4938 45.6434C81.5055 45.6512 81.519 45.656 81.5331 45.6574C81.5471 45.6588 81.5613 45.6568 81.5744 45.6514C81.5875 45.6461 81.5991 45.6377 81.6082 45.6269C82.5647 44.4785 84.4529 43.8188 85.9727 43.8188C89.4354 43.8188 90.5239 46.1749 90.5239 48.4786L90.5144 48.4834H90.5156ZM129.22 56.3374H126.649C126.636 56.3374 126.623 56.3344 126.611 56.3286C126.6 56.3228 126.589 56.3145 126.581 56.3041C125.612 55.0179 124.892 53.7745 124.573 53.3822L124.515 53.3109C123.986 52.6547 122.899 51.2734 121.406 51.013C121.393 51.011 121.379 51.0121 121.367 51.0162C121.354 51.0204 121.342 51.0274 121.333 51.0368L120.233 52.1709C120.226 52.1781 120.22 52.1868 120.216 52.1964C120.212 52.206 120.21 52.2163 120.21 52.2267V56.2352C120.209 56.2568 120.199 56.2772 120.184 56.2921C120.168 56.307 120.147 56.3151 120.125 56.3148H117.732C117.711 56.3148 117.69 56.3065 117.674 56.2917C117.659 56.2769 117.65 56.2566 117.649 56.2352V39.424C117.65 39.4024 117.659 39.3818 117.674 39.3667C117.69 39.3516 117.71 39.3432 117.732 39.3432H120.125C120.173 39.3432 120.21 39.3789 120.21 39.424V49.1051C120.211 49.1372 120.231 49.1645 120.262 49.1764C120.293 49.1883 120.327 49.1836 120.352 49.1622L125.616 43.883C125.632 43.8678 125.654 43.8593 125.676 43.8592H128.499C128.532 43.8604 128.561 43.8794 128.574 43.9091C128.58 43.9233 128.582 43.939 128.579 43.9543C128.576 43.9695 128.569 43.9836 128.559 43.9947L123.182 49.3559C123.173 49.365 123.166 49.3761 123.162 49.3883C123.158 49.4006 123.158 49.4135 123.16 49.4261C123.165 49.4498 123.182 49.4724 123.205 49.4831C124.755 50.1952 125.83 51.5278 126.331 52.1471L126.386 52.2172C126.814 52.745 128.24 54.817 129.294 56.2173C129.301 56.2293 129.305 56.2431 129.305 56.2571C129.305 56.2712 129.301 56.2849 129.294 56.297C129.287 56.3091 129.276 56.3192 129.264 56.3263C129.251 56.3333 129.237 56.3372 129.223 56.3374H129.22Z" fill="#808080"/>
<path d="M67.333 42.0754C68.1986 42.0754 68.9003 41.4048 68.9003 40.5776C68.9003 39.7504 68.1986 39.0798 67.333 39.0798C66.4674 39.0798 65.7656 39.7504 65.7656 40.5776C65.7656 41.4048 66.4674 42.0754 67.333 42.0754Z" fill="#808080"/>
<path d="M108.907 43.5045C105.168 43.5045 102.719 45.8856 102.719 49.9475C102.719 54.0249 105.179 56.3916 108.907 56.3916C112.635 56.3916 115.094 54.0237 115.094 49.9487C115.094 45.8927 112.626 43.5045 108.907 43.5045ZM108.907 54.3732C106.381 54.3732 105.169 52.7172 105.169 49.8262C105.169 46.9519 106.381 45.5206 108.907 45.5206C111.434 45.5206 112.637 47.0707 112.637 49.9451C112.637 52.8207 111.425 54.3732 108.907 54.3732ZM136.63 54.5336C135.278 54.7155 133.934 54.1532 133.156 53.081C132.74 52.5461 132.52 51.9255 132.371 51.1113C132.37 51.1008 132.37 51.0902 132.373 51.08C132.376 51.0698 132.38 51.0602 132.387 51.0518C132.4 51.0345 132.42 51.023 132.441 51.0197L139.272 50.0985C141.144 49.8346 141.927 48.2167 141.22 46.6559C140.575 45.3536 139.461 44.3441 138.102 43.8302C136.249 43.1123 133.754 43.5319 132.425 44.591C130.651 46.0056 130.045 47.7067 129.951 49.5148C129.939 49.7169 129.934 49.919 129.934 50.121C129.934 50.5395 129.97 50.9567 130.043 51.3692C130.512 54.0795 132.502 56.5688 135.836 56.5806C139.61 56.5925 141.393 54.4005 141.698 52.7577C141.7 52.7453 141.699 52.7327 141.694 52.7209C141.69 52.7091 141.683 52.6985 141.674 52.6899C141.665 52.6808 141.654 52.674 141.641 52.6699C141.629 52.6658 141.616 52.6645 141.603 52.6661L139.25 53.0144C139.238 53.0167 139.227 53.0215 139.216 53.0285C139.206 53.0354 139.197 53.0444 139.191 53.0548C138.544 53.9523 137.792 54.3625 136.63 54.5336ZM133.101 46.8496C133.428 46.4495 133.834 46.1212 134.294 45.8852C134.753 45.6492 135.257 45.5105 135.772 45.4778C136.836 45.3922 137.697 45.5361 138.453 46.2505C138.724 46.5049 138.953 46.7973 139.135 47.1159C139.408 47.5867 139.118 48.2714 138.499 48.3558L132.277 49.1903C132.265 49.1922 132.252 49.1913 132.239 49.1876C132.227 49.1839 132.216 49.1775 132.206 49.1689C132.197 49.1605 132.191 49.1503 132.187 49.139C132.182 49.1276 132.181 49.1155 132.182 49.1035C132.289 48.1834 132.577 47.5058 133.101 46.8496ZM154.896 48.7064V56.23C154.896 56.2516 154.887 56.2722 154.871 56.2873C154.856 56.3024 154.835 56.3108 154.813 56.3108H152.468C152.457 56.3111 152.446 56.3093 152.436 56.3054C152.425 56.3015 152.416 56.2956 152.408 56.2881C152.4 56.2806 152.394 56.2716 152.389 56.2616C152.385 56.2517 152.382 56.2409 152.382 56.23V49.976C152.382 49.976 152.412 48.9204 152.323 47.9361C152.258 47.2443 152.018 46.5739 151.467 46.1376C150.683 45.5147 149.573 45.6526 149.573 45.6526C148.196 45.7952 147.009 46.6214 146.267 47.4547L146.224 47.5034L146.267 47.4856V56.2276C146.266 56.2495 146.257 56.2702 146.241 56.2853C146.226 56.3004 146.205 56.3087 146.183 56.3084H143.83C143.819 56.3087 143.808 56.3069 143.798 56.303C143.788 56.2991 143.778 56.2932 143.77 56.2857C143.762 56.2782 143.756 56.2692 143.752 56.2593C143.747 56.2493 143.745 56.2385 143.744 56.2276V43.9515C143.745 43.9296 143.754 43.9089 143.77 43.8938C143.786 43.8786 143.807 43.8703 143.829 43.8707H145.76C145.807 43.8707 145.845 43.9063 145.845 43.9515V45.1545C145.845 45.1866 145.867 45.2139 145.899 45.2258C145.93 45.2377 145.964 45.2318 145.988 45.2092C146.985 44.1738 148.49 43.5509 150.068 43.5509C151.376 43.5533 154.895 43.6056 154.895 48.7064H154.896Z" fill="#808080"/>
</g>
<defs>
<clipPath id="clip0_5056_41127">
<rect width="129.523" height="21.3973" fill="white" transform="translate(26.4688 37.2414)"/>
</clipPath>
</defs>
</svg>
