<svg width="182" height="96" viewBox="0 0 182 96" fill="none" xmlns="http://www.w3.org/2000/svg">
<path d="M44.5842 51.9573C44.5842 52.0037 44.5905 52.0413 44.5911 52.079C44.5911 52.1259 44.5911 52.1734 44.5911 52.2204H38.7143V51.9631L39.2932 51.8999C39.3217 51.8972 39.3501 51.8929 39.3782 51.8872C39.9106 51.7771 40.1129 51.5656 40.1083 51.0181C40.1049 50.5134 40.0554 50.007 40.006 49.5035C39.9117 48.5434 39.8036 47.5845 39.7007 46.6255C39.5911 45.6042 39.4806 44.5827 39.3691 43.561C39.3265 43.163 39.2851 42.7649 39.242 42.3668C39.2395 42.3261 39.2228 42.2875 39.1949 42.2579C39.0954 42.536 38.9954 42.8141 38.8971 43.0934C37.8623 46.026 36.8286 48.9588 35.7957 51.8918C35.7624 51.9874 35.7348 52.0854 35.6951 52.1781C35.6796 52.2146 35.6376 52.2644 35.6072 52.2638C35.5767 52.2632 35.5301 52.2157 35.5158 52.1792C35.3479 51.7383 35.1846 51.2956 35.0197 50.8535L31.8188 42.2602C31.8086 42.2321 31.788 42.2091 31.7613 42.1959C31.7441 42.3396 31.7246 42.4827 31.709 42.627C31.5852 43.7588 31.4624 44.8904 31.3405 46.0218C31.2307 47.0381 31.1187 48.055 31.0158 49.0718C30.9583 49.6379 30.9163 50.2052 30.8715 50.7724C30.8653 50.8639 30.8696 50.9559 30.8841 51.0465C30.9606 51.5471 31.2083 51.7754 31.7976 51.8623C32.1281 51.9115 32.4627 51.9324 32.8064 51.9666V52.2198H28.4375V51.9764C28.5737 51.9602 28.7106 51.9451 28.8462 51.9283C29.4694 51.8495 29.8655 51.4949 30.0086 50.8889C30.1144 50.4404 30.1782 49.9803 30.2385 49.5226C30.3685 48.577 30.4852 47.6291 30.6059 46.6835C30.7346 45.6741 30.8692 44.6654 30.987 43.6549C31.0445 43.1676 31.0732 42.6762 31.102 42.1855C31.1057 42.0552 31.0922 41.9251 31.0617 41.7984C30.9594 41.3059 30.6593 41.0284 30.1368 40.9432C29.9247 40.9084 29.7097 40.894 29.4832 40.869V40.6095C29.7051 40.6095 29.9241 40.6095 30.1431 40.6095C31.4649 40.6029 32.7871 40.5952 34.1096 40.5863C34.2034 40.5863 34.2401 40.6164 34.2712 40.7022C35.0599 42.9426 35.8507 45.1805 36.6436 47.4159L36.7276 47.6476C36.7563 47.5775 36.7759 47.5364 36.7902 47.4929C37.5663 45.2293 38.3395 42.9648 39.1098 40.6993C39.1357 40.6222 39.1633 40.5834 39.257 40.5834C40.7175 40.5915 42.178 40.5969 43.6385 40.5996H43.7736V40.8673C43.5558 40.8905 43.3367 40.9027 43.1217 40.9374C42.4767 41.0411 42.1525 41.3812 42.1485 42.0383C42.1529 42.5926 42.1851 43.1462 42.2451 43.6972C42.3336 44.619 42.4434 45.5386 42.5446 46.4592C42.6458 47.3799 42.7441 48.3006 42.8475 49.2207C42.905 49.7242 42.9694 50.226 43.0315 50.7272C43.0378 50.7794 43.0499 50.8315 43.0614 50.8831C43.212 51.5679 43.5379 51.8559 44.2358 51.9208C44.3508 51.9341 44.464 51.9457 44.5842 51.9573Z" fill="#808080"/>
<path d="M125.416 52.1398C125.412 52.1978 125.408 52.2401 125.408 52.2818C125.408 53.3149 125.408 54.348 125.413 55.3805C125.414 55.5253 125.425 55.6699 125.444 55.8133C125.479 56.077 125.582 56.1662 125.852 56.1865C126.104 56.205 126.356 56.2247 126.618 56.2444V56.5115H122.321V56.2797L122.508 56.2386C122.738 56.1865 122.838 56.0978 122.853 55.8608C122.88 55.4958 122.892 55.1284 122.893 54.7599C122.893 52.0906 122.893 49.4212 122.897 46.7518C122.897 46.4123 122.832 46.1052 122.64 45.8248C122.535 45.6701 122.452 45.5003 122.357 45.3381C122.307 45.2512 122.32 45.2025 122.424 45.1706C123.41 44.8618 124.376 44.4894 125.314 44.0558C125.437 43.9979 125.47 44.0234 125.464 44.1584C125.445 44.5535 125.426 44.9487 125.406 45.3439C125.406 45.3763 125.406 45.4093 125.406 45.4766C125.484 45.4122 125.541 45.3659 125.597 45.3184C126.005 44.9661 126.427 44.6329 126.915 44.3971C128.582 43.59 130.436 44.3183 131.023 46.1C131.637 47.9669 131.347 49.7266 129.93 51.1409C128.723 52.3484 127.237 52.6949 125.585 52.1885L125.416 52.1398ZM125.408 47.8701C125.408 48.4397 125.408 49.0092 125.408 49.5788C125.408 50.0771 125.438 50.5725 125.607 51.0476C125.876 51.8049 126.598 52.1114 127.326 51.776C127.735 51.5871 127.992 51.2516 128.182 50.8558C128.419 50.3622 128.521 49.8332 128.563 49.2914C128.62 48.5747 128.597 47.8632 128.344 47.1789C128.114 46.5519 127.748 46.0374 127.131 45.7408C126.638 45.5032 126.121 45.5223 125.597 45.5878C125.435 45.6081 125.402 45.6747 125.404 45.8277C125.412 46.5091 125.408 47.1893 125.408 47.8701Z" fill="#808080"/>
<path d="M113.133 44.3397C112.921 43.8965 112.73 43.455 112.501 43.032C112.198 42.4665 111.815 41.9601 111.282 41.5904C110.106 40.7734 108.383 40.9154 107.304 41.9056C106.566 42.583 106.159 43.4399 105.974 44.4104C105.725 45.7089 105.794 46.9871 106.298 48.2189C106.761 49.3528 107.515 50.2376 108.69 50.6293C110.197 51.1316 111.603 50.9306 112.791 49.7833C113.108 49.478 113.344 49.1072 113.547 48.7161C113.572 48.6691 113.597 48.6239 113.628 48.5677L113.807 48.6448C113.681 49.0063 113.559 49.3552 113.438 49.704C113.338 49.9908 113.243 50.2787 113.132 50.5615C113.094 50.6634 113.033 50.7554 112.955 50.8309C111.914 51.7829 110.682 52.294 109.284 52.3901C107.721 52.4973 106.278 52.1242 105.007 51.185C103.71 50.2254 102.98 48.92 102.819 47.3069C102.646 45.5959 103.064 44.0495 104.184 42.7295C105.118 41.6287 106.318 40.9583 107.707 40.6286C109.472 40.2103 111.166 40.4246 112.783 41.2509C112.811 41.2688 112.835 41.2924 112.854 41.3202C112.873 41.3481 112.885 41.3795 112.891 41.4125C112.997 42.1571 113.094 42.9034 113.193 43.6491C113.213 43.802 113.223 43.9573 113.256 44.1074C113.286 44.2378 113.248 44.3102 113.133 44.3397Z" fill="#808080"/>
<path d="M98.6211 51.988V52.2198H94.9552V51.988C95.0219 51.9741 95.0903 51.9585 95.1593 51.9451C95.3582 51.9052 95.4732 51.7823 95.491 51.5813C95.5111 51.3605 95.5266 51.1386 95.5272 50.9173C95.5301 49.8842 95.5312 48.8511 95.5232 47.818C95.5197 47.3289 95.4599 46.8463 95.2737 46.388C95.0138 45.7506 94.5264 45.4655 93.8475 45.5565C93.3876 45.6185 93.3876 45.6185 93.3876 46.0844C93.3876 47.7689 93.3887 49.4537 93.391 51.1386C93.3923 51.2832 93.4029 51.4276 93.4226 51.5708C93.4519 51.8026 93.5497 51.9 93.7744 51.9492L93.9613 51.9874V52.2192H90.2977V51.9874C90.3253 51.9805 90.3517 51.973 90.3787 51.9672C90.7558 51.8843 90.811 51.8322 90.8524 51.4457C90.8696 51.2438 90.8761 51.0411 90.872 50.8385C90.872 49.4438 90.872 48.0486 90.8748 46.6533C90.881 46.3933 90.8114 46.1371 90.6748 45.9163C90.5598 45.7373 90.4627 45.5501 90.3546 45.3676C90.2971 45.2703 90.2937 45.2158 90.4224 45.1666C91.3836 44.8021 92.3419 44.4296 93.3008 44.0581C93.4267 44.0095 93.4548 44.0263 93.4485 44.163C93.4305 44.5338 93.4125 44.9049 93.3945 45.2761C93.3945 45.3224 93.3945 45.3694 93.3945 45.4354C93.6623 45.2407 93.9118 45.053 94.163 44.8769C94.6022 44.5727 95.0592 44.3021 95.5778 44.1555C96.4579 43.9063 97.3231 44.287 97.749 45.1034C97.9515 45.4996 98.0537 45.9401 98.0468 46.3857C98.0468 47.9694 98.0481 49.5531 98.0508 51.1369C98.0523 51.2816 98.0626 51.4262 98.0819 51.5697C98.1112 51.8015 98.2078 51.9 98.4314 51.9498C98.4894 51.9619 98.5504 51.973 98.6211 51.988Z" fill="#808080"/>
<path d="M53.0019 51.4463C53.0019 51.4903 53.0059 51.5193 53.0059 51.5477C53.0059 51.5662 53.0013 51.5847 52.9973 51.6155C52.5753 51.7174 52.1516 51.8136 51.7326 51.922C51.1537 52.0703 50.5771 52.2273 49.9999 52.3826C49.8591 52.4203 49.843 52.4052 49.8585 52.2574C49.8942 51.9173 49.9252 51.5772 49.962 51.1948C49.8919 51.2423 49.8585 51.2626 49.8281 51.2869C49.2532 51.7348 48.6329 52.1045 47.931 52.3119C46.6744 52.6822 45.7138 51.9874 45.4873 50.7417C45.4474 50.5088 45.4282 50.2729 45.4298 50.0365C45.4246 48.6222 45.4298 47.2073 45.4298 45.7929C45.4298 45.3358 45.3016 45.1648 44.8647 45.0292C44.8147 45.0136 44.7434 44.9869 44.7302 44.9493C44.7015 44.863 44.7118 44.7847 44.8417 44.7755C45.8664 44.6791 46.8788 44.4791 47.8638 44.1787C48.008 44.1364 48.0201 44.152 48.0178 44.3142C47.9977 45.9169 47.9724 47.519 47.9655 49.1234C47.9682 49.461 48.0049 49.7974 48.0753 50.1275C48.2029 50.7568 48.5674 51.0546 49.1969 51.0824C49.3923 51.0905 49.5889 51.0662 49.7849 51.0702C49.9287 51.0702 49.954 51.0088 49.9517 50.8779C49.9436 50.4387 49.9488 49.9995 49.9488 49.5603C49.9488 48.3099 49.9488 47.0595 49.9488 45.8091C49.9488 45.341 49.8338 45.1718 49.3929 45.0426C49.2526 45.0014 49.2158 44.936 49.2635 44.7998C49.5395 44.7639 49.8217 44.7448 50.0965 44.6874C50.8496 44.5292 51.5992 44.3571 52.3494 44.185C52.5219 44.1456 52.5253 44.1439 52.5219 44.3247C52.5012 46.4816 52.482 48.639 52.4644 50.7967C52.4635 50.8692 52.4693 50.9415 52.4816 51.0129C52.5293 51.2881 52.6363 51.3912 52.9133 51.4358L53.0019 51.4463Z" fill="#808080"/>
<path d="M80.6722 52.4191C79.2391 52.3652 77.9899 51.8501 77.0822 50.6577C75.9561 49.179 76.0394 47.081 77.2685 45.6475C78.0761 44.7048 79.1143 44.1903 80.3434 44.0964C81.7231 43.9909 82.9504 44.3983 83.9529 45.374C85.4683 46.8486 85.5442 49.2781 84.1381 50.8721C83.2252 51.9052 82.0588 52.3791 80.6722 52.4191ZM82.3336 48.4211C82.3444 47.7114 82.2751 47.0026 82.1272 46.3086C82.0122 45.7976 81.8564 45.3016 81.5236 44.885C81.0832 44.3334 80.3871 44.3027 79.8962 44.8085C79.6702 45.0403 79.5317 45.3265 79.4265 45.6295C79.2351 46.18 79.1569 46.7524 79.1247 47.3324C79.0672 48.3389 79.1005 49.3395 79.3397 50.3239C79.4512 50.7875 79.6041 51.2325 79.9071 51.6079C80.3641 52.174 81.0913 52.1844 81.5742 51.6386C81.7738 51.4034 81.924 51.1298 82.0157 50.8344C82.2818 50.0493 82.3249 49.2364 82.3324 48.4188L82.3336 48.4211Z" fill="#808080"/>
<path d="M116.187 47.1534C115.876 47.2171 115.574 47.282 115.267 47.3394C115.095 47.3724 114.918 47.3973 114.742 47.4176C114.593 47.4367 114.529 47.3938 114.55 47.2484C114.584 47.0166 114.608 46.7692 114.711 46.567C115.358 45.3004 116.345 44.4197 117.744 44.1335C118.634 43.9504 119.49 44.148 120.21 44.7523C120.546 45.0339 120.697 45.418 120.689 45.8532C120.668 47.0253 120.637 48.1981 120.611 49.3702C120.605 49.6356 120.602 49.901 120.611 50.1663C120.626 50.7336 121.021 51.0007 121.553 50.8037C121.653 50.761 121.751 50.7124 121.845 50.6583C121.977 51.0221 121.4 51.875 120.818 52.1734C120.3 52.4382 119.77 52.4052 119.244 52.2128C118.717 52.0205 118.372 51.6085 118.151 51.0905C117.936 51.3223 117.742 51.554 117.527 51.7644C116.891 52.3814 116.068 52.5176 115.321 52.1277C114.724 51.8171 114.464 51.2887 114.408 50.6362C114.356 50.0105 114.597 49.5388 115.161 49.2671C115.716 48.9988 116.284 48.7555 116.849 48.5063C117.247 48.3325 117.647 48.1587 118.05 47.9924C118.093 47.9804 118.13 47.9531 118.154 47.9156C118.178 47.8782 118.187 47.8331 118.181 47.789C118.175 47.3834 118.181 46.9778 118.181 46.5722C118.181 45.9094 117.773 45.4233 117.122 45.3184C116.97 45.294 116.816 45.2839 116.662 45.2882C116.28 45.2981 116.038 45.52 116.047 45.903C116.057 46.286 116.123 46.6678 116.165 47.0502C116.168 47.0781 116.177 47.1053 116.187 47.1534ZM118.146 48.2409C118.105 48.2699 118.066 48.2942 118.031 48.3226C117.829 48.4768 117.632 48.6384 117.425 48.7862C116.991 49.0933 116.822 49.5093 116.874 50.0366C116.937 50.6693 117.466 51.0737 118.048 50.9144C118.071 50.9057 118.092 50.8914 118.109 50.8728C118.126 50.8541 118.138 50.8316 118.144 50.8072C118.148 49.9601 118.146 49.1095 118.146 48.2409Z" fill="#808080"/>
<path d="M144.488 47.1574C144.113 47.2304 143.753 47.3023 143.392 47.3701C143.277 47.3915 143.162 47.4043 143.05 47.4176C142.898 47.4356 142.834 47.3915 142.85 47.238C142.864 47.0462 142.904 46.8573 142.968 46.6759C143.237 45.9806 143.718 45.4493 144.282 44.9875C144.806 44.5593 145.382 44.2198 146.057 44.1184C146.933 43.9909 147.759 44.1433 148.472 44.7077C148.836 44.9974 149.002 45.3949 148.989 45.8665C148.969 46.8318 148.946 47.7965 148.927 48.7636C148.918 49.2364 148.896 49.7103 148.916 50.182C148.942 50.7938 149.451 51.0511 149.986 50.7475C150.039 50.7174 150.09 50.6838 150.144 50.6513C150.287 51.025 149.671 51.9133 149.082 52.1937C148.569 52.4376 148.048 52.4029 147.53 52.2105C146.999 52.0124 146.668 51.6044 146.444 51.083C146.29 51.2614 146.149 51.4358 145.997 51.5987C145.69 51.926 145.344 52.203 144.896 52.2974C143.824 52.524 142.672 51.8687 142.704 50.4294C142.715 49.9282 142.931 49.5464 143.366 49.325C143.903 49.051 144.458 48.8128 145.008 48.5672C145.458 48.3667 145.913 48.176 146.368 47.9877C146.404 47.9781 146.436 47.9554 146.457 47.924C146.478 47.8926 146.487 47.8545 146.483 47.8168C146.478 47.4112 146.483 47.0056 146.483 46.6C146.483 45.9204 146.093 45.4412 145.429 45.3253C145.269 45.2978 145.106 45.2873 144.943 45.294C144.583 45.3068 144.354 45.5084 144.354 45.87C144.354 46.2431 144.416 46.6163 144.451 46.9894C144.456 47.0323 144.471 47.0786 144.488 47.1574ZM146.459 48.2346C146.401 48.2757 146.357 48.3029 146.317 48.3331C146.118 48.4849 145.925 48.6431 145.722 48.7879C145.256 49.1193 145.097 49.569 145.188 50.1264C145.279 50.6838 145.756 51.036 146.3 50.9306C146.412 50.9091 146.458 50.868 146.456 50.7423C146.449 50.2648 146.456 49.7868 146.456 49.3088C146.459 48.9588 146.459 48.6083 146.459 48.2346Z" fill="#808080"/>
<path d="M150.487 40.329C151.544 40.0693 152.586 39.7505 153.608 39.3742C153.723 39.333 153.757 39.3655 153.752 39.4813C153.589 43.2835 153.707 47.0873 153.673 50.8906C153.672 51.122 153.687 51.3532 153.718 51.5824C153.75 51.824 153.842 51.9034 154.076 51.9515L154.257 51.9898V52.2215H150.588V51.9927C150.67 51.973 150.756 51.9527 150.843 51.9307C150.912 51.9183 150.976 51.8832 151.024 51.831C151.072 51.7787 151.102 51.7119 151.109 51.6409C151.142 51.3925 151.161 51.1424 151.167 50.8918C151.17 47.846 151.17 44.8 151.167 41.7538C151.173 41.4914 151.094 41.2341 150.941 41.0214C150.816 40.8505 150.697 40.6738 150.578 40.5C150.544 40.4447 150.514 40.3877 150.487 40.329Z" fill="#808080"/>
<path d="M57.4157 51.988V52.2198H53.744V51.9921C53.8205 51.9735 53.9021 51.9527 53.9849 51.9341C54.0616 51.9225 54.1319 51.8846 54.1842 51.8269C54.2366 51.7693 54.2677 51.6952 54.2723 51.6172C54.2988 51.32 54.3229 51.021 54.3235 50.7226C54.3269 47.7533 54.3281 44.784 54.3269 41.8147C54.3269 41.4995 54.2551 41.2155 54.0602 40.9635C53.9395 40.8076 53.8302 40.6419 53.7193 40.4797C53.6336 40.3551 53.644 40.3354 53.7768 40.2937C54.769 39.9901 55.7608 39.6849 56.7523 39.3782C56.8891 39.3359 56.9115 39.3521 56.9075 39.497C56.8793 40.5631 56.8333 41.6292 56.8293 42.6959C56.8189 45.4476 56.8293 48.2004 56.8293 50.952C56.8293 51.1635 56.8494 51.3762 56.8695 51.5894C56.8897 51.8026 57.0173 51.915 57.2196 51.9527C57.2863 51.9619 57.3467 51.9747 57.4157 51.988Z" fill="#808080"/>
<path d="M142.216 50.3749C142.216 50.445 142.235 50.5036 142.216 50.536C141.563 51.5477 140.709 52.2685 139.472 52.3977C138.88 52.4602 138.306 52.3583 137.786 52.046C137.237 51.7163 136.951 51.2296 136.955 50.5766C136.961 49.0755 136.966 47.5746 136.968 46.0739C136.967 45.9949 136.941 45.9183 136.895 45.8543C136.71 45.6081 136.515 45.3694 136.32 45.1312C136.252 45.0478 136.257 45.0009 136.352 44.94C137.442 44.2569 138.465 43.471 139.408 42.5928C139.441 42.573 139.478 42.5596 139.516 42.5534C139.536 42.5921 139.549 42.6341 139.555 42.6774C139.528 43.1734 139.497 43.6694 139.468 44.1653C139.465 44.2169 139.468 44.2691 139.468 44.3392L142.095 44.2517C142.073 44.3513 142.06 44.4359 142.033 44.5159C141.997 44.6255 141.954 44.7327 141.904 44.8369C141.674 45.3149 141.651 45.3259 141.123 45.3161L139.615 45.2894C139.572 45.2894 139.53 45.2894 139.468 45.2894V49.8958C139.468 50.3402 139.646 50.5911 140.075 50.6803C140.803 50.8251 141.511 50.7823 142.216 50.3749Z" fill="#808080"/>
<path d="M61.1367 44.2945C61.6001 44.2945 62.0347 44.3009 62.4687 44.2945C62.9027 44.2882 63.3281 44.2656 63.7753 44.2499C63.7165 44.6328 63.5495 44.9905 63.2942 45.2801C63.2519 45.309 63.2006 45.3215 63.1499 45.3155C62.5371 45.3079 61.9243 45.2975 61.3103 45.2882C61.2626 45.2882 61.2155 45.2882 61.1465 45.2882V45.4655C61.1465 46.9288 61.1465 48.3918 61.1465 49.8546C61.1465 50.3587 61.3488 50.6218 61.8467 50.7011C62.5158 50.8083 63.174 50.7788 63.7886 50.4404C63.8256 50.4276 63.8644 50.4208 63.9035 50.4201C63.9035 50.463 63.9162 50.5163 63.8961 50.547C63.3281 51.4324 62.59 52.101 61.5432 52.3386C60.7958 52.5078 60.0727 52.4243 59.4162 52.0089C58.9086 51.6896 58.6436 51.2209 58.6453 50.6084C58.651 49.0919 58.6547 47.5758 58.6562 46.06C58.653 45.9851 58.6271 45.9129 58.582 45.8532C58.3992 45.6116 58.209 45.3752 58.0164 45.1417C57.9451 45.0553 57.9405 45.0061 58.0451 44.9394C59.1303 44.2571 60.1503 43.4746 61.0919 42.6021C61.1284 42.5801 61.1685 42.5648 61.2103 42.5569C61.2285 42.6005 61.2399 42.6466 61.2442 42.6936C61.2086 43.2307 61.1718 43.769 61.1367 44.2945Z" fill="#808080"/>
<path d="M75.7606 49.8813C75.7605 49.9399 75.7534 49.9982 75.7393 50.0551C75.4364 50.8495 74.9104 51.4532 74.197 51.9023C72.5477 52.9394 69.9976 52.3588 69.0853 50.3819C68.3851 48.865 68.6829 46.8996 69.8177 45.6486C70.7846 44.5889 71.9815 44.05 73.414 44.0807C73.9745 44.0923 74.516 44.2186 75.0012 44.5211C75.3088 44.7135 75.5433 44.9672 75.6025 45.3444C75.623 45.489 75.6098 45.6365 75.564 45.775C75.5181 45.9136 75.4408 46.0394 75.3383 46.1426C75.2357 46.2458 75.1107 46.3235 74.9732 46.3695C74.8356 46.4155 74.6893 46.4286 74.5459 46.4077C74.4072 46.3916 74.2744 46.3423 74.1585 46.2637C74.0427 46.1852 73.9472 46.0798 73.8802 45.9563C73.7842 45.7825 73.7118 45.6 73.6307 45.4204C73.5894 45.3282 73.5531 45.2338 73.5129 45.1411C73.3065 44.6677 72.9909 44.5217 72.4431 44.7297C72.0211 44.8896 71.7532 45.2239 71.5526 45.6133C71.2077 46.2808 71.1313 46.9993 71.1847 47.7374C71.2162 48.3171 71.374 48.8827 71.6469 49.394C72.3804 50.7266 73.9274 50.9312 74.8311 50.5435C75.1231 50.4191 75.3848 50.2321 75.5979 49.9954C75.6359 49.9537 75.6749 49.9131 75.7129 49.872L75.7606 49.8813Z" fill="#808080"/>
<path d="M89.5653 51.9938V52.2198H85.8994V51.988L86.0759 51.9492C86.3156 51.8965 86.4145 51.798 86.4369 51.5488C86.4593 51.2997 86.4697 51.0581 86.4703 50.8124C86.4703 49.4218 86.4703 48.0312 86.4737 46.6406C86.4785 46.3889 86.4108 46.1411 86.2788 45.9273C86.1679 45.7471 86.0638 45.5629 85.9592 45.3786C85.9372 45.3375 85.9179 45.2949 85.9017 45.2512C86.9313 44.8409 87.9471 44.4359 88.9646 44.0344C88.9853 44.0263 89.0169 44.0466 89.0313 44.0506C89.0163 44.7007 88.9904 45.3416 88.9887 45.983C88.9845 47.7537 88.9862 49.5245 88.9939 51.2956C88.9973 51.7962 89.0583 51.8582 89.5653 51.9938Z" fill="#808080"/>
<path d="M135.725 51.9915V52.2198H132.065V51.988L132.233 51.9533C132.477 51.9017 132.574 51.8084 132.6 51.5593C132.623 51.3338 132.635 51.1074 132.635 50.8808C132.635 49.4716 132.635 48.0619 132.638 46.651C132.644 46.3943 132.575 46.1415 132.44 45.9239C132.325 45.7408 132.224 45.549 132.114 45.3624C132.053 45.2604 132.064 45.2112 132.188 45.1643C133.146 44.8015 134.101 44.4346 135.052 44.0634C135.191 44.0101 135.217 44.0216 135.209 44.1677C135.094 46.5317 135.171 48.8968 135.156 51.2614C135.156 51.3048 135.158 51.3481 135.163 51.3912C135.209 51.8582 135.296 51.9127 135.657 51.9706C135.679 51.9764 135.701 51.9845 135.725 51.9915Z" fill="#808080"/>
<path d="M68.0603 51.988V52.2198H64.3847V51.988C64.4324 51.9764 64.4784 51.9643 64.5244 51.955C64.8176 51.8971 64.9187 51.7945 64.9377 51.4915C64.9567 51.1884 64.9659 50.8651 64.9664 50.5517C64.9699 49.2729 64.9664 47.9941 64.9705 46.7148C64.9792 46.4193 64.899 46.128 64.7405 45.8792C64.6284 45.7054 64.533 45.5212 64.4272 45.3433C64.3784 45.261 64.3743 45.2089 64.4847 45.1741C65.4733 44.8582 66.4429 44.4852 67.3889 44.057C67.5039 44.0037 67.5395 44.0286 67.5361 44.1468C67.5131 44.9377 67.4786 45.7286 67.4734 46.5195C67.4648 48.0057 67.4734 49.4925 67.4734 50.981C67.4723 51.1748 67.4846 51.3684 67.5102 51.5604C67.5487 51.8333 67.6327 51.9081 67.9046 51.959C67.9552 51.9648 68.0011 51.9759 68.0603 51.988Z" fill="#808080"/>
<path d="M133.967 42.9167C133.785 42.916 133.605 42.8786 133.437 42.8068C133.269 42.7351 133.117 42.6303 132.99 42.4986C132.863 42.367 132.764 42.2111 132.697 42.0401C132.63 41.8691 132.598 41.6865 132.603 41.5029C132.603 41.3194 132.639 41.1376 132.709 40.9682C132.779 40.7988 132.882 40.645 133.011 40.5157C133.14 40.3864 133.293 40.2842 133.462 40.215C133.631 40.1458 133.811 40.1109 133.993 40.1123C134.764 40.117 135.362 40.7451 135.355 41.5446C135.355 41.727 135.318 41.9075 135.248 42.0755C135.178 42.2436 135.075 42.3959 134.946 42.5235C134.817 42.6512 134.664 42.7517 134.496 42.8192C134.328 42.8867 134.148 42.9198 133.967 42.9167Z" fill="#808080"/>
<path d="M87.8149 42.9167C87.6327 42.9182 87.452 42.8829 87.2836 42.8129C87.1152 42.7429 86.9623 42.6397 86.8341 42.5092C86.7059 42.3787 86.6049 42.2237 86.5371 42.0533C86.4693 41.8828 86.436 41.7004 86.4392 41.5168C86.4364 41.3331 86.4699 41.1506 86.5377 40.9799C86.6056 40.8093 86.7064 40.6541 86.8344 40.5231C86.9624 40.3922 87.1149 40.2882 87.2831 40.2173C87.4514 40.1464 87.6319 40.1099 87.8143 40.11C87.9966 40.11 88.1771 40.1464 88.3453 40.2171C88.5136 40.2878 88.6663 40.3915 88.7946 40.522C88.9228 40.6526 89.0242 40.8074 89.0927 40.9777C89.1613 41.1479 89.1957 41.3302 89.1939 41.5139C89.1969 41.6979 89.1633 41.8806 89.0952 42.0512C89.027 42.2219 88.9258 42.3772 88.7973 42.5079C88.6688 42.6385 88.5157 42.742 88.347 42.8122C88.1783 42.8824 87.9974 42.918 87.8149 42.9167Z" fill="#808080"/>
<path d="M66.3099 42.9167C66.1274 42.919 65.9463 42.8842 65.7774 42.8145C65.6085 42.7447 65.4553 42.6413 65.3269 42.5106C65.1986 42.3798 65.0976 42.2243 65.0302 42.0534C64.9627 41.8825 64.9301 41.6996 64.9342 41.5157C64.9342 40.7259 65.5396 40.1106 66.3139 40.1118C67.0756 40.1118 67.6792 40.7277 67.6861 41.5099C67.6898 41.694 67.6569 41.877 67.5893 42.048C67.5217 42.2191 67.4207 42.3748 67.2925 42.5059C67.1642 42.637 67.0112 42.7409 66.8424 42.8115C66.6737 42.8821 66.4926 42.9178 66.3099 42.9167Z" fill="#808080"/>
</svg>
