<svg width="182" height="96" viewBox="0 0 182 96" fill="none" xmlns="http://www.w3.org/2000/svg">
<g clip-path="url(#clip0_5056_41039)">
<path d="M49.974 43.0465C49.4316 42.7123 48.7264 42.7123 48.1298 43.0465L43.8989 45.6084L41.0241 47.2792L36.7932 49.8412C36.2508 50.1754 35.5457 50.1754 34.949 49.8412L31.586 47.8362C31.0436 47.5021 30.6639 46.8894 30.6639 46.221V42.2667C30.6639 41.5984 30.9893 40.9857 31.586 40.6516L34.8948 38.7022C35.4372 38.3681 36.1423 38.3681 36.739 38.7022L40.0477 40.6516C40.5901 40.9857 40.9698 41.5984 40.9698 42.2667V44.8287L43.8447 43.1021V40.5402C43.8447 39.8718 43.5193 39.2592 42.9226 38.925L36.7932 35.2492C36.2508 34.915 35.5457 34.915 34.949 35.2492L28.7112 38.925C28.1145 39.2592 27.7891 39.8718 27.7891 40.5402V47.9476C27.7891 48.6159 28.1145 49.2286 28.7112 49.5627L34.949 53.2386C35.4914 53.5728 36.1966 53.5728 36.7932 53.2386L41.0241 50.7323L43.8989 49.0058L48.1298 46.4995C48.6722 46.1654 49.3774 46.1654 49.974 46.4995L53.2827 48.4489C53.8252 48.783 54.2049 49.3957 54.2049 50.064V54.0184C54.2049 54.6867 53.8794 55.2993 53.2827 55.6335L49.974 57.6386C49.4316 57.9727 48.7264 57.9727 48.1298 57.6386L44.8211 55.6892C44.2786 55.355 43.8989 54.7424 43.8989 54.074V51.5121L41.0241 53.2386V55.8006C41.0241 56.4689 41.3495 57.0815 41.9462 57.4157L48.184 61.0916C48.7264 61.4258 49.4316 61.4258 50.0282 61.0916L56.2661 57.4157C56.8085 57.0815 57.1882 56.4689 57.1882 55.8006V48.3932C57.1882 47.7248 56.8627 47.1122 56.2661 46.778L49.974 43.0465Z" fill="#808080"/>
<path d="M68.6398 58.9748V52.8252C69.3013 53.6649 70.5017 54.1342 71.8982 54.1342C75.4505 54.1342 77.8515 51.5904 77.8515 47.7129C77.8515 43.8354 75.6466 41.2916 72.1922 41.2916C70.5997 41.2916 69.3748 41.8844 68.6398 42.8476V41.4892H65.2344V58.9748H68.6398ZM71.4817 51.1705C69.6443 51.1705 68.4438 49.7875 68.4438 47.7129C68.4438 45.6136 69.6443 44.2306 71.4817 44.2306C73.2701 44.2306 74.4951 45.6136 74.4951 47.7129C74.4951 49.7875 73.2701 51.1705 71.4817 51.1705Z" fill="#808080"/>
<path d="M85.5949 54.1342C89.3923 54.1342 92.1118 51.4175 92.1118 47.7129C92.1118 44.0083 89.3923 41.2916 85.5949 41.2916C81.7976 41.2916 79.0781 44.0083 79.0781 47.7129C79.0781 51.4175 81.7976 54.1342 85.5949 54.1342ZM85.5949 51.1705C83.7575 51.1705 82.508 49.7628 82.508 47.7129C82.508 45.6383 83.7575 44.2306 85.5949 44.2306C87.4324 44.2306 88.6819 45.6383 88.6819 47.7129C88.6819 49.7628 87.4324 51.1705 85.5949 51.1705Z" fill="#808080"/>
<path d="M97.5694 53.9379V36.0818H94.1641V53.9379H97.5694Z" fill="#808080"/>
<path d="M107.812 41.4857L105.24 49.5123L102.643 41.4857H99.1641L103.647 53.8343L101.835 58.9713H105.093L106.832 53.8837L111.316 41.4857H107.812Z" fill="#808080"/>
<path d="M120.867 42.7241C120.181 41.8597 118.956 41.2916 117.462 41.2916C113.86 41.2916 111.68 43.8354 111.68 47.7129C111.68 51.5904 113.86 54.1342 117.51 54.1342C118.956 54.1342 120.254 53.5908 120.892 52.677V54.3071C120.892 55.4678 120.132 56.2828 119.103 56.2828H113.419V58.9748H119.642C122.435 58.9748 124.297 57.2707 124.297 54.6775V41.4892H120.867V42.7241ZM118.049 51.1705C116.236 51.1705 115.036 49.8122 115.036 47.7129C115.036 45.6136 116.236 44.2306 118.049 44.2306C119.887 44.2306 121.087 45.6136 121.087 47.7129C121.087 49.8122 119.887 51.1705 118.049 51.1705Z" fill="#808080"/>
<path d="M132.892 54.1342C136.69 54.1342 139.409 51.4175 139.409 47.7129C139.409 44.0083 136.69 41.2916 132.892 41.2916C129.095 41.2916 126.375 44.0083 126.375 47.7129C126.375 51.4175 129.095 54.1342 132.892 54.1342ZM132.892 51.1705C131.054 51.1705 129.805 49.7628 129.805 47.7129C129.805 45.6383 131.054 44.2306 132.892 44.2306C134.729 44.2306 135.979 45.6383 135.979 47.7129C135.979 49.7628 134.729 51.1705 132.892 51.1705Z" fill="#808080"/>
<path d="M144.696 53.9366V47.1202C144.696 45.5149 145.749 44.3541 147.243 44.3541C148.664 44.3541 149.619 45.4408 149.619 46.9473V53.9366H153.049V46.1817C153.049 43.3168 151.236 41.2916 148.443 41.2916C146.753 41.2916 145.381 42.0078 144.696 43.218V41.4892H141.266V53.9366H144.696Z" fill="#808080"/>
</g>
<defs>
<clipPath id="clip0_5056_41039">
<rect width="125.908" height="26.3437" fill="white" transform="translate(27.7891 35)"/>
</clipPath>
</defs>
</svg>
