<svg width="182" height="96" viewBox="0 0 182 96" fill="none" xmlns="http://www.w3.org/2000/svg">
<g clip-path="url(#clip0_5056_41152)">
<path d="M65.0006 42.2576H59.8906V55.2639H60.8978V50.4516H65.0006C67.9472 50.4516 69.4579 48.5378 69.4579 46.3267C69.4579 44.097 67.9472 42.2576 65.0006 42.2576ZM64.982 49.504H60.8978V43.2052H64.982C67.3878 43.2052 68.4507 44.6545 68.4507 46.3267C68.4507 47.9989 67.3878 49.504 64.982 49.504Z" fill="#808080"/>
<path d="M80.5353 55.2639H81.7849L77.2717 50.0613C79.9759 49.9313 81.3746 48.2776 81.3746 46.1409C81.3746 43.9484 79.9013 42.2576 76.9733 42.2576H72.0312V55.2639H73.0383V50.0613H76.0595L80.5353 55.2639ZM73.0383 43.2052H76.8987C79.3046 43.2052 80.3862 44.5058 80.3862 46.1595C80.3862 47.7946 79.3046 49.1695 76.8987 49.1695H73.0383V43.2052Z" fill="#808080"/>
<path d="M89.5967 55.4682C93.3825 55.4682 96.3105 52.5882 96.3105 48.7606C96.3105 44.9331 93.3825 42.0531 89.5967 42.0531C85.8108 42.0531 82.8828 44.9331 82.8828 48.7606C82.8828 52.5882 85.8108 55.4682 89.5967 55.4682ZM89.5967 54.5206C86.389 54.5206 83.8898 52.0493 83.8898 48.7606C83.8898 45.4719 86.389 43.0007 89.5967 43.0007C92.7857 43.0007 95.3034 45.4719 95.3034 48.7606C95.3034 52.0493 92.7857 54.5206 89.5967 54.5206Z" fill="#808080"/>
<path d="M107.061 42.2576H97.1953V43.2052H101.634V55.2639H102.622V43.2052H107.061V42.2576Z" fill="#808080"/>
<path d="M114.268 55.4682C118.054 55.4682 120.982 52.5882 120.982 48.7606C120.982 44.9331 118.054 42.0531 114.268 42.0531C110.483 42.0531 107.555 44.9331 107.555 48.7606C107.555 52.5882 110.483 55.4682 114.268 55.4682ZM114.268 54.5206C111.061 54.5206 108.562 52.0493 108.562 48.7606C108.562 45.4719 111.061 43.0007 114.268 43.0007C117.458 43.0007 119.975 45.4719 119.975 48.7606C119.975 52.0493 117.458 54.5206 114.268 54.5206Z" fill="#808080"/>
<path d="M129.69 55.4682C132.525 55.4682 134.856 53.8331 135.807 51.2689H134.745C133.868 53.22 131.965 54.5206 129.653 54.5206C126.445 54.5206 123.965 52.0308 123.965 48.7606C123.965 45.4905 126.445 43.0007 129.653 43.0007C131.965 43.0007 133.868 44.3013 134.745 46.2523H135.807C134.856 43.6882 132.525 42.0531 129.69 42.0531C125.848 42.0531 122.977 44.8959 122.977 48.7606C122.977 52.6254 125.848 55.4682 129.69 55.4682Z" fill="#808080"/>
<path d="M144.215 55.4682C148.001 55.4682 150.928 52.5882 150.928 48.7606C150.928 44.9331 148.001 42.0531 144.215 42.0531C140.429 42.0531 137.5 44.9331 137.5 48.7606C137.5 52.5882 140.429 55.4682 144.215 55.4682ZM144.215 54.5206C141.007 54.5206 138.508 52.0493 138.508 48.7606C138.508 45.4719 141.007 43.0007 144.215 43.0007C147.403 43.0007 149.922 45.4719 149.922 48.7606C149.922 52.0493 147.403 54.5206 144.215 54.5206Z" fill="#808080"/>
<path d="M154.465 54.3163V42.2576H153.477V55.2639H161.104V54.3163H154.465Z" fill="#808080"/>
<path d="M34.0716 50.7603L21.9031 44.6974C21.7838 44.6348 21.6839 44.5412 21.6143 44.4267C21.5446 44.3121 21.5078 44.181 21.5078 44.0473C21.5078 43.9136 21.5446 43.7824 21.6143 43.6679C21.6839 43.5533 21.7838 43.4597 21.9031 43.3971L34.1561 36.5691C34.6135 36.3103 35.1302 36.1721 35.6571 36.1677C36.1838 36.1633 36.7029 36.2929 37.1645 36.544L49.0794 43.0751C49.1963 43.1404 49.293 43.236 49.3592 43.3516C49.4254 43.4672 49.4584 43.5984 49.455 43.7312C49.4515 43.864 49.4116 43.9933 49.3395 44.1054C49.2674 44.2174 49.1658 44.3079 49.0456 44.3671L36.9026 50.7185C36.4682 50.9483 35.9846 51.072 35.4923 51.0793C34.9998 51.0866 34.5127 50.9772 34.0716 50.7603Z" fill="#808080" stroke="#808080" stroke-width="0.302704" stroke-miterlimit="10"/>
<path d="M49.0729 48.0922L47.3448 47.1431L36.8833 52.608C36.4488 52.8375 35.965 52.9607 35.4725 52.9672C34.98 52.9737 34.493 52.8634 34.0524 52.6456L23.6162 47.4316L21.8797 48.3975C21.7603 48.4601 21.6605 48.5537 21.5908 48.6682C21.5212 48.7828 21.4844 48.9139 21.4844 49.0477C21.4844 49.1813 21.5212 49.3124 21.5908 49.427C21.6605 49.5416 21.7603 49.6352 21.8797 49.6978L34.0482 55.7774C34.4893 55.9943 34.9764 56.1037 35.4688 56.0964C35.9612 56.0891 36.4448 55.9654 36.8791 55.7356L49.0729 49.3842C49.1914 49.3218 49.2904 49.2288 49.3595 49.115C49.4286 49.0013 49.4651 48.8709 49.4651 48.7382C49.4651 48.6055 49.4286 48.4752 49.3595 48.3614C49.2904 48.2476 49.1914 48.1546 49.0729 48.0922Z" fill="#808080" fill-opacity="0.5"/>
<path d="M49.0729 53.1112L47.3448 52.1621L36.8833 57.627C36.4488 57.8565 35.965 57.9797 35.4725 57.9863C34.98 57.9928 34.493 57.8826 34.0524 57.6646L23.6162 52.4506L21.8797 53.4165C21.7603 53.4791 21.6605 53.5727 21.5908 53.6873C21.5212 53.8018 21.4844 53.933 21.4844 54.0667C21.4844 54.2004 21.5212 54.3315 21.5908 54.446C21.6605 54.5607 21.7603 54.6542 21.8797 54.7169L34.0482 60.7965C34.4888 61.0143 34.9758 61.1246 35.4683 61.1181C35.9608 61.1115 36.4445 60.9883 36.8791 60.7589L49.0729 54.4074C49.1913 54.3445 49.2901 54.251 49.359 54.1369C49.4279 54.0227 49.4643 53.8923 49.4643 53.7594C49.4643 53.6264 49.4279 53.496 49.359 53.3819C49.2901 53.2677 49.1913 53.1742 49.0729 53.1112Z" fill="#808080" fill-opacity="0.15"/>
</g>
<defs>
<clipPath id="clip0_5056_41152">
<rect width="141.05" height="26.2857" fill="white" transform="translate(20.4688 35.4285)"/>
</clipPath>
</defs>
</svg>
