<svg width="182" height="96" viewBox="0 0 182 96" fill="none" xmlns="http://www.w3.org/2000/svg">
<path d="M69.6445 57.7768L67.8062 54.5828C68.6769 52.9374 68.6769 51.0017 68.6769 48.4852C68.6769 45.2912 68.6769 42.9683 66.8387 41.0325C65.5809 39.6775 63.9361 39 61.8076 39C59.6791 39 58.0343 39.7743 56.7766 41.0325C54.9383 42.8715 54.9383 45.1944 54.9383 48.4852C54.9383 51.6792 54.8415 54.0021 56.7766 55.9378C58.1311 57.2929 59.6791 57.9704 61.8076 57.9704C62.3881 57.9704 62.8719 57.8736 63.3556 57.7768H69.6445ZM59.3888 53.7117C58.7116 52.9374 58.5181 52.0663 58.5181 48.4852C58.5181 44.904 58.7116 44.033 59.3888 43.2587C59.8726 42.6779 60.7434 42.2908 61.7109 42.2908C62.6784 42.2908 63.5491 42.6779 64.0329 43.2587C64.7101 44.033 64.9037 44.904 64.9037 48.4852C64.9037 52.0663 64.7101 52.9374 64.0329 53.7117C63.5491 54.2925 62.6784 54.6796 61.7109 54.6796C60.7434 54.6796 59.8726 54.2925 59.3888 53.7117Z" fill="#808080"/>
<path d="M112.117 39.1919H115.697V57.7751H112.117V39.1919Z" fill="#808080"/>
<path d="M25.6241 57.9703C22.8184 57.9703 20.6898 57.3896 18.8516 55.5506L21.1736 53.2277C22.3346 54.3892 23.9794 54.7763 25.6241 54.7763C27.7527 54.7763 28.9137 54.002 28.9137 52.4534C28.9137 51.7759 28.7202 51.292 28.3332 50.9048C27.9462 50.5177 27.5592 50.4209 26.6884 50.2273L24.4631 49.9369C22.9151 49.7434 21.6573 49.1626 20.8833 48.3883C20.0126 47.5172 19.5288 46.259 19.5288 44.7104C19.5288 41.4196 21.9476 39.0967 26.0111 39.0967C28.5267 39.0967 30.4617 39.6774 32.0097 41.226L29.6877 43.4522C28.5267 42.2907 27.0754 42.1939 25.9144 42.1939C23.9794 42.1939 23.0119 43.2586 23.0119 44.5168C23.0119 45.0008 23.2054 45.4847 23.5924 45.8719C23.9794 46.259 24.5599 46.4526 25.3339 46.6462L27.5592 46.9365C29.3007 47.1301 30.3649 47.614 31.1389 48.3883C32.1065 49.3562 32.5902 50.7112 32.5902 52.3566C32.5902 55.9378 29.4942 57.9703 25.6241 57.9703Z" fill="#808080"/>
<path d="M37.8125 57.7751V39.1919H50.0999V42.3859H41.489V46.7413H48.8421V50.0321H41.489V54.5811H50.0999V57.7751H37.8125Z" fill="#808080"/>
<path d="M80.9709 57.9687C77.1976 57.9687 74.1016 55.3554 74.1016 51.3871V39.1919H77.7781V51.2904C77.7781 53.4197 79.0359 54.6779 80.9709 54.6779C82.9059 54.6779 84.1637 53.4197 84.1637 51.2904V39.1919H87.7435V51.3871C87.7435 55.3554 84.7442 57.9687 80.9709 57.9687Z" fill="#808080"/>
<path d="M104.964 55.9378C103.706 57.2929 102.061 57.9704 99.9326 57.9704C97.8041 57.9704 96.1593 57.1961 94.9016 55.9378C93.0633 54.0989 93.0633 51.776 93.0633 48.4852C93.0633 45.2912 92.9665 42.9683 94.9016 41.0325C96.1593 39.6775 97.8041 39 99.9326 39C102.061 39 103.609 39.7743 104.964 41.0325C106.802 42.8715 106.802 45.1944 106.802 48.4852C106.802 51.6792 106.802 54.0021 104.964 55.9378ZM102.255 43.2587C101.771 42.6779 100.9 42.2908 99.9326 42.2908C98.9651 42.2908 98.0944 42.6779 97.6106 43.2587C96.9333 44.033 96.7398 44.904 96.7398 48.4852C96.7398 52.0663 96.9333 52.9374 97.6106 53.7117C98.0944 54.2925 98.9651 54.6796 99.9326 54.6796C100.9 54.6796 101.771 54.2925 102.255 53.7117C102.932 52.9374 103.125 52.0663 103.125 48.4852C103.125 44.904 102.932 44.033 102.255 43.2587Z" fill="#808080"/>
<path d="M132.82 57.7751L131.756 54.4844H125.176L124.015 57.7751H120.242L127.015 39.1919H129.821L136.593 57.7751H132.82ZM128.466 44.612L126.144 51.3871H130.788L128.466 44.612Z" fill="#808080"/>
<path d="M157.883 39.1919H162.527V43.8377H157.883V39.1919Z" fill="#808080"/>
<path d="M146.276 53.8068V39.1919H143.953V56.1297L146.276 53.8068Z" fill="#808080"/>
<path d="M147.924 55.4509L145.602 57.7738H162.533V55.4509H147.924Z" fill="#808080"/>
<path d="M150.917 49.161V39.1919H148.594V51.4839L150.917 49.161Z" fill="#808080"/>
<path d="M152.564 50.8066L150.242 53.1295H162.53V50.8066H152.564Z" fill="#808080"/>
<path d="M155.557 44.5152V39.1919H153.234V46.8381L155.557 44.5152Z" fill="#808080"/>
<path d="M157.205 46.1658L154.883 48.4887H162.526V46.1658H157.205Z" fill="#808080"/>
</svg>
