<svg width="182" height="96" viewBox="0 0 182 96" fill="none" xmlns="http://www.w3.org/2000/svg">
<path fill-rule="evenodd" clip-rule="evenodd" d="M40.879 50.891C40.8591 50.5644 40.6598 50.1674 40.301 49.9462C40.291 49.9412 40.2811 49.9362 40.2711 49.9312C40.2611 49.9261 40.2512 49.9211 40.2412 49.9161C40.017 49.8005 39.6084 49.705 39.2296 49.6498C38.8609 49.5995 38.5221 49.5895 38.4124 49.6598C38.4074 49.6598 38.4074 49.6648 38.4025 49.6648C38.3526 49.705 38.3526 49.7151 38.4224 49.8106C38.4623 49.8658 38.5819 50.0417 38.6915 50.1975C38.7961 50.3533 38.9556 50.5794 39.0453 50.7C39.2645 50.9915 39.2645 51.1624 39.0503 51.5393C38.831 51.9262 38.4324 52.8458 38.4423 52.9313C38.4473 52.9815 38.4822 53.0117 38.547 53.0167C38.6516 53.0267 38.6865 52.9916 39.0752 52.489C39.5386 51.891 40.1316 51.4438 40.4555 51.4438C40.4704 51.4438 40.4854 51.4438 40.5003 51.4388C40.7794 51.4086 40.894 51.1774 40.879 50.891ZM40.7196 51.8961C40.6797 51.9061 40.6249 51.9413 40.5701 52.0016C40.5352 52.0418 40.4605 52.1322 40.3907 52.2378C40.3658 52.2729 40.3359 52.3132 40.311 52.3534C39.5735 53.4338 38.7313 54.4288 38.5171 54.479C38.0437 54.5846 37.9939 54.6499 37.9939 55.1424C37.9988 55.7454 38.4174 56.253 38.9705 56.3183C39.2894 56.3585 39.3343 56.2781 39.7778 54.9263C39.8924 54.5795 40.0768 54.0921 40.1964 53.8459C40.4754 53.2529 40.6349 52.8609 40.6797 52.6348C40.6996 52.5343 40.7545 52.3634 40.7943 52.2579C40.7993 52.2428 40.8043 52.2277 40.8093 52.2126C40.8143 52.2026 40.8143 52.1976 40.8192 52.1875C40.8242 52.1775 40.8242 52.1674 40.8292 52.1523C40.8342 52.1423 40.8342 52.1322 40.8342 52.1222C40.8641 51.9664 40.8143 51.8759 40.7196 51.8961ZM41.0036 36.4986C40.894 36.0212 40.6 35.7498 39.9372 35.5187C39.7429 35.4483 39.4987 35.3428 39.3891 35.2825C39.3742 35.2724 39.3592 35.2624 39.3443 35.2574C39.135 35.1468 39.0154 35.1468 38.9655 35.2574C38.9506 35.2925 38.9606 35.3629 38.9905 35.4483C38.9905 35.4483 38.9905 35.4483 38.9905 35.4534C39.0602 35.6694 39.2346 35.9911 39.409 36.2272C39.419 36.2423 39.429 36.2574 39.4439 36.2674C39.708 36.5991 39.708 36.6142 39.4041 37.0112C39.1698 37.3177 39.1698 37.3127 39.1948 37.378C39.2346 37.4836 39.9721 37.4584 40.2113 37.3479C40.3359 37.2926 40.4654 37.2574 40.58 37.2574C40.9388 37.2574 41.1132 36.9509 41.0036 36.4986ZM41.188 64.4492C41.6713 64.4643 42.1696 64.4944 42.7527 64.5447C42.2992 64.4944 41.781 64.4643 41.188 64.4492ZM42.7178 32.2623C42.7327 32.2673 42.7477 32.2774 42.7576 32.2824C42.8274 32.3176 42.9121 32.3578 42.9819 32.393C42.8722 32.3327 42.7875 32.2874 42.7178 32.2623ZM43.9934 64.7557C44.3472 64.8512 44.6811 64.9768 44.9452 65.1125C44.6711 64.9718 44.3572 64.8512 43.9934 64.7557ZM46.0714 50.3684C45.603 49.5392 44.9203 49.4337 43.834 50.0166C43.3207 50.293 43.2958 50.2427 43.6347 49.6447C43.7243 49.4839 43.7991 49.3482 43.8589 49.2377C43.8689 49.2176 43.8788 49.1975 43.8888 49.1724C43.8888 49.1724 43.8888 49.1724 43.8888 49.1673C43.9037 49.1422 43.9137 49.1171 43.9237 49.0919C44.0084 48.911 44.0383 48.8105 44.0383 48.71V48.705C44.0333 48.4286 43.7792 48.0869 43.4503 47.8055L43.4453 47.8005C43.1762 47.5693 42.8573 47.3783 42.5782 47.2879C42.5782 47.2879 42.5782 47.2879 42.5733 47.2879C42.3391 47.2125 42.1348 47.2024 42.0152 47.308C41.8956 47.4135 41.8657 47.7351 41.9105 47.9763C41.9105 47.9814 41.9105 47.9814 41.9105 47.9814C41.9404 48.1271 41.9903 48.2427 42.07 48.2527C42.1946 48.2728 42.2544 48.1974 42.2544 48.0165C42.2544 47.6849 42.3789 47.6346 42.6281 47.8658C43.0716 48.2779 43.0417 48.5693 42.4288 49.8457C41.8707 51.0016 41.5368 51.5845 41.2577 51.8709L41.0186 52.1222L40.9936 52.4689C40.9588 52.9262 40.9986 53.0569 41.2229 53.268C41.5218 53.5494 41.6315 53.5041 42.05 52.9463C42.7527 52.0016 42.658 52.7353 41.9354 53.8308C41.4571 54.5544 41.0883 54.9263 40.605 55.1575C40.1914 55.3534 40.2661 55.5243 40.7993 55.6148C40.9737 55.6449 41.4521 55.5343 41.6514 55.4188C42.2843 55.0519 42.6131 54.6951 43.251 53.685C43.5848 53.1574 43.5948 53.1473 43.7891 53.1473C43.9137 53.1473 44.0034 53.1071 44.4319 52.8458C44.9651 52.5242 45.4933 52.1071 45.882 51.7001C46.3355 51.2428 46.3803 50.9161 46.0714 50.3684ZM45.0598 50.4689C45.0349 50.5995 44.9552 50.8206 44.8605 51.0317C44.8455 51.0568 44.8356 51.082 44.8206 51.1121C44.7907 51.1774 44.7558 51.2428 44.721 51.3031C44.706 51.3282 44.6911 51.3583 44.6761 51.3784C44.6612 51.3986 44.6512 51.4186 44.6412 51.4337C44.6063 51.484 44.5167 51.6197 44.4419 51.7352C44.0333 52.3533 43.5549 52.6348 43.8041 52.1071C43.8838 51.9413 43.8489 51.8357 43.6546 51.6146C43.6446 51.5996 43.6347 51.5895 43.6247 51.5744C43.5798 51.5242 43.545 51.484 43.53 51.4488C43.5051 51.4036 43.5101 51.3634 43.5499 51.3131L43.5549 51.3081C43.5998 51.2478 43.6945 51.1724 43.8439 51.0518C43.8489 51.0468 43.8489 51.0468 43.8539 51.0468C43.9984 50.9312 44.1728 50.7855 44.3771 50.6297C44.407 50.6096 44.4319 50.5895 44.4618 50.5644L44.4668 50.5593C44.5715 50.4839 44.6512 50.4236 44.7259 50.3784C44.7359 50.3734 44.7459 50.3633 44.7558 50.3583C44.7558 50.3583 44.7608 50.3583 44.7608 50.3533C44.9452 50.2427 45.0199 50.2478 45.0498 50.3332C45.0498 50.3382 45.0548 50.3432 45.0548 50.3483V50.3533C45.0598 50.3583 45.0598 50.3684 45.0598 50.3784C45.0598 50.3834 45.0598 50.3885 45.0648 50.3935C45.0698 50.4136 45.0648 50.4387 45.0598 50.4689ZM46.7042 54.7353C46.5398 54.263 45.6877 53.7353 45.0997 53.7353C45.0299 53.7353 44.9302 53.7202 44.8854 53.7052C44.8804 53.7052 44.8804 53.7051 44.8754 53.7001C44.7409 53.6549 44.3472 53.6398 44.0183 53.6448C43.7742 53.6499 43.5699 53.67 43.525 53.7001C43.4403 53.7705 43.4254 53.8408 43.5101 53.9564C43.5151 53.9665 43.52 53.9715 43.53 53.9815C43.545 54.0016 43.5649 54.0217 43.5848 54.0418C43.6347 54.0921 43.6994 54.1524 43.7742 54.2127C43.8091 54.2429 43.8439 54.268 43.8838 54.3032C43.9336 54.3434 43.9885 54.3836 44.0433 54.4288C44.4718 54.7504 44.3522 54.9112 43.5898 55.0368C43.4503 55.0569 43.251 55.1022 43.1463 55.1273C43.0367 55.1575 42.8473 55.1876 42.7178 55.1977C42.3839 55.2278 42.2245 55.2781 42.1995 55.3635C42.1597 55.4891 42.2195 55.4992 42.7726 55.469C43.2958 55.4389 43.4353 55.4489 43.4353 55.4992C43.4353 55.5645 43.0467 55.7856 42.8623 55.8258C42.0002 56.0017 41.2129 56.253 40.8442 56.4791C40.6648 56.5846 40.6 56.6098 40.5502 56.5846C40.4455 56.5294 40.291 56.2781 40.2711 56.1273C40.2711 56.1173 40.2661 56.1072 40.2661 56.0972C40.2611 56.0771 40.2562 56.062 40.2512 56.0419C40.2063 55.8861 40.1116 55.8409 40.012 55.8811C40.007 55.8811 40.002 55.8861 39.9921 55.8861C39.8725 55.9464 39.7429 56.1374 39.6931 56.4138C39.6931 56.4188 39.6931 56.4188 39.6931 56.4238C39.6731 56.5193 39.6781 56.6248 39.703 56.7907C39.708 56.8208 39.713 56.851 39.718 56.8811C39.723 56.9012 39.723 56.9213 39.7279 56.9414C39.7429 57.0319 39.7578 57.1022 39.7728 57.1726C39.7728 57.1776 39.7728 57.1826 39.7778 57.1877C39.8027 57.3032 39.8226 57.4088 39.8625 57.5545C39.8675 57.5746 39.8725 57.5997 39.8774 57.6198C39.8824 57.65 39.8924 57.6801 39.8974 57.7103C39.9024 57.7304 39.9073 57.7505 39.9123 57.7706C39.9273 57.8359 39.9472 57.9013 39.9622 57.9716C40.007 58.1475 40.0618 58.439 40.0817 58.6199C40.1964 59.6501 41.3425 60.4993 41.5418 59.7003C41.6414 59.3033 42.653 59.0671 43.3905 59.2681C43.6596 59.3435 44.0781 59.3234 44.2526 59.233C44.4319 59.1375 44.4618 59.042 44.407 58.6852C44.3721 58.439 44.3721 58.3636 44.412 58.2932C44.4718 58.1827 44.9402 57.449 45.1047 57.2178C45.4485 56.7253 44.8057 55.8107 43.9486 55.5796C43.8639 55.5595 43.7991 55.5243 43.7991 55.5042C43.7991 55.3534 45.4485 55.2982 45.8172 55.4338C46.6295 55.7303 46.9633 55.474 46.7042 54.7353ZM43.3955 57.0972C43.3855 57.1173 43.3755 57.1374 43.3656 57.1625C43.3556 57.1877 43.3407 57.2128 43.3257 57.2429C43.226 57.449 43.1364 57.66 43.1214 57.7103C43.0915 57.8359 42.8722 58.0118 42.6978 58.057C42.6181 58.0771 42.4736 58.1324 42.3789 58.1776C42.2793 58.2279 42.1198 58.2832 42.0201 58.3083C41.9205 58.3284 41.756 58.3736 41.6514 58.3988C41.3126 58.4842 41.2278 58.3837 41.0335 57.65C40.9737 57.4289 40.9687 57.3535 40.9986 57.2831L41.0385 57.1927H42.0949L42.5932 57.0168C42.8673 56.9213 43.1413 56.8158 43.1961 56.7856C43.2061 56.7806 43.2161 56.7756 43.2211 56.7706C43.3407 56.7103 43.4303 56.7103 43.4702 56.7706C43.4752 56.7756 43.4802 56.7856 43.4802 56.7957C43.5001 56.8359 43.4702 56.9314 43.3955 57.0972ZM46.171 41.6093C45.6478 41.4234 44.6313 40.8153 44.5366 40.6344C44.4469 40.4686 45.1644 38.4233 45.4933 37.9057C45.6926 37.5891 45.7724 37.3529 45.7076 37.1117C45.6677 36.9509 45.5631 36.785 45.3937 36.5991C45.3837 36.5891 45.3688 36.574 45.3588 36.5639C45.3389 36.5388 45.3139 36.5137 45.284 36.4886C45.2641 36.4685 45.2442 36.4484 45.2292 36.4333C45.2193 36.4232 45.2093 36.4132 45.1993 36.4031C45.1894 36.3931 45.1794 36.383 45.1694 36.373C45.1545 36.3579 45.1445 36.3478 45.1296 36.3328C45.1047 36.3076 45.0748 36.2825 45.0498 36.2574C44.8704 36.0966 44.7409 35.9961 44.6163 35.9458C44.6163 35.9458 44.6113 35.9458 44.6113 35.9408C44.5615 35.9207 44.5167 35.9107 44.4668 35.9056C44.4618 35.9056 44.4569 35.9056 44.4519 35.9056C44.3921 35.9006 44.3323 35.9056 44.2625 35.9207C44.2376 35.9257 44.2177 35.9308 44.2027 35.9358C44.0981 35.9659 44.0632 36.0061 43.9287 36.2021C43.535 36.78 43.1563 37.1016 42.4288 37.4886C42.0002 37.7147 41.9305 37.765 41.6664 38.0464C41.5069 38.2173 41.2577 38.4534 41.1083 38.574C40.7295 38.8756 40.5452 39.0866 40.2761 39.4937C40.1415 39.6947 39.9821 39.8907 39.8974 39.956C39.728 40.0816 39.6981 40.157 39.7479 40.2927C39.7778 40.3731 39.7678 40.4233 39.6981 40.5791C39.5286 40.9359 39.3941 41.2575 39.3941 41.2977C39.3941 41.3178 39.3542 41.4184 39.3094 41.5189C39.2595 41.6194 39.1798 41.8053 39.13 41.936C38.821 42.7048 38.6715 42.7752 38.7214 42.1319C38.7712 41.5138 38.8609 41.0063 39.0253 40.4032C39.1997 39.7751 39.0802 39.3128 38.6317 38.8655C38.1184 38.358 37.964 38.6343 37.8942 40.1872C37.8792 40.5239 37.8444 40.8756 37.8194 40.9661C37.7796 41.1118 37.7796 41.157 37.8344 41.2927C37.8743 41.3983 37.8942 41.5591 37.8942 41.7902C37.8942 43.3581 38.8559 45.0617 39.4489 44.5491C39.5635 44.4486 39.5884 44.2476 39.6781 42.9209C39.7479 41.9108 39.8475 41.75 40.1665 42.1671C40.595 42.7299 40.7295 42.8053 41.3175 42.8104C42.1946 42.8154 42.8424 42.5993 43.4752 42.0917C43.6197 41.9762 43.7542 41.8958 43.8041 41.8958C43.9635 41.8958 45.1096 42.7249 45.7823 43.328C46.5896 44.0516 47.3819 44.1069 47.3819 43.4335C47.3919 42.6345 46.8836 41.8656 46.171 41.6093ZM42.6281 41.1168C42.5782 41.2425 41.7361 41.7199 41.5617 41.7199C41.5318 41.7199 41.4272 41.75 41.3275 41.7902C41.1033 41.8807 40.5302 41.8907 40.3508 41.8103C40.291 41.7802 40.1764 41.74 40.1067 41.7199C39.9422 41.6696 39.9073 41.5691 39.9921 41.3731C40.0269 41.2977 40.0718 41.152 40.0967 41.0515C40.1017 41.0264 40.1116 41.0063 40.1166 40.9812C40.1864 40.7299 40.2611 40.549 40.3458 40.4284C40.3458 40.4233 40.3508 40.4233 40.3508 40.4183C40.4405 40.2877 40.5452 40.2374 40.6648 40.2575C40.7445 40.2726 40.884 40.2977 40.9687 40.3128C41.0584 40.3279 41.188 40.363 41.2627 40.3982C41.3375 40.4284 41.4222 40.4585 41.4521 40.4585C41.5717 40.4585 42.4636 40.8806 42.5832 40.9962C42.6231 41.0314 42.638 41.0867 42.6281 41.1168ZM43.9835 38.1368C43.9785 38.177 43.9635 38.2273 43.9336 38.2926C43.8738 38.4333 43.5898 39.4082 43.4453 39.956C43.3905 40.162 43.2958 40.1821 42.957 40.0666C42.3789 39.8605 42.2444 39.8404 41.4571 39.8203L40.7096 39.8002L40.6996 39.7098C40.6847 39.5992 41.0285 39.1469 41.2677 38.9459C41.5418 38.7198 42.1049 38.564 42.3989 38.6243C42.937 38.7349 43.2958 38.6343 43.6546 38.2675C43.6745 38.2474 43.6895 38.2323 43.7044 38.2173C43.7194 38.2072 43.7293 38.1921 43.7393 38.1821C43.819 38.1067 43.8788 38.0665 43.9187 38.0564C43.9486 38.0514 43.9735 38.0615 43.9885 38.0866C43.9885 38.0916 43.9885 38.1117 43.9835 38.1368ZM53.6605 54.3936C53.5758 54.3082 53.4413 54.3584 53.3765 54.4991C53.232 54.7956 52.923 55.4941 52.923 55.5243C52.923 55.6148 52.7437 55.7303 52.6888 55.6751C52.5942 55.5796 52.8284 54.1826 53.0725 53.4137C53.3217 52.6197 53.1473 52.2478 52.4596 52.1021C52.3051 52.0669 52.1706 52.0518 52.056 52.0518C52.0311 52.0518 52.0111 52.0518 51.9862 52.0569C51.9713 52.0569 51.9514 52.0619 51.9364 52.0619C51.8916 52.0669 51.8467 52.077 51.8068 52.092C51.8019 52.092 51.7919 52.0971 51.7869 52.0971C51.762 52.1071 51.7371 52.1172 51.7122 52.1373C51.7022 52.1423 51.6972 52.1473 51.6873 52.1523C51.6723 52.1624 51.6623 52.1724 51.6474 52.1825C51.6374 52.1875 51.6324 52.1976 51.6225 52.2076C51.6175 52.2177 51.6075 52.2227 51.6025 52.2327C51.5976 52.2428 51.5876 52.2528 51.5826 52.2579C51.2089 52.886 49.998 53.4891 49.7389 53.1775C49.4798 52.8609 49.4399 52.8408 49.3153 52.9413C49.0562 53.1524 49.3054 53.8006 49.8086 54.1976C50.4515 54.7102 50.8451 54.7052 51.4132 54.1876C51.6773 53.9464 51.7421 53.9162 51.8168 54.0117C51.8567 54.0569 51.8567 54.0971 51.8168 54.2177C51.7421 54.469 51.6723 54.9665 51.6673 55.268C51.6623 55.4238 51.6474 55.655 51.6324 55.7705C51.4182 57.2078 51.4829 57.6148 52.0112 58.1927C52.4845 58.7053 52.5493 58.6299 53.0227 57.047C53.0875 56.8409 53.1772 56.5444 53.222 56.3886C53.2669 56.2329 53.3067 56.0771 53.3067 56.0369C53.3067 55.9967 53.3317 55.8911 53.3665 55.7957C53.3964 55.7002 53.4512 55.5042 53.4861 55.3534C53.521 55.2027 53.5858 54.9414 53.6306 54.7655C53.7104 54.479 53.7104 54.4489 53.6605 54.3936ZM54.3631 49.9312C54.1289 49.4588 53.3815 48.9161 52.9031 48.8759C52.7437 48.8608 52.5443 48.8256 52.4596 48.7955C52.4397 48.7854 52.4148 48.7804 52.3948 48.7754C52.2752 48.7352 52.1905 48.7301 52.1307 48.7603C52.1108 48.7703 52.0959 48.7804 52.0809 48.7955C52.041 48.8357 52.051 48.9713 52.1008 49.1221V49.1271C52.1557 49.298 52.2503 49.494 52.355 49.6297C52.36 49.6347 52.3649 49.6447 52.3699 49.6498C52.3749 49.6548 52.3749 49.6598 52.3799 49.6648C52.5643 49.8759 52.5443 49.9211 52.051 50.3181C51.5726 50.7051 51.2388 50.9412 50.885 51.1523C50.2472 51.5342 50.9199 51.484 51.9215 51.0719C52.3301 50.9061 52.8533 50.7302 53.0277 50.7C53.0975 50.69 53.237 50.6548 53.3366 50.6196C53.5061 50.5644 53.531 50.5644 53.6755 50.6196C54.1937 50.8156 54.5973 50.4086 54.3631 49.9312ZM57.4427 53.6046C57.4078 53.5695 57.3729 53.5343 57.3231 53.4941C57.1835 53.3685 56.8596 53.1825 56.5756 53.0468C56.3414 52.9363 56.1371 52.8559 56.0873 52.881C56.0823 52.881 56.0474 52.8911 56.0125 52.9011C55.9727 52.9112 55.8481 52.9916 55.7285 53.077C55.6089 53.1624 55.4943 53.2328 55.4744 53.2328C55.3697 53.2328 54.7867 53.5946 54.5375 53.8157C54.413 53.9263 54.3183 53.9413 54.2037 53.881C54.0044 53.7705 53.8748 53.9564 53.9745 54.2077C54.0243 54.3283 54.0293 54.5243 54.0293 55.4238C54.0293 56.6801 54.0243 56.66 54.4628 57.1826C54.7817 57.5646 54.8266 57.5847 55.0907 57.444C55.7833 57.0821 56.1321 56.9615 56.1321 57.0821C56.1321 57.1525 56.466 57.4791 56.5308 57.4791C56.7201 57.4791 56.9095 57.253 57.059 56.856C57.0939 56.7555 57.1686 56.3535 57.2384 55.861C57.2583 55.7303 57.2882 55.5243 57.3081 55.3936C57.3281 55.263 57.348 54.9816 57.358 54.7605C57.3679 54.3936 57.3829 54.3434 57.4875 54.1222C57.6071 53.876 57.6121 53.7805 57.4427 53.6046ZM56.2019 55.7303C56.1969 55.7504 56.1969 55.7705 56.1919 55.7957C56.1271 56.1324 56.0723 56.1977 55.8381 56.2329C55.5192 56.2831 55.1704 56.3635 55.0757 56.4037C54.991 56.4439 54.9711 56.4389 54.9113 56.3585C54.7568 56.1675 54.9312 55.861 55.2402 55.7655C55.4544 55.7002 55.8082 55.5343 55.9129 55.4539C55.9179 55.4489 55.9278 55.4439 55.9328 55.4389C56.0075 55.3936 56.1122 55.3786 56.172 55.3987C56.1969 55.4087 56.2168 55.4238 56.2218 55.4439C56.2368 55.474 56.2268 55.5947 56.2019 55.7303ZM56.0125 54.6549C55.8232 54.5745 55.7036 54.5896 55.4694 54.7102C55.1505 54.871 55.0558 54.8811 54.9611 54.7605C54.7867 54.5343 54.8864 54.4388 55.4694 54.2579C55.6438 54.2027 55.8531 54.1172 55.9328 54.0569C55.9577 54.0418 55.9776 54.0268 55.9976 54.0167C56.0075 54.0117 56.0175 54.0016 56.0275 53.9966C56.0424 53.9866 56.0574 53.9815 56.0723 53.9765C56.0773 53.9715 56.0873 53.9715 56.0923 53.9665C56.1122 53.9614 56.1271 53.9564 56.1421 53.9614H56.1471C56.1521 53.9614 56.157 53.9665 56.162 53.9665C56.167 53.9715 56.172 53.9715 56.177 53.9765C56.177 53.9765 56.182 53.9765 56.182 53.9815C56.1869 53.9866 56.1919 53.9916 56.1969 53.9966C56.2019 54.0016 56.2069 54.0217 56.2168 54.0469C56.2268 54.0971 56.2417 54.1775 56.2517 54.268V54.273C56.2517 54.2881 56.2567 54.3032 56.2567 54.3182C56.2567 54.3333 56.2617 54.3534 56.2617 54.3735C56.2866 54.7504 56.2716 54.7655 56.0125 54.6549ZM58.6436 51.0719C58.23 50.896 57.3281 50.8257 57.039 50.9463C56.8895 51.0066 56.755 51.0166 56.7251 50.9613C56.7002 50.9161 56.7251 50.8608 57.064 50.2779C57.1088 50.2025 57.1487 50.1322 57.1835 50.0719C57.2085 50.0266 57.2334 49.9814 57.2583 49.9412L57.2633 49.9362C57.2732 49.9161 57.2882 49.896 57.2982 49.8759C57.4427 49.6146 57.5074 49.4538 57.5074 49.3281C57.5074 49.2025 57.4427 49.1171 57.3181 48.9914C57.3131 48.9864 57.3131 48.9864 57.3081 48.9814C57.3031 48.9713 57.2932 48.9663 57.2832 48.9563C57.2732 48.9462 57.2683 48.9412 57.2583 48.9311C56.9493 48.6246 56.466 48.3583 56.0723 48.2276C55.7883 48.1321 55.5491 48.112 55.4445 48.1924C55.4395 48.1974 55.4345 48.1974 55.4295 48.2025C55.4245 48.2075 55.4195 48.2075 55.4195 48.2125C55.3498 48.298 55.3996 48.3633 55.5491 48.3884C55.7135 48.4135 56.0374 48.7151 56.1371 48.9362C56.2517 49.1975 56.2318 49.298 55.9079 49.9362C55.3199 51.097 55.0907 51.4388 54.712 51.7202C54.5774 51.8207 54.5575 52.1172 54.6571 52.5644C54.7817 53.1122 54.9163 53.1373 55.3996 52.7152C55.9876 52.2026 56.6952 51.8558 57.338 51.7604C57.4726 51.7403 57.627 51.7101 57.6769 51.69C57.8563 51.6197 58.0057 51.6448 58.1652 51.7704C58.4044 51.9564 58.4044 51.9564 58.4094 53.6298C58.4144 55.1323 58.4044 55.2379 58.2649 56.1675C58.2449 56.3082 58.215 56.5093 58.2001 56.6148C58.1054 57.2932 58.0905 57.3585 57.9958 57.5143C57.8214 57.8007 57.4775 57.8761 56.9493 57.7404C56.4411 57.6098 56.3763 57.7605 56.7849 58.1274C57.2882 58.5847 57.5124 58.8209 57.5872 58.9867C57.8114 59.4641 58.0905 59.4189 58.6286 58.8209C59.3063 58.0621 59.4159 57.5043 59.4259 54.7404L59.4359 52.8509L59.5854 52.6247C59.9292 52.1021 59.5405 51.4589 58.6436 51.0719ZM59.984 40.3329C59.8196 40.2173 59.6502 40.1017 59.6103 40.0816C58.3546 39.3881 57.7815 38.8806 56.8846 37.6846C56.3564 36.981 55.7285 36.4634 55.1156 36.2373C54.7618 36.1016 54.7468 36.0564 54.9661 35.7951C55.3448 35.3478 55.3797 35.0966 55.1206 34.7699C54.8764 34.4634 54.6721 34.3478 54.3881 34.3478C54.2585 34.3478 54.119 34.3428 54.0791 34.3327C54.0392 34.3227 53.9894 34.3277 53.9645 34.3377C53.9595 34.3377 53.9595 34.3377 53.9595 34.3428C53.9545 34.3428 53.9545 34.3478 53.9496 34.3478C53.9496 34.3478 53.9446 34.3478 53.9446 34.3528C53.9147 34.3779 53.9097 34.4382 53.9396 34.5388C53.9446 34.5538 53.9496 34.5739 53.9595 34.594C53.9994 34.7096 53.9097 34.9609 53.7552 35.1468C53.7303 35.177 53.6057 35.3981 53.4811 35.6443C53.2768 36.0463 53.237 36.1016 53.0576 36.2272C52.6041 36.5438 52.5593 36.6092 52.6689 36.8202C52.7486 36.971 52.7536 37.0866 52.6888 37.182C52.6589 37.2222 52.5643 37.4233 52.4796 37.6293C52.1307 38.4484 51.767 39.2374 51.6524 39.4283C51.5876 39.5389 51.4879 39.7148 51.4331 39.8253C51.1889 40.3128 50.2322 41.6445 50.0279 41.7751C49.9581 41.8204 49.8535 41.8807 49.8037 41.9008C49.6641 41.9611 49.6043 42.0767 49.5445 42.3782C49.3602 43.3531 50.0428 43.1722 51.3384 41.8958C51.8019 41.4385 52.5942 40.4032 52.5942 40.2575C52.5942 40.1369 52.7387 40.2123 53.0078 40.4736C53.3217 40.7751 53.6705 40.9812 53.8748 40.9812C54.0193 40.9812 54.109 41.1118 54.0791 41.2827C54.0442 41.4586 53.9645 41.5138 53.5509 41.6344C52.4895 41.946 52.056 42.2375 52.056 42.6596C52.056 43.0214 52.1258 43.1169 52.6789 43.5089C53.1373 43.8355 53.1971 43.8908 53.1971 43.9913C53.1971 44.0968 52.928 44.2777 52.7337 44.3079C52.34 44.3682 52.1606 44.5742 52.1606 44.9712C52.1606 45.6848 52.8931 45.9763 53.6705 45.5642C54.3033 45.2325 55.0109 45.127 55.4993 45.2928C55.6737 45.3531 55.7983 45.3632 56.2567 45.3632H56.8048L56.9095 45.2577C57.2085 44.9561 56.6803 44.0667 56.1969 44.0667C56.167 44.0667 56.0524 44.0315 55.9478 43.9913C55.7933 43.931 55.7086 43.9209 55.5541 43.941C55.2402 43.9762 55.1654 43.8556 55.3448 43.5993C55.3797 43.5491 55.4494 43.4084 55.4993 43.2827C55.5491 43.1571 55.6637 42.9712 55.7534 42.8707C55.9129 42.6847 56.0574 42.343 56.0574 42.147C56.0574 41.951 55.7285 41.4736 55.594 41.4736C55.5142 41.4736 55.4744 41.2977 55.4843 40.9711C55.4943 40.4434 55.5192 40.3882 55.868 40.0515L56.167 39.76V39.4685C56.167 38.8404 55.8032 38.5288 55.0458 38.5087C54.5924 38.4936 54.5724 38.5037 54.2037 38.8655C53.7104 39.3479 53.2519 39.6796 53.0775 39.6796C52.923 39.6796 52.943 39.559 53.2021 39.0263C53.4762 38.4534 53.6207 38.1419 53.8648 37.6142C54.109 37.0866 54.1289 37.0715 54.5226 37.1871C55.1804 37.378 55.8082 38.0012 56.4859 39.1469C56.8397 39.7449 57.4726 40.5892 57.9111 41.0515C58.3894 41.554 58.6635 41.6395 59.8594 41.6344C61.5636 41.6244 61.5786 41.4636 59.984 40.3329ZM53.6854 43.338C53.2768 43.4737 52.5394 43.0867 52.7636 42.8606C52.7985 42.8254 53.8947 42.8707 53.9446 42.9109C54.0542 43.0063 53.8947 43.2677 53.6854 43.338ZM62.2662 52.4941C62.2513 52.7554 62.2413 53.5544 62.2363 54.5544C62.2613 52.9765 62.3061 51.6699 62.3659 51.1272C62.4108 50.7302 62.4407 50.499 62.4656 50.3432C62.3908 50.7704 62.3211 51.5342 62.2662 52.4941ZM63.4173 31.8854C63.9655 32.001 64.4339 32.2673 64.7279 32.6492C64.4389 32.2472 64.0003 31.9909 63.4173 31.8854ZM65.1066 33.589C65.0916 33.4885 65.0667 33.398 65.0418 33.3076C65.1066 33.5689 65.1315 33.8654 65.1165 34.1468C65.1315 33.9407 65.1315 33.7448 65.1066 33.589ZM40.879 50.891C40.8591 50.5644 40.6598 50.1674 40.301 49.9462C40.291 49.9412 40.2811 49.9362 40.2711 49.9312C40.2611 49.9261 40.2512 49.9211 40.2412 49.9161C40.017 49.8005 39.6084 49.705 39.2296 49.6498C38.8609 49.5995 38.5221 49.5895 38.4124 49.6598C38.4074 49.6598 38.4074 49.6648 38.4025 49.6648C38.3526 49.705 38.3526 49.7151 38.4224 49.8106C38.4623 49.8658 38.5819 50.0417 38.6915 50.1975C38.7961 50.3533 38.9556 50.5794 39.0453 50.7C39.2645 50.9915 39.2645 51.1624 39.0503 51.5393C38.831 51.9262 38.4324 52.8458 38.4423 52.9313C38.4473 52.9815 38.4822 53.0117 38.547 53.0167C38.6516 53.0267 38.6865 52.9916 39.0752 52.489C39.5386 51.891 40.1316 51.4438 40.4555 51.4438C40.4704 51.4438 40.4854 51.4438 40.5003 51.4388C40.7794 51.4086 40.894 51.1774 40.879 50.891ZM40.7196 51.8961C40.6797 51.9061 40.6249 51.9413 40.5701 52.0016C40.5352 52.0418 40.4605 52.1322 40.3907 52.2378C40.3658 52.2729 40.3359 52.3132 40.311 52.3534C39.5735 53.4338 38.7313 54.4288 38.5171 54.479C38.0437 54.5846 37.9939 54.6499 37.9939 55.1424C37.9988 55.7454 38.4174 56.253 38.9705 56.3183C39.2894 56.3585 39.3343 56.2781 39.7778 54.9263C39.8924 54.5795 40.0768 54.0921 40.1964 53.8459C40.4754 53.2529 40.6349 52.8609 40.6797 52.6348C40.6996 52.5343 40.7545 52.3634 40.7943 52.2579C40.7993 52.2428 40.8043 52.2277 40.8093 52.2126C40.8143 52.2026 40.8143 52.1976 40.8192 52.1875C40.8242 52.1775 40.8242 52.1674 40.8292 52.1523C40.8342 52.1423 40.8342 52.1322 40.8342 52.1222C40.8641 51.9664 40.8143 51.8759 40.7196 51.8961ZM41.0036 36.4986C40.894 36.0212 40.6 35.7498 39.9372 35.5187C39.7429 35.4483 39.4987 35.3428 39.3891 35.2825C39.3742 35.2724 39.3592 35.2624 39.3443 35.2574C39.135 35.1468 39.0154 35.1468 38.9655 35.2574C38.9506 35.2925 38.9606 35.3629 38.9905 35.4483C38.9905 35.4483 38.9905 35.4483 38.9905 35.4534C39.0602 35.6694 39.2346 35.9911 39.409 36.2272C39.419 36.2423 39.429 36.2574 39.4439 36.2674C39.708 36.5991 39.708 36.6142 39.4041 37.0112C39.1698 37.3177 39.1698 37.3127 39.1948 37.378C39.2346 37.4836 39.9721 37.4584 40.2113 37.3479C40.3359 37.2926 40.4654 37.2574 40.58 37.2574C40.9388 37.2574 41.1132 36.9509 41.0036 36.4986ZM46.0714 50.3684C45.603 49.5392 44.9203 49.4337 43.834 50.0166C43.3207 50.293 43.2958 50.2427 43.6347 49.6447C43.7243 49.4839 43.7991 49.3482 43.8589 49.2377C43.8689 49.2176 43.8788 49.1975 43.8888 49.1724C43.8888 49.1724 43.8888 49.1724 43.8888 49.1673C43.9037 49.1422 43.9137 49.1171 43.9237 49.0919C44.0084 48.911 44.0383 48.8105 44.0383 48.71V48.705C44.0333 48.4286 43.7792 48.0869 43.4503 47.8055L43.4453 47.8005C43.1762 47.5693 42.8573 47.3783 42.5782 47.2879C42.5782 47.2879 42.5782 47.2879 42.5733 47.2879C42.3391 47.2125 42.1348 47.2024 42.0152 47.308C41.8956 47.4135 41.8657 47.7351 41.9105 47.9763C41.9105 47.9814 41.9105 47.9814 41.9105 47.9814C41.9404 48.1271 41.9903 48.2427 42.07 48.2527C42.1946 48.2728 42.2544 48.1974 42.2544 48.0165C42.2544 47.6849 42.3789 47.6346 42.6281 47.8658C43.0716 48.2779 43.0417 48.5693 42.4288 49.8457C41.8707 51.0016 41.5368 51.5845 41.2577 51.8709L41.0186 52.1222L40.9936 52.4689C40.9588 52.9262 40.9986 53.0569 41.2229 53.268C41.5218 53.5494 41.6315 53.5041 42.05 52.9463C42.7527 52.0016 42.658 52.7353 41.9354 53.8308C41.4571 54.5544 41.0883 54.9263 40.605 55.1575C40.1914 55.3534 40.2661 55.5243 40.7993 55.6148C40.9737 55.6449 41.4521 55.5343 41.6514 55.4188C42.2843 55.0519 42.6131 54.6951 43.251 53.685C43.5848 53.1574 43.5948 53.1473 43.7891 53.1473C43.9137 53.1473 44.0034 53.1071 44.4319 52.8458C44.9651 52.5242 45.4933 52.1071 45.882 51.7001C46.3355 51.2428 46.3803 50.9161 46.0714 50.3684ZM45.0598 50.4689C45.0349 50.5995 44.9552 50.8206 44.8605 51.0317C44.8455 51.0568 44.8356 51.082 44.8206 51.1121C44.7907 51.1774 44.7558 51.2428 44.721 51.3031C44.706 51.3282 44.6911 51.3583 44.6761 51.3784C44.6612 51.3986 44.6512 51.4186 44.6412 51.4337C44.6063 51.484 44.5167 51.6197 44.4419 51.7352C44.0333 52.3533 43.5549 52.6348 43.8041 52.1071C43.8838 51.9413 43.8489 51.8357 43.6546 51.6146C43.6446 51.5996 43.6347 51.5895 43.6247 51.5744C43.5798 51.5242 43.545 51.484 43.53 51.4488C43.5051 51.4036 43.5101 51.3634 43.5499 51.3131L43.5549 51.3081C43.5998 51.2478 43.6945 51.1724 43.8439 51.0518C43.8489 51.0468 43.8489 51.0468 43.8539 51.0468C43.9984 50.9312 44.1728 50.7855 44.3771 50.6297C44.407 50.6096 44.4319 50.5895 44.4618 50.5644L44.4668 50.5593C44.5715 50.4839 44.6512 50.4236 44.7259 50.3784C44.7359 50.3734 44.7459 50.3633 44.7558 50.3583C44.7558 50.3583 44.7608 50.3583 44.7608 50.3533C44.9452 50.2427 45.0199 50.2478 45.0498 50.3332C45.0498 50.3382 45.0548 50.3432 45.0548 50.3483V50.3533C45.0598 50.3583 45.0598 50.3684 45.0598 50.3784C45.0598 50.3834 45.0598 50.3885 45.0648 50.3935C45.0698 50.4136 45.0648 50.4387 45.0598 50.4689ZM46.7042 54.7353C46.5398 54.263 45.6877 53.7353 45.0997 53.7353C45.0299 53.7353 44.9302 53.7202 44.8854 53.7052C44.8804 53.7052 44.8804 53.7051 44.8754 53.7001C44.7409 53.6549 44.3472 53.6398 44.0183 53.6448C43.7742 53.6499 43.5699 53.67 43.525 53.7001C43.4403 53.7705 43.4254 53.8408 43.5101 53.9564C43.5151 53.9665 43.52 53.9715 43.53 53.9815C43.545 54.0016 43.5649 54.0217 43.5848 54.0418C43.6347 54.0921 43.6994 54.1524 43.7742 54.2127C43.8091 54.2429 43.8439 54.268 43.8838 54.3032C43.9336 54.3434 43.9885 54.3836 44.0433 54.4288C44.4718 54.7504 44.3522 54.9112 43.5898 55.0368C43.4503 55.0569 43.251 55.1022 43.1463 55.1273C43.0367 55.1575 42.8473 55.1876 42.7178 55.1977C42.3839 55.2278 42.2245 55.2781 42.1995 55.3635C42.1597 55.4891 42.2195 55.4992 42.7726 55.469C43.2958 55.4389 43.4353 55.4489 43.4353 55.4992C43.4353 55.5645 43.0467 55.7856 42.8623 55.8258C42.0002 56.0017 41.2129 56.253 40.8442 56.4791C40.6648 56.5846 40.6 56.6098 40.5502 56.5846C40.4455 56.5294 40.291 56.2781 40.2711 56.1273C40.2711 56.1173 40.2661 56.1072 40.2661 56.0972C40.2611 56.0771 40.2562 56.062 40.2512 56.0419C40.2063 55.8861 40.1116 55.8409 40.012 55.8811C40.007 55.8811 40.002 55.8861 39.9921 55.8861C39.8725 55.9464 39.7429 56.1374 39.6931 56.4138C39.6931 56.4188 39.6931 56.4188 39.6931 56.4238C39.6731 56.5193 39.6781 56.6248 39.703 56.7907C39.708 56.8208 39.713 56.851 39.718 56.8811C39.723 56.9012 39.723 56.9213 39.7279 56.9414C39.7429 57.0319 39.7578 57.1022 39.7728 57.1726C39.7728 57.1776 39.7728 57.1826 39.7778 57.1877C39.8027 57.3032 39.8226 57.4088 39.8625 57.5545C39.8675 57.5746 39.8725 57.5997 39.8774 57.6198C39.8824 57.65 39.8924 57.6801 39.8974 57.7103C39.9024 57.7304 39.9073 57.7505 39.9123 57.7706C39.9273 57.8359 39.9472 57.9013 39.9622 57.9716C40.007 58.1475 40.0618 58.439 40.0817 58.6199C40.1964 59.6501 41.3425 60.4993 41.5418 59.7003C41.6414 59.3033 42.653 59.0671 43.3905 59.2681C43.6596 59.3435 44.0781 59.3234 44.2526 59.233C44.4319 59.1375 44.4618 59.042 44.407 58.6852C44.3721 58.439 44.3721 58.3636 44.412 58.2932C44.4718 58.1827 44.9402 57.449 45.1047 57.2178C45.4485 56.7253 44.8057 55.8107 43.9486 55.5796C43.8639 55.5595 43.7991 55.5243 43.7991 55.5042C43.7991 55.3534 45.4485 55.2982 45.8172 55.4338C46.6295 55.7303 46.9633 55.474 46.7042 54.7353ZM43.3955 57.0972C43.3855 57.1173 43.3755 57.1374 43.3656 57.1625C43.3556 57.1877 43.3407 57.2128 43.3257 57.2429C43.226 57.449 43.1364 57.66 43.1214 57.7103C43.0915 57.8359 42.8722 58.0118 42.6978 58.057C42.6181 58.0771 42.4736 58.1324 42.3789 58.1776C42.2793 58.2279 42.1198 58.2832 42.0201 58.3083C41.9205 58.3284 41.756 58.3736 41.6514 58.3988C41.3126 58.4842 41.2278 58.3837 41.0335 57.65C40.9737 57.4289 40.9687 57.3535 40.9986 57.2831L41.0385 57.1927H42.0949L42.5932 57.0168C42.8673 56.9213 43.1413 56.8158 43.1961 56.7856C43.2061 56.7806 43.2161 56.7756 43.2211 56.7706C43.3407 56.7103 43.4303 56.7103 43.4702 56.7706C43.4752 56.7756 43.4802 56.7856 43.4802 56.7957C43.5001 56.8359 43.4702 56.9314 43.3955 57.0972ZM46.171 41.6093C45.6478 41.4234 44.6313 40.8153 44.5366 40.6344C44.4469 40.4686 45.1644 38.4233 45.4933 37.9057C45.6926 37.5891 45.7724 37.3529 45.7076 37.1117C45.6677 36.9509 45.5631 36.785 45.3937 36.5991C45.3837 36.5891 45.3688 36.574 45.3588 36.5639C45.3389 36.5388 45.3139 36.5137 45.284 36.4886C45.2641 36.4685 45.2442 36.4484 45.2292 36.4333C45.2193 36.4232 45.2093 36.4132 45.1993 36.4031C45.1894 36.3931 45.1794 36.383 45.1694 36.373C45.1545 36.3579 45.1445 36.3478 45.1296 36.3328C45.1047 36.3076 45.0748 36.2825 45.0498 36.2574C44.8704 36.0966 44.7409 35.9961 44.6163 35.9458C44.6163 35.9458 44.6113 35.9458 44.6113 35.9408C44.5615 35.9207 44.5167 35.9107 44.4668 35.9056C44.4618 35.9056 44.4569 35.9056 44.4519 35.9056C44.3921 35.9006 44.3323 35.9056 44.2625 35.9207C44.2376 35.9257 44.2177 35.9308 44.2027 35.9358C44.0981 35.9659 44.0632 36.0061 43.9287 36.2021C43.535 36.78 43.1563 37.1016 42.4288 37.4886C42.0002 37.7147 41.9305 37.765 41.6664 38.0464C41.5069 38.2173 41.2577 38.4534 41.1083 38.574C40.7295 38.8756 40.5452 39.0866 40.2761 39.4937C40.1415 39.6947 39.9821 39.8907 39.8974 39.956C39.728 40.0816 39.6981 40.157 39.7479 40.2927C39.7778 40.3731 39.7678 40.4233 39.6981 40.5791C39.5286 40.9359 39.3941 41.2575 39.3941 41.2977C39.3941 41.3178 39.3542 41.4184 39.3094 41.5189C39.2595 41.6194 39.1798 41.8053 39.13 41.936C38.821 42.7048 38.6715 42.7752 38.7214 42.1319C38.7712 41.5138 38.8609 41.0063 39.0253 40.4032C39.1997 39.7751 39.0802 39.3128 38.6317 38.8655C38.1184 38.358 37.964 38.6343 37.8942 40.1872C37.8792 40.5239 37.8444 40.8756 37.8194 40.9661C37.7796 41.1118 37.7796 41.157 37.8344 41.2927C37.8743 41.3983 37.8942 41.5591 37.8942 41.7902C37.8942 43.3581 38.8559 45.0617 39.4489 44.5491C39.5635 44.4486 39.5884 44.2476 39.6781 42.9209C39.7479 41.9108 39.8475 41.75 40.1665 42.1671C40.595 42.7299 40.7295 42.8053 41.3175 42.8104C42.1946 42.8154 42.8424 42.5993 43.4752 42.0917C43.6197 41.9762 43.7542 41.8958 43.8041 41.8958C43.9635 41.8958 45.1096 42.7249 45.7823 43.328C46.5896 44.0516 47.3819 44.1069 47.3819 43.4335C47.3919 42.6345 46.8836 41.8656 46.171 41.6093ZM42.6281 41.1168C42.5782 41.2425 41.7361 41.7199 41.5617 41.7199C41.5318 41.7199 41.4272 41.75 41.3275 41.7902C41.1033 41.8807 40.5302 41.8907 40.3508 41.8103C40.291 41.7802 40.1764 41.74 40.1067 41.7199C39.9422 41.6696 39.9073 41.5691 39.9921 41.3731C40.0269 41.2977 40.0718 41.152 40.0967 41.0515C40.1017 41.0264 40.1116 41.0063 40.1166 40.9812C40.1864 40.7299 40.2611 40.549 40.3458 40.4284C40.3458 40.4233 40.3508 40.4233 40.3508 40.4183C40.4405 40.2877 40.5452 40.2374 40.6648 40.2575C40.7445 40.2726 40.884 40.2977 40.9687 40.3128C41.0584 40.3279 41.188 40.363 41.2627 40.3982C41.3375 40.4284 41.4222 40.4585 41.4521 40.4585C41.5717 40.4585 42.4636 40.8806 42.5832 40.9962C42.6231 41.0314 42.638 41.0867 42.6281 41.1168ZM43.9835 38.1368C43.9785 38.177 43.9635 38.2273 43.9336 38.2926C43.8738 38.4333 43.5898 39.4082 43.4453 39.956C43.3905 40.162 43.2958 40.1821 42.957 40.0666C42.3789 39.8605 42.2444 39.8404 41.4571 39.8203L40.7096 39.8002L40.6996 39.7098C40.6847 39.5992 41.0285 39.1469 41.2677 38.9459C41.5418 38.7198 42.1049 38.564 42.3989 38.6243C42.937 38.7349 43.2958 38.6343 43.6546 38.2675C43.6745 38.2474 43.6895 38.2323 43.7044 38.2173C43.7194 38.2072 43.7293 38.1921 43.7393 38.1821C43.819 38.1067 43.8788 38.0665 43.9187 38.0564C43.9486 38.0514 43.9735 38.0615 43.9885 38.0866C43.9885 38.0916 43.9885 38.1117 43.9835 38.1368ZM53.6605 54.3936C53.5758 54.3082 53.4413 54.3584 53.3765 54.4991C53.232 54.7956 52.923 55.4941 52.923 55.5243C52.923 55.6148 52.7437 55.7303 52.6888 55.6751C52.5942 55.5796 52.8284 54.1826 53.0725 53.4137C53.3217 52.6197 53.1473 52.2478 52.4596 52.1021C52.3051 52.0669 52.1706 52.0518 52.056 52.0518C52.0311 52.0518 52.0111 52.0518 51.9862 52.0569C51.9713 52.0569 51.9514 52.0619 51.9364 52.0619C51.8916 52.0669 51.8467 52.077 51.8068 52.092C51.8019 52.092 51.7919 52.0971 51.7869 52.0971C51.762 52.1071 51.7371 52.1172 51.7122 52.1373C51.7022 52.1423 51.6972 52.1473 51.6873 52.1523C51.6723 52.1624 51.6623 52.1724 51.6474 52.1825C51.6374 52.1875 51.6324 52.1976 51.6225 52.2076C51.6175 52.2177 51.6075 52.2227 51.6025 52.2327C51.5976 52.2428 51.5876 52.2528 51.5826 52.2579C51.2089 52.886 49.998 53.4891 49.7389 53.1775C49.4798 52.8609 49.4399 52.8408 49.3153 52.9413C49.0562 53.1524 49.3054 53.8006 49.8086 54.1976C50.4515 54.7102 50.8451 54.7052 51.4132 54.1876C51.6773 53.9464 51.7421 53.9162 51.8168 54.0117C51.8567 54.0569 51.8567 54.0971 51.8168 54.2177C51.7421 54.469 51.6723 54.9665 51.6673 55.268C51.6623 55.4238 51.6474 55.655 51.6324 55.7705C51.4182 57.2078 51.4829 57.6148 52.0112 58.1927C52.4845 58.7053 52.5493 58.6299 53.0227 57.047C53.0875 56.8409 53.1772 56.5444 53.222 56.3886C53.2669 56.2329 53.3067 56.0771 53.3067 56.0369C53.3067 55.9967 53.3317 55.8911 53.3665 55.7957C53.3964 55.7002 53.4512 55.5042 53.4861 55.3534C53.521 55.2027 53.5858 54.9414 53.6306 54.7655C53.7104 54.479 53.7104 54.4489 53.6605 54.3936ZM54.3631 49.9312C54.1289 49.4588 53.3815 48.9161 52.9031 48.8759C52.7437 48.8608 52.5443 48.8256 52.4596 48.7955C52.4397 48.7854 52.4148 48.7804 52.3948 48.7754C52.2752 48.7352 52.1905 48.7301 52.1307 48.7603C52.1108 48.7703 52.0959 48.7804 52.0809 48.7955C52.041 48.8357 52.051 48.9713 52.1008 49.1221V49.1271C52.1557 49.298 52.2503 49.494 52.355 49.6297C52.36 49.6347 52.3649 49.6447 52.3699 49.6498C52.3749 49.6548 52.3749 49.6598 52.3799 49.6648C52.5643 49.8759 52.5443 49.9211 52.051 50.3181C51.5726 50.7051 51.2388 50.9412 50.885 51.1523C50.2472 51.5342 50.9199 51.484 51.9215 51.0719C52.3301 50.9061 52.8533 50.7302 53.0277 50.7C53.0975 50.69 53.237 50.6548 53.3366 50.6196C53.5061 50.5644 53.531 50.5644 53.6755 50.6196C54.1937 50.8156 54.5973 50.4086 54.3631 49.9312ZM57.4427 53.6046C57.4078 53.5695 57.3729 53.5343 57.3231 53.4941C57.1835 53.3685 56.8596 53.1825 56.5756 53.0468C56.3414 52.9363 56.1371 52.8559 56.0873 52.881C56.0823 52.881 56.0474 52.8911 56.0125 52.9011C55.9727 52.9112 55.8481 52.9916 55.7285 53.077C55.6089 53.1624 55.4943 53.2328 55.4744 53.2328C55.3697 53.2328 54.7867 53.5946 54.5375 53.8157C54.413 53.9263 54.3183 53.9413 54.2037 53.881C54.0044 53.7705 53.8748 53.9564 53.9745 54.2077C54.0243 54.3283 54.0293 54.5243 54.0293 55.4238C54.0293 56.6801 54.0243 56.66 54.4628 57.1826C54.7817 57.5646 54.8266 57.5847 55.0907 57.444C55.7833 57.0821 56.1321 56.9615 56.1321 57.0821C56.1321 57.1525 56.466 57.4791 56.5308 57.4791C56.7201 57.4791 56.9095 57.253 57.059 56.856C57.0939 56.7555 57.1686 56.3535 57.2384 55.861C57.2583 55.7303 57.2882 55.5243 57.3081 55.3936C57.3281 55.263 57.348 54.9816 57.358 54.7605C57.3679 54.3936 57.3829 54.3434 57.4875 54.1222C57.6071 53.876 57.6121 53.7805 57.4427 53.6046ZM56.2019 55.7303C56.1969 55.7504 56.1969 55.7705 56.1919 55.7957C56.1271 56.1324 56.0723 56.1977 55.8381 56.2329C55.5192 56.2831 55.1704 56.3635 55.0757 56.4037C54.991 56.4439 54.9711 56.4389 54.9113 56.3585C54.7568 56.1675 54.9312 55.861 55.2402 55.7655C55.4544 55.7002 55.8082 55.5343 55.9129 55.4539C55.9179 55.4489 55.9278 55.4439 55.9328 55.4389C56.0075 55.3936 56.1122 55.3786 56.172 55.3987C56.1969 55.4087 56.2168 55.4238 56.2218 55.4439C56.2368 55.474 56.2268 55.5947 56.2019 55.7303ZM56.0125 54.6549C55.8232 54.5745 55.7036 54.5896 55.4694 54.7102C55.1505 54.871 55.0558 54.8811 54.9611 54.7605C54.7867 54.5343 54.8864 54.4388 55.4694 54.2579C55.6438 54.2027 55.8531 54.1172 55.9328 54.0569C55.9577 54.0418 55.9776 54.0268 55.9976 54.0167C56.0075 54.0117 56.0175 54.0016 56.0275 53.9966C56.0424 53.9866 56.0574 53.9815 56.0723 53.9765C56.0773 53.9715 56.0873 53.9715 56.0923 53.9665C56.1122 53.9614 56.1271 53.9564 56.1421 53.9614H56.1471C56.1521 53.9614 56.157 53.9665 56.162 53.9665C56.167 53.9715 56.172 53.9715 56.177 53.9765C56.177 53.9765 56.182 53.9765 56.182 53.9815C56.1869 53.9866 56.1919 53.9916 56.1969 53.9966C56.2019 54.0016 56.2069 54.0217 56.2168 54.0469C56.2268 54.0971 56.2417 54.1775 56.2517 54.268V54.273C56.2517 54.2881 56.2567 54.3032 56.2567 54.3182C56.2567 54.3333 56.2617 54.3534 56.2617 54.3735C56.2866 54.7504 56.2716 54.7655 56.0125 54.6549ZM58.6436 51.0719C58.23 50.896 57.3281 50.8257 57.039 50.9463C56.8895 51.0066 56.755 51.0166 56.7251 50.9613C56.7002 50.9161 56.7251 50.8608 57.064 50.2779C57.1088 50.2025 57.1487 50.1322 57.1835 50.0719C57.2085 50.0266 57.2334 49.9814 57.2583 49.9412L57.2633 49.9362C57.2732 49.9161 57.2882 49.896 57.2982 49.8759C57.4427 49.6146 57.5074 49.4538 57.5074 49.3281C57.5074 49.2025 57.4427 49.1171 57.3181 48.9914C57.3131 48.9864 57.3131 48.9864 57.3081 48.9814C57.3031 48.9713 57.2932 48.9663 57.2832 48.9563C57.2732 48.9462 57.2683 48.9412 57.2583 48.9311C56.9493 48.6246 56.466 48.3583 56.0723 48.2276C55.7883 48.1321 55.5491 48.112 55.4445 48.1924C55.4395 48.1974 55.4345 48.1974 55.4295 48.2025C55.4245 48.2075 55.4195 48.2075 55.4195 48.2125C55.3498 48.298 55.3996 48.3633 55.5491 48.3884C55.7135 48.4135 56.0374 48.7151 56.1371 48.9362C56.2517 49.1975 56.2318 49.298 55.9079 49.9362C55.3199 51.097 55.0907 51.4388 54.712 51.7202C54.5774 51.8207 54.5575 52.1172 54.6571 52.5644C54.7817 53.1122 54.9163 53.1373 55.3996 52.7152C55.9876 52.2026 56.6952 51.8558 57.338 51.7604C57.4726 51.7403 57.627 51.7101 57.6769 51.69C57.8563 51.6197 58.0057 51.6448 58.1652 51.7704C58.4044 51.9564 58.4044 51.9564 58.4094 53.6298C58.4144 55.1323 58.4044 55.2379 58.2649 56.1675C58.2449 56.3082 58.215 56.5093 58.2001 56.6148C58.1054 57.2932 58.0905 57.3585 57.9958 57.5143C57.8214 57.8007 57.4775 57.8761 56.9493 57.7404C56.4411 57.6098 56.3763 57.7605 56.7849 58.1274C57.2882 58.5847 57.5124 58.8209 57.5872 58.9867C57.8114 59.4641 58.0905 59.4189 58.6286 58.8209C59.3063 58.0621 59.4159 57.5043 59.4259 54.7404L59.4359 52.8509L59.5854 52.6247C59.9292 52.1021 59.5405 51.4589 58.6436 51.0719ZM59.984 40.3329C59.8196 40.2173 59.6502 40.1017 59.6103 40.0816C58.3546 39.3881 57.7815 38.8806 56.8846 37.6846C56.3564 36.981 55.7285 36.4634 55.1156 36.2373C54.7618 36.1016 54.7468 36.0564 54.9661 35.7951C55.3448 35.3478 55.3797 35.0966 55.1206 34.7699C54.8764 34.4634 54.6721 34.3478 54.3881 34.3478C54.2585 34.3478 54.119 34.3428 54.0791 34.3327C54.0392 34.3227 53.9894 34.3277 53.9645 34.3377C53.9595 34.3377 53.9595 34.3377 53.9595 34.3428C53.9545 34.3428 53.9545 34.3478 53.9496 34.3478C53.9496 34.3478 53.9446 34.3478 53.9446 34.3528C53.9147 34.3779 53.9097 34.4382 53.9396 34.5388C53.9446 34.5538 53.9496 34.5739 53.9595 34.594C53.9994 34.7096 53.9097 34.9609 53.7552 35.1468C53.7303 35.177 53.6057 35.3981 53.4811 35.6443C53.2768 36.0463 53.237 36.1016 53.0576 36.2272C52.6041 36.5438 52.5593 36.6092 52.6689 36.8202C52.7486 36.971 52.7536 37.0866 52.6888 37.182C52.6589 37.2222 52.5643 37.4233 52.4796 37.6293C52.1307 38.4484 51.767 39.2374 51.6524 39.4283C51.5876 39.5389 51.4879 39.7148 51.4331 39.8253C51.1889 40.3128 50.2322 41.6445 50.0279 41.7751C49.9581 41.8204 49.8535 41.8807 49.8037 41.9008C49.6641 41.9611 49.6043 42.0767 49.5445 42.3782C49.3602 43.3531 50.0428 43.1722 51.3384 41.8958C51.8019 41.4385 52.5942 40.4032 52.5942 40.2575C52.5942 40.1369 52.7387 40.2123 53.0078 40.4736C53.3217 40.7751 53.6705 40.9812 53.8748 40.9812C54.0193 40.9812 54.109 41.1118 54.0791 41.2827C54.0442 41.4586 53.9645 41.5138 53.5509 41.6344C52.4895 41.946 52.056 42.2375 52.056 42.6596C52.056 43.0214 52.1258 43.1169 52.6789 43.5089C53.1373 43.8355 53.1971 43.8908 53.1971 43.9913C53.1971 44.0968 52.928 44.2777 52.7337 44.3079C52.34 44.3682 52.1606 44.5742 52.1606 44.9712C52.1606 45.6848 52.8931 45.9763 53.6705 45.5642C54.3033 45.2325 55.0109 45.127 55.4993 45.2928C55.6737 45.3531 55.7983 45.3632 56.2567 45.3632H56.8048L56.9095 45.2577C57.2085 44.9561 56.6803 44.0667 56.1969 44.0667C56.167 44.0667 56.0524 44.0315 55.9478 43.9913C55.7933 43.931 55.7086 43.9209 55.5541 43.941C55.2402 43.9762 55.1654 43.8556 55.3448 43.5993C55.3797 43.5491 55.4494 43.4084 55.4993 43.2827C55.5491 43.1571 55.6637 42.9712 55.7534 42.8707C55.9129 42.6847 56.0574 42.343 56.0574 42.147C56.0574 41.951 55.7285 41.4736 55.594 41.4736C55.5142 41.4736 55.4744 41.2977 55.4843 40.9711C55.4943 40.4434 55.5192 40.3882 55.868 40.0515L56.167 39.76V39.4685C56.167 38.8404 55.8032 38.5288 55.0458 38.5087C54.5924 38.4936 54.5724 38.5037 54.2037 38.8655C53.7104 39.3479 53.2519 39.6796 53.0775 39.6796C52.923 39.6796 52.943 39.559 53.2021 39.0263C53.4762 38.4534 53.6207 38.1419 53.8648 37.6142C54.109 37.0866 54.1289 37.0715 54.5226 37.1871C55.1804 37.378 55.8082 38.0012 56.4859 39.1469C56.8397 39.7449 57.4726 40.5892 57.9111 41.0515C58.3894 41.554 58.6635 41.6395 59.8594 41.6344C61.5636 41.6244 61.5786 41.4636 59.984 40.3329ZM53.6854 43.338C53.2768 43.4737 52.5394 43.0867 52.7636 42.8606C52.7985 42.8254 53.8947 42.8707 53.9446 42.9109C54.0542 43.0063 53.8947 43.2677 53.6854 43.338ZM59.984 40.3329C59.8196 40.2173 59.6502 40.1017 59.6103 40.0816C58.3546 39.3881 57.7815 38.8806 56.8846 37.6846C56.3564 36.981 55.7285 36.4634 55.1156 36.2373C54.7618 36.1016 54.7468 36.0564 54.9661 35.7951C55.3448 35.3478 55.3797 35.0966 55.1206 34.7699C54.8764 34.4634 54.6721 34.3478 54.3881 34.3478C54.2585 34.3478 54.119 34.3428 54.0791 34.3327C54.0392 34.3227 53.9894 34.3277 53.9645 34.3377C53.9595 34.3377 53.9595 34.3377 53.9595 34.3428C53.9545 34.3428 53.9545 34.3478 53.9496 34.3478C53.9496 34.3478 53.9446 34.3478 53.9446 34.3528C53.9147 34.3779 53.9097 34.4382 53.9396 34.5388C53.9446 34.5538 53.9496 34.5739 53.9595 34.594C53.9994 34.7096 53.9097 34.9609 53.7552 35.1468C53.7303 35.177 53.6057 35.3981 53.4811 35.6443C53.2768 36.0463 53.237 36.1016 53.0576 36.2272C52.6041 36.5438 52.5593 36.6092 52.6689 36.8202C52.7486 36.971 52.7536 37.0866 52.6888 37.182C52.6589 37.2222 52.5643 37.4233 52.4796 37.6293C52.1307 38.4484 51.767 39.2374 51.6524 39.4283C51.5876 39.5389 51.4879 39.7148 51.4331 39.8253C51.1889 40.3128 50.2322 41.6445 50.0279 41.7751C49.9581 41.8204 49.8535 41.8807 49.8037 41.9008C49.6641 41.9611 49.6043 42.0767 49.5445 42.3782C49.3602 43.3531 50.0428 43.1722 51.3384 41.8958C51.8019 41.4385 52.5942 40.4032 52.5942 40.2575C52.5942 40.1369 52.7387 40.2123 53.0078 40.4736C53.3217 40.7751 53.6705 40.9812 53.8748 40.9812C54.0193 40.9812 54.109 41.1118 54.0791 41.2827C54.0442 41.4586 53.9645 41.5138 53.5509 41.6344C52.4895 41.946 52.056 42.2375 52.056 42.6596C52.056 43.0214 52.1258 43.1169 52.6789 43.5089C53.1373 43.8355 53.1971 43.8908 53.1971 43.9913C53.1971 44.0968 52.928 44.2777 52.7337 44.3079C52.34 44.3682 52.1606 44.5742 52.1606 44.9712C52.1606 45.6848 52.8931 45.9763 53.6705 45.5642C54.3033 45.2325 55.0109 45.127 55.4993 45.2928C55.6737 45.3531 55.7983 45.3632 56.2567 45.3632H56.8048L56.9095 45.2577C57.2085 44.9561 56.6803 44.0667 56.1969 44.0667C56.167 44.0667 56.0524 44.0315 55.9478 43.9913C55.7933 43.931 55.7086 43.9209 55.5541 43.941C55.2402 43.9762 55.1654 43.8556 55.3448 43.5993C55.3797 43.5491 55.4494 43.4084 55.4993 43.2827C55.5491 43.1571 55.6637 42.9712 55.7534 42.8707C55.9129 42.6847 56.0574 42.343 56.0574 42.147C56.0574 41.951 55.7285 41.4736 55.594 41.4736C55.5142 41.4736 55.4744 41.2977 55.4843 40.9711C55.4943 40.4434 55.5192 40.3882 55.868 40.0515L56.167 39.76V39.4685C56.167 38.8404 55.8032 38.5288 55.0458 38.5087C54.5924 38.4936 54.5724 38.5037 54.2037 38.8655C53.7104 39.3479 53.2519 39.6796 53.0775 39.6796C52.923 39.6796 52.943 39.559 53.2021 39.0263C53.4762 38.4534 53.6207 38.1419 53.8648 37.6142C54.109 37.0866 54.1289 37.0715 54.5226 37.1871C55.1804 37.378 55.8082 38.0012 56.4859 39.1469C56.8397 39.7449 57.4726 40.5892 57.9111 41.0515C58.3894 41.554 58.6635 41.6395 59.8594 41.6344C61.5636 41.6244 61.5786 41.4636 59.984 40.3329ZM53.6854 43.338C53.2768 43.4737 52.5394 43.0867 52.7636 42.8606C52.7985 42.8254 53.8947 42.8707 53.9446 42.9109C54.0542 43.0063 53.8947 43.2677 53.6854 43.338ZM41.0036 36.4986C40.894 36.0212 40.6 35.7498 39.9372 35.5187C39.7429 35.4483 39.4987 35.3428 39.3891 35.2825C39.3742 35.2724 39.3592 35.2624 39.3443 35.2574C39.135 35.1468 39.0154 35.1468 38.9655 35.2574C38.9506 35.2925 38.9606 35.3629 38.9905 35.4483C38.9905 35.4483 38.9905 35.4483 38.9905 35.4534C39.0602 35.6694 39.2346 35.9911 39.409 36.2272C39.419 36.2423 39.429 36.2574 39.4439 36.2674C39.708 36.5991 39.708 36.6142 39.4041 37.0112C39.1698 37.3177 39.1698 37.3127 39.1948 37.378C39.2346 37.4836 39.9721 37.4584 40.2113 37.3479C40.3359 37.2926 40.4654 37.2574 40.58 37.2574C40.9388 37.2574 41.1132 36.9509 41.0036 36.4986ZM46.171 41.6093C45.6478 41.4234 44.6313 40.8153 44.5366 40.6344C44.4469 40.4686 45.1644 38.4233 45.4933 37.9057C45.6926 37.5891 45.7724 37.3529 45.7076 37.1117C45.6677 36.9509 45.5631 36.785 45.3937 36.5991C45.3837 36.5891 45.3688 36.574 45.3588 36.5639C45.3389 36.5388 45.3139 36.5137 45.284 36.4886C45.2641 36.4685 45.2442 36.4484 45.2292 36.4333C45.2193 36.4232 45.2093 36.4132 45.1993 36.4031C45.1894 36.3931 45.1794 36.383 45.1694 36.373C45.1545 36.3579 45.1445 36.3478 45.1296 36.3328C45.1047 36.3076 45.0748 36.2825 45.0498 36.2574C44.8704 36.0966 44.7409 35.9961 44.6163 35.9458C44.6163 35.9458 44.6113 35.9458 44.6113 35.9408C44.5615 35.9207 44.5167 35.9107 44.4668 35.9056C44.4618 35.9056 44.4569 35.9056 44.4519 35.9056C44.3921 35.9006 44.3323 35.9056 44.2625 35.9207C44.2376 35.9257 44.2177 35.9308 44.2027 35.9358C44.0981 35.9659 44.0632 36.0061 43.9287 36.2021C43.535 36.78 43.1563 37.1016 42.4288 37.4886C42.0002 37.7147 41.9305 37.765 41.6664 38.0464C41.5069 38.2173 41.2577 38.4534 41.1083 38.574C40.7295 38.8756 40.5452 39.0866 40.2761 39.4937C40.1415 39.6947 39.9821 39.8907 39.8974 39.956C39.728 40.0816 39.6981 40.157 39.7479 40.2927C39.7778 40.3731 39.7678 40.4233 39.6981 40.5791C39.5286 40.9359 39.3941 41.2575 39.3941 41.2977C39.3941 41.3178 39.3542 41.4184 39.3094 41.5189C39.2595 41.6194 39.1798 41.8053 39.13 41.936C38.821 42.7048 38.6715 42.7752 38.7214 42.1319C38.7712 41.5138 38.8609 41.0063 39.0253 40.4032C39.1997 39.7751 39.0802 39.3128 38.6317 38.8655C38.1184 38.358 37.964 38.6343 37.8942 40.1872C37.8792 40.5239 37.8444 40.8756 37.8194 40.9661C37.7796 41.1118 37.7796 41.157 37.8344 41.2927C37.8743 41.3983 37.8942 41.5591 37.8942 41.7902C37.8942 43.3581 38.8559 45.0617 39.4489 44.5491C39.5635 44.4486 39.5884 44.2476 39.6781 42.9209C39.7479 41.9108 39.8475 41.75 40.1665 42.1671C40.595 42.7299 40.7295 42.8053 41.3175 42.8104C42.1946 42.8154 42.8424 42.5993 43.4752 42.0917C43.6197 41.9762 43.7542 41.8958 43.8041 41.8958C43.9635 41.8958 45.1096 42.7249 45.7823 43.328C46.5896 44.0516 47.3819 44.1069 47.3819 43.4335C47.3919 42.6345 46.8836 41.8656 46.171 41.6093ZM42.6281 41.1168C42.5782 41.2425 41.7361 41.7199 41.5617 41.7199C41.5318 41.7199 41.4272 41.75 41.3275 41.7902C41.1033 41.8807 40.5302 41.8907 40.3508 41.8103C40.291 41.7802 40.1764 41.74 40.1067 41.7199C39.9422 41.6696 39.9073 41.5691 39.9921 41.3731C40.0269 41.2977 40.0718 41.152 40.0967 41.0515C40.1017 41.0264 40.1116 41.0063 40.1166 40.9812C40.1864 40.7299 40.2611 40.549 40.3458 40.4284C40.3458 40.4233 40.3508 40.4233 40.3508 40.4183C40.4405 40.2877 40.5452 40.2374 40.6648 40.2575C40.7445 40.2726 40.884 40.2977 40.9687 40.3128C41.0584 40.3279 41.188 40.363 41.2627 40.3982C41.3375 40.4284 41.4222 40.4585 41.4521 40.4585C41.5717 40.4585 42.4636 40.8806 42.5832 40.9962C42.6231 41.0314 42.638 41.0867 42.6281 41.1168ZM43.9835 38.1368C43.9785 38.177 43.9635 38.2273 43.9336 38.2926C43.8738 38.4333 43.5898 39.4082 43.4453 39.956C43.3905 40.162 43.2958 40.1821 42.957 40.0666C42.3789 39.8605 42.2444 39.8404 41.4571 39.8203L40.7096 39.8002L40.6996 39.7098C40.6847 39.5992 41.0285 39.1469 41.2677 38.9459C41.5418 38.7198 42.1049 38.564 42.3989 38.6243C42.937 38.7349 43.2958 38.6343 43.6546 38.2675C43.6745 38.2474 43.6895 38.2323 43.7044 38.2173C43.7194 38.2072 43.7293 38.1921 43.7393 38.1821C43.819 38.1067 43.8788 38.0665 43.9187 38.0564C43.9486 38.0514 43.9735 38.0615 43.9885 38.0866C43.9885 38.0916 43.9885 38.1117 43.9835 38.1368ZM46.0714 50.3684C45.603 49.5392 44.9203 49.4337 43.834 50.0166C43.3207 50.293 43.2958 50.2427 43.6347 49.6447C43.7243 49.4839 43.7991 49.3482 43.8589 49.2377C43.8689 49.2176 43.8788 49.1975 43.8888 49.1724C43.8888 49.1724 43.8888 49.1724 43.8888 49.1673C43.9037 49.1422 43.9137 49.1171 43.9237 49.0919C44.0084 48.911 44.0383 48.8105 44.0383 48.71V48.705C44.0333 48.4286 43.7792 48.0869 43.4503 47.8055L43.4453 47.8005C43.1762 47.5693 42.8573 47.3783 42.5782 47.2879C42.5782 47.2879 42.5782 47.2879 42.5733 47.2879C42.3391 47.2125 42.1348 47.2024 42.0152 47.308C41.8956 47.4135 41.8657 47.7351 41.9105 47.9763C41.9105 47.9814 41.9105 47.9814 41.9105 47.9814C41.9404 48.1271 41.9903 48.2427 42.07 48.2527C42.1946 48.2728 42.2544 48.1974 42.2544 48.0165C42.2544 47.6849 42.3789 47.6346 42.6281 47.8658C43.0716 48.2779 43.0417 48.5693 42.4288 49.8457C41.8707 51.0016 41.5368 51.5845 41.2577 51.8709L41.0186 52.1222L40.9936 52.4689C40.9588 52.9262 40.9986 53.0569 41.2229 53.268C41.5218 53.5494 41.6315 53.5041 42.05 52.9463C42.7527 52.0016 42.658 52.7353 41.9354 53.8308C41.4571 54.5544 41.0883 54.9263 40.605 55.1575C40.1914 55.3534 40.2661 55.5243 40.7993 55.6148C40.9737 55.6449 41.4521 55.5343 41.6514 55.4188C42.2843 55.0519 42.6131 54.6951 43.251 53.685C43.5848 53.1574 43.5948 53.1473 43.7891 53.1473C43.9137 53.1473 44.0034 53.1071 44.4319 52.8458C44.9651 52.5242 45.4933 52.1071 45.882 51.7001C46.3355 51.2428 46.3803 50.9161 46.0714 50.3684ZM45.0598 50.4689C45.0349 50.5995 44.9552 50.8206 44.8605 51.0317C44.8455 51.0568 44.8356 51.082 44.8206 51.1121C44.7907 51.1774 44.7558 51.2428 44.721 51.3031C44.706 51.3282 44.6911 51.3583 44.6761 51.3784C44.6612 51.3986 44.6512 51.4186 44.6412 51.4337C44.6063 51.484 44.5167 51.6197 44.4419 51.7352C44.0333 52.3533 43.5549 52.6348 43.8041 52.1071C43.8838 51.9413 43.8489 51.8357 43.6546 51.6146C43.6446 51.5996 43.6347 51.5895 43.6247 51.5744C43.5798 51.5242 43.545 51.484 43.53 51.4488C43.5051 51.4036 43.5101 51.3634 43.5499 51.3131L43.5549 51.3081C43.5998 51.2478 43.6945 51.1724 43.8439 51.0518C43.8489 51.0468 43.8489 51.0468 43.8539 51.0468C43.9984 50.9312 44.1728 50.7855 44.3771 50.6297C44.407 50.6096 44.4319 50.5895 44.4618 50.5644L44.4668 50.5593C44.5715 50.4839 44.6512 50.4236 44.7259 50.3784C44.7359 50.3734 44.7459 50.3633 44.7558 50.3583C44.7558 50.3583 44.7608 50.3583 44.7608 50.3533C44.9452 50.2427 45.0199 50.2478 45.0498 50.3332C45.0498 50.3382 45.0548 50.3432 45.0548 50.3483V50.3533C45.0598 50.3583 45.0598 50.3684 45.0598 50.3784C45.0598 50.3834 45.0598 50.3885 45.0648 50.3935C45.0698 50.4136 45.0648 50.4387 45.0598 50.4689ZM58.6436 51.0719C58.23 50.896 57.3281 50.8257 57.039 50.9463C56.8895 51.0066 56.755 51.0166 56.7251 50.9613C56.7002 50.9161 56.7251 50.8608 57.064 50.2779C57.1088 50.2025 57.1487 50.1322 57.1835 50.0719C57.2085 50.0266 57.2334 49.9814 57.2583 49.9412L57.2633 49.9362C57.2732 49.9161 57.2882 49.896 57.2982 49.8759C57.4427 49.6146 57.5074 49.4538 57.5074 49.3281C57.5074 49.2025 57.4427 49.1171 57.3181 48.9914C57.3131 48.9864 57.3131 48.9864 57.3081 48.9814C57.3031 48.9713 57.2932 48.9663 57.2832 48.9563C57.2732 48.9462 57.2683 48.9412 57.2583 48.9311C56.9493 48.6246 56.466 48.3583 56.0723 48.2276C55.7883 48.1321 55.5491 48.112 55.4445 48.1924C55.4395 48.1974 55.4345 48.1974 55.4295 48.2025C55.4245 48.2075 55.4195 48.2075 55.4195 48.2125C55.3498 48.298 55.3996 48.3633 55.5491 48.3884C55.7135 48.4135 56.0374 48.7151 56.1371 48.9362C56.2517 49.1975 56.2318 49.298 55.9079 49.9362C55.3199 51.097 55.0907 51.4388 54.712 51.7202C54.5774 51.8207 54.5575 52.1172 54.6571 52.5644C54.7817 53.1122 54.9163 53.1373 55.3996 52.7152C55.9876 52.2026 56.6952 51.8558 57.338 51.7604C57.4726 51.7403 57.627 51.7101 57.6769 51.69C57.8563 51.6197 58.0057 51.6448 58.1652 51.7704C58.4044 51.9564 58.4044 51.9564 58.4094 53.6298C58.4144 55.1323 58.4044 55.2379 58.2649 56.1675C58.2449 56.3082 58.215 56.5093 58.2001 56.6148C58.1054 57.2932 58.0905 57.3585 57.9958 57.5143C57.8214 57.8007 57.4775 57.8761 56.9493 57.7404C56.4411 57.6098 56.3763 57.7605 56.7849 58.1274C57.2882 58.5847 57.5124 58.8209 57.5872 58.9867C57.8114 59.4641 58.0905 59.4189 58.6286 58.8209C59.3063 58.0621 59.4159 57.5043 59.4259 54.7404L59.4359 52.8509L59.5854 52.6247C59.9292 52.1021 59.5405 51.4589 58.6436 51.0719ZM54.3631 49.9312C54.1289 49.4588 53.3815 48.9161 52.9031 48.8759C52.7437 48.8608 52.5443 48.8256 52.4596 48.7955C52.4397 48.7854 52.4148 48.7804 52.3948 48.7754C52.2752 48.7352 52.1905 48.7301 52.1307 48.7603C52.1108 48.7703 52.0959 48.7804 52.0809 48.7955C52.041 48.8357 52.051 48.9713 52.1008 49.1221V49.1271C52.1557 49.298 52.2503 49.494 52.355 49.6297C52.36 49.6347 52.3649 49.6447 52.3699 49.6498C52.3749 49.6548 52.3749 49.6598 52.3799 49.6648C52.5643 49.8759 52.5443 49.9211 52.051 50.3181C51.5726 50.7051 51.2388 50.9412 50.885 51.1523C50.2472 51.5342 50.9199 51.484 51.9215 51.0719C52.3301 50.9061 52.8533 50.7302 53.0277 50.7C53.0975 50.69 53.237 50.6548 53.3366 50.6196C53.5061 50.5644 53.531 50.5644 53.6755 50.6196C54.1937 50.8156 54.5973 50.4086 54.3631 49.9312ZM40.879 50.891C40.8591 50.5644 40.6598 50.1674 40.301 49.9462C40.291 49.9412 40.2811 49.9362 40.2711 49.9312C40.2611 49.9261 40.2512 49.9211 40.2412 49.9161C40.017 49.8005 39.6084 49.705 39.2296 49.6498C38.8609 49.5995 38.5221 49.5895 38.4124 49.6598C38.4074 49.6598 38.4074 49.6648 38.4025 49.6648C38.3526 49.705 38.3526 49.7151 38.4224 49.8106C38.4623 49.8658 38.5819 50.0417 38.6915 50.1975C38.7961 50.3533 38.9556 50.5794 39.0453 50.7C39.2645 50.9915 39.2645 51.1624 39.0503 51.5393C38.831 51.9262 38.4324 52.8458 38.4423 52.9313C38.4473 52.9815 38.4822 53.0117 38.547 53.0167C38.6516 53.0267 38.6865 52.9916 39.0752 52.489C39.5386 51.891 40.1316 51.4438 40.4555 51.4438C40.4704 51.4438 40.4854 51.4438 40.5003 51.4388C40.7794 51.4086 40.894 51.1774 40.879 50.891ZM40.7196 51.8961C40.6797 51.9061 40.6249 51.9413 40.5701 52.0016C40.5352 52.0418 40.4605 52.1322 40.3907 52.2378C40.3658 52.2729 40.3359 52.3132 40.311 52.3534C39.5735 53.4338 38.7313 54.4288 38.5171 54.479C38.0437 54.5846 37.9939 54.6499 37.9939 55.1424C37.9988 55.7454 38.4174 56.253 38.9705 56.3183C39.2894 56.3585 39.3343 56.2781 39.7778 54.9263C39.8924 54.5795 40.0768 54.0921 40.1964 53.8459C40.4754 53.2529 40.6349 52.8609 40.6797 52.6348C40.6996 52.5343 40.7545 52.3634 40.7943 52.2579C40.7993 52.2428 40.8043 52.2277 40.8093 52.2126C40.8143 52.2026 40.8143 52.1976 40.8192 52.1875C40.8242 52.1775 40.8242 52.1674 40.8292 52.1523C40.8342 52.1423 40.8342 52.1322 40.8342 52.1222C40.8641 51.9664 40.8143 51.8759 40.7196 51.8961ZM53.6605 54.3936C53.5758 54.3082 53.4413 54.3584 53.3765 54.4991C53.232 54.7956 52.923 55.4941 52.923 55.5243C52.923 55.6148 52.7437 55.7303 52.6888 55.6751C52.5942 55.5796 52.8284 54.1826 53.0725 53.4137C53.3217 52.6197 53.1473 52.2478 52.4596 52.1021C52.3051 52.0669 52.1706 52.0518 52.056 52.0518C52.0311 52.0518 52.0111 52.0518 51.9862 52.0569C51.9713 52.0569 51.9514 52.0619 51.9364 52.0619C51.8916 52.0669 51.8467 52.077 51.8068 52.092C51.8019 52.092 51.7919 52.0971 51.7869 52.0971C51.762 52.1071 51.7371 52.1172 51.7122 52.1373C51.7022 52.1423 51.6972 52.1473 51.6873 52.1523C51.6723 52.1624 51.6623 52.1724 51.6474 52.1825C51.6374 52.1875 51.6324 52.1976 51.6225 52.2076C51.6175 52.2177 51.6075 52.2227 51.6025 52.2327C51.5976 52.2428 51.5876 52.2528 51.5826 52.2579C51.2089 52.886 49.998 53.4891 49.7389 53.1775C49.4798 52.8609 49.4399 52.8408 49.3153 52.9413C49.0562 53.1524 49.3054 53.8006 49.8086 54.1976C50.4515 54.7102 50.8451 54.7052 51.4132 54.1876C51.6773 53.9464 51.7421 53.9162 51.8168 54.0117C51.8567 54.0569 51.8567 54.0971 51.8168 54.2177C51.7421 54.469 51.6723 54.9665 51.6673 55.268C51.6623 55.4238 51.6474 55.655 51.6324 55.7705C51.4182 57.2078 51.4829 57.6148 52.0112 58.1927C52.4845 58.7053 52.5493 58.6299 53.0227 57.047C53.0875 56.8409 53.1772 56.5444 53.222 56.3886C53.2669 56.2329 53.3067 56.0771 53.3067 56.0369C53.3067 55.9967 53.3317 55.8911 53.3665 55.7957C53.3964 55.7002 53.4512 55.5042 53.4861 55.3534C53.521 55.2027 53.5858 54.9414 53.6306 54.7655C53.7104 54.479 53.7104 54.4489 53.6605 54.3936ZM57.4427 53.6046C57.4078 53.5695 57.3729 53.5343 57.3231 53.4941C57.1835 53.3685 56.8596 53.1825 56.5756 53.0468C56.3414 52.9363 56.1371 52.8559 56.0873 52.881C56.0823 52.881 56.0474 52.8911 56.0125 52.9011C55.9727 52.9112 55.8481 52.9916 55.7285 53.077C55.6089 53.1624 55.4943 53.2328 55.4744 53.2328C55.3697 53.2328 54.7867 53.5946 54.5375 53.8157C54.413 53.9263 54.3183 53.9413 54.2037 53.881C54.0044 53.7705 53.8748 53.9564 53.9745 54.2077C54.0243 54.3283 54.0293 54.5243 54.0293 55.4238C54.0293 56.6801 54.0243 56.66 54.4628 57.1826C54.7817 57.5646 54.8266 57.5847 55.0907 57.444C55.7833 57.0821 56.1321 56.9615 56.1321 57.0821C56.1321 57.1525 56.466 57.4791 56.5308 57.4791C56.7201 57.4791 56.9095 57.253 57.059 56.856C57.0939 56.7555 57.1686 56.3535 57.2384 55.861C57.2583 55.7303 57.2882 55.5243 57.3081 55.3936C57.3281 55.263 57.348 54.9816 57.358 54.7605C57.3679 54.3936 57.3829 54.3434 57.4875 54.1222C57.6071 53.876 57.6121 53.7805 57.4427 53.6046ZM56.2019 55.7303C56.1969 55.7504 56.1969 55.7705 56.1919 55.7957C56.1271 56.1324 56.0723 56.1977 55.8381 56.2329C55.5192 56.2831 55.1704 56.3635 55.0757 56.4037C54.991 56.4439 54.9711 56.4389 54.9113 56.3585C54.7568 56.1675 54.9312 55.861 55.2402 55.7655C55.4544 55.7002 55.8082 55.5343 55.9129 55.4539C55.9179 55.4489 55.9278 55.4439 55.9328 55.4389C56.0075 55.3936 56.1122 55.3786 56.172 55.3987C56.1969 55.4087 56.2168 55.4238 56.2218 55.4439C56.2368 55.474 56.2268 55.5947 56.2019 55.7303ZM56.0125 54.6549C55.8232 54.5745 55.7036 54.5896 55.4694 54.7102C55.1505 54.871 55.0558 54.8811 54.9611 54.7605C54.7867 54.5343 54.8864 54.4388 55.4694 54.2579C55.6438 54.2027 55.8531 54.1172 55.9328 54.0569C55.9577 54.0418 55.9776 54.0268 55.9976 54.0167C56.0075 54.0117 56.0175 54.0016 56.0275 53.9966C56.0424 53.9866 56.0574 53.9815 56.0723 53.9765C56.0773 53.9715 56.0873 53.9715 56.0923 53.9665C56.1122 53.9614 56.1271 53.9564 56.1421 53.9614H56.1471C56.1521 53.9614 56.157 53.9665 56.162 53.9665C56.167 53.9715 56.172 53.9715 56.177 53.9765C56.177 53.9765 56.182 53.9765 56.182 53.9815C56.1869 53.9866 56.1919 53.9916 56.1969 53.9966C56.2019 54.0016 56.2069 54.0217 56.2168 54.0469C56.2268 54.0971 56.2417 54.1775 56.2517 54.268V54.273C56.2517 54.2881 56.2567 54.3032 56.2567 54.3182C56.2567 54.3333 56.2617 54.3534 56.2617 54.3735C56.2866 54.7504 56.2716 54.7655 56.0125 54.6549ZM46.7042 54.7353C46.5398 54.263 45.6877 53.7353 45.0997 53.7353C45.0299 53.7353 44.9302 53.7202 44.8854 53.7052C44.8804 53.7052 44.8804 53.7051 44.8754 53.7001C44.7409 53.6549 44.3472 53.6398 44.0183 53.6448C43.7742 53.6499 43.5699 53.67 43.525 53.7001C43.4403 53.7705 43.4254 53.8408 43.5101 53.9564C43.5151 53.9665 43.52 53.9715 43.53 53.9815C43.545 54.0016 43.5649 54.0217 43.5848 54.0418C43.6347 54.0921 43.6994 54.1524 43.7742 54.2127C43.8091 54.2429 43.8439 54.268 43.8838 54.3032C43.9336 54.3434 43.9885 54.3836 44.0433 54.4288C44.4718 54.7504 44.3522 54.9112 43.5898 55.0368C43.4503 55.0569 43.251 55.1022 43.1463 55.1273C43.0367 55.1575 42.8473 55.1876 42.7178 55.1977C42.3839 55.2278 42.2245 55.2781 42.1995 55.3635C42.1597 55.4891 42.2195 55.4992 42.7726 55.469C43.2958 55.4389 43.4353 55.4489 43.4353 55.4992C43.4353 55.5645 43.0467 55.7856 42.8623 55.8258C42.0002 56.0017 41.2129 56.253 40.8442 56.4791C40.6648 56.5846 40.6 56.6098 40.5502 56.5846C40.4455 56.5294 40.291 56.2781 40.2711 56.1273C40.2711 56.1173 40.2661 56.1072 40.2661 56.0972C40.2611 56.0771 40.2562 56.062 40.2512 56.0419C40.2063 55.8861 40.1116 55.8409 40.012 55.8811C40.007 55.8811 40.002 55.8861 39.9921 55.8861C39.8725 55.9464 39.7429 56.1374 39.6931 56.4138C39.6931 56.4188 39.6931 56.4188 39.6931 56.4238C39.6731 56.5193 39.6781 56.6248 39.703 56.7907C39.708 56.8208 39.713 56.851 39.718 56.8811C39.723 56.9012 39.723 56.9213 39.7279 56.9414C39.7429 57.0319 39.7578 57.1022 39.7728 57.1726C39.7728 57.1776 39.7728 57.1826 39.7778 57.1877C39.8027 57.3032 39.8226 57.4088 39.8625 57.5545C39.8675 57.5746 39.8725 57.5997 39.8774 57.6198C39.8824 57.65 39.8924 57.6801 39.8974 57.7103C39.9024 57.7304 39.9073 57.7505 39.9123 57.7706C39.9273 57.8359 39.9472 57.9013 39.9622 57.9716C40.007 58.1475 40.0618 58.439 40.0817 58.6199C40.1964 59.6501 41.3425 60.4993 41.5418 59.7003C41.6414 59.3033 42.653 59.0671 43.3905 59.2681C43.6596 59.3435 44.0781 59.3234 44.2526 59.233C44.4319 59.1375 44.4618 59.042 44.407 58.6852C44.3721 58.439 44.3721 58.3636 44.412 58.2932C44.4718 58.1827 44.9402 57.449 45.1047 57.2178C45.4485 56.7253 44.8057 55.8107 43.9486 55.5796C43.8639 55.5595 43.7991 55.5243 43.7991 55.5042C43.7991 55.3534 45.4485 55.2982 45.8172 55.4338C46.6295 55.7303 46.9633 55.474 46.7042 54.7353ZM43.3955 57.0972C43.3855 57.1173 43.3755 57.1374 43.3656 57.1625C43.3556 57.1877 43.3407 57.2128 43.3257 57.2429C43.226 57.449 43.1364 57.66 43.1214 57.7103C43.0915 57.8359 42.8722 58.0118 42.6978 58.057C42.6181 58.0771 42.4736 58.1324 42.3789 58.1776C42.2793 58.2279 42.1198 58.2832 42.0201 58.3083C41.9205 58.3284 41.756 58.3736 41.6514 58.3988C41.3126 58.4842 41.2278 58.3837 41.0335 57.65C40.9737 57.4289 40.9687 57.3535 40.9986 57.2831L41.0385 57.1927H42.0949L42.5932 57.0168C42.8673 56.9213 43.1413 56.8158 43.1961 56.7856C43.2061 56.7806 43.2161 56.7756 43.2211 56.7706C43.3407 56.7103 43.4303 56.7103 43.4702 56.7706C43.4752 56.7756 43.4802 56.7856 43.4802 56.7957C43.5001 56.8359 43.4702 56.9314 43.3955 57.0972Z" fill="#808080"/>
<path fill-rule="evenodd" clip-rule="evenodd" d="M64.9571 49.0517C64.9272 48.8909 64.8674 48.6397 64.8176 48.504C64.6083 47.8758 64.5684 47.6396 64.5136 46.8155C64.4937 46.519 64.4538 46.0718 64.4189 45.8255C64.2894 44.8054 64.2844 43.2124 64.409 42.6244C64.4488 42.4335 64.4986 42.1671 64.5136 42.0314C64.5385 41.8505 64.6033 41.6646 64.7428 41.3681C65.271 40.2424 65.3059 39.0364 64.8225 38.3328C64.7578 38.2424 64.7528 38.1519 64.7378 37.3429C64.7329 36.8554 64.7079 36.3529 64.683 36.2323C64.6631 36.1066 64.6531 35.981 64.6681 35.9458C64.683 35.9107 64.7079 35.7398 64.7229 35.5639C64.7478 35.3126 64.7727 35.2172 64.8475 35.1116C64.8524 35.1016 64.8624 35.0915 64.8674 35.0815C64.987 34.8855 65.0767 34.5186 65.1116 34.1619C65.1116 34.1568 65.1116 34.1518 65.1116 34.1518C65.1265 33.8704 65.1016 33.5739 65.0368 33.3126C64.9671 33.0714 64.8674 32.8603 64.7378 32.6744C64.7329 32.6693 64.7329 32.6643 64.7279 32.6593C64.4289 32.2774 63.9655 32.011 63.4173 31.8955C63.1233 31.8402 62.7994 31.8301 62.4357 31.8502C62.2862 31.8603 62.0769 31.8904 61.9374 31.9156C61.9174 31.9206 61.9025 31.9256 61.8826 31.9306C61.7181 31.9708 61.4291 31.996 60.9906 32.006L60.3428 32.0211L60.0089 31.9055C59.68 31.7899 59.4558 31.6794 59.2515 31.5236C59.0123 31.3427 58.1054 30.9708 57.9061 30.9708C57.8513 30.9708 57.7117 31.0361 57.5722 31.1366C57.1337 31.4382 57.0988 31.4482 56.6703 31.4281C55.9627 31.3879 55.4843 31.2773 55.1006 31.0562C54.7867 30.8753 54.1389 30.7597 53.2719 30.7346L52.639 30.7145L52.3051 30.8803C51.9314 31.0663 51.772 31.1015 51.0694 31.1567C50.3418 31.217 47.1876 31.2371 46.8886 31.1819C46.6693 31.1417 46.6295 31.1417 46.4052 31.2221C45.9667 31.3678 45.1495 31.3628 44.3422 31.202C44.2027 31.1768 43.9586 31.1366 43.7891 31.1115C43.6247 31.0914 43.3656 31.0412 43.2161 31.006C43.0666 30.9708 42.8125 30.9306 42.643 30.9155C42.4786 30.9005 42.2095 30.8703 42.055 30.8452C41.9006 30.815 41.6614 30.7798 41.5318 30.7547C41.2478 30.7095 39.0303 30.7095 38.7712 30.7597C38.3377 30.8401 37.9291 30.9005 37.6301 30.9356C36.5139 31.0613 35.313 31.7497 34.715 32.609C34.5605 32.8302 34.2566 33.393 34.2566 33.4533C34.2566 33.4784 34.2067 33.6191 34.1519 33.7649C34.0921 33.9156 34.0473 34.1016 34.0473 34.187C34.0473 34.2674 34.0124 34.4734 33.9725 34.6443C33.9127 34.9006 33.8579 35.5137 33.8679 35.8503C33.8679 35.8905 33.8828 36.1569 33.8928 36.4433C33.9227 37.1117 33.9227 41.9611 33.8928 43.3481C33.8779 43.931 33.8579 45.4034 33.843 46.6195C33.828 47.8356 33.8031 48.8507 33.7882 48.8759C33.7134 48.9914 33.5739 50.1221 33.5141 51.0619C33.4942 51.3784 33.4593 51.7051 33.4443 51.7905C33.3995 51.9966 33.3995 54.6097 33.4443 54.7303C33.5141 54.9112 33.534 57.9766 33.4693 58.1827C33.4244 58.3334 33.3646 58.7505 33.3646 58.9566C33.3646 59.0269 33.2699 59.7104 33.2251 59.9666C33.1404 60.4541 33.1802 61.7908 33.2948 62.1476C33.5141 62.8411 33.9825 63.3336 34.5855 63.4894C34.6702 63.5095 34.8346 63.5597 34.9492 63.5999C35.0638 63.6401 35.318 63.6853 35.5223 63.7054C35.7216 63.7256 35.9757 63.7708 36.0853 63.811C36.195 63.8462 36.4192 63.9115 36.5837 63.9567C36.7481 64.0019 36.9823 64.0673 37.1019 64.1024C37.2215 64.1376 37.4607 64.1879 37.6351 64.208C37.8095 64.2281 38.0736 64.2733 38.2131 64.3035C38.4672 64.3587 39.8226 64.4291 40.9538 64.4492C41.0335 64.4492 41.1132 64.4542 41.188 64.4542C41.781 64.4693 42.2942 64.4994 42.7527 64.5497C42.8174 64.5547 42.8822 64.5597 42.947 64.5648C43.2809 64.5949 43.6446 64.6653 43.9885 64.7608C44.3572 64.8562 44.6661 64.9718 44.9402 65.1175C44.9552 65.1276 44.9751 65.1377 44.99 65.1477C45.005 65.1578 45.0249 65.1678 45.0399 65.1728C45.1495 65.2331 45.3987 65.2733 45.8521 65.3035C46.2807 65.3336 46.5946 65.3638 46.6893 65.3939C46.7839 65.4241 47.1527 65.4593 48.0098 65.5246C48.1294 65.5346 49.4449 65.5497 50.9348 65.5598C53.8449 65.5799 54.0492 65.5698 54.4379 65.3939C54.5276 65.3537 54.697 65.2934 54.8166 65.2633C54.9362 65.2331 55.1006 65.1578 55.1853 65.1025C55.3 65.0221 55.3797 64.9969 55.5043 64.9969C55.594 64.9969 55.7036 64.9768 55.7484 64.9517C55.7933 64.9266 55.9328 64.8964 56.0574 64.8814C56.3165 64.8512 56.5208 64.816 57.0191 64.7055C57.2035 64.6653 57.5573 64.605 57.8014 64.5798C58.0456 64.5497 58.4393 64.4944 58.6735 64.4542C58.9077 64.414 59.3661 64.3738 59.69 64.3638C60.0139 64.3537 60.3577 64.3286 60.4574 64.3085C60.6318 64.2733 61.16 64.2231 61.9025 64.1678C62.1068 64.1527 62.3161 64.1225 62.3659 64.1024C62.4157 64.0823 62.5453 64.0522 62.6499 64.0371C63.0187 63.9869 63.0934 63.9316 63.4273 63.4693C63.5419 63.3135 63.7163 63.0773 63.811 62.9466C64.1947 62.4341 64.6332 61.5999 64.7528 61.1576C64.7927 61.0169 64.8475 60.8159 64.8823 60.7104C65.0019 60.3385 64.972 57.5545 64.8425 56.6801C64.8126 56.4741 64.7628 56.067 64.7329 55.7806C64.6182 54.6248 64.6033 54.4941 64.5684 54.3233C64.5485 54.2228 64.5236 53.8911 64.5086 53.5795L64.4887 53.0167L64.678 52.7353C64.8026 52.5544 64.9172 52.3182 65.0069 52.0669L65.1464 51.68V50.7955C65.1464 50.0266 65.1365 49.8759 65.0767 49.6297C65.0468 49.4739 64.987 49.2126 64.9571 49.0517ZM62.635 40.1821C62.336 40.554 62.0619 41.0766 62.0171 41.3731C62.0021 41.4736 61.9523 41.7249 61.9125 41.936C61.8078 42.4485 61.8277 43.7099 61.9523 44.3833C61.9722 44.4938 62.0021 44.7602 62.0171 44.9762C62.032 45.1923 62.0719 45.4788 62.1018 45.6044C62.1317 45.7351 62.1815 46.0567 62.2164 46.323C62.2513 46.5894 62.3011 46.916 62.331 47.0416C62.4506 47.5743 62.4855 47.715 62.5403 47.8708C62.6699 48.2326 62.6798 49.7201 62.5503 50.0216C62.5503 50.0266 62.5453 50.0317 62.5453 50.0367C62.5204 50.102 62.4955 50.2025 62.4706 50.3332C62.4706 50.3382 62.4706 50.3382 62.4706 50.3432C62.4456 50.499 62.4207 50.7302 62.3709 51.1272C62.3061 51.6699 62.2613 52.9765 62.2413 54.5544C62.2413 54.5946 62.2413 54.6348 62.2413 54.67C62.2314 56.3233 62.2363 58.4691 62.2513 59.63C62.2513 59.6551 62.2513 59.6752 62.2513 59.7003C62.2513 59.7958 62.2563 59.8913 62.2563 59.9817L62.2812 61.0672L62.1865 61.2632C62.0869 61.4692 61.8028 61.7607 61.5288 61.9416C61.444 61.9969 61.3195 62.0823 61.2447 62.1275C60.9557 62.3185 60.1734 62.6401 59.7199 62.7557C59.5804 62.7908 59.4359 62.8361 59.391 62.8612C59.3462 62.8863 59.1568 62.9265 58.9725 62.9567C58.7881 62.9868 58.6037 63.022 58.5688 63.0421C58.534 63.0622 58.3695 63.0974 58.2001 63.1175C57.9061 63.1577 57.4576 63.2481 57.049 63.3537C56.9344 63.3838 56.7899 63.4039 56.7301 63.409C56.6653 63.409 56.471 63.4441 56.2916 63.4843C56.1172 63.5245 55.8032 63.5848 55.594 63.62C55.3897 63.6552 55.0757 63.7205 54.8963 63.7607C54.2535 63.9215 54.109 63.9567 53.9147 64.0019C52.0111 64.4542 50.8551 64.3688 49.6891 63.7004C49.2007 63.419 48.3685 63.2029 47.6012 63.1527C46.9484 63.1125 46.7341 63.0019 46.0365 62.3486C45.6329 61.9768 45.4036 61.8813 44.4618 61.7054C44.2127 61.6602 42.8174 61.6099 41.1979 61.5948C40.2213 61.5848 39.9123 61.5697 39.7828 61.5295C39.6333 61.4843 39.5535 61.4843 39.1051 61.5245C36.0804 61.826 35.009 61.1978 35.009 59.1174C35.009 58.7656 35.024 58.3988 35.0439 58.3033C35.1735 57.6651 35.1984 57.5344 35.2183 57.3736C35.2332 57.258 35.3429 56.9917 35.5173 56.6349C36.1003 55.4439 36.2797 53.9263 36.0804 51.9413C36.0554 51.7051 36.0305 51.4036 36.0256 51.2779C36.0206 51.1473 35.9907 50.891 35.9658 50.7C35.9408 50.5141 35.9159 50.2427 35.9109 50.1071C35.886 49.2377 35.7614 48.4789 35.602 48.2427C35.2781 47.7603 35.1735 47.0567 35.3578 46.6245C35.3977 46.5291 35.4326 46.4235 35.4326 46.3884C35.4326 46.3582 35.5621 46.0667 35.7266 45.7451C36.0106 45.1773 36.0206 45.1572 35.9707 45.0416C35.9458 44.9762 35.901 44.8506 35.8711 44.7602C35.8412 44.6697 35.7864 44.5189 35.7465 44.4184C35.5571 43.9611 35.6468 43.2827 35.9508 42.9109C36.3494 42.4184 36.4541 41.946 36.2598 41.5591C36.0505 41.147 36.0355 40.6796 36.2049 39.8605C36.3395 39.2022 36.3744 38.4987 36.2946 37.9258C36.2747 37.775 36.2448 37.5288 36.2249 37.378C36.2049 37.2222 36.18 37.0815 36.1651 37.0614C36.1202 36.9861 36.19 36.8504 36.3993 36.5891C36.6534 36.2775 36.9026 35.785 37.1119 35.1719C37.1916 34.9357 37.2962 34.6694 37.3411 34.579C37.3859 34.4885 37.4358 34.3779 37.4507 34.3277C37.5703 33.9357 38.2829 33.3076 38.6965 33.2322C38.7762 33.2171 38.9356 33.1769 39.0552 33.1367C39.1748 33.0965 39.5585 32.996 39.9123 32.9005C40.2661 32.8101 40.7046 32.6894 40.894 32.6342C41.0784 32.5789 41.3275 32.5085 41.4471 32.4784C41.6664 32.4231 41.8707 32.3578 42.2145 32.2372C42.2444 32.2271 42.2743 32.2171 42.2992 32.207C42.3341 32.197 42.364 32.1869 42.3889 32.1819H42.3939C42.4038 32.1819 42.4138 32.1769 42.4188 32.1769C42.4288 32.1769 42.4387 32.1718 42.4487 32.1718C42.5185 32.1618 42.5783 32.1769 42.663 32.212C42.6779 32.2171 42.6929 32.2271 42.7128 32.2321C42.7826 32.2623 42.8673 32.3025 42.9769 32.3628C42.9869 32.3678 42.9968 32.3729 43.0068 32.3779C43.0267 32.3879 43.0467 32.398 43.0716 32.408C43.226 32.4884 43.8589 32.7045 44.2127 32.8C45.1196 33.0412 46.0714 32.9809 47.1925 32.6141C47.4716 32.5236 47.5065 32.5186 48.9964 32.4834C51.453 32.4231 52.634 32.3829 52.938 32.3427C53.8947 32.2171 54.4728 32.3025 54.7867 32.6141C54.9761 32.805 54.9661 32.8 55.6836 32.8503C56.5258 32.9106 56.6753 32.9156 57.5722 32.9407C58.1303 32.9558 58.4393 32.9759 58.5339 33.0111C58.8628 33.1266 59.5804 33.3176 59.984 33.4081C60.3029 33.4784 60.3478 33.5035 60.4973 33.7448C60.8112 34.2423 61.2049 34.5186 61.9274 34.7398C62.057 34.78 62.1815 34.981 62.2363 35.2473C62.2662 35.383 62.3061 35.5438 62.331 35.6041C62.3559 35.6644 62.3858 35.8152 62.4008 35.9458C62.4157 36.0765 62.4456 36.3026 62.4656 36.4484C62.4855 36.5991 62.5204 36.7649 62.5403 36.8202C62.5602 36.8755 62.5901 37.0464 62.6001 37.1971C62.63 37.5941 62.7546 37.8906 63.0087 38.162C63.4821 38.6896 63.3725 39.2675 62.635 40.1821Z" fill="#808080"/>
<path d="M69.1678 40.0414H69.97C69.98 40.1419 70.0049 40.2424 70.0248 40.3379C70.3338 41.4988 71.1859 42.2626 72.4915 42.4636C73.3685 42.6093 73.9714 42.4536 74.39 42.1219C75.0477 41.6043 75.0029 40.6947 74.3352 40.2625C74.0412 40.0615 73.6027 39.9108 72.043 39.5892C71.749 39.5238 71.45 39.4786 71.156 39.4233C70.9467 39.3881 70.6826 39.2927 70.1893 39.0012C69.377 38.5137 69.0133 37.6494 69.2475 36.7448C69.5415 35.5488 71.0364 34.6443 73.1093 35.1066C73.6774 35.2272 74.0761 35.4182 74.5793 35.8152L74.7338 35.9358L74.8235 36.0011L75.1075 35.1719H75.8401V38.0816H75.0727C75.0527 37.9509 75.0079 37.8152 74.963 37.6946C74.7239 36.976 74.2953 36.4685 73.7571 36.1569C73.4482 35.981 73.1442 35.8805 72.7904 35.8353C72.1775 35.7699 71.7241 35.8152 71.4201 35.9257C71.1361 36.0363 70.9467 36.1468 70.8072 36.2926C70.3487 36.7147 70.4135 37.4534 70.9367 37.8203C71.2307 38.0213 71.739 38.1972 73.9415 38.6394C74.0711 38.6595 74.2056 38.6947 74.3252 38.7399C75.7055 39.2022 76.2786 40.0364 76.144 41.1972C75.9796 42.4938 74.8036 43.3983 72.8303 43.2777C72.5014 43.2576 72.1825 43.2023 71.8736 43.1018C71.0713 42.8606 70.5481 42.5591 70.1395 42.1621L69.9003 43.1018H69.1678V40.0414Z" fill="#808080"/>
<path d="M76.4928 35.9509H80.4942V36.6896H79.7218C79.682 36.6896 79.6421 36.6896 79.6122 36.6896C79.2385 36.7197 79.1787 36.8001 79.1787 37.2574V41.8304C79.1787 42.3179 79.2186 42.3681 79.6122 42.3983C79.6421 42.4083 79.682 42.4083 79.7119 42.4083H80.4942V43.137H76.5028V42.4083H77.2552C77.2851 42.4083 77.325 42.4083 77.3649 42.3983C77.7585 42.3681 77.8183 42.3078 77.8183 41.8304V37.2574C77.8183 36.7599 77.7884 36.7197 77.3549 36.6896C77.325 36.6896 77.2951 36.6896 77.2552 36.6896H76.4928V35.9509Z" fill="#808080"/>
<path d="M81.6852 42.4083C81.9243 42.4083 81.9941 42.3279 82.014 42.0013C82.014 41.941 82.014 41.8907 82.014 41.8304V37.2574C82.014 36.7901 81.9841 36.7298 81.6503 36.6896C81.6303 36.6896 81.6104 36.6896 81.6004 36.6896H80.7035V35.9509H83.4242L87.4904 41.4033V37.1418L87.4804 36.9408C87.4705 36.8102 87.4306 36.7499 87.3608 36.7097C87.321 36.6996 87.2911 36.6896 87.2512 36.6896H86.419V35.9509H89.3889V36.6896H88.5966C88.3076 36.6795 88.2877 36.7097 88.2678 37.1368C88.2578 37.177 88.2578 37.2172 88.2578 37.2574V43.137H87.0818L82.8163 37.4283V41.8304C82.8163 42.3179 82.8661 42.4083 83.1452 42.4083H83.9774V43.137H80.6886V42.4083H81.6852Z" fill="#808080"/>
<path d="M93.6096 35.7498C95.9367 35.7498 97.4415 37.3077 97.4316 39.5439C97.4116 41.7601 95.9167 43.2878 93.6096 43.2878C91.2825 43.2878 89.7776 41.7299 89.7876 39.4937C89.7976 37.2775 91.3024 35.7498 93.6096 35.7498ZM91.8107 41.6344C92.7027 42.941 94.5215 42.941 95.4134 41.6344C95.7971 41.0666 96.0064 40.3882 95.9965 39.4987C95.9865 37.564 94.8952 36.4333 93.6096 36.4333C92.324 36.4333 91.2327 37.5589 91.2227 39.4987C91.2127 40.3831 91.422 41.0616 91.8107 41.6344Z" fill="#808080"/>
<path d="M107.931 35.177H108.753V38.2173H107.921C107.901 38.0866 107.876 37.961 107.831 37.8303C107.492 36.5338 106.6 35.8403 105.409 35.8503C103.949 35.8604 102.888 36.9911 102.878 39.1017C102.878 41.0364 103.845 42.2224 105.17 42.4083C105.938 42.5189 106.64 42.2978 107.014 41.9008C107.253 41.6445 107.353 41.4033 107.353 41.2023V40.5641C107.353 39.966 107.298 39.9208 106.685 39.9208L105.968 39.9108V39.1017L109.994 39.1118V39.9309H109.236C108.908 39.9309 108.818 40.0414 108.818 40.5741V43.142H108.105L107.741 42.3028C107.677 42.3681 107.597 42.4335 107.522 42.4887C106.69 43.1872 105.703 43.4385 104.453 43.2425C102.205 42.8908 100.835 40.8656 101.338 38.2524C101.503 37.3881 101.896 36.6594 102.514 36.0865C103.052 35.589 103.69 35.2574 104.403 35.1116C105.728 34.8453 106.795 35.1569 107.607 35.9308C107.652 35.976 107.697 36.0212 107.737 36.0765L107.931 35.177Z" fill="#808080"/>
<path d="M110.268 42.4083H111.05C111.09 42.4083 111.13 42.4083 111.16 42.3983C111.519 42.3681 111.583 42.2877 111.583 41.8304V37.2624C111.583 36.775 111.534 36.7247 111.15 36.6946C111.12 36.6946 111.09 36.6946 111.06 36.6946H110.278V35.9559H114.299V36.6946H113.542C113.512 36.6946 113.472 36.6946 113.432 36.6946C112.999 36.7247 112.929 36.8051 112.929 37.2624V42.3832H114.274C116.028 42.3933 116.581 41.9259 116.591 40.6445V40.1872H117.334V43.142H110.268V42.4083Z" fill="#808080"/>
<path d="M121.136 35.7498C123.463 35.7498 124.968 37.3077 124.958 39.5439C124.938 41.7601 123.443 43.2878 121.136 43.2878C118.809 43.2878 117.304 41.7299 117.314 39.4937C117.324 37.2775 118.829 35.7498 121.136 35.7498ZM119.332 41.6344C120.224 42.941 122.043 42.941 122.935 41.6344C123.318 41.0666 123.528 40.3882 123.518 39.4987C123.508 37.564 122.417 36.4333 121.131 36.4333C119.845 36.4333 118.754 37.5589 118.744 39.4987C118.739 40.3831 118.948 41.0616 119.332 41.6344Z" fill="#808080"/>
<path d="M125.352 35.9509H129.717C131.834 35.9509 132.707 36.8604 132.398 38.1167C132.278 38.6243 131.944 39.0062 131.326 39.2826L131.177 39.353L131.067 39.3932C131.117 39.4032 131.167 39.4233 131.217 39.4334C132.452 39.7751 133.001 40.5691 132.771 41.5892C132.741 41.74 132.682 41.8907 132.612 42.0264C132.238 42.7249 131.486 43.137 129.991 43.137H125.352V42.4083H126.094C126.134 42.4083 126.174 42.4083 126.204 42.3983C126.607 42.3681 126.677 42.2978 126.677 41.8304V37.2574C126.677 36.78 126.637 36.7197 126.224 36.6896C126.184 36.6896 126.154 36.6896 126.114 36.6896H125.352V35.9509ZM129.737 39.0665C129.836 39.0665 129.926 39.0665 130.026 39.0464C130.678 38.956 131.017 38.6193 131.107 38.0162C131.217 37.2172 130.703 36.6996 129.682 36.6996H128.037V39.0665H129.737ZM129.826 42.3933C130.728 42.3933 131.261 41.9762 131.371 41.353C131.531 40.4535 130.957 39.8354 129.747 39.8354H128.032V42.3933H129.826Z" fill="#808080"/>
<path d="M132.707 42.4083H132.956L133.065 42.3983C133.324 42.3581 133.384 42.2978 133.589 41.8304L136.135 35.9509H137.45L139.937 41.8304C140.106 42.2073 140.206 42.3078 140.44 42.3782C140.52 42.3983 140.56 42.4083 140.58 42.4083H140.809V43.137H137.709V42.4083H138.452C138.651 42.4083 138.691 42.348 138.661 42.1571L138.512 41.8254L138.068 40.7349H134.999L134.535 41.8254C134.495 41.9159 134.456 41.9963 134.426 42.0867C134.336 42.3078 134.406 42.4083 134.615 42.4083H135.367V43.137H132.716V42.4083H132.707ZM137.754 40.0163L136.538 37.0815L135.313 40.0163H137.754Z" fill="#808080"/>
<path d="M140.704 42.4083H141.487C141.527 42.4083 141.566 42.4083 141.596 42.3983C141.955 42.3681 142.02 42.2877 142.02 41.8304V37.2624C142.02 36.775 141.97 36.7247 141.586 36.6946C141.556 36.6946 141.527 36.6946 141.497 36.6946H140.714V35.9559H144.736V36.6946H143.983C143.953 36.6946 143.913 36.6946 143.874 36.6946C143.44 36.7247 143.37 36.8051 143.37 37.2624V42.3832H144.716C146.47 42.3933 147.023 41.9259 147.033 40.6445V40.1872H147.775V43.142H140.709V42.4083H140.704Z" fill="#808080"/>
<path d="M148.134 31.8301H68.1213V33.0111H148.134V31.8301Z" fill="#808080"/>
<path d="M148.134 62.9617H68.1213V64.1426H148.134V62.9617Z" fill="#808080"/>
<path d="M148.134 46.911H68.1213V48.0919H148.134V46.911Z" fill="#808080"/>
<path d="M86.2895 50.3583H87.2263V54.2278H86.1599C86.1599 54.0871 86.145 53.9464 86.1201 53.8057C85.8809 52.293 84.9441 51.3332 83.5289 51.097C81.147 50.69 79.2186 52.7503 79.7218 56.3082C80.0009 58.2028 80.9826 59.3284 82.2981 59.6249C84.1767 60.047 85.7164 59.0169 86.0802 57.1977C86.1101 57.0419 86.135 56.8711 86.135 56.7052H87.2014C87.2163 56.9163 87.2014 57.1424 87.1615 57.3535C86.8526 59.6149 84.9341 61.0521 81.9792 60.7154C80.9427 60.6049 80.0607 60.233 79.3182 59.5998C78.212 58.655 77.5692 57.2279 77.5542 55.4489C77.5393 52.9061 78.8299 51.0317 80.8729 50.293C82.7914 49.6146 84.7796 50.0819 85.9855 51.3533L86.2895 50.3583Z" fill="#808080"/>
<path d="M87.1117 59.5696H87.4306L87.5701 59.5546C87.904 59.5043 87.9787 59.4239 88.2478 58.8209L91.5267 51.2478H93.2209L96.42 58.8209C96.6393 59.3083 96.7638 59.439 97.0728 59.5294C97.1725 59.5546 97.2273 59.5696 97.2522 59.5696H97.5462V60.5094H93.5548V59.5696H94.5115C94.7656 59.5696 94.8155 59.4943 94.7806 59.248L94.5912 58.8259L94.0182 57.4239H90.0666L89.4687 58.8259C89.4188 58.9415 89.369 59.047 89.3291 59.1626C89.2145 59.444 89.3042 59.5747 89.5733 59.5747H90.54V60.5144H87.1217V59.5696H87.1117ZM93.6146 56.4841L92.0449 52.7051L90.4653 56.4841H93.6146Z" fill="#808080"/>
<path d="M97.4166 59.5696H98.3335C98.3833 59.5696 98.4232 59.5696 98.4631 59.5546C99.0361 59.5144 99.1408 59.4139 99.1408 58.8209V52.9363C99.1408 52.3081 99.0909 52.2428 98.5278 52.2026C98.488 52.2026 98.4531 52.2026 98.4132 52.2026H97.4415V51.2528H103.436C103.601 51.2528 103.77 51.2679 103.944 51.2779C105.639 51.4086 106.481 52.0368 106.75 53.1021C107.198 54.876 106.012 56.2932 103.396 56.2932H100.87V58.8259C100.87 59.3636 100.97 59.5093 101.353 59.5445L101.697 59.5596L101.812 59.5747H102.783V60.5144H97.4166V59.5696ZM102.768 55.3886C103.855 55.3886 104.348 55.1977 104.667 54.7956C105.215 54.1273 105.215 53.4087 104.717 52.7755C104.358 52.3534 103.865 52.1574 102.843 52.1574H100.865V55.3886H102.768Z" fill="#808080"/>
<path d="M106.994 51.2478H112.146V52.1976H111.15C111.1 52.1976 111.05 52.1976 111.01 52.1976C110.527 52.2378 110.447 52.3383 110.447 52.9313V58.8209C110.447 59.449 110.497 59.5144 111.01 59.5546C111.05 59.5696 111.1 59.5696 111.14 59.5696H112.146V60.5094H107.009V59.5696H107.976C108.016 59.5696 108.065 59.5696 108.115 59.5546C108.623 59.5144 108.703 59.439 108.703 58.8209V52.9313C108.703 52.288 108.663 52.2378 108.105 52.1976C108.065 52.1976 108.031 52.1976 107.976 52.1976H106.994V51.2478Z" fill="#808080"/>
<path d="M112.401 51.2478H121.953V54.8861H121.061V54.268C121.061 54.1524 121.046 54.0469 121.021 53.9464C120.792 52.6599 120.194 52.2126 118.749 52.2126L118.046 52.2277V59.2229L118.061 59.248C118.101 59.4541 118.241 59.5294 118.774 59.5696C118.814 59.5696 118.849 59.5696 118.903 59.5696H119.875V60.5094H114.394V59.5696H115.366C115.415 59.5696 115.455 59.5696 115.505 59.5546C116.208 59.5144 116.297 59.4239 116.307 58.8209V52.2126H115.535C114.13 52.2277 113.522 52.7152 113.342 53.9464C113.327 54.077 113.318 54.2177 113.318 54.3434V54.9213H112.401V51.2478Z" fill="#808080"/>
<path d="M120.025 59.5696H120.344L120.483 59.5546C120.817 59.5043 120.892 59.4239 121.161 58.8209L124.44 51.2478H126.134L129.333 58.8209C129.552 59.3083 129.677 59.439 129.986 59.5294C130.085 59.5546 130.14 59.5696 130.165 59.5696H130.459V60.5094H126.468V59.5696H127.424C127.679 59.5696 127.728 59.4943 127.694 59.248L127.504 58.8259L126.931 57.4239H122.98L122.382 58.8259C122.332 58.9415 122.282 59.047 122.242 59.1626C122.128 59.444 122.217 59.5747 122.486 59.5747H123.458V60.5144H120.04V59.5696H120.025ZM126.528 56.4841L124.958 52.7051L123.378 56.4841H126.528Z" fill="#808080"/>
<path d="M131.336 59.5696C131.386 59.5696 131.436 59.5696 131.476 59.5546C131.934 59.5144 132.024 59.4139 132.024 58.8209V52.9363C132.024 52.3081 131.959 52.2428 131.461 52.2026C131.421 52.2026 131.386 52.2026 131.346 52.2026H130.34V51.2528H135.517V52.2026H134.545C134.505 52.2026 134.456 52.2026 134.406 52.2026C133.843 52.2428 133.753 52.3433 133.753 52.9363V59.5345H135.487C137.744 59.5495 138.457 58.9415 138.472 57.2982V56.7052H139.429V60.5144H130.325V59.5696H131.336Z" fill="#808080"/>
</svg>
