<svg width="182" height="96" viewBox="0 0 182 96" fill="none" xmlns="http://www.w3.org/2000/svg">
<path d="M20.4565 44.8782C19.9141 44.8782 19.5299 45.0819 19.5299 45.4892C19.5299 46.9375 24.1627 46.1228 24.1627 49.2909C24.1627 51.1012 22.5808 52.0064 20.6147 52.0064C19.1458 52.0064 17.609 51.4633 16.5469 50.6034L17.4282 48.7931C18.3774 49.5625 19.7333 50.1282 20.6599 50.1282C21.3379 50.1282 21.7672 49.8793 21.7672 49.4041C21.7672 47.9105 17.1344 48.8157 17.1344 45.6929C17.1118 44.0409 18.513 43 20.6373 43C21.9254 43 23.2362 43.4073 24.1627 43.9957L23.304 45.8286C22.3548 45.2855 21.1797 44.8782 20.4565 44.8782ZM32.7503 46.1907C32.7503 48.2726 31.4622 49.4719 29.2023 49.4719H27.6204V51.9159H25.3379V43.0905H29.2023C31.4622 43.0905 32.7503 44.222 32.7503 46.1907ZM30.5582 46.2812C30.5582 45.4213 30.0158 44.9461 29.0893 44.9461H27.643V47.6616H29.1119C30.0158 47.639 30.5582 47.1638 30.5582 46.2812ZM39.078 50.3545H35.2814L34.6712 51.9159H32.2983L36.0724 43.0905H38.4452L42.1289 51.9159H39.6882L39.078 50.3545ZM38.4001 48.5894L37.2023 45.4439L35.982 48.5894H38.4001ZM46.8747 44.9914C45.5187 44.9914 44.4792 46.0549 44.4792 47.4806C44.4792 48.9062 45.5187 49.9924 46.8747 49.9924C47.5978 49.9924 48.434 49.5851 49.0668 48.9515L50.4001 50.3997C49.4509 51.3954 48.0498 52.029 46.7391 52.029C44.095 52.029 42.1063 50.0829 42.1063 47.5032C42.1063 44.9687 44.1402 43.0453 46.8069 43.0453C48.1176 43.0453 49.4735 43.6336 50.3549 44.5614L49.0216 46.1681C48.4792 45.4439 47.643 44.9914 46.8747 44.9914ZM58.3323 43.0905V44.9235H53.6769V46.5754H57.8803V48.4084L53.6769 48.431V50.0829H58.4453V51.9159H51.3718V43.0905H58.3323ZM65.225 43.0905L66.8973 49.4719L68.547 43.0905H70.8069L72.4793 49.4719L74.129 43.0905H76.5019L73.6092 51.9159H71.2363L69.6544 45.9644L68.0273 51.9159H65.6544L62.7617 43.0905H65.225ZM79.5753 43.0905V46.6886H83.1234V43.0905H85.4285V51.9159H83.1234V48.5215H79.5753V51.9159H77.2702V43.0905H79.5753ZM92.9991 50.3545H89.2025L88.5923 51.9159H86.2194L89.9934 43.0905H92.3663L96.05 51.9159H93.6093L92.9991 50.3545ZM92.3211 48.5894L91.1234 45.4439L89.903 48.5894H92.3211ZM99.146 43.0905V49.9472H102.875V51.9159H96.8409V43.0905H99.146ZM110.875 43.0905V44.9235H106.219V46.5754H110.423V48.4084L106.219 48.431V50.0829H110.988V51.9159H103.914V43.0905H110.875ZM119.101 46.417C117.813 46.417 116.796 47.4127 116.796 48.6799C116.796 49.9472 117.813 50.9655 119.101 50.9655C119.734 50.9655 120.412 50.6713 120.886 50.1961L121.519 50.9202C120.864 51.5538 119.937 51.9838 119.033 51.9838C117.157 51.9838 115.688 50.5581 115.688 48.7025C115.688 46.8696 117.18 45.4666 119.078 45.4666C119.982 45.4666 120.909 45.8513 121.519 46.4623L120.886 47.2543C120.434 46.7338 119.756 46.417 119.101 46.417ZM128.592 50.4676H125.338L124.728 51.9159H123.598L126.446 45.4666H127.553L130.378 51.9159H129.225L128.592 50.4676ZM128.186 49.4946L126.965 46.6207L125.745 49.4946H128.186ZM138.174 47.6842C138.174 49.1325 137.248 49.9924 135.621 49.9924H134.129V51.9385H133.044V45.4666H135.621C137.248 45.4666 138.174 46.2812 138.174 47.6842ZM137.135 47.7069C137.135 46.8696 136.57 46.4623 135.575 46.4623H134.129V49.0194H135.575C136.57 48.9967 137.135 48.5668 137.135 47.7069ZM142.174 45.4666V51.9159H141.09V45.4666H142.174ZM150.107 45.4666V46.4396H148.073V51.9159H146.988V46.4396H144.954V45.4666H150.107ZM156.412 50.4676H153.157L152.547 51.9159H151.417L154.265 45.4666H155.372L158.197 51.9159H157.044L156.412 50.4676ZM155.982 49.4946L154.762 46.6207L153.542 49.4946H155.982ZM161.971 45.4666V50.9202H164.751V51.9159H160.886V45.4666H161.971Z" fill="#808080"/>
</svg>
