<svg width="182" height="96" viewBox="0 0 182 96" fill="none" xmlns="http://www.w3.org/2000/svg">
<path d="M34.3778 41.5291L28.488 54.6386H26.5887L20.6797 41.5291H22.7517L27.5863 52.2976L32.4593 41.5291H34.3778Z" fill="#808080"/>
<path d="M42.0988 54.7884C40.7431 54.7884 39.5216 54.5012 38.4345 53.9269C37.3473 53.3401 36.4904 52.5348 35.8637 51.511C35.2498 50.4872 34.9428 49.3449 34.9428 48.0839C34.9428 46.8228 35.2498 45.6805 35.8637 44.6567C36.4904 43.6329 37.3473 42.8338 38.4345 42.2595C39.5216 41.6727 40.7431 41.3793 42.0988 41.3793C43.4418 41.3793 44.6568 41.6727 45.744 42.2595C46.8311 42.8338 47.6817 43.6329 48.2956 44.6567C48.9095 45.668 49.2165 46.8104 49.2165 48.0839C49.2165 49.3573 48.9095 50.506 48.2956 51.5298C47.6817 52.5411 46.8311 53.3401 45.744 53.9269C44.6568 54.5012 43.4418 54.7884 42.0988 54.7884ZM42.0988 53.1216C43.0837 53.1216 43.9662 52.9031 44.7464 52.4661C45.5393 52.0292 46.1596 51.4299 46.6073 50.6683C47.0677 49.8942 47.298 49.0327 47.298 48.0839C47.298 47.135 47.0677 46.2797 46.6073 45.5181C46.1596 44.7441 45.5393 44.1385 44.7464 43.7016C43.9662 43.2646 43.0837 43.0461 42.0988 43.0461C41.114 43.0461 40.2187 43.2646 39.4129 43.7016C38.6199 44.1385 37.9932 44.7441 37.5328 45.5181C37.0851 46.2797 36.8613 47.135 36.8613 48.0839C36.8613 49.0327 37.0851 49.8942 37.5328 50.6683C37.9932 51.4299 38.6199 52.0292 39.4129 52.4661C40.2187 52.9031 41.114 53.1216 42.0988 53.1216Z" fill="#808080"/>
<path d="M52.2447 41.5291H54.1632V53.0092H61.4343V54.6386H52.2447V41.5291Z" fill="#808080"/>
<path d="M65.1431 43.1585H60.5387V41.5291H71.6469V43.1585H67.0425V54.6386H65.1431V43.1585Z" fill="#808080"/>
<path d="M85.0853 54.7884C83.7424 54.7884 82.5273 54.5012 81.4402 53.9269C80.3658 53.3401 79.5217 52.5411 78.9078 51.5298C78.2939 50.506 77.9869 49.3573 77.9869 48.0839C77.9869 46.8104 78.2939 45.668 78.9078 44.6567C79.5217 43.6329 80.3722 42.8338 81.4594 42.2595C82.5465 41.6727 83.7616 41.3793 85.1045 41.3793C86.1533 41.3793 87.1125 41.5541 87.9823 41.9037C88.852 42.2408 89.5938 42.7464 90.2077 43.4206L88.9607 44.6005C87.9503 43.5642 86.6905 43.0461 85.1813 43.0461C84.1836 43.0461 83.282 43.2646 82.4762 43.7016C81.6704 44.1385 81.0373 44.7441 80.5769 45.5181C80.1292 46.2797 79.9054 47.135 79.9054 48.0839C79.9054 49.0327 80.1292 49.8942 80.5769 50.6683C81.0373 51.4299 81.6704 52.0292 82.4762 52.4661C83.282 52.9031 84.1836 53.1216 85.1813 53.1216C86.6777 53.1216 87.9375 52.5972 88.9607 51.5485L90.2077 52.7283C89.5938 53.4025 88.8456 53.9144 87.9631 54.264C87.0934 54.6136 86.1341 54.7884 85.0853 54.7884Z" fill="#808080"/>
<path d="M101.279 51.3612H94.1417L92.6645 54.6386H90.6884L96.77 41.5291H98.6694L104.77 54.6386H102.756L101.279 51.3612ZM100.607 49.863L97.7101 43.4394L94.8132 49.863H100.607Z" fill="#808080"/>
<path d="M112.107 41.5291C113.846 41.5291 115.215 41.9349 116.213 42.7464C117.21 43.558 117.709 44.6754 117.709 46.0987C117.709 47.522 117.21 48.6394 116.213 49.451C115.215 50.2625 113.846 50.6683 112.107 50.6683H108.788V54.6386H106.869V41.5291H112.107ZM112.049 49.039C113.264 49.039 114.192 48.7893 114.831 48.2899C115.471 47.778 115.79 47.0476 115.79 46.0987C115.79 45.1498 115.471 44.4257 114.831 43.9263C114.192 43.4144 113.264 43.1585 112.049 43.1585H108.788V49.039H112.049Z" fill="#808080"/>
<path d="M120.623 41.5291H122.542V54.6386H120.623V41.5291Z" fill="#808080"/>
<path d="M129.325 43.1585H124.721V41.5291H135.829V43.1585H131.224V54.6386H129.325V43.1585Z" fill="#808080"/>
<path d="M145.896 51.3612H138.76L137.282 54.6386H135.306L141.388 41.5291H143.287L149.388 54.6386H147.374L145.896 51.3612ZM145.225 49.863L142.328 43.4394L139.431 49.863H145.225Z" fill="#808080"/>
<path d="M151.487 41.5291H153.406V53.0092H160.677V54.6386H151.487V41.5291Z" fill="#808080"/>
</svg>
